<svg width="40" height="40" viewBox="0 0 40 40" fill="none" xmlns="http://www.w3.org/2000/svg">
<path fill-rule="evenodd" clip-rule="evenodd" d="M29.61 0.109409L29.5085 0.218818H24.2709H19.0333L18.9239 0.328228L18.8144 0.437637H15.2312H11.6479L11.5132 0.572319C11.3786 0.706893 11.3786 0.707002 11.3786 1.20689V1.70678H11.5943C11.7848 1.70678 11.8117 1.71838 11.8241 1.80525C11.8364 1.89245 11.8668 1.90525 12.0882 1.91685C12.2928 1.92746 12.3537 1.94945 12.4228 2.0372C12.4905 2.1233 12.5469 2.14442 12.7088 2.14442C12.8945 2.14442 12.9103 2.15295 12.9103 2.25383C12.9103 2.35591 12.9248 2.36324 13.1291 2.36324C13.3334 2.36324 13.3479 2.37057 13.3479 2.47265C13.3479 2.57473 13.3625 2.58206 13.5667 2.58206C13.6871 2.58206 13.7856 2.60033 13.7856 2.62265C13.7856 2.73457 13.9334 2.80088 14.1826 2.80088C14.4301 2.80088 14.442 2.80591 14.442 2.91028C14.442 3.01236 14.4566 3.01969 14.6608 3.01969C14.8651 3.01969 14.8797 3.02702 14.8797 3.1291C14.8797 3.23096 14.8944 3.23851 15.0954 3.23851C15.2859 3.23851 15.3128 3.25011 15.3252 3.33698C15.3375 3.42418 15.3679 3.43698 15.5893 3.44858C15.7939 3.45919 15.8548 3.48118 15.9239 3.56893C15.9916 3.65503 16.048 3.67615 16.2098 3.67615C16.3956 3.67615 16.4114 3.68468 16.4114 3.78556C16.4114 3.88764 16.4259 3.89497 16.6302 3.89497C16.8345 3.89497 16.849 3.9023 16.849 4.00438C16.849 4.10646 16.8636 4.11379 17.0678 4.11379C17.1882 4.11379 17.2867 4.13206 17.2867 4.15438C17.2867 4.2663 17.4345 4.3326 17.6837 4.3326C17.9312 4.3326 17.9431 4.33764 17.9431 4.44201C17.9431 4.54409 17.9577 4.55142 18.1619 4.55142C18.3662 4.55142 18.3807 4.55875 18.3807 4.66083C18.3807 4.76521 18.3927 4.77024 18.6402 4.77024C18.8648 4.77024 18.9112 4.7849 18.9857 4.87965L19.0717 4.98906H20.0173H20.9628V4.87965C20.9628 4.77265 20.9701 4.77024 21.291 4.77024C21.6119 4.77024 21.6193 4.76783 21.6193 4.66083C21.6193 4.55383 21.6266 4.55142 21.9475 4.55142C22.2684 4.55142 22.2757 4.54902 22.2757 4.44201C22.2757 4.33501 22.283 4.3326 22.6039 4.3326C22.9248 4.3326 22.9322 4.3302 22.9322 4.22319C22.9322 4.11619 22.9395 4.11379 23.2604 4.11379C23.5813 4.11379 23.5886 4.11138 23.5886 4.00438C23.5886 3.89792 23.597 3.89497 23.8996 3.89497C24.1792 3.89497 24.2193 3.88392 24.2966 3.78556C24.3735 3.68786 24.4149 3.67615 24.6827 3.67615C24.9712 3.67615 25.1204 3.61608 25.1204 3.49989C25.1204 3.47856 25.2631 3.45536 25.4376 3.44836C25.7269 3.43654 25.7561 3.42691 25.7687 3.33884C25.7812 3.25088 25.8105 3.24114 26.0969 3.22943C26.3851 3.21772 26.4126 3.20842 26.4254 3.11816C26.4384 3.02615 26.4606 3.01969 26.7646 3.01969C27.0822 3.01969 27.0897 3.01718 27.0897 2.91028C27.0897 2.80328 27.097 2.80088 27.4179 2.80088C27.7388 2.80088 27.7462 2.79847 27.7462 2.69147C27.7462 2.58446 27.7535 2.58206 28.0744 2.58206C28.3953 2.58206 28.4026 2.57965 28.4026 2.47265C28.4026 2.36565 28.41 2.36324 28.7309 2.36324C29.0517 2.36324 29.0591 2.36083 29.0591 2.25383C29.0591 2.14683 29.0664 2.14442 29.3873 2.14442C29.7082 2.14442 29.7155 2.14201 29.7155 2.03501C29.7155 1.92801 29.7226 1.9256 30.0457 1.9256C30.3396 1.9256 30.388 1.91357 30.4853 1.81619C30.5772 1.72429 30.636 1.70678 30.8523 1.70678C31.0979 1.70678 31.2473 1.64015 31.2473 1.53053C31.2473 1.50919 31.39 1.486 31.5646 1.47899C31.8557 1.46718 31.883 1.45799 31.8958 1.36761C31.9059 1.29639 31.9392 1.26915 32.0162 1.26915H32.1225V0.743982V0.218818H32.0131C31.953 0.218818 31.9037 0.200547 31.9037 0.178228C31.9037 0.0179431 31.7865 0 30.7387 0H29.7114L29.61 0.109409ZM38.4553 0.548468C38.3869 0.642341 38.3428 0.656455 38.1161 0.656455C37.8674 0.656455 37.8556 0.661379 37.8556 0.765864C37.8556 0.872867 37.8483 0.875274 37.5274 0.875274C37.2065 0.875274 37.1991 0.877681 37.1991 0.984683C37.1991 1.09168 37.1918 1.09409 36.8709 1.09409C36.55 1.09409 36.5427 1.0965 36.5427 1.2035C36.5427 1.3105 36.5353 1.31291 36.2144 1.31291C35.8935 1.31291 35.8862 1.31532 35.8862 1.42232C35.8862 1.52932 35.8789 1.53173 35.558 1.53173C35.2371 1.53173 35.2298 1.53414 35.2298 1.64114C35.2298 1.74814 35.2224 1.75055 34.9015 1.75055C34.5822 1.75055 34.5733 1.7535 34.5733 1.85799C34.5733 1.96116 34.5603 1.96608 34.256 1.97834C33.9668 1.99015 33.9375 1.99978 33.9249 2.08775C33.9126 2.17473 33.8824 2.18556 33.6186 2.19716C33.3636 2.20842 33.3205 2.22276 33.2828 2.30853C33.2453 2.39409 33.2069 2.407 32.9906 2.407C32.7519 2.407 32.6039 2.47516 32.6039 2.58523C32.6039 2.60755 32.5132 2.62582 32.4024 2.62582C32.2395 2.62582 32.1842 2.64683 32.1148 2.73523C32.0403 2.82998 31.9939 2.84464 31.7693 2.84464C31.5218 2.84464 31.5098 2.84967 31.5098 2.95405C31.5098 3.06105 31.5025 3.06346 31.1816 3.06346C30.8607 3.06346 30.8534 3.06586 30.8534 3.17287C30.8534 3.27987 30.8461 3.28228 30.5252 3.28228C30.2043 3.28228 30.1969 3.28468 30.1969 3.39169C30.1969 3.49869 30.1896 3.50109 29.8687 3.50109C29.5478 3.50109 29.5405 3.5035 29.5405 3.6105C29.5405 3.71751 29.5332 3.71991 29.2123 3.71991C28.8914 3.71991 28.884 3.72232 28.884 3.82932C28.884 3.93632 28.8767 3.93873 28.5558 3.93873C28.2364 3.93873 28.2276 3.94169 28.2276 4.04617C28.2276 4.14934 28.2146 4.15427 27.9103 4.16652C27.621 4.17834 27.5918 4.18797 27.5792 4.27604C27.5667 4.364 27.5374 4.37374 27.251 4.38545C26.9628 4.39716 26.9353 4.40646 26.9225 4.49672C26.9098 4.586 26.8848 4.59519 26.6522 4.59519C26.406 4.59519 26.2582 4.66204 26.2582 4.77341C26.2582 4.79573 26.1589 4.814 26.0374 4.814C25.8602 4.814 25.795 4.83567 25.7072 4.92341C25.6199 5.01072 25.5538 5.03282 25.381 5.03282C25.1789 5.03282 25.1641 5.04026 25.1641 5.14223C25.1641 5.24923 25.1568 5.25164 24.8359 5.25164C24.515 5.25164 24.5077 5.25405 24.5077 5.36105C24.5077 5.46805 24.5003 5.47046 24.1794 5.47046C23.8585 5.47046 23.8512 5.47287 23.8512 5.57987C23.8512 5.68687 23.8439 5.68928 23.523 5.68928C23.2021 5.68928 23.1948 5.69168 23.1948 5.79869C23.1948 5.90569 23.1874 5.9081 22.8665 5.9081C22.5456 5.9081 22.5383 5.9105 22.5383 6.01751C22.5383 6.12451 22.531 6.12691 22.2101 6.12691C21.8907 6.12691 21.8818 6.12987 21.8818 6.23435C21.8818 6.33753 21.8688 6.34245 21.5646 6.3547C21.2753 6.36652 21.2461 6.37615 21.2335 6.46422C21.221 6.55219 21.1917 6.56193 20.9053 6.57363C20.619 6.58534 20.5896 6.59508 20.577 6.68293C20.5647 6.76991 20.5345 6.78074 20.2707 6.79234C20.0156 6.80361 19.9725 6.81794 19.9349 6.90372C19.8987 6.98622 19.8576 7.00219 19.6813 7.00219C19.5152 7.00219 19.4478 7.02527 19.3615 7.1116C19.2742 7.19891 19.2081 7.22101 19.0352 7.22101C18.8332 7.22101 18.8184 7.22845 18.8184 7.33042C18.8184 7.43742 18.8111 7.43983 18.4902 7.43983C18.1693 7.43983 18.1619 7.44223 18.1619 7.54923C18.1619 7.65624 18.1546 7.65864 17.8337 7.65864C17.5128 7.65864 17.5055 7.66105 17.5055 7.76805C17.5055 7.87506 17.4981 7.87746 17.1772 7.87746C16.8563 7.87746 16.849 7.87987 16.849 7.98687C16.849 8.09387 16.8417 8.09628 16.5208 8.09628C16.1999 8.09628 16.1926 8.09869 16.1926 8.20569C16.1926 8.31269 16.1852 8.3151 15.8643 8.3151C15.5434 8.3151 15.5361 8.31751 15.5361 8.42451C15.5361 8.53151 15.5288 8.53392 15.2079 8.53392C14.8885 8.53392 14.8797 8.53687 14.8797 8.64136C14.8797 8.74453 14.8666 8.74945 14.5624 8.76171C14.2732 8.77352 14.2439 8.78315 14.2313 8.87112C14.2189 8.9581 14.1887 8.96893 13.9249 8.98053C13.6699 8.9918 13.6268 9.00613 13.5892 9.09191C13.553 9.1744 13.5118 9.19037 13.3356 9.19037C13.1695 9.19037 13.1021 9.21346 13.0158 9.29978C12.931 9.38446 12.8613 9.40919 12.7067 9.40919C12.546 9.40919 12.4904 9.43042 12.4211 9.5186C12.3466 9.61335 12.3002 9.62801 12.0756 9.62801C11.8281 9.62801 11.8162 9.63304 11.8162 9.73742C11.8162 9.84442 11.8089 9.84683 11.488 9.84683C11.1671 9.84683 11.1597 9.84923 11.1597 9.95624C11.1597 10.0632 11.1524 10.0656 10.8315 10.0656C10.5106 10.0656 10.5033 10.0681 10.5033 10.1751C10.5033 10.2821 10.496 10.2845 10.1751 10.2845C9.85416 10.2845 9.84683 10.2869 9.84683 10.3939C9.84683 10.5009 9.8395 10.5033 9.5186 10.5033C9.1977 10.5033 9.19037 10.5057 9.19037 10.6127C9.19037 10.715 9.17593 10.7221 8.96958 10.7221C8.71444 10.7221 8.53392 10.8572 8.53392 11.0484C8.53392 11.1384 8.51269 11.1597 8.42287 11.1597H8.31182L8.3244 11.5646C8.33633 11.9466 8.34256 11.9701 8.43545 11.9834C8.50689 11.9935 8.53392 12.0267 8.53392 12.1042V12.2111L10.3611 12.1996L12.1882 12.1882L12.2022 12.0897L12.2162 11.9912H13.6355H15.0547V11.8818V11.7724H15.8425H16.6302V12.1225C16.6302 12.4669 16.6283 12.4726 16.5208 12.4726C16.4187 12.4726 16.4114 12.4872 16.4114 12.6915C16.4114 12.8957 16.404 12.9103 16.302 12.9103C16.1976 12.9103 16.1926 12.9222 16.1926 13.1697C16.1926 13.3956 16.1781 13.4404 16.0809 13.517C15.9272 13.6377 15.9351 14.0872 16.0921 14.1561C16.1677 14.1893 16.1914 14.2414 16.2015 14.3968L16.2144 14.5952L16.4223 14.6085C16.61 14.6206 16.6302 14.6323 16.6302 14.7289C16.6302 14.8349 16.6341 14.8359 17.046 14.8359C17.4603 14.8359 17.4617 14.8355 17.4617 14.7265C17.4617 14.6244 17.4763 14.6171 17.6805 14.6171C17.8848 14.6171 17.8993 14.6097 17.8993 14.5077C17.8993 14.4056 17.9139 14.3983 18.1182 14.3983C18.3224 14.3983 18.337 14.3909 18.337 14.2888C18.337 14.1868 18.3515 14.1794 18.5558 14.1794C18.7601 14.1794 18.7746 14.1721 18.7746 14.07C18.7746 13.9679 18.7892 13.9606 18.9934 13.9606C19.1977 13.9606 19.2123 13.9533 19.2123 13.8512C19.2123 13.7491 19.2268 13.7418 19.4311 13.7418C19.6353 13.7418 19.6499 13.7345 19.6499 13.6324C19.6499 13.5303 19.6644 13.523 19.8687 13.523C20.073 13.523 20.0875 13.5156 20.0875 13.4136C20.0875 13.3115 20.1021 13.3042 20.3063 13.3042C20.5106 13.3042 20.5252 13.2968 20.5252 13.1947C20.5252 13.0927 20.5397 13.0853 20.744 13.0853C20.9483 13.0853 20.9628 13.078 20.9628 12.9759C20.9628 12.8739 20.9774 12.8665 21.1816 12.8665C21.3859 12.8665 21.4004 12.8592 21.4004 12.7571C21.4004 12.655 21.415 12.6477 21.6193 12.6477C21.8235 12.6477 21.8381 12.6404 21.8381 12.5383C21.8381 12.4362 21.8526 12.4289 22.0569 12.4289C22.2612 12.4289 22.2757 12.4216 22.2757 12.3195C22.2757 12.2174 22.2903 12.2101 22.4945 12.2101C22.6988 12.2101 22.7134 12.2027 22.7134 12.1007C22.7134 11.9986 22.7279 11.9912 22.9322 11.9912C23.1364 11.9912 23.151 11.9839 23.151 11.8818C23.151 11.7798 23.1655 11.7724 23.3698 11.7724C23.5741 11.7724 23.5886 11.7651 23.5886 11.663C23.5886 11.5609 23.6032 11.5536 23.8074 11.5536C24.0117 11.5536 24.0263 11.5463 24.0263 11.4442C24.0263 11.3421 24.0408 11.3348 24.2451 11.3348C24.4493 11.3348 24.4639 11.3275 24.4639 11.2254C24.4639 11.1233 24.4784 11.116 24.6827 11.116C24.887 11.116 24.9015 11.1086 24.9015 11.0066C24.9015 10.9045 24.9161 10.8972 25.1204 10.8972C25.3246 10.8972 25.3392 10.8898 25.3392 10.7877C25.3392 10.6857 25.3537 10.6783 25.558 10.6783C25.7623 10.6783 25.7768 10.671 25.7768 10.5689C25.7768 10.4669 25.7914 10.4595 25.9956 10.4595C26.1999 10.4595 26.2144 10.4522 26.2144 10.3501C26.2144 10.248 26.229 10.2407 26.4333 10.2407C26.6375 10.2407 26.6521 10.2334 26.6521 10.1313C26.6521 10.0292 26.6666 10.0219 26.8709 10.0219C27.0752 10.0219 27.0897 10.0146 27.0897 9.91247C27.0897 9.8104 27.1043 9.80306 27.3085 9.80306C27.5128 9.80306 27.5274 9.79573 27.5274 9.69366C27.5274 9.59158 27.5419 9.58425 27.7462 9.58425C27.9504 9.58425 27.965 9.57692 27.965 9.47484C27.965 9.37276 27.9795 9.36543 28.1838 9.36543C28.3881 9.36543 28.4026 9.3581 28.4026 9.25602C28.4026 9.15394 28.4172 9.14661 28.6214 9.14661C28.8257 9.14661 28.8403 9.13928 28.8403 9.0372C28.8403 8.93512 28.8548 8.92779 29.0591 8.92779C29.2633 8.92779 29.2779 8.92046 29.2779 8.81838C29.2779 8.7163 29.2925 8.70897 29.4967 8.70897C29.701 8.70897 29.7155 8.70164 29.7155 8.59956C29.7155 8.49748 29.7301 8.49015 29.9344 8.49015C30.1386 8.49015 30.1532 8.48282 30.1532 8.38075C30.1532 8.27867 30.1677 8.27134 30.372 8.27134C30.5763 8.27134 30.5908 8.26401 30.5908 8.16193C30.5908 8.05985 30.6054 8.05252 30.8096 8.05252C31.0139 8.05252 31.0284 8.04519 31.0284 7.94311C31.0284 7.84103 31.043 7.8337 31.2473 7.8337C31.4515 7.8337 31.4661 7.82637 31.4661 7.72429C31.4661 7.62221 31.4806 7.61488 31.6849 7.61488C31.8892 7.61488 31.9037 7.60755 31.9037 7.50547C31.9037 7.40339 31.9183 7.39606 32.1225 7.39606C32.3268 7.39606 32.3414 7.38873 32.3414 7.28665C32.3414 7.18457 32.3559 7.17724 32.5602 7.17724C32.7644 7.17724 32.779 7.16991 32.779 7.06783C32.779 6.97549 32.7995 6.95843 32.9103 6.95843C33.027 6.95843 33.0416 6.97298 33.0416 7.08972C33.0416 7.20055 33.0245 7.22101 32.9322 7.22101C32.8301 7.22101 32.8228 7.23556 32.8228 7.43983C32.8228 7.64409 32.8154 7.65864 32.7134 7.65864C32.6113 7.65864 32.6039 7.6732 32.6039 7.87746C32.6039 8.08173 32.5966 8.09628 32.4945 8.09628C32.3925 8.09628 32.3851 8.11083 32.3851 8.3151C32.3851 8.51937 32.3778 8.53392 32.2757 8.53392C32.1736 8.53392 32.1663 8.54847 32.1663 8.75274C32.1663 8.957 32.159 8.97155 32.0569 8.97155C31.9548 8.97155 31.9475 8.98611 31.9475 9.19037C31.9475 9.39464 31.9402 9.40919 31.8381 9.40919C31.736 9.40919 31.7287 9.42374 31.7287 9.62801C31.7287 9.83228 31.7213 9.84683 31.6193 9.84683C31.5172 9.84683 31.5098 9.86138 31.5098 10.0656C31.5098 10.2699 31.5025 10.2845 31.4004 10.2845C31.2984 10.2845 31.291 10.299 31.291 10.5033C31.291 10.7075 31.2837 10.7221 31.1816 10.7221C31.0795 10.7221 31.0722 10.7367 31.0722 10.9409C31.0722 11.1452 31.0649 11.1597 30.9628 11.1597C30.8607 11.1597 30.8534 11.1743 30.8534 11.3786C30.8534 11.5828 30.8461 11.5974 30.744 11.5974C30.6419 11.5974 30.6346 11.6119 30.6346 11.8162C30.6346 12.0205 30.6272 12.035 30.5252 12.035C30.4231 12.035 30.4158 12.0496 30.4158 12.2538C30.4158 12.4581 30.4084 12.4726 30.3063 12.4726C30.2043 12.4726 30.1969 12.4872 30.1969 12.6915C30.1969 12.8957 30.1896 12.9103 30.0875 12.9103C29.9855 12.9103 29.9781 12.9248 29.9781 13.1291C29.9781 13.3334 29.9708 13.3479 29.8687 13.3479C29.7666 13.3479 29.7593 13.3625 29.7593 13.5667C29.7593 13.771 29.752 13.7856 29.6499 13.7856C29.5478 13.7856 29.5405 13.8001 29.5405 14.0044C29.5405 14.2086 29.5332 14.2232 29.4311 14.2232C29.329 14.2232 29.3217 14.2377 29.3217 14.442C29.3217 14.6463 29.3143 14.6608 29.2123 14.6608C29.1102 14.6608 29.1028 14.6754 29.1028 14.8797C29.1028 15.0839 29.0955 15.0985 28.9934 15.0985C28.8914 15.0985 28.884 15.113 28.884 15.3173C28.884 15.5216 28.8767 15.5361 28.7746 15.5361C28.6725 15.5361 28.6652 15.5507 28.6652 15.7549C28.6652 15.9592 28.6579 15.9737 28.5558 15.9737C28.4537 15.9737 28.4464 15.9883 28.4464 16.1926C28.4464 16.3968 28.4391 16.4114 28.337 16.4114C28.2349 16.4114 28.2276 16.4259 28.2276 16.6302C28.2276 16.8345 28.2202 16.849 28.1182 16.849C28.0161 16.849 28.0088 16.8636 28.0088 17.0678C28.0088 17.2721 28.0014 17.2867 27.8993 17.2867C27.7973 17.2867 27.7899 17.3012 27.7899 17.5055C27.7899 17.7097 27.7826 17.7243 27.6805 17.7243C27.5785 17.7243 27.5711 17.7388 27.5711 17.9431C27.5711 18.1474 27.5638 18.1619 27.4617 18.1619C27.3596 18.1619 27.3523 18.1765 27.3523 18.3807C27.3523 18.585 27.345 18.5996 27.2429 18.5996C27.1408 18.5996 27.1335 18.6141 27.1335 18.8184C27.1335 19.0226 27.1262 19.0372 27.0241 19.0372C26.922 19.0372 26.9147 19.0518 26.9147 19.256C26.9147 19.4603 26.9073 19.4748 26.8053 19.4748C26.7032 19.4748 26.6958 19.4894 26.6958 19.6937C26.6958 19.8979 26.6885 19.9125 26.5864 19.9125C26.4844 19.9125 26.477 19.927 26.477 20.1313C26.477 20.3356 26.4697 20.3501 26.3676 20.3501C26.2655 20.3501 26.2582 20.3647 26.2582 20.5689C26.2582 20.7732 26.2509 20.7877 26.1488 20.7877C26.0467 20.7877 26.0394 20.8023 26.0394 21.0066C26.0394 21.2108 26.0321 21.2254 25.93 21.2254C25.8279 21.2254 25.8206 21.2399 25.8206 21.4442C25.8206 21.6485 25.8132 21.663 25.7112 21.663C25.6091 21.663 25.6018 21.6776 25.6018 21.8818C25.6018 22.0861 25.5944 22.1007 25.4923 22.1007C25.3903 22.1007 25.3829 22.1152 25.3829 22.3195C25.3829 22.5237 25.3756 22.5383 25.2735 22.5383C25.1646 22.5383 25.1641 22.5397 25.1641 22.9541C25.1641 23.3659 25.1651 23.3698 25.2711 23.3698C25.3677 23.3698 25.3794 23.39 25.3915 23.5777L25.4048 23.7856L25.6127 23.7989C25.727 23.8062 25.8206 23.8294 25.8206 23.8504C25.8206 23.9561 25.9704 24.0263 26.1957 24.0263C26.4188 24.0263 26.4333 24.0197 26.4333 23.9188C26.4333 23.8156 26.4463 23.8107 26.7506 23.7985C27.0417 23.7867 27.069 23.7775 27.0818 23.6871C27.0942 23.6002 27.1211 23.5886 27.3116 23.5886C27.5126 23.5886 27.5274 23.5811 27.5274 23.4792C27.5274 23.3717 27.5332 23.3698 27.8775 23.3698H28.2276V24.0462C28.2276 24.7092 28.2254 24.7246 28.1182 24.8319L28.0088 24.9414V26.3626V27.7838L27.9103 27.7978L27.8118 27.8118L27.8004 29.639L27.789 31.4661H27.8958C27.9733 31.4661 28.0065 31.4931 28.0166 31.5646C28.0299 31.6574 28.0534 31.6637 28.4354 31.6756L28.8403 31.6882V31.5771C28.8403 31.4967 28.8635 31.4661 28.9244 31.4661C29.0882 31.4661 29.2779 31.2177 29.2779 31.0032C29.2779 30.8259 29.2871 30.8096 29.3873 30.8096C29.4943 30.8096 29.4967 30.8023 29.4967 30.4814C29.4967 30.1605 29.4991 30.1532 29.6061 30.1532C29.7131 30.1532 29.7155 30.1458 29.7155 29.8249C29.7155 29.504 29.7179 29.4967 29.8249 29.4967C29.9319 29.4967 29.9344 29.4894 29.9344 29.1685C29.9344 28.8476 29.9368 28.8403 30.0438 28.8403C30.1508 28.8403 30.1532 28.8329 30.1532 28.512C30.1532 28.1911 30.1556 28.1838 30.2626 28.1838C30.3696 28.1838 30.372 28.1765 30.372 27.8556C30.372 27.5347 30.3744 27.5274 30.4814 27.5274C30.5834 27.5274 30.5908 27.5126 30.5908 27.3105C30.5908 27.1376 30.6129 27.0716 30.7002 26.9842C30.788 26.8965 30.8096 26.8313 30.8096 26.654C30.8096 26.5326 30.8279 26.4333 30.8502 26.4333C30.9616 26.4333 31.0284 26.2855 31.0284 26.0393C31.0284 25.8067 31.0376 25.7816 31.1269 25.7689C31.2172 25.7561 31.2265 25.7287 31.2382 25.4405C31.2499 25.1541 31.2596 25.1247 31.3476 25.1123C31.4357 25.0997 31.4453 25.0705 31.4571 24.7812C31.4694 24.4769 31.4743 24.4639 31.5775 24.4639C31.6819 24.4639 31.6849 24.455 31.6849 24.1357C31.6849 23.8148 31.6873 23.8074 31.7943 23.8074C31.9013 23.8074 31.9037 23.8001 31.9037 23.4792C31.9037 23.1583 31.9061 23.151 32.0131 23.151C32.1201 23.151 32.1225 23.1437 32.1225 22.8228C32.1225 22.5019 32.1249 22.4945 32.2319 22.4945C32.3389 22.4945 32.3414 22.4872 32.3414 22.1663C32.3414 21.8454 32.3438 21.8381 32.4508 21.8381C32.5578 21.8381 32.5602 21.8307 32.5602 21.5098C32.5602 21.189 32.5626 21.1816 32.6696 21.1816C32.7716 21.1816 32.779 21.1669 32.779 20.9648C32.779 20.7919 32.8011 20.7258 32.8884 20.6385C32.9761 20.5508 32.9978 20.4856 32.9978 20.3083C32.9978 20.1869 33.0161 20.0875 33.0384 20.0875C33.1498 20.0875 33.2166 19.9397 33.2166 19.6935C33.2166 19.4609 33.2258 19.4359 33.3151 19.4232C33.4054 19.4104 33.4147 19.3829 33.4264 19.0947C33.4381 18.8083 33.4478 18.779 33.5358 18.7665C33.6239 18.7539 33.6335 18.7247 33.6453 18.4354C33.6575 18.1312 33.6625 18.1182 33.7656 18.1182C33.8701 18.1182 33.8731 18.1093 33.8731 17.7899C33.8731 17.469 33.8755 17.4617 33.9825 17.4617C34.0895 17.4617 34.0919 17.4544 34.0919 17.1335C34.0919 16.8126 34.0943 16.8053 34.2013 16.8053C34.3083 16.8053 34.3107 16.7979 34.3107 16.477C34.3107 16.1561 34.3131 16.1488 34.4201 16.1488C34.5271 16.1488 34.5295 16.1415 34.5295 15.8206C34.5295 15.4997 34.5319 15.4923 34.6389 15.4923C34.746 15.4923 34.7484 15.485 34.7484 15.1641C34.7484 14.8432 34.7508 14.8359 34.8578 14.8359C34.9621 14.8359 34.9672 14.824 34.9672 14.5765C34.9672 14.3519 34.9818 14.3055 35.0766 14.231C35.1626 14.1633 35.186 14.1053 35.186 13.9593C35.186 13.8175 35.2118 13.7498 35.2954 13.6723C35.3857 13.5887 35.4048 13.5302 35.4048 13.3385C35.4048 13.1395 35.4189 13.0999 35.5033 13.0629C35.5891 13.0253 35.6034 12.9822 35.6147 12.7271C35.6263 12.4633 35.6371 12.4332 35.7241 12.4208C35.812 12.4082 35.8217 12.3789 35.8335 12.0897C35.8457 11.7854 35.8507 11.7724 35.9538 11.7724C36.0583 11.7724 36.0613 11.7636 36.0613 11.4442C36.0613 11.1233 36.0637 11.116 36.1707 11.116C36.2777 11.116 36.2801 11.1086 36.2801 10.7877C36.2801 10.4669 36.2825 10.4595 36.3895 10.4595C36.4965 10.4595 36.4989 10.4522 36.4989 10.1313C36.4989 9.8104 36.5013 9.80306 36.6083 9.80306C36.7153 9.80306 36.7177 9.79573 36.7177 9.47484C36.7177 9.15394 36.7201 9.14661 36.8271 9.14661C36.9341 9.14661 36.9365 9.13928 36.9365 8.81838C36.9365 8.49748 36.9389 8.49015 37.046 8.49015C37.1503 8.49015 37.1554 8.47823 37.1554 8.23074C37.1554 8.00613 37.17 7.95974 37.2648 7.88523C37.3508 7.81762 37.3742 7.75952 37.3742 7.61357C37.3742 7.47177 37.4 7.40405 37.4836 7.32659C37.5739 7.243 37.593 7.18446 37.593 6.99278C37.593 6.79376 37.6071 6.75416 37.6915 6.71718C37.7772 6.67954 37.7916 6.63643 37.8028 6.3814C37.8144 6.11762 37.8253 6.08742 37.9123 6.07505C38.0002 6.06247 38.0098 6.03315 38.0217 5.74398C38.0339 5.43972 38.0388 5.4267 38.142 5.4267C38.2465 5.4267 38.2495 5.41783 38.2495 5.09847C38.2495 4.77757 38.2519 4.77024 38.3589 4.77024C38.4659 4.77024 38.4683 4.76291 38.4683 4.44201C38.4683 4.12112 38.4707 4.11379 38.5777 4.11379C38.6847 4.11379 38.6871 4.10646 38.6871 3.78556C38.6871 3.46466 38.6895 3.45733 38.7965 3.45733C38.9035 3.45733 38.9059 3.45 38.9059 3.1291C38.9059 2.80821 38.9083 2.80088 39.0153 2.80088C39.1223 2.80088 39.1247 2.79354 39.1247 2.47265C39.1247 2.15175 39.1271 2.14442 39.2341 2.14442C39.3385 2.14442 39.3435 2.13249 39.3435 1.88501C39.3435 1.66039 39.3582 1.614 39.453 1.5395C39.5554 1.45897 39.5624 1.4279 39.5624 1.05492C39.5624 0.659081 39.5616 0.656455 39.453 0.656455C39.3654 0.656455 39.3435 0.634573 39.3435 0.547046C39.3435 0.378118 38.5783 0.379322 38.4553 0.548468ZM38.7309 7.98381C38.7309 8.06083 38.7036 8.09409 38.6324 8.10416C38.5421 8.11696 38.5328 8.14442 38.5211 8.43261C38.5094 8.71904 38.4997 8.74836 38.4117 8.76083C38.3242 8.77331 38.3139 8.80317 38.302 9.07801C38.2909 9.33414 38.2722 9.39672 38.1816 9.48074C38.0891 9.56641 38.0744 9.61893 38.0744 9.86346C38.0744 10.1136 38.0616 10.1569 37.965 10.2329C37.8666 10.3103 37.8556 10.3503 37.8556 10.63C37.8556 10.9325 37.8526 10.9409 37.7462 10.9409C37.6392 10.9409 37.6368 10.9483 37.6368 11.2691C37.6368 11.59 37.6344 11.5974 37.5274 11.5974C37.4204 11.5974 37.4179 11.6047 37.4179 11.9256C37.4179 12.2465 37.4155 12.2538 37.3085 12.2538C37.2015 12.2538 37.1991 12.2612 37.1991 12.5821C37.1991 12.903 37.1967 12.9103 37.0897 12.9103C36.9827 12.9103 36.9803 12.9176 36.9803 13.2385C36.9803 13.5594 36.9779 13.5667 36.8709 13.5667C36.764 13.5667 36.7615 13.5743 36.7615 13.8919C36.7615 14.1958 36.755 14.2181 36.663 14.2311C36.5728 14.2439 36.5635 14.2713 36.5518 14.5595C36.54 14.846 36.5303 14.8753 36.4423 14.8877C36.3543 14.9003 36.3446 14.9295 36.3328 15.2188C36.3258 15.3933 36.3026 15.5361 36.2813 15.5361C36.1651 15.5361 36.105 15.6852 36.105 15.9737C36.105 16.2416 36.0933 16.2829 35.9956 16.3598C35.8973 16.4372 35.8862 16.4772 35.8862 16.7569C35.8862 17.0594 35.8833 17.0678 35.7768 17.0678C35.6698 17.0678 35.6674 17.0752 35.6674 17.3961C35.6674 17.717 35.665 17.7243 35.558 17.7243C35.451 17.7243 35.4486 17.7316 35.4486 18.0525C35.4486 18.3734 35.4462 18.3807 35.3392 18.3807C35.2322 18.3807 35.2298 18.3881 35.2298 18.709C35.2298 19.0299 35.2274 19.0372 35.1204 19.0372H35.0109V20.002V20.9667L35.1204 21.0762C35.2077 21.1635 35.2298 21.2295 35.2298 21.4024C35.2298 21.6045 35.2372 21.6193 35.3392 21.6193C35.4412 21.6193 35.4486 21.6338 35.4486 21.8381C35.4486 22.0412 35.4562 22.0569 35.556 22.0569C35.6581 22.0569 35.664 22.0713 35.6764 22.3523C35.6876 22.6102 35.7018 22.6532 35.7877 22.6909C35.87 22.727 35.8862 22.7684 35.8862 22.9426C35.8862 23.1357 35.8942 23.151 35.9956 23.151C36.0977 23.151 36.105 23.1655 36.105 23.3698C36.105 23.5741 36.1124 23.5886 36.2144 23.5886C36.3153 23.5886 36.3239 23.6044 36.3239 23.7902C36.3239 23.952 36.345 24.0084 36.4311 24.0762C36.5188 24.1452 36.5408 24.2061 36.5514 24.4107C36.563 24.6321 36.5758 24.6625 36.663 24.6748C36.7499 24.6872 36.7615 24.7141 36.7615 24.9046C36.7615 25.1056 36.769 25.1204 36.8709 25.1204C36.973 25.1204 36.9803 25.1349 36.9803 25.3392C36.9803 25.5423 36.988 25.558 37.0877 25.558C37.1898 25.558 37.1957 25.5724 37.2081 25.8534C37.2194 26.1113 37.2335 26.1543 37.3195 26.192C37.4018 26.2281 37.4179 26.2695 37.4179 26.4437C37.4179 26.6368 37.4259 26.6521 37.5274 26.6521C37.6294 26.6521 37.6368 26.6666 37.6368 26.8709C37.6368 27.0752 37.6441 27.0897 37.7462 27.0897C37.847 27.0897 37.8556 27.1055 37.8556 27.2912C37.8556 27.4531 37.8767 27.5095 37.9628 27.5772C38.0505 27.6463 38.0725 27.7072 38.0832 27.9118C38.0947 28.1332 38.1075 28.1636 38.1947 28.1759C38.2816 28.1883 38.2932 28.2152 38.2932 28.4057V28.6214H38.8184H39.3435V28.512C39.3435 28.4245 39.3654 28.4026 39.453 28.4026H39.5624V24.6466V20.8905L39.6718 20.7877L39.7812 20.685V15.5361V10.3872L39.8906 10.2845L40 10.1817V9.2244V8.26718L39.8906 8.16575C39.8304 8.10996 39.7812 8.02232 39.7812 7.9709C39.7812 7.88064 39.7631 7.87746 39.256 7.87746H38.7309V7.98381ZM29.3217 9.73742C29.3217 9.8302 29.3014 9.84683 29.1883 9.84683C29.1022 9.84683 29.0189 9.88567 28.9535 9.95624C28.8977 10.0164 28.8101 10.0656 28.7586 10.0656C28.6887 10.0656 28.6652 10.0926 28.6652 10.1726C28.6652 10.2693 28.645 10.281 28.4573 10.293C28.28 10.3044 28.2474 10.3208 28.2354 10.4048C28.2254 10.476 28.1921 10.5033 28.1151 10.5033C28.0309 10.5033 28.0088 10.526 28.0088 10.6127C28.0088 10.7148 27.9942 10.7221 27.7899 10.7221C27.5857 10.7221 27.5711 10.7294 27.5711 10.8315C27.5711 10.9136 27.548 10.9409 27.479 10.9409C27.4282 10.9409 27.348 10.9902 27.3008 11.0503C27.2388 11.129 27.1725 11.1597 27.0647 11.1597C26.9347 11.1597 26.9147 11.1741 26.9147 11.2667C26.9147 11.3633 26.8944 11.3751 26.7068 11.3871C26.5294 11.3985 26.4968 11.4149 26.4849 11.4989C26.4748 11.5701 26.4416 11.5974 26.3646 11.5974C26.2803 11.5974 26.2582 11.6201 26.2582 11.7068C26.2582 11.8089 26.2437 11.8162 26.0394 11.8162C25.8351 11.8162 25.8206 11.8235 25.8206 11.9256C25.8206 12.0131 25.7987 12.035 25.7112 12.035C25.6236 12.035 25.6018 12.0569 25.6018 12.1444C25.6018 12.2465 25.5872 12.2538 25.3829 12.2538C25.1787 12.2538 25.1641 12.2612 25.1641 12.3632C25.1641 12.4586 25.145 12.4726 25.0141 12.4726C24.8717 12.4726 24.7265 12.5626 24.7265 12.6509C24.7265 12.6732 24.6772 12.6915 24.6171 12.6915C24.5295 12.6915 24.5077 12.7133 24.5077 12.8009C24.5077 12.903 24.4931 12.9103 24.2888 12.9103C24.0846 12.9103 24.07 12.9176 24.07 13.0197C24.07 13.1072 24.0481 13.1291 23.9606 13.1291C23.8731 13.1291 23.8512 13.151 23.8512 13.2385C23.8512 13.3406 23.8367 13.3479 23.6324 13.3479C23.4281 13.3479 23.4136 13.3553 23.4136 13.4573C23.4136 13.5454 23.3918 13.5667 23.3022 13.5667C23.2409 13.5667 23.1416 13.616 23.0814 13.6761C23.0212 13.7363 22.9236 13.7856 22.8646 13.7856C22.7798 13.7856 22.7571 13.8081 22.7571 13.8926C22.7571 13.9892 22.7369 14.0009 22.5492 14.0129C22.3719 14.0243 22.3393 14.0407 22.3274 14.1247C22.3173 14.196 22.284 14.2232 22.207 14.2232C22.1228 14.2232 22.1007 14.246 22.1007 14.3326C22.1007 14.4347 22.0861 14.442 21.8818 14.442C21.6776 14.442 21.663 14.4493 21.663 14.5514C21.663 14.639 21.6411 14.6608 21.5536 14.6608C21.4661 14.6608 21.4442 14.6827 21.4442 14.7702C21.4442 14.8723 21.4297 14.8797 21.2254 14.8797C21.0225 14.8797 21.0066 14.8874 21.0066 14.9865C21.0066 15.081 20.9849 15.095 20.8206 15.1069C20.6769 15.1173 20.6247 15.1428 20.5914 15.2188C20.5649 15.2792 20.5098 15.3173 20.4491 15.3173C20.3726 15.3173 20.3501 15.3422 20.3501 15.4267C20.3501 15.5288 20.3356 15.5361 20.1313 15.5361C19.927 15.5361 19.9125 15.5434 19.9125 15.6455C19.9125 15.733 19.8906 15.7549 19.8031 15.7549C19.7155 15.7549 19.6937 15.7768 19.6937 15.8643C19.6937 15.9664 19.6791 15.9737 19.4748 15.9737C19.2706 15.9737 19.256 15.9811 19.256 16.0832C19.256 16.1712 19.2342 16.1926 19.1446 16.1926C19.0834 16.1926 18.984 16.2418 18.9239 16.302C18.8637 16.3621 18.7661 16.4114 18.707 16.4114C18.6222 16.4114 18.5996 16.4339 18.5996 16.5184C18.5996 16.615 18.5793 16.6267 18.3917 16.6387C18.2143 16.6501 18.1817 16.6665 18.1698 16.7505C18.1597 16.8218 18.1265 16.849 18.0495 16.849C17.9652 16.849 17.9431 16.8718 17.9431 16.9584C17.9431 17.046 17.9212 17.0678 17.8337 17.0678C17.7462 17.0678 17.7243 17.0897 17.7243 17.1772C17.7243 17.2648 17.7024 17.2867 17.6149 17.2867C17.5274 17.2867 17.5055 17.3085 17.5055 17.3961C17.5055 17.4836 17.4836 17.5055 17.3961 17.5055C17.3085 17.5055 17.2867 17.5274 17.2867 17.6149C17.2867 17.7024 17.2648 17.7243 17.1772 17.7243C17.0897 17.7243 17.0678 17.7462 17.0678 17.8337C17.0678 17.9212 17.046 17.9431 16.9584 17.9431C16.8709 17.9431 16.849 17.965 16.849 18.0525C16.849 18.14 16.8271 18.1619 16.7396 18.1619C16.6521 18.1619 16.6302 18.1838 16.6302 18.2713C16.6302 18.3589 16.6083 18.3807 16.5208 18.3807C16.4341 18.3807 16.4114 18.4028 16.4114 18.4871C16.4114 18.5641 16.3841 18.5974 16.3129 18.6074C16.2376 18.6182 16.2113 18.6547 16.2008 18.7626C16.1925 18.8487 16.1455 18.9365 16.0804 18.9877C16.0218 19.0339 15.9737 19.1131 15.9737 19.1639C15.9737 19.2329 15.9464 19.256 15.8643 19.256C15.7768 19.256 15.7549 19.2779 15.7549 19.3654C15.7549 19.453 15.733 19.4748 15.6455 19.4748C15.558 19.4748 15.5361 19.4967 15.5361 19.5842C15.5361 19.6718 15.5142 19.6937 15.4267 19.6937C15.34 19.6937 15.3173 19.7158 15.3173 19.8C15.3173 19.877 15.29 19.9103 15.2188 19.9204C15.1435 19.9311 15.1172 19.9676 15.1067 20.0755C15.0984 20.1616 15.0514 20.2495 14.9863 20.3007C14.9277 20.3468 14.8797 20.426 14.8797 20.4768C14.8797 20.5458 14.8523 20.5689 14.7702 20.5689C14.6827 20.5689 14.6608 20.5908 14.6608 20.6783C14.6608 20.7659 14.639 20.7877 14.5514 20.7877C14.4639 20.7877 14.442 20.8096 14.442 20.8972C14.442 20.9847 14.4201 21.0066 14.3326 21.0066C14.2451 21.0066 14.2232 21.0284 14.2232 21.116C14.2232 21.2035 14.2013 21.2254 14.1138 21.2254C14.0313 21.2254 14.0044 21.2484 14.0044 21.3188C14.0044 21.3702 13.9551 21.4579 13.895 21.5137C13.8244 21.5791 13.7856 21.6624 13.7856 21.7485C13.7856 21.8616 13.7689 21.8818 13.6761 21.8818C13.5886 21.8818 13.5667 21.9037 13.5667 21.9912C13.5667 22.0788 13.5449 22.1007 13.4573 22.1007C13.3698 22.1007 13.3479 22.1225 13.3479 22.2101C13.3479 22.2976 13.326 22.3195 13.2385 22.3195C13.151 22.3195 13.1291 22.3414 13.1291 22.4289C13.1291 22.5164 13.1072 22.5383 13.0197 22.5383C12.933 22.5383 12.9103 22.5604 12.9103 22.6446C12.9103 22.7217 12.883 22.7549 12.8118 22.765C12.7278 22.7769 12.7114 22.8095 12.7 22.9869C12.688 23.1745 12.6763 23.1948 12.5797 23.1948C12.4946 23.1948 12.4726 23.2173 12.4726 23.3042C12.4726 23.3917 12.4508 23.4136 12.3632 23.4136C12.2757 23.4136 12.2538 23.4355 12.2538 23.523C12.2538 23.6105 12.2319 23.6324 12.1444 23.6324C12.0569 23.6324 12.035 23.6543 12.035 23.7418C12.035 23.8293 12.0131 23.8512 11.9256 23.8512C11.8381 23.8512 11.8162 23.8731 11.8162 23.9606C11.8162 24.0481 11.7943 24.07 11.7068 24.07C11.6243 24.07 11.5974 24.093 11.5974 24.1635C11.5974 24.2149 11.5481 24.3025 11.488 24.3583C11.4174 24.4237 11.3786 24.507 11.3786 24.5931C11.3786 24.7062 11.3619 24.7265 11.2691 24.7265C11.1816 24.7265 11.1597 24.7484 11.1597 24.8359C11.1597 24.9234 11.1379 24.9453 11.0503 24.9453C10.9628 24.9453 10.9409 24.9672 10.9409 25.0547C10.9409 25.1422 10.919 25.1641 10.8315 25.1641C10.744 25.1641 10.7221 25.186 10.7221 25.2735C10.7221 25.3611 10.7002 25.3829 10.6127 25.3829C10.526 25.3829 10.5033 25.405 10.5033 25.4893C10.5033 25.5663 10.476 25.5996 10.4048 25.6096C10.3295 25.6204 10.3032 25.6569 10.2927 25.7648C10.2844 25.8509 10.2374 25.9387 10.1723 25.9899C10.1137 26.0361 10.0656 26.1153 10.0656 26.1661C10.0656 26.2351 10.0383 26.2582 9.95624 26.2582C9.86871 26.2582 9.84683 26.2801 9.84683 26.3676C9.84683 26.4551 9.82495 26.477 9.73742 26.477C9.64989 26.477 9.62801 26.4989 9.62801 26.5864C9.62801 26.674 9.60613 26.6958 9.5186 26.6958C9.43107 26.6958 9.40919 26.7177 9.40919 26.8053C9.40919 26.8928 9.38731 26.9147 9.29978 26.9147C9.21313 26.9147 9.19037 26.9368 9.19037 27.021C9.19037 27.098 9.16313 27.1313 9.09191 27.1414C9.00788 27.1533 8.99147 27.1859 8.98009 27.3632C8.96805 27.5509 8.95635 27.5711 8.85974 27.5711C8.77473 27.5711 8.75274 27.5937 8.75274 27.6805C8.75274 27.7681 8.73085 27.7899 8.64333 27.7899C8.5558 27.7899 8.53392 27.8118 8.53392 27.8993C8.53392 27.9869 8.51204 28.0088 8.42451 28.0088C8.33698 28.0088 8.3151 28.0306 8.3151 28.1182C8.3151 28.2057 8.29322 28.2276 8.20569 28.2276H8.09628V28.9955C8.09628 29.748 8.09836 29.7654 8.20044 29.86C8.25766 29.913 8.31204 29.9958 8.32123 30.0439C8.33676 30.1245 8.37812 30.1323 8.85175 30.1437L9.36543 30.1559V30.0452C9.36543 29.9561 9.38698 29.9344 9.47484 29.9344C9.56236 29.9344 9.58425 29.9125 9.58425 29.8249C9.58425 29.7374 9.60613 29.7155 9.69366 29.7155C9.78118 29.7155 9.80306 29.6937 9.80306 29.6061C9.80306 29.5186 9.82495 29.4967 9.91247 29.4967C10 29.4967 10.0219 29.4748 10.0219 29.3873C10.0219 29.2998 10.0438 29.2779 10.1313 29.2779C10.2188 29.2779 10.2407 29.256 10.2407 29.1685C10.2407 29.081 10.2626 29.0591 10.3501 29.0591C10.4376 29.0591 10.4595 29.0372 10.4595 28.9497C10.4595 28.8621 10.4814 28.8403 10.5689 28.8403C10.6565 28.8403 10.6783 28.8184 10.6783 28.7309C10.6783 28.6433 10.7002 28.6214 10.7877 28.6214C10.8753 28.6214 10.8972 28.5996 10.8972 28.512C10.8972 28.4245 10.919 28.4026 11.0066 28.4026C11.0941 28.4026 11.116 28.3807 11.116 28.2932C11.116 28.2057 11.1379 28.1838 11.2254 28.1838C11.3129 28.1838 11.3348 28.1619 11.3348 28.0744C11.3348 27.9869 11.3567 27.965 11.4442 27.965C11.5317 27.965 11.5536 27.9431 11.5536 27.8556C11.5536 27.7681 11.5755 27.7462 11.663 27.7462C11.7505 27.7462 11.7724 27.7243 11.7724 27.6368C11.7724 27.5492 11.7943 27.5274 11.8818 27.5274C11.9694 27.5274 11.9912 27.5055 11.9912 27.4179C11.9912 27.3304 12.0131 27.3085 12.1007 27.3085C12.1882 27.3085 12.2101 27.2867 12.2101 27.1991C12.2101 27.1116 12.2319 27.0897 12.3195 27.0897C12.407 27.0897 12.4289 27.0678 12.4289 26.9803C12.4289 26.8928 12.4508 26.8709 12.5383 26.8709C12.6258 26.8709 12.6477 26.849 12.6477 26.7615C12.6477 26.674 12.6696 26.6521 12.7571 26.6521C12.8446 26.6521 12.8665 26.6302 12.8665 26.5427C12.8665 26.4551 12.8884 26.4333 12.9759 26.4333C13.0635 26.4333 13.0853 26.4114 13.0853 26.3239C13.0853 26.2363 13.1072 26.2144 13.1947 26.2144C13.2823 26.2144 13.3042 26.1926 13.3042 26.105C13.3042 26.0175 13.326 25.9956 13.4136 25.9956C13.5011 25.9956 13.523 25.9737 13.523 25.8862C13.523 25.7987 13.5449 25.7768 13.6324 25.7768C13.7199 25.7768 13.7418 25.7549 13.7418 25.6674C13.7418 25.5799 13.7637 25.558 13.8512 25.558C13.9387 25.558 13.9606 25.5361 13.9606 25.4486C13.9606 25.3611 13.9825 25.3392 14.07 25.3392C14.1576 25.3392 14.1794 25.3173 14.1794 25.2298C14.1794 25.1422 14.2013 25.1204 14.2888 25.1204C14.3764 25.1204 14.3983 25.0985 14.3983 25.0109C14.3983 24.9234 14.4201 24.9015 14.5077 24.9015C14.5952 24.9015 14.6171 24.8797 14.6171 24.7921C14.6171 24.7046 14.639 24.6827 14.7265 24.6827C14.814 24.6827 14.8359 24.6608 14.8359 24.5733C14.8359 24.4858 14.8578 24.4639 14.9453 24.4639C15.0328 24.4639 15.0547 24.442 15.0547 24.3545C15.0547 24.267 15.0766 24.2451 15.1641 24.2451C15.2516 24.2451 15.2735 24.2232 15.2735 24.1357C15.2735 24.0481 15.2954 24.0263 15.3829 24.0263C15.4705 24.0263 15.4923 24.0044 15.4923 23.9169C15.4923 23.8293 15.5142 23.8074 15.6018 23.8074C15.6893 23.8074 15.7112 23.7856 15.7112 23.698C15.7112 23.6105 15.733 23.5886 15.8206 23.5886C15.9081 23.5886 15.93 23.5667 15.93 23.4792C15.93 23.3917 15.9519 23.3698 16.0394 23.3698C16.1269 23.3698 16.1488 23.3479 16.1488 23.2604C16.1488 23.1729 16.1707 23.151 16.2582 23.151C16.3457 23.151 16.3676 23.1291 16.3676 23.0416C16.3676 22.9541 16.3895 22.9322 16.477 22.9322C16.5646 22.9322 16.5864 22.9103 16.5864 22.8228C16.5864 22.7352 16.6083 22.7134 16.6958 22.7134C16.7834 22.7134 16.8053 22.6915 16.8053 22.6039C16.8053 22.5164 16.8271 22.4945 16.9147 22.4945C17.0022 22.4945 17.0241 22.4726 17.0241 22.3851C17.0241 22.2976 17.046 22.2757 17.1335 22.2757C17.221 22.2757 17.2429 22.2538 17.2429 22.1663C17.2429 22.0788 17.2648 22.0569 17.3523 22.0569C17.4398 22.0569 17.4617 22.035 17.4617 21.9475C17.4617 21.86 17.4836 21.8381 17.5711 21.8381C17.6586 21.8381 17.6805 21.8162 17.6805 21.7287C17.6805 21.6411 17.7024 21.6193 17.7899 21.6193C17.8775 21.6193 17.8993 21.5974 17.8993 21.5098C17.8993 21.4223 17.9212 21.4004 18.0088 21.4004C18.0963 21.4004 18.1182 21.3786 18.1182 21.291C18.1182 21.2035 18.14 21.1816 18.2276 21.1816C18.3151 21.1816 18.337 21.1597 18.337 21.0722C18.337 20.9847 18.3589 20.9628 18.4464 20.9628C18.5339 20.9628 18.5558 20.9409 18.5558 20.8534C18.5558 20.7659 18.5777 20.744 18.6652 20.744C18.7527 20.744 18.7746 20.7221 18.7746 20.6346C18.7746 20.547 18.7965 20.5252 18.884 20.5252C18.9716 20.5252 18.9934 20.5033 18.9934 20.4158C18.9934 20.3282 19.0153 20.3063 19.1028 20.3063C19.1904 20.3063 19.2123 20.2845 19.2123 20.1969C19.2123 20.1094 19.2341 20.0875 19.3217 20.0875C19.4092 20.0875 19.4311 20.0656 19.4311 19.9781C19.4311 19.8906 19.453 19.8687 19.5405 19.8687C19.628 19.8687 19.6499 19.8468 19.6499 19.7593C19.6499 19.6718 19.6718 19.6499 19.7593 19.6499C19.8468 19.6499 19.8687 19.628 19.8687 19.5405C19.8687 19.453 19.8906 19.4311 19.9781 19.4311C20.0656 19.4311 20.0875 19.4092 20.0875 19.3217C20.0875 19.2341 20.1094 19.2123 20.1969 19.2123C20.2845 19.2123 20.3063 19.1904 20.3063 19.1028C20.3063 19.0153 20.3282 18.9934 20.4158 18.9934C20.5033 18.9934 20.5252 18.9716 20.5252 18.884C20.5252 18.7965 20.547 18.7746 20.6346 18.7746C20.7221 18.7746 20.744 18.7527 20.744 18.6652C20.744 18.5777 20.7659 18.5558 20.8534 18.5558C20.9409 18.5558 20.9628 18.5339 20.9628 18.4464C20.9628 18.3589 20.9847 18.337 21.0722 18.337C21.1597 18.337 21.1816 18.3151 21.1816 18.2276C21.1816 18.14 21.2035 18.1182 21.291 18.1182C21.3786 18.1182 21.4004 18.0963 21.4004 18.0088C21.4004 17.9212 21.4223 17.8993 21.5098 17.8993C21.5974 17.8993 21.6193 17.8775 21.6193 17.7899C21.6193 17.7024 21.6411 17.6805 21.7287 17.6805C21.8162 17.6805 21.8381 17.6586 21.8381 17.5711C21.8381 17.4836 21.86 17.4617 21.9475 17.4617C22.035 17.4617 22.0569 17.4398 22.0569 17.3523C22.0569 17.2648 22.0788 17.2429 22.1663 17.2429C22.2538 17.2429 22.2757 17.221 22.2757 17.1335C22.2757 17.046 22.2976 17.0241 22.3851 17.0241C22.4726 17.0241 22.4945 17.0022 22.4945 16.9147C22.4945 16.8223 22.515 16.8053 22.6258 16.8053C22.7367 16.8053 22.7571 16.8223 22.7571 16.9147C22.7571 17.0022 22.779 17.0241 22.8665 17.0241C22.954 17.0241 22.9759 17.046 22.9759 17.1335C22.9759 17.221 22.9978 17.2429 23.0853 17.2429C23.1777 17.2429 23.1948 17.2633 23.1948 17.3742C23.1948 17.485 23.1777 17.5055 23.0853 17.5055C22.9978 17.5055 22.9759 17.5274 22.9759 17.6149C22.9759 17.7024 22.954 17.7243 22.8665 17.7243C22.779 17.7243 22.7571 17.7462 22.7571 17.8337C22.7571 17.9212 22.7352 17.9431 22.6477 17.9431C22.5602 17.9431 22.5383 17.965 22.5383 18.0525C22.5383 18.14 22.5164 18.1619 22.4289 18.1619C22.3414 18.1619 22.3195 18.1838 22.3195 18.2713C22.3195 18.3589 22.2976 18.3807 22.2101 18.3807C22.1225 18.3807 22.1007 18.4026 22.1007 18.4902C22.1007 18.5777 22.0788 18.5996 21.9912 18.5996C21.9037 18.5996 21.8818 18.6214 21.8818 18.709C21.8818 18.7965 21.86 18.8184 21.7724 18.8184C21.6849 18.8184 21.663 18.8403 21.663 18.9278C21.663 19.0153 21.6411 19.0372 21.5536 19.0372C21.4661 19.0372 21.4442 19.0591 21.4442 19.1466C21.4442 19.2341 21.4223 19.256 21.3348 19.256C21.2473 19.256 21.2254 19.2779 21.2254 19.3654C21.2254 19.453 21.2035 19.4748 21.116 19.4748C21.0284 19.4748 21.0066 19.4967 21.0066 19.5842C21.0066 19.6718 20.9847 19.6937 20.8972 19.6937C20.8096 19.6937 20.7877 19.7155 20.7877 19.8031C20.7877 19.8906 20.7659 19.9125 20.6783 19.9125C20.5908 19.9125 20.5689 19.9344 20.5689 20.0219C20.5689 20.1094 20.547 20.1313 20.4595 20.1313C20.372 20.1313 20.3501 20.1532 20.3501 20.2407C20.3501 20.3282 20.3282 20.3501 20.2407 20.3501C20.1532 20.3501 20.1313 20.372 20.1313 20.4595C20.1313 20.547 20.1094 20.5689 20.0219 20.5689C19.9344 20.5689 19.9125 20.5908 19.9125 20.6783C19.9125 20.7659 19.8906 20.7877 19.8031 20.7877C19.7155 20.7877 19.6937 20.8096 19.6937 20.8972C19.6937 20.9847 19.6718 21.0066 19.5842 21.0066C19.4967 21.0066 19.4748 21.0284 19.4748 21.116C19.4748 21.2035 19.453 21.2254 19.3654 21.2254C19.2779 21.2254 19.256 21.2473 19.256 21.3348C19.256 21.4223 19.2341 21.4442 19.1466 21.4442C19.0591 21.4442 19.0372 21.4661 19.0372 21.5536C19.0372 21.6411 19.0153 21.663 18.9278 21.663C18.8403 21.663 18.8184 21.6849 18.8184 21.7724C18.8184 21.86 18.7965 21.8818 18.709 21.8818C18.6214 21.8818 18.5996 21.9037 18.5996 21.9912C18.5996 22.0788 18.5777 22.1007 18.4902 22.1007C18.4026 22.1007 18.3807 22.1225 18.3807 22.2101C18.3807 22.2976 18.3589 22.3195 18.2713 22.3195C18.1838 22.3195 18.1619 22.3414 18.1619 22.4289C18.1619 22.5164 18.14 22.5383 18.0525 22.5383C17.965 22.5383 17.9431 22.5602 17.9431 22.6477C17.9431 22.7352 17.9212 22.7571 17.8337 22.7571C17.7462 22.7571 17.7243 22.779 17.7243 22.8665C17.7243 22.954 17.7024 22.9759 17.6149 22.9759C17.5274 22.9759 17.5055 22.9978 17.5055 23.0853C17.5055 23.1729 17.4836 23.1948 17.3961 23.1948C17.3085 23.1948 17.2867 23.2166 17.2867 23.3042C17.2867 23.3917 17.2648 23.4136 17.1772 23.4136C17.0897 23.4136 17.0678 23.4355 17.0678 23.523C17.0678 23.6105 17.046 23.6324 16.9584 23.6324C16.8709 23.6324 16.849 23.6543 16.849 23.7418C16.849 23.8293 16.8271 23.8512 16.7396 23.8512C16.6521 23.8512 16.6302 23.8731 16.6302 23.9606C16.6302 24.0481 16.6083 24.07 16.5208 24.07C16.4333 24.07 16.4114 24.0919 16.4114 24.1794C16.4114 24.267 16.3895 24.2888 16.302 24.2888C16.2144 24.2888 16.1926 24.3107 16.1926 24.3983C16.1926 24.4858 16.1707 24.5077 16.0832 24.5077C15.9956 24.5077 15.9737 24.5295 15.9737 24.6171C15.9737 24.7046 15.9519 24.7265 15.8643 24.7265C15.7768 24.7265 15.7549 24.7484 15.7549 24.8359C15.7549 24.9234 15.733 24.9453 15.6455 24.9453C15.558 24.9453 15.5361 24.9672 15.5361 25.0547C15.5361 25.1422 15.5142 25.1641 15.4267 25.1641C15.3392 25.1641 15.3173 25.186 15.3173 25.2735C15.3173 25.3611 15.2954 25.3829 15.2079 25.3829C15.1204 25.3829 15.0985 25.4048 15.0985 25.4923C15.0985 25.5799 15.0766 25.6018 14.9891 25.6018C14.9015 25.6018 14.8797 25.6236 14.8797 25.7112C14.8797 25.7987 14.8578 25.8206 14.7702 25.8206C14.6827 25.8206 14.6608 25.8425 14.6608 25.93C14.6608 26.0175 14.639 26.0394 14.5514 26.0394C14.4639 26.0394 14.442 26.0613 14.442 26.1488C14.442 26.2363 14.4201 26.2582 14.3326 26.2582C14.2451 26.2582 14.2232 26.2801 14.2232 26.3676C14.2232 26.4551 14.2013 26.477 14.1138 26.477C14.0263 26.477 14.0044 26.4989 14.0044 26.5864C14.0044 26.674 13.9825 26.6958 13.895 26.6958C13.8074 26.6958 13.7856 26.7177 13.7856 26.8053C13.7856 26.8928 13.7637 26.9147 13.6761 26.9147C13.5886 26.9147 13.5667 26.9365 13.5667 27.0241C13.5667 27.1116 13.5449 27.1335 13.4573 27.1335C13.3698 27.1335 13.3479 27.1554 13.3479 27.2429C13.3479 27.3304 13.326 27.3523 13.2385 27.3523C13.151 27.3523 13.1291 27.3742 13.1291 27.4617C13.1291 27.5492 13.1072 27.5711 13.0197 27.5711C12.9322 27.5711 12.9103 27.593 12.9103 27.6805C12.9103 27.7681 12.8884 27.7899 12.8009 27.7899C12.7133 27.7899 12.6915 27.8118 12.6915 27.8993C12.6915 27.9869 12.6696 28.0088 12.5821 28.0088C12.4945 28.0088 12.4726 28.0306 12.4726 28.1182C12.4726 28.2057 12.4508 28.2276 12.3632 28.2276C12.2757 28.2276 12.2538 28.2495 12.2538 28.337C12.2538 28.4245 12.2319 28.4464 12.1444 28.4464C12.0569 28.4464 12.035 28.4683 12.035 28.5558C12.035 28.6433 12.0131 28.6652 11.9256 28.6652C11.8381 28.6652 11.8162 28.6871 11.8162 28.7746C11.8162 28.8621 11.7943 28.884 11.7068 28.884C11.6193 28.884 11.5974 28.9059 11.5974 28.9934C11.5974 29.081 11.5755 29.1028 11.488 29.1028C11.4004 29.1028 11.3786 29.1247 11.3786 29.2123C11.3786 29.2998 11.3567 29.3217 11.2691 29.3217C11.1816 29.3217 11.1597 29.3435 11.1597 29.4311C11.1597 29.5186 11.1379 29.5405 11.0503 29.5405C10.9628 29.5405 10.9409 29.5624 10.9409 29.6499C10.9409 29.7374 10.919 29.7593 10.8315 29.7593C10.744 29.7593 10.7221 29.7812 10.7221 29.8687C10.7221 29.9562 10.7002 29.9781 10.6127 29.9781C10.5252 29.9781 10.5033 30 10.5033 30.0875C10.5033 30.1751 10.4814 30.1969 10.3939 30.1969C10.3063 30.1969 10.2845 30.2188 10.2845 30.3063C10.2845 30.3939 10.2626 30.4158 10.1751 30.4158C10.0875 30.4158 10.0656 30.4376 10.0656 30.5252C10.0656 30.613 10.0439 30.6346 9.95481 30.6346H9.84409L9.85635 31.1482C9.86773 31.6219 9.87549 31.6632 9.95613 31.6788C10.0042 31.688 10.087 31.7423 10.14 31.7996C10.2346 31.9016 10.252 31.9037 11.0045 31.9037H11.7724V31.7943C11.7724 31.7068 11.7943 31.6849 11.8818 31.6849C11.9694 31.6849 11.9912 31.663 11.9912 31.5755C11.9912 31.488 12.0131 31.4661 12.1007 31.4661C12.1882 31.4661 12.2101 31.4442 12.2101 31.3567C12.2101 31.2691 12.2319 31.2473 12.3195 31.2473C12.407 31.2473 12.4289 31.2254 12.4289 31.1379C12.4289 31.0425 12.448 31.0284 12.5789 31.0284C12.7213 31.0284 12.8665 30.9385 12.8665 30.8502C12.8665 30.8279 12.9158 30.8096 12.9759 30.8096C13.0635 30.8096 13.0853 30.7877 13.0853 30.7002C13.0853 30.6127 13.1072 30.5908 13.1947 30.5908C13.2823 30.5908 13.3042 30.5689 13.3042 30.4814C13.3042 30.3939 13.326 30.372 13.4136 30.372C13.5011 30.372 13.523 30.3501 13.523 30.2626C13.523 30.1751 13.5449 30.1532 13.6324 30.1532C13.7199 30.1532 13.7418 30.1313 13.7418 30.0438C13.7418 29.9562 13.7637 29.9344 13.8512 29.9344C13.9381 29.9344 13.9606 29.9123 13.9606 29.8275C13.9606 29.733 13.9823 29.719 14.1466 29.7071C14.2903 29.6967 14.3425 29.6712 14.3758 29.5952C14.4023 29.5348 14.4573 29.4967 14.5181 29.4967C14.5945 29.4967 14.6171 29.4718 14.6171 29.3873C14.6171 29.2998 14.639 29.2779 14.7265 29.2779C14.814 29.2779 14.8359 29.256 14.8359 29.1685C14.8359 29.081 14.8578 29.0591 14.9453 29.0591C15.0328 29.0591 15.0547 29.0372 15.0547 28.9497C15.0547 28.8621 15.0766 28.8403 15.1641 28.8403C15.2516 28.8403 15.2735 28.8184 15.2735 28.7309C15.2735 28.6488 15.2966 28.6214 15.3656 28.6214C15.4164 28.6214 15.4956 28.5734 15.5418 28.5148C15.593 28.4497 15.6809 28.4027 15.767 28.3944C15.8748 28.3839 15.9114 28.3576 15.9221 28.2823C15.9322 28.2111 15.9654 28.1838 16.0425 28.1838C16.1267 28.1838 16.1488 28.161 16.1488 28.0744C16.1488 27.9869 16.1707 27.965 16.2582 27.965C16.3457 27.965 16.3676 27.9431 16.3676 27.8556C16.3676 27.7681 16.3895 27.7462 16.477 27.7462C16.5646 27.7462 16.5864 27.7243 16.5864 27.6368C16.5864 27.5492 16.6083 27.5274 16.6958 27.5274C16.7834 27.5274 16.8053 27.5055 16.8053 27.4179C16.8053 27.3225 16.8244 27.3085 16.9553 27.3085C17.0977 27.3085 17.2429 27.2186 17.2429 27.1303C17.2429 27.108 17.2921 27.0897 17.3523 27.0897C17.4398 27.0897 17.4617 27.0678 17.4617 26.9803C17.4617 26.8928 17.4836 26.8709 17.5711 26.8709C17.6586 26.8709 17.6805 26.849 17.6805 26.7615C17.6805 26.674 17.7024 26.6521 17.7899 26.6521C17.8775 26.6521 17.8993 26.6302 17.8993 26.5427C17.8993 26.4551 17.9212 26.4333 18.0088 26.4333C18.0963 26.4333 18.1182 26.4114 18.1182 26.3239C18.1182 26.2418 18.1412 26.2144 18.2103 26.2144C18.2611 26.2144 18.3403 26.1664 18.3864 26.1078C18.4376 26.0427 18.5255 25.9957 18.6116 25.9874C18.7195 25.9769 18.756 25.9505 18.7667 25.8753C18.7768 25.804 18.8101 25.7768 18.8871 25.7768C18.9713 25.7768 18.9934 25.7541 18.9934 25.6674C18.9934 25.5799 19.0153 25.558 19.1028 25.558C19.1904 25.558 19.2123 25.5361 19.2123 25.4486C19.2123 25.3611 19.2341 25.3392 19.3217 25.3392C19.4092 25.3392 19.4311 25.3173 19.4311 25.2298C19.4311 25.1422 19.453 25.1204 19.5405 25.1204C19.6274 25.1204 19.6499 25.0983 19.6499 25.0135C19.6499 24.919 19.6716 24.905 19.8359 24.8931C19.9795 24.8827 20.0317 24.8572 20.0651 24.7812C20.0916 24.7208 20.1466 24.6827 20.2073 24.6827C20.2838 24.6827 20.3063 24.6578 20.3063 24.5733C20.3063 24.4858 20.3282 24.4639 20.4158 24.4639C20.5033 24.4639 20.5252 24.442 20.5252 24.3545C20.5252 24.267 20.547 24.2451 20.6346 24.2451C20.7221 24.2451 20.744 24.2232 20.744 24.1357C20.744 24.0481 20.7659 24.0263 20.8534 24.0263C20.9403 24.0263 20.9628 24.0042 20.9628 23.9194C20.9628 23.8249 20.9845 23.8109 21.1488 23.799C21.2925 23.7886 21.3446 23.7631 21.378 23.6871C21.4045 23.6267 21.4595 23.5886 21.5202 23.5886C21.5967 23.5886 21.6193 23.5637 21.6193 23.4792C21.6193 23.3917 21.6411 23.3698 21.7287 23.3698C21.8162 23.3698 21.8381 23.3479 21.8381 23.2604C21.8381 23.1729 21.86 23.151 21.9475 23.151C22.035 23.151 22.0569 23.1291 22.0569 23.0416C22.0569 22.9541 22.0788 22.9322 22.1663 22.9322C22.2538 22.9322 22.2757 22.9103 22.2757 22.8228C22.2757 22.7352 22.2976 22.7134 22.3851 22.7134C22.4726 22.7134 22.4945 22.6915 22.4945 22.6039C22.4945 22.5164 22.5164 22.4945 22.6039 22.4945C22.6915 22.4945 22.7134 22.4726 22.7134 22.3851C22.7134 22.2976 22.7352 22.2757 22.8228 22.2757C22.9103 22.2757 22.9322 22.2538 22.9322 22.1663C22.9322 22.0788 22.9541 22.0569 23.0416 22.0569C23.126 22.0569 23.151 22.0344 23.151 21.9579C23.151 21.8972 23.1891 21.8421 23.2495 21.8156C23.3255 21.7823 23.351 21.7301 23.3614 21.5864C23.3733 21.4221 23.3873 21.4004 23.4817 21.4004C23.5743 21.4004 23.5886 21.3803 23.5886 21.2504C23.5886 21.1426 23.6194 21.0763 23.698 21.0143C23.7582 20.9671 23.8074 20.8869 23.8074 20.8361C23.8074 20.7671 23.8348 20.744 23.9169 20.744C24.0189 20.744 24.0263 20.7294 24.0263 20.5252C24.0263 20.3209 24.0336 20.3063 24.1357 20.3063C24.2223 20.3063 24.2451 20.2842 24.2451 20.2C24.2451 20.123 24.2723 20.0897 24.3435 20.0797C24.4276 20.0677 24.444 20.0351 24.4554 19.8578C24.4674 19.6701 24.4791 19.6499 24.5757 19.6499C24.6558 19.6499 24.6827 19.6264 24.6827 19.5565C24.6827 19.505 24.7319 19.4174 24.7921 19.3616C24.8627 19.2962 24.9015 19.2129 24.9015 19.1268C24.9015 19.0137 24.9182 18.9934 25.0109 18.9934C25.113 18.9934 25.1204 18.9789 25.1204 18.7746C25.1204 18.5704 25.1277 18.5558 25.2298 18.5558C25.3173 18.5558 25.3392 18.5339 25.3392 18.4464C25.3392 18.3589 25.3611 18.337 25.4486 18.337C25.5507 18.337 25.558 18.3224 25.558 18.1182C25.558 17.9139 25.5653 17.8993 25.6674 17.8993C25.7541 17.8993 25.7768 17.8772 25.7768 17.793C25.7768 17.716 25.804 17.6827 25.8753 17.6726C25.9593 17.6607 25.9757 17.6281 25.9871 17.4508C25.9991 17.2631 26.0108 17.2429 26.1074 17.2429C26.2001 17.2429 26.2144 17.2229 26.2144 17.0929C26.2144 16.985 26.2452 16.9187 26.3239 16.8568C26.384 16.8095 26.4333 16.7293 26.4333 16.6786C26.4333 16.6095 26.4606 16.5864 26.5427 16.5864C26.6447 16.5864 26.6521 16.5719 26.6521 16.3676C26.6521 16.1633 26.6594 16.1488 26.7615 16.1488C26.8481 16.1488 26.8709 16.1267 26.8709 16.0425C26.8709 15.9654 26.8981 15.9322 26.9694 15.9221C27.0534 15.9102 27.0698 15.8776 27.0812 15.7002C27.0932 15.5126 27.1049 15.4923 27.2015 15.4923C27.2816 15.4923 27.3085 15.4688 27.3085 15.3989C27.3085 15.3475 27.3578 15.2598 27.4179 15.204C27.4885 15.1386 27.5274 15.0554 27.5274 14.9693C27.5274 14.8561 27.544 14.8359 27.6368 14.8359C27.7388 14.8359 27.7462 14.8213 27.7462 14.6171C27.7462 14.4128 27.7535 14.3983 27.8556 14.3983C27.9431 14.3983 27.965 14.3764 27.965 14.2888C27.965 14.2013 27.9869 14.1794 28.0744 14.1794C28.1765 14.1794 28.1838 14.1649 28.1838 13.9606C28.1838 13.7563 28.1911 13.7418 28.2932 13.7418C28.3799 13.7418 28.4026 13.7197 28.4026 13.6355C28.4026 13.5584 28.4299 13.5252 28.5011 13.5151C28.5851 13.5032 28.6015 13.4706 28.6129 13.2932C28.6249 13.1056 28.6367 13.0853 28.7333 13.0853C28.8259 13.0853 28.8403 13.0653 28.8403 12.9353C28.8403 12.8275 28.871 12.7612 28.9497 12.6992C29.0098 12.652 29.0591 12.5718 29.0591 12.521C29.0591 12.452 29.0864 12.4289 29.1685 12.4289C29.2706 12.4289 29.2779 12.4143 29.2779 12.2101C29.2779 12.0058 29.2852 11.9912 29.3873 11.9912C29.474 11.9912 29.4967 11.9691 29.4967 11.8849C29.4967 11.8079 29.524 11.7746 29.5952 11.7646C29.6792 11.7526 29.6956 11.72 29.707 11.5427C29.719 11.355 29.7307 11.3348 29.8274 11.3348C29.9074 11.3348 29.9344 11.3113 29.9344 11.2414C29.9344 11.1899 29.9836 11.1023 30.0438 11.0465C30.1143 10.9811 30.1532 10.8978 30.1532 10.8117C30.1532 10.6986 30.1698 10.6783 30.2626 10.6783H30.372V10.1532V9.62801H29.8468H29.3217V9.73742ZM11.5406 15.4275C11.483 15.507 11.4214 15.5361 11.3108 15.5361C11.1798 15.5361 11.1597 15.5502 11.1597 15.6431C11.1597 15.7397 11.1395 15.7514 10.9519 15.7635C10.7745 15.7748 10.7419 15.7912 10.73 15.8753C10.7199 15.9465 10.6867 15.9737 10.6096 15.9737C10.5254 15.9737 10.5033 15.9965 10.5033 16.0832C10.5033 16.1707 10.4814 16.1926 10.3939 16.1926C10.3063 16.1926 10.2845 16.2144 10.2845 16.302C10.2845 16.3895 10.2626 16.4114 10.1751 16.4114C10.0875 16.4114 10.0656 16.4333 10.0656 16.5208C10.0656 16.6083 10.0438 16.6302 9.95624 16.6302C9.86937 16.6302 9.84683 16.6523 9.84683 16.7371C9.84683 16.8315 9.82517 16.8455 9.66083 16.8574C9.51718 16.8678 9.46499 16.8933 9.43162 16.9694C9.40514 17.0298 9.35011 17.0678 9.28939 17.0678C9.21291 17.0678 9.19037 17.0928 9.19037 17.1772C9.19037 17.2648 9.16849 17.2867 9.08096 17.2867C8.99344 17.2867 8.97155 17.3085 8.97155 17.3961C8.97155 17.4836 8.94967 17.5055 8.86215 17.5055C8.77462 17.5055 8.75274 17.5274 8.75274 17.6149C8.75274 17.7024 8.73085 17.7243 8.64333 17.7243C8.55646 17.7243 8.53392 17.7464 8.53392 17.8312C8.53392 17.9256 8.51225 17.9396 8.34792 17.9515C8.20427 17.9619 8.15208 17.9874 8.11871 18.0635C8.09223 18.1239 8.0372 18.1619 7.97648 18.1619C7.8791 18.1619 7.87746 18.1708 7.87746 18.6871V19.2123H8.40263H8.92779V19.1028C8.92779 19.0008 8.94234 18.9934 9.14661 18.9934C9.35088 18.9934 9.36543 18.9861 9.36543 18.884C9.36543 18.7819 9.37998 18.7746 9.58425 18.7746C9.78742 18.7746 9.80306 18.767 9.80306 18.6672C9.80306 18.5651 9.81751 18.5592 10.0985 18.5468C10.3563 18.5356 10.3993 18.5214 10.4371 18.4354C10.4732 18.3532 10.5146 18.337 10.6887 18.337C10.8818 18.337 10.8972 18.329 10.8972 18.2276C10.8972 18.1255 10.9117 18.1182 11.116 18.1182C11.3202 18.1182 11.3348 18.1108 11.3348 18.0088C11.3348 17.9067 11.3493 17.8993 11.5536 17.8993C11.7568 17.8993 11.7724 17.8917 11.7724 17.7919C11.7724 17.6898 11.7869 17.6839 12.0678 17.6716C12.3257 17.6603 12.3687 17.6462 12.4065 17.5602C12.4426 17.4779 12.4839 17.4617 12.6581 17.4617C12.85 17.4617 12.8665 17.4532 12.8665 17.3547C12.8665 17.2581 12.8868 17.2464 13.0744 17.2344C13.2518 17.223 13.2844 17.2066 13.2963 17.1225C13.3063 17.0513 13.3396 17.0241 13.4166 17.0241C13.5009 17.0241 13.523 17.0013 13.523 16.9147C13.523 16.8271 13.5449 16.8053 13.6324 16.8053C13.7199 16.8053 13.7418 16.7834 13.7418 16.6958C13.7418 16.6083 13.7637 16.5864 13.8512 16.5864C13.9602 16.5864 13.9606 16.585 13.9606 16.1707C13.9606 15.7563 13.9602 15.7549 13.8512 15.7549C13.7637 15.7549 13.7418 15.733 13.7418 15.6455C13.7418 15.5589 13.7197 15.5361 13.6355 15.5361C13.5584 15.5361 13.5252 15.5089 13.5151 15.4376C13.5011 15.3394 13.4991 15.3392 12.5602 15.329L11.6193 15.3188L11.5406 15.4275ZM23.4136 26.1488C23.4136 26.2363 23.3917 26.2582 23.3042 26.2582C23.2166 26.2582 23.1948 26.2801 23.1948 26.3676C23.1948 26.4551 23.1729 26.477 23.0853 26.477C22.9978 26.477 22.9759 26.4989 22.9759 26.5864C22.9759 26.674 22.954 26.6958 22.8665 26.6958C22.7644 26.6958 22.7571 26.7104 22.7571 26.9147C22.7571 27.1189 22.7498 27.1335 22.6477 27.1335C22.5458 27.1335 22.5383 27.1483 22.5383 27.3492C22.5383 27.5397 22.5267 27.5666 22.4398 27.579C22.3495 27.5918 22.3403 27.6191 22.3284 27.9103C22.3162 28.2146 22.3113 28.2276 22.2081 28.2276C22.1083 28.2276 22.1007 28.2432 22.1007 28.4464C22.1007 28.6507 22.0933 28.6652 21.9912 28.6652C21.8892 28.6652 21.8818 28.6798 21.8818 28.884C21.8818 29.0883 21.8745 29.1028 21.7724 29.1028C21.6706 29.1028 21.663 29.1176 21.663 29.3186C21.663 29.5091 21.6514 29.536 21.5646 29.5484C21.4774 29.5607 21.4646 29.5911 21.453 29.8125C21.4423 30.0171 21.4204 30.078 21.3326 30.147C21.2465 30.2148 21.2254 30.2712 21.2254 30.433C21.2254 30.6188 21.2169 30.6346 21.116 30.6346C21.0139 30.6346 21.0066 30.6491 21.0066 30.8534C21.0066 31.0577 20.9992 31.0722 20.8972 31.0722H20.7877V31.5974V32.1225H21.3129C21.82 32.1225 21.8381 32.1194 21.8381 32.0291C21.8381 31.9777 21.8873 31.89 21.9475 31.8342C22.0181 31.7688 22.0569 31.6856 22.0569 31.5995C22.0569 31.4863 22.0735 31.4661 22.1663 31.4661C22.2538 31.4661 22.2757 31.4442 22.2757 31.3567C22.2757 31.2691 22.2976 31.2473 22.3851 31.2473C22.4726 31.2473 22.4945 31.2254 22.4945 31.1379C22.4945 31.0503 22.5164 31.0284 22.6039 31.0284C22.6915 31.0284 22.7134 31.0066 22.7134 30.919C22.7134 30.8315 22.7352 30.8096 22.8228 30.8096C22.9103 30.8096 22.9322 30.7877 22.9322 30.7002C22.9322 30.64 22.9504 30.5908 22.9728 30.5908C23.0611 30.5908 23.151 30.4456 23.151 30.3032C23.151 30.1723 23.165 30.1532 23.2604 30.1532C23.3479 30.1532 23.3698 30.1313 23.3698 30.0438C23.3698 29.9562 23.3917 29.9344 23.4792 29.9344C23.5667 29.9344 23.5886 29.9125 23.5886 29.8249C23.5886 29.7374 23.6105 29.7155 23.698 29.7155C23.7856 29.7155 23.8074 29.6937 23.8074 29.6061C23.8074 29.5186 23.8293 29.4967 23.9169 29.4967C24.0013 29.4967 24.0263 29.4742 24.0263 29.3977C24.0263 29.337 24.0643 29.2819 24.1247 29.2555C24.2008 29.2221 24.2263 29.1699 24.2367 29.0263C24.2486 28.8619 24.2626 28.8403 24.357 28.8403C24.4561 28.8403 24.4639 28.8243 24.4639 28.6214C24.4639 28.4167 24.471 28.4026 24.5742 28.4026H24.6845L24.6726 27.4726C24.6609 26.5555 24.6595 26.5421 24.5624 26.4995C24.502 26.473 24.4639 26.4179 24.4639 26.3572C24.4639 26.2807 24.439 26.2582 24.3545 26.2582C24.267 26.2582 24.2451 26.2363 24.2451 26.1488C24.2451 26.0398 24.2437 26.0394 23.8293 26.0394C23.415 26.0394 23.4136 26.0398 23.4136 26.1488ZM3.06346 27.4617C3.06346 27.5492 3.04158 27.5711 2.95405 27.5711C2.85197 27.5711 2.84464 27.5857 2.84464 27.7899C2.84464 27.9942 2.83731 28.0088 2.73523 28.0088C2.63326 28.0088 2.62582 28.0235 2.62582 28.2256C2.62582 28.3985 2.60372 28.4646 2.51641 28.5519C2.41565 28.6526 2.407 28.6929 2.407 29.0617C2.407 29.4368 2.4139 29.4677 2.51641 29.5482C2.61116 29.6228 2.62582 29.6691 2.62582 29.8938C2.62582 30.1412 2.63085 30.1532 2.73523 30.1532C2.83731 30.1532 2.84464 30.1677 2.84464 30.372C2.84464 30.5763 2.85197 30.5908 2.95405 30.5908C3.04158 30.5908 3.06346 30.6127 3.06346 30.7002C3.06346 30.7877 3.08534 30.8096 3.17287 30.8096C3.26039 30.8096 3.28228 30.8315 3.28228 30.919C3.28228 31.0066 3.30416 31.0284 3.39169 31.0284C3.47921 31.0284 3.50109 31.0503 3.50109 31.1379C3.50109 31.2254 3.52298 31.2473 3.6105 31.2473C3.69803 31.2473 3.71991 31.2691 3.71991 31.3567C3.71991 31.4442 3.74179 31.4661 3.82932 31.4661C3.91685 31.4661 3.93873 31.488 3.93873 31.5755C3.93873 31.663 3.96061 31.6849 4.04814 31.6849C4.13567 31.6849 4.15755 31.7068 4.15755 31.7943C4.15755 31.8818 4.17943 31.9037 4.26696 31.9037C4.35449 31.9037 4.37637 31.9256 4.37637 32.0131C4.37637 32.1007 4.39825 32.1225 4.48578 32.1225C4.5733 32.1225 4.59519 32.1444 4.59519 32.2319C4.59519 32.3195 4.61707 32.3414 4.7046 32.3414C4.79694 32.3414 4.814 32.3618 4.814 32.4726C4.814 32.5835 4.79694 32.6039 4.7046 32.6039C4.61707 32.6039 4.59519 32.6258 4.59519 32.7134C4.59519 32.8009 4.5733 32.8228 4.48578 32.8228C4.40131 32.8228 4.37637 32.8453 4.37637 32.9218C4.37637 32.9825 4.33829 33.0375 4.2779 33.064C4.20186 33.0974 4.17637 33.1496 4.16597 33.2932C4.15405 33.4576 4.14004 33.4792 4.04562 33.4792C3.96083 33.4792 3.93873 33.5018 3.93873 33.5886C3.93873 33.6762 3.91685 33.698 3.82932 33.698C3.74179 33.698 3.71991 33.7199 3.71991 33.8074C3.71991 33.895 3.69803 33.9169 3.6105 33.9169C3.5151 33.9169 3.50109 33.936 3.50109 34.0669C3.50109 34.1747 3.47035 34.241 3.39169 34.303C3.33151 34.3502 3.28228 34.4304 3.28228 34.4812C3.28228 34.5502 3.25492 34.5733 3.17287 34.5733C3.08534 34.5733 3.06346 34.5952 3.06346 34.6827C3.06346 34.7702 3.04158 34.7921 2.95405 34.7921C2.86652 34.7921 2.84464 34.814 2.84464 34.9015C2.84464 34.9891 2.82276 35.0109 2.73523 35.0109C2.6477 35.0109 2.62582 35.0328 2.62582 35.1204C2.62582 35.1805 2.60755 35.2298 2.58523 35.2298C2.49694 35.2298 2.407 35.3749 2.407 35.5174C2.407 35.6483 2.393 35.6674 2.29759 35.6674C2.21007 35.6674 2.18818 35.6893 2.18818 35.7768C2.18818 35.8643 2.1663 35.8862 2.07877 35.8862C1.99125 35.8862 1.96937 35.9081 1.96937 35.9956C1.96937 36.0832 1.94748 36.105 1.85996 36.105C1.77243 36.105 1.75055 36.1269 1.75055 36.2144C1.75055 36.302 1.72867 36.3239 1.64114 36.3239C1.55449 36.3239 1.53173 36.346 1.53173 36.4302C1.53173 36.5072 1.50449 36.5405 1.43326 36.5505C1.36958 36.5596 1.32976 36.5998 1.32068 36.6642C1.31291 36.719 1.25875 36.8117 1.20033 36.8701C1.1419 36.9286 1.09409 37.0265 1.09409 37.0877C1.09409 37.1774 1.07276 37.1991 0.984683 37.1991C0.897155 37.1991 0.875274 37.221 0.875274 37.3085C0.875274 37.3961 0.853392 37.4179 0.765864 37.4179C0.678337 37.4179 0.656455 37.4398 0.656455 37.5274C0.656455 37.6149 0.634573 37.6368 0.547046 37.6368C0.459519 37.6368 0.437637 37.6586 0.437637 37.7462C0.437637 37.8337 0.415755 37.8556 0.328228 37.8556C0.245733 37.8556 0.218818 37.8786 0.218818 37.949C0.218818 38.0004 0.169584 38.0881 0.109409 38.1439C0.0113786 38.2348 0 38.2794 0 38.5756C0 38.8988 0.002407 38.9059 0.109409 38.9059C0.196937 38.9059 0.218818 38.9278 0.218818 39.0153C0.218818 39.1028 0.2407 39.1247 0.328228 39.1247C0.415755 39.1247 0.437637 39.1466 0.437637 39.2341C0.437637 39.3217 0.459519 39.3435 0.547046 39.3435C0.634573 39.3435 0.656455 39.3654 0.656455 39.453C0.656455 39.5405 0.678337 39.5624 0.765864 39.5624C0.853392 39.5624 0.875274 39.5842 0.875274 39.6718C0.875274 39.7593 0.897155 39.7812 0.984683 39.7812C1.07221 39.7812 1.09409 39.8031 1.09409 39.8906C1.09409 39.9968 1.10284 40 1.40044 40C1.69803 40 1.70678 39.9968 1.70678 39.8906C1.70678 39.7885 1.72133 39.7812 1.9256 39.7812C2.12987 39.7812 2.14442 39.7739 2.14442 39.6718C2.14442 39.5842 2.1663 39.5624 2.25383 39.5624C2.34136 39.5624 2.36324 39.5405 2.36324 39.453C2.36324 39.3654 2.38512 39.3435 2.47265 39.3435C2.56018 39.3435 2.58206 39.3217 2.58206 39.2341C2.58206 39.1466 2.60394 39.1247 2.69147 39.1247C2.77899 39.1247 2.80088 39.1028 2.80088 39.0153C2.80088 38.9278 2.82276 38.9059 2.91028 38.9059C2.99716 38.9059 3.01969 38.8838 3.01969 38.799C3.01969 38.7046 3.04136 38.6906 3.20569 38.6787C3.34934 38.6683 3.40153 38.6428 3.4349 38.5667C3.46138 38.5063 3.51641 38.4683 3.57713 38.4683C3.65361 38.4683 3.67615 38.4433 3.67615 38.3589C3.67615 38.2713 3.69803 38.2495 3.78556 38.2495C3.87309 38.2495 3.89497 38.2276 3.89497 38.14C3.89497 38.0525 3.91685 38.0306 4.00438 38.0306C4.0919 38.0306 4.11379 38.0088 4.11379 37.9212C4.11379 37.8337 4.13567 37.8118 4.22319 37.8118C4.31072 37.8118 4.3326 37.7899 4.3326 37.7024C4.3326 37.6204 4.35569 37.593 4.42473 37.593C4.47549 37.593 4.5547 37.545 4.60088 37.4863C4.65208 37.4212 4.73993 37.3743 4.82604 37.366C4.93392 37.3555 4.97046 37.3291 4.98118 37.2538C4.99125 37.1826 5.02451 37.1554 5.10153 37.1554C5.18578 37.1554 5.20788 37.1326 5.20788 37.046C5.20788 36.9584 5.22976 36.9365 5.31729 36.9365C5.40481 36.9365 5.4267 36.9147 5.4267 36.8271C5.4267 36.7396 5.44858 36.7177 5.53611 36.7177C5.62298 36.7177 5.64551 36.6957 5.64551 36.6107C5.64551 36.5141 5.66575 36.5024 5.85339 36.4904C6.03074 36.479 6.06335 36.4626 6.07527 36.3786C6.08534 36.3073 6.1186 36.2801 6.19562 36.2801C6.27987 36.2801 6.30197 36.2573 6.30197 36.1707C6.30197 36.0832 6.32385 36.0613 6.41138 36.0613C6.49891 36.0613 6.52079 36.0394 6.52079 35.9519C6.52079 35.8638 6.54256 35.8425 6.63217 35.8425C6.69344 35.8425 6.79278 35.7932 6.85295 35.733C6.91313 35.6729 7.01072 35.6236 7.0698 35.6236C7.15525 35.6236 7.17724 35.6012 7.17724 35.5142C7.17724 35.4267 7.19913 35.4048 7.28665 35.4048C7.37418 35.4048 7.39606 35.3829 7.39606 35.2954C7.39606 35.2031 7.41652 35.186 7.52735 35.186C7.63818 35.186 7.65864 35.2031 7.65864 35.2954C7.65864 35.3829 7.68053 35.4048 7.76805 35.4048C7.85558 35.4048 7.87746 35.4267 7.87746 35.5142C7.87746 35.6018 7.89934 35.6236 7.98687 35.6236C8.0744 35.6236 8.09628 35.6455 8.09628 35.733C8.09628 35.8206 8.11816 35.8425 8.20569 35.8425C8.29322 35.8425 8.3151 35.8643 8.3151 35.9519C8.3151 36.0394 8.33698 36.0613 8.42451 36.0613C8.51204 36.0613 8.53392 36.0832 8.53392 36.1707C8.53392 36.2582 8.5558 36.2801 8.64333 36.2801C8.73085 36.2801 8.75274 36.302 8.75274 36.3895C8.75274 36.477 8.77462 36.4989 8.86215 36.4989C8.94967 36.4989 8.97155 36.5208 8.97155 36.6083C8.97155 36.6958 8.99344 36.7177 9.08096 36.7177C9.16849 36.7177 9.19037 36.7396 9.19037 36.8271C9.19037 36.9147 9.21225 36.9365 9.29978 36.9365C9.38731 36.9365 9.40919 36.9584 9.40919 37.046C9.40919 37.148 9.42374 37.1554 9.62801 37.1554C9.83228 37.1554 9.84683 37.1627 9.84683 37.2648C9.84683 37.3718 9.85416 37.3742 10.1751 37.3742C10.496 37.3742 10.5033 37.3766 10.5033 37.4836C10.5033 37.5926 10.5047 37.593 10.919 37.593C11.3334 37.593 11.3348 37.5926 11.3348 37.4836C11.3348 37.3766 11.3421 37.3742 11.663 37.3742C11.9839 37.3742 11.9912 37.3718 11.9912 37.2648C11.9912 37.1627 12.0058 37.1554 12.2101 37.1554C12.4143 37.1554 12.4289 37.148 12.4289 37.046C12.4289 36.9584 12.4508 36.9365 12.5383 36.9365H12.6477V36.4114V35.8862H12.5383C12.4508 35.8862 12.4289 35.8643 12.4289 35.7768C12.4289 35.6893 12.407 35.6674 12.3195 35.6674C12.2319 35.6674 12.2101 35.6455 12.2101 35.558C12.2101 35.4705 12.1882 35.4486 12.1007 35.4486C12.0131 35.4486 11.9912 35.4267 11.9912 35.3392C11.9912 35.2516 11.9694 35.2298 11.8818 35.2298C11.7943 35.2298 11.7724 35.2079 11.7724 35.1204C11.7724 35.0328 11.7505 35.0109 11.663 35.0109C11.5755 35.0109 11.5536 34.9891 11.5536 34.9015C11.5536 34.814 11.5317 34.7921 11.4442 34.7921C11.3567 34.7921 11.3348 34.7702 11.3348 34.6827C11.3348 34.5952 11.3129 34.5733 11.2254 34.5733C11.1379 34.5733 11.116 34.5514 11.116 34.4639C11.116 34.3764 11.0941 34.3545 11.0066 34.3545C10.919 34.3545 10.8972 34.3326 10.8972 34.2451C10.8972 34.1576 10.8753 34.1357 10.7877 34.1357C10.7002 34.1357 10.6783 34.1138 10.6783 34.0263C10.6783 33.9387 10.6565 33.9169 10.5689 33.9169C10.4814 33.9169 10.4595 33.895 10.4595 33.8074C10.4595 33.7199 10.4376 33.698 10.3501 33.698C10.2626 33.698 10.2407 33.6762 10.2407 33.5886C10.2407 33.5011 10.2188 33.4792 10.1313 33.4792C10.0438 33.4792 10.0219 33.4573 10.0219 33.3698C10.0219 33.2823 10 33.2604 9.91247 33.2604C9.82495 33.2604 9.80306 33.2385 9.80306 33.151C9.80306 33.0635 9.78118 33.0416 9.69366 33.0416C9.60613 33.0416 9.58425 33.0197 9.58425 32.9322C9.58425 32.8446 9.56236 32.8228 9.47484 32.8228C9.38731 32.8228 9.36543 32.8009 9.36543 32.7134C9.36543 32.6258 9.34355 32.6039 9.25602 32.6039C9.16849 32.6039 9.14661 32.5821 9.14661 32.4945C9.14661 32.407 9.12473 32.3851 9.0372 32.3851C8.94967 32.3851 8.92779 32.3632 8.92779 32.2757C8.92779 32.1882 8.90591 32.1663 8.81838 32.1663C8.73085 32.1663 8.70897 32.1444 8.70897 32.0569C8.70897 31.9694 8.68709 31.9475 8.59956 31.9475C8.51204 31.9475 8.49015 31.9256 8.49015 31.8381C8.49015 31.7505 8.46827 31.7287 8.38075 31.7287C8.29322 31.7287 8.27134 31.7068 8.27134 31.6193C8.27134 31.5317 8.24945 31.5098 8.16193 31.5098C8.0744 31.5098 8.05252 31.488 8.05252 31.4004C8.05252 31.3129 8.03064 31.291 7.94311 31.291C7.85558 31.291 7.8337 31.2691 7.8337 31.1816C7.8337 31.0941 7.81182 31.0722 7.72429 31.0722C7.63676 31.0722 7.61488 31.0503 7.61488 30.9628C7.61488 30.8753 7.593 30.8534 7.50547 30.8534C7.41794 30.8534 7.39606 30.8315 7.39606 30.744C7.39606 30.6565 7.37418 30.6346 7.28665 30.6346C7.19913 30.6346 7.17724 30.6127 7.17724 30.5252C7.17724 30.4376 7.15536 30.4158 7.06783 30.4158C6.98031 30.4158 6.95843 30.3939 6.95843 30.3063C6.95843 30.2188 6.93654 30.1969 6.84902 30.1969C6.76149 30.1969 6.73961 30.1751 6.73961 30.0875C6.73961 30 6.71773 29.9781 6.6302 29.9781C6.54267 29.9781 6.52079 29.9562 6.52079 29.8687C6.52079 29.7812 6.49891 29.7593 6.41138 29.7593C6.32385 29.7593 6.30197 29.7374 6.30197 29.6499C6.30197 29.5624 6.28009 29.5405 6.19256 29.5405C6.10503 29.5405 6.08315 29.5186 6.08315 29.4311C6.08315 29.3435 6.06127 29.3217 5.97374 29.3217C5.88622 29.3217 5.86433 29.2998 5.86433 29.2123C5.86433 29.1247 5.84245 29.1028 5.75492 29.1028C5.6674 29.1028 5.64551 29.081 5.64551 28.9934C5.64551 28.9059 5.62363 28.884 5.53611 28.884C5.44858 28.884 5.4267 28.8621 5.4267 28.7746C5.4267 28.6871 5.40481 28.6652 5.31729 28.6652C5.22976 28.6652 5.20788 28.6433 5.20788 28.5558C5.20788 28.4683 5.186 28.4464 5.09847 28.4464C5.01094 28.4464 4.98906 28.4245 4.98906 28.337C4.98906 28.2495 4.96718 28.2276 4.87965 28.2276C4.79212 28.2276 4.77024 28.2057 4.77024 28.1182C4.77024 28.0306 4.74836 28.0088 4.66083 28.0088C4.5733 28.0088 4.55142 27.9869 4.55142 27.8993C4.55142 27.8118 4.52954 27.7899 4.44201 27.7899C4.35449 27.7899 4.3326 27.7681 4.3326 27.6805C4.3326 27.593 4.31072 27.5711 4.22319 27.5711C4.13567 27.5711 4.11379 27.5492 4.11379 27.4617V27.3523H3.58862H3.06346V27.4617Z" fill="white"/>
</svg>
