<svg width="41" height="45" viewBox="0 0 41 45" fill="none" xmlns="http://www.w3.org/2000/svg">
<path fill-rule="evenodd" clip-rule="evenodd" d="M7.99618 0.0611415C7.99618 0.0947692 7.91545 0.122282 7.81672 0.122282C7.71799 0.122282 7.62017 0.149796 7.59942 0.183424C7.57867 0.217052 7.51519 0.244566 7.45842 0.244566C7.26721 0.244718 6.66002 0.816389 6.41937 1.22283L6.25655 1.49796L6.23839 3.66573C6.22069 5.76318 6.21611 5.83655 6.09586 5.92796C5.84392 6.11963 5.37148 6.5973 5.37148 6.66043C5.37148 6.6962 5.34401 6.72554 5.31044 6.72554C5.27687 6.72554 5.2494 6.75428 5.2494 6.78928C5.2494 6.82429 5.19446 6.91202 5.12732 6.98417C5.06018 7.05632 5.00524 7.15155 5.00524 7.19557C5.00524 7.23974 4.97777 7.27582 4.9442 7.27582C4.91063 7.27582 4.88316 7.33084 4.88316 7.3981C4.88316 7.46535 4.85569 7.52038 4.82212 7.52038C4.78855 7.52038 4.76108 7.57373 4.76108 7.63899C4.76108 7.70426 4.73362 7.77473 4.70004 7.79552C4.66647 7.8163 4.639 7.90053 4.639 7.98261C4.639 8.06469 4.61154 8.13179 4.57796 8.13179C4.54439 8.13179 4.51692 8.21265 4.51692 8.31155C4.51692 8.41045 4.48946 8.50842 4.45589 8.52921C4.42231 8.55 4.39485 8.703 4.39485 8.86916C4.39485 9.03531 4.36677 9.1712 4.33243 9.1712C4.29047 9.1712 4.27887 9.95915 4.29673 11.571C4.32419 14.0315 4.36311 14.7962 4.46107 14.7962C4.49175 14.7962 4.51692 14.9183 4.51692 15.0677C4.51692 15.217 4.54439 15.3562 4.57796 15.377C4.61154 15.3978 4.639 15.4941 4.639 15.591C4.639 15.6879 4.66647 15.7842 4.70004 15.805C4.73362 15.8258 4.76108 15.9084 4.76108 15.9884C4.76108 16.0685 4.78855 16.1511 4.82212 16.1719C4.85569 16.1927 4.88316 16.2631 4.88316 16.3284C4.88316 16.3937 4.91063 16.447 4.9442 16.447C4.97777 16.447 5.00524 16.5023 5.00524 16.5701C5.00524 16.6378 5.03927 16.7478 5.08093 16.8146C5.14121 16.9114 5.14121 16.9609 5.08093 17.0577C5.03927 17.1245 5.00524 17.2345 5.00524 17.3022C5.00524 17.3699 4.97777 17.4253 4.9442 17.4253C4.91063 17.4253 4.88316 17.5078 4.88316 17.6087C4.88316 17.7096 4.85569 17.7921 4.82212 17.7921C4.78855 17.7921 4.76108 17.8747 4.76108 17.9755C4.76108 18.0764 4.73362 18.159 4.70004 18.159C4.66647 18.159 4.639 18.269 4.639 18.4035C4.639 18.538 4.61154 18.6481 4.57796 18.6481C4.54439 18.6481 4.51692 18.7702 4.51692 18.9196C4.51692 19.0689 4.48946 19.2082 4.45589 19.2289C4.42231 19.2497 4.39485 19.4561 4.39485 19.6875C4.39485 19.9189 4.36738 20.1253 4.33381 20.1461C4.29398 20.1707 4.27277 21.6841 4.27277 24.4866V28.7895L3.67763 28.815C3.08601 28.8403 2.5249 28.944 2.41411 29.0485C2.38222 29.0786 2.30668 29.1033 2.24625 29.1033C2.18583 29.1033 2.13638 29.1244 2.13638 29.15C2.13638 29.1757 2.03338 29.2419 1.90749 29.2972C1.58596 29.4383 0.610395 30.4199 0.610395 30.6023C0.610395 30.6521 0.582927 30.6929 0.549356 30.6929C0.515784 30.6929 0.488317 30.748 0.488317 30.8152C0.488317 30.8825 0.460849 30.9375 0.427277 30.9375C0.393705 30.9375 0.366237 30.9925 0.366237 31.0598C0.366237 31.127 0.338769 31.1821 0.305198 31.1821C0.271626 31.1821 0.244158 31.2492 0.244158 31.3312C0.244158 31.4133 0.216691 31.4976 0.183119 31.5183C0.149548 31.5391 0.12208 31.6509 0.12208 31.7666C0.12208 31.8823 0.0946115 31.9769 0.0610398 31.9769C0.0212115 31.9769 0 32.9143 0 34.6671C0 36.4199 0.0212115 37.3573 0.0610398 37.3573C0.0946115 37.3573 0.12208 37.4674 0.12208 37.6019C0.12208 37.7364 0.149548 37.8465 0.183119 37.8465C0.216691 37.8465 0.244158 37.929 0.244158 38.0299C0.244158 38.1308 0.271626 38.2133 0.305198 38.2133C0.338769 38.2133 0.366237 38.2683 0.366237 38.3356C0.366237 38.4029 0.393705 38.4579 0.427277 38.4579C0.460849 38.4579 0.488317 38.5129 0.488317 38.5802C0.488317 38.6474 0.515784 38.7024 0.549356 38.7024C0.582927 38.7024 0.610395 38.73 0.610395 38.7636C0.610395 38.7971 0.720266 38.938 0.854553 39.0766C0.98884 39.2153 1.09871 39.3666 1.09871 39.4129C1.09871 39.4594 1.12618 39.4973 1.15975 39.4973C1.19317 39.4973 1.33387 39.6073 1.47227 39.7418C1.61068 39.8764 1.76175 39.9864 1.80799 39.9864C1.85438 39.9864 1.89223 40.0139 1.89223 40.0476C1.89223 40.0812 1.94716 40.1087 2.01431 40.1087C2.08145 40.1087 2.13638 40.1362 2.13638 40.1698C2.13638 40.2035 2.19132 40.231 2.25846 40.231C2.32561 40.231 2.38054 40.2585 2.38054 40.2921C2.38054 40.3257 2.4338 40.3533 2.49896 40.3533C2.56412 40.3533 2.63447 40.3808 2.65522 40.4144C2.67597 40.448 2.78752 40.4755 2.90304 40.4755C3.01856 40.4755 3.11302 40.5031 3.11302 40.5367C3.11302 40.5747 3.4646 40.5981 4.04387 40.5987C5.06308 40.5998 5.06811 40.601 5.19294 40.8882C5.2404 40.9975 5.29991 41.087 5.32539 41.087C5.35073 41.087 5.37148 41.142 5.37148 41.2092C5.37148 41.2765 5.39895 41.3315 5.43252 41.3315C5.46609 41.3315 5.49356 41.3593 5.49356 41.3933C5.49356 41.4272 5.57596 41.5412 5.67668 41.6469C5.77739 41.7525 5.85979 41.8631 5.85979 41.8929C5.85979 41.9226 5.95593 42.0434 6.07343 42.1611C6.19093 42.2788 6.28753 42.3948 6.28799 42.4188C6.28936 42.4787 6.62859 42.8601 6.68062 42.8601C6.70351 42.8601 6.85611 42.9976 7.01955 43.1658C7.18298 43.3339 7.34977 43.4715 7.3899 43.4715C7.43019 43.4715 7.5074 43.5216 7.56173 43.5827C7.61605 43.644 7.78407 43.761 7.93514 43.8426C8.08621 43.9244 8.21897 44.0118 8.23011 44.037C8.2414 44.0622 8.28917 44.0829 8.33663 44.0829C8.45993 44.0829 8.91177 44.2863 8.91177 44.3418C8.91177 44.3675 8.96671 44.3886 9.03385 44.3886C9.10099 44.3886 9.15593 44.4161 9.15593 44.4497C9.15593 44.4834 9.23833 44.5109 9.33905 44.5109C9.43976 44.5109 9.52217 44.5384 9.52217 44.572C9.52217 44.6056 9.60457 44.6331 9.70528 44.6331C9.806 44.6331 9.8884 44.6607 9.8884 44.6943C9.8884 44.7279 9.99827 44.7554 10.1326 44.7554C10.2668 44.7554 10.3767 44.7829 10.3767 44.8166C10.3767 44.8505 10.5395 44.8777 10.743 44.8777C10.9464 44.8777 11.1092 44.9049 11.1092 44.9389C11.1092 44.9794 14.1815 45 20.2041 45C26.2267 45 29.299 44.9794 29.299 44.9389C29.299 44.9049 29.4618 44.8777 29.6652 44.8777C29.8686 44.8777 30.0314 44.8505 30.0314 44.8166C30.0314 44.7829 30.1413 44.7554 30.2756 44.7554C30.4099 44.7554 30.5198 44.7279 30.5198 44.6943C30.5198 44.6607 30.6022 44.6331 30.7029 44.6331C30.8036 44.6331 30.886 44.6056 30.886 44.572C30.886 44.5384 30.9684 44.5109 31.0691 44.5109C31.1698 44.5109 31.2522 44.4834 31.2522 44.4497C31.2522 44.4161 31.3072 44.3886 31.3743 44.3886C31.4415 44.3886 31.4964 44.3678 31.4964 44.3424C31.4964 44.2891 31.7552 44.1741 32 44.1186C32.0923 44.0977 32.1678 44.0535 32.1678 44.0205C32.1678 43.9877 32.2228 43.9606 32.2899 43.9606C32.3571 43.9606 32.412 43.9364 32.412 43.9069C32.412 43.8773 32.4944 43.8189 32.5951 43.7772C32.6958 43.7354 32.7782 43.6816 32.7782 43.6578C32.7782 43.6339 32.8535 43.5754 32.9453 43.5277C33.0372 43.4799 33.2252 43.3308 33.3628 43.1963C33.5006 43.0618 33.6816 42.8967 33.7652 42.8295C33.8489 42.7622 33.9838 42.6127 34.0649 42.4973C34.1463 42.3818 34.3157 42.1789 34.4416 42.0466C34.5674 41.9142 34.6704 41.774 34.6704 41.7351C34.6704 41.6961 34.7254 41.6245 34.7925 41.5761C34.8597 41.5276 34.9146 41.4527 34.9146 41.4098C34.9146 41.3667 34.9421 41.3315 34.9756 41.3315C35.0092 41.3315 35.0367 41.2765 35.0367 41.2092C35.0367 41.142 35.0574 41.087 35.0828 41.087C35.1083 41.087 35.1678 40.9975 35.2152 40.8882C35.3401 40.601 35.3451 40.5998 36.3643 40.5987C36.9436 40.5981 37.2952 40.5747 37.2952 40.5367C37.2952 40.5031 37.3896 40.4755 37.5051 40.4755C37.6206 40.4755 37.7322 40.448 37.7529 40.4144C37.7737 40.3808 37.844 40.3533 37.9092 40.3533C37.9744 40.3533 38.0276 40.3257 38.0276 40.2921C38.0276 40.2585 38.0826 40.231 38.1497 40.231C38.2168 40.231 38.2718 40.2035 38.2718 40.1698C38.2718 40.1362 38.3267 40.1087 38.3939 40.1087C38.461 40.1087 38.5159 40.0812 38.5159 40.0476C38.5159 40.0139 38.5513 39.9864 38.5947 39.9864C38.638 39.9864 38.7949 39.8764 38.9432 39.7418C39.0915 39.6073 39.2347 39.4973 39.2612 39.4973C39.2878 39.4973 39.3095 39.4594 39.3095 39.4129C39.3095 39.3666 39.4193 39.2153 39.5536 39.0766C39.6879 38.938 39.7978 38.7971 39.7978 38.7636C39.7978 38.73 39.8252 38.7024 39.8588 38.7024C39.8924 38.7024 39.9198 38.6474 39.9198 38.5802C39.9198 38.5129 39.9473 38.4579 39.9809 38.4579C40.0145 38.4579 40.0419 38.4029 40.0419 38.3356C40.0419 38.2683 40.0694 38.2133 40.103 38.2133C40.1365 38.2133 40.164 38.1308 40.164 38.0299C40.164 37.929 40.1915 37.8465 40.225 37.8465C40.2586 37.8465 40.2861 37.7364 40.2861 37.6019C40.2861 37.4674 40.3136 37.3573 40.3471 37.3573C40.387 37.3573 40.4082 36.4199 40.4082 34.6671C40.4082 32.9143 40.387 31.9769 40.3471 31.9769C40.3136 31.9769 40.2861 31.8823 40.2861 31.7666C40.2861 31.6509 40.2586 31.5391 40.225 31.5183C40.1915 31.4976 40.164 31.4133 40.164 31.3312C40.164 31.2492 40.1365 31.1821 40.103 31.1821C40.0694 31.1821 40.0419 31.127 40.0419 31.0598C40.0419 30.9925 40.0145 30.9375 39.9809 30.9375C39.9473 30.9375 39.9198 30.8825 39.9198 30.8152C39.9198 30.748 39.8924 30.6929 39.8588 30.6929C39.8252 30.6929 39.7978 30.6521 39.7978 30.6023C39.7978 30.4204 38.8262 29.4372 38.5112 29.3006C38.3795 29.2434 38.2718 29.1757 38.2718 29.15C38.2718 29.1244 38.2223 29.1033 38.1619 29.1033C38.1015 29.1033 38.0259 29.0786 37.994 29.0485C37.8833 28.944 37.3222 28.8403 36.7305 28.815L36.1354 28.7895V24.4866C36.1354 21.6841 36.1142 20.1707 36.0744 20.1461C36.0408 20.1253 36.0133 19.9189 36.0133 19.6875C36.0133 19.4561 35.9859 19.2497 35.9523 19.2289C35.9187 19.2082 35.8912 19.0689 35.8912 18.9196C35.8912 18.7702 35.8638 18.6481 35.8302 18.6481C35.7966 18.6481 35.7692 18.538 35.7692 18.4035C35.7692 18.269 35.7417 18.159 35.7081 18.159C35.6745 18.159 35.6471 18.0764 35.6471 17.9755C35.6471 17.8747 35.6196 17.7921 35.586 17.7921C35.5525 17.7921 35.525 17.7096 35.525 17.6087C35.525 17.5078 35.4975 17.4253 35.464 17.4253C35.4304 17.4253 35.4029 17.3699 35.4029 17.3022C35.4029 17.2345 35.3689 17.1245 35.3272 17.0577C35.267 16.9609 35.267 16.9114 35.3272 16.8146C35.3689 16.7478 35.4029 16.6378 35.4029 16.5701C35.4029 16.5023 35.4304 16.447 35.464 16.447C35.4975 16.447 35.525 16.3937 35.525 16.3284C35.525 16.2631 35.5525 16.1927 35.586 16.1719C35.6196 16.1511 35.6471 16.0685 35.6471 15.9884C35.6471 15.9084 35.6745 15.8258 35.7081 15.805C35.7417 15.7842 35.7692 15.6879 35.7692 15.591C35.7692 15.4941 35.7966 15.3978 35.8302 15.377C35.8638 15.3562 35.8912 15.217 35.8912 15.0677C35.8912 14.9183 35.9164 14.7962 35.9471 14.7962C36.0451 14.7962 36.084 14.0315 36.1114 11.571C36.1293 9.95915 36.1177 9.1712 36.0757 9.1712C36.0414 9.1712 36.0133 9.03531 36.0133 8.86916C36.0133 8.703 35.9859 8.55 35.9523 8.52921C35.9187 8.50842 35.8912 8.41045 35.8912 8.31155C35.8912 8.21265 35.8638 8.13179 35.8302 8.13179C35.7966 8.13179 35.7692 8.06469 35.7692 7.98261C35.7692 7.90053 35.7417 7.8163 35.7081 7.79552C35.6745 7.77473 35.6471 7.70426 35.6471 7.63899C35.6471 7.57373 35.6196 7.52038 35.586 7.52038C35.5525 7.52038 35.525 7.46535 35.525 7.3981C35.525 7.33084 35.4975 7.27582 35.464 7.27582C35.4304 7.27582 35.4029 7.23974 35.4029 7.19557C35.4029 7.15155 35.348 7.05632 35.2808 6.98417C35.2137 6.91202 35.1588 6.82429 35.1588 6.78928C35.1588 6.75428 35.1313 6.72554 35.0977 6.72554C35.0642 6.72554 35.0367 6.6962 35.0367 6.66043C35.0367 6.5973 34.5642 6.11963 34.3123 5.92796C34.1921 5.83655 34.1875 5.76318 34.1698 3.66573L34.1516 1.49796L33.985 1.22283C33.8147 0.941423 33.5435 0.611413 33.4826 0.611413C33.4638 0.611413 33.3624 0.528872 33.2569 0.427989C33.1515 0.327106 33.0161 0.244566 32.9558 0.244566C32.8957 0.244566 32.8295 0.217052 32.8087 0.183424C32.788 0.149796 32.6902 0.122282 32.5914 0.122282C32.4927 0.122282 32.412 0.0947692 32.412 0.0611415C32.412 0.0218582 31.8219 0 30.7639 0C29.706 0 29.1159 0.0218582 29.1159 0.0611415C29.1159 0.0947692 29.0335 0.122282 28.9327 0.122282C28.832 0.122282 28.7496 0.149796 28.7496 0.183424C28.7496 0.217052 28.6947 0.244566 28.6275 0.244566C28.5604 0.244566 28.5055 0.272079 28.5055 0.305707C28.5055 0.339334 28.4649 0.366848 28.4153 0.366848C28.3082 0.366848 27.6509 0.989878 27.6509 1.09137C27.6509 1.13004 27.6234 1.16169 27.5899 1.16169C27.5563 1.16169 27.5288 1.21671 27.5288 1.28397C27.5288 1.35122 27.5014 1.40625 27.4678 1.40625C27.4342 1.40625 27.4067 1.47335 27.4067 1.55544C27.4067 1.63752 27.3793 1.72174 27.3457 1.74253C27.308 1.76591 27.2847 2.30365 27.2847 3.15245V4.52446H26.2775H25.2704V3.69905C25.2704 3.18959 25.247 2.87364 25.2093 2.87364C25.1758 2.87364 25.1483 2.76359 25.1483 2.62908C25.1483 2.49457 25.1208 2.38451 25.0872 2.38451C25.0537 2.38451 25.0262 2.33208 25.0262 2.26804C25.0262 2.1294 24.7808 1.65082 24.7097 1.65082C24.6824 1.65082 24.66 1.60679 24.66 1.55284C24.66 1.44018 23.8137 0.611413 23.6987 0.611413C23.6566 0.611413 23.6223 0.588944 23.6223 0.561583C23.6223 0.490353 23.1445 0.244566 23.0061 0.244566C22.9422 0.244566 22.8898 0.217052 22.8898 0.183424C22.8898 0.149796 22.7799 0.122282 22.6457 0.122282C22.5114 0.122282 22.4015 0.0947692 22.4015 0.0611415C22.4015 0.0215525 21.6283 0 20.2041 0C18.7799 0 18.0067 0.0215525 18.0067 0.0611415C18.0067 0.0947692 17.8968 0.122282 17.7625 0.122282C17.6282 0.122282 17.5183 0.149796 17.5183 0.183424C17.5183 0.217052 17.466 0.244566 17.4021 0.244566C17.2637 0.244566 16.7859 0.490353 16.7859 0.561583C16.7859 0.588944 16.7515 0.611413 16.7094 0.611413C16.6026 0.611413 15.7482 1.43621 15.7482 1.53938C15.7482 1.58585 15.6933 1.6635 15.6261 1.71196C15.559 1.76041 15.504 1.84738 15.504 1.90532C15.504 1.96309 15.4766 2.02745 15.443 2.04823C15.4094 2.06902 15.382 2.15324 15.382 2.23533C15.382 2.31741 15.3545 2.38451 15.3209 2.38451C15.2873 2.38451 15.2599 2.49457 15.2599 2.62908C15.2599 2.76359 15.2324 2.87364 15.1988 2.87364C15.1611 2.87364 15.1378 3.18959 15.1378 3.69905V4.52446H14.1306H13.1235V3.15245C13.1235 2.30365 13.1002 1.76591 13.0625 1.74253C13.0289 1.72174 13.0014 1.63752 13.0014 1.55544C13.0014 1.47335 12.974 1.40625 12.9404 1.40625C12.9068 1.40625 12.8793 1.35122 12.8793 1.28397C12.8793 1.21671 12.8519 1.16169 12.8183 1.16169C12.7847 1.16169 12.7573 1.13356 12.7573 1.09917C12.7573 1.00027 12.0985 0.366848 11.9956 0.366848C11.9445 0.366848 11.9027 0.339334 11.9027 0.305707C11.9027 0.272079 11.8478 0.244566 11.7806 0.244566C11.7135 0.244566 11.6585 0.217052 11.6585 0.183424C11.6585 0.149796 11.5761 0.122282 11.4754 0.122282C11.3747 0.122282 11.2923 0.0947692 11.2923 0.0611415C11.2923 0.0218582 10.7022 0 9.64425 0C8.58628 0 7.99618 0.0218582 7.99618 0.0611415ZM10.865 1.95652C10.865 1.99015 10.9101 2.01766 10.9651 2.01766C11.1939 2.01766 11.2273 2.18978 11.2293 3.37806L11.2313 4.52446H10.2546C9.64425 4.52446 9.27801 4.54738 9.27801 4.5856C9.27801 4.62091 9.08467 4.64674 8.82021 4.64674C8.55576 4.64674 8.36242 4.67257 8.36242 4.70788C8.36242 4.74151 8.30748 4.76902 8.24034 4.76902C8.03845 4.76902 8.05249 2.26712 8.2556 2.04976C8.40453 1.89049 10.865 1.80245 10.865 1.95652ZM22.0353 1.95652C22.0353 1.99015 22.1177 2.01766 22.2184 2.01766C22.3191 2.01766 22.4015 2.04059 22.4015 2.06841C22.4015 2.09638 22.477 2.15829 22.5694 2.20598C22.7725 2.31099 23.0119 2.53843 23.0119 2.62633C23.0119 2.66148 23.0394 2.69022 23.0729 2.69022C23.1065 2.69022 23.134 2.73149 23.134 2.78193C23.134 2.83237 23.1614 2.87364 23.195 2.87364C23.2286 2.87364 23.2561 2.94074 23.2561 3.02283C23.2561 3.10491 23.2835 3.18913 23.3171 3.20992C23.3514 3.23117 23.3781 3.52648 23.3781 3.88614V4.52446H20.2041H17.03V3.88614C17.03 3.52648 17.0567 3.23117 17.0911 3.20992C17.1246 3.18913 17.1521 3.10491 17.1521 3.02283C17.1521 2.94074 17.1796 2.87364 17.2131 2.87364C17.2467 2.87364 17.2742 2.83451 17.2742 2.78682C17.2742 2.67371 17.8071 2.13995 17.92 2.13995C17.9676 2.13995 18.0067 2.11243 18.0067 2.0788C18.0067 2.04518 18.0891 2.01766 18.1898 2.01766C18.2905 2.01766 18.3729 1.99015 18.3729 1.95652C18.3729 1.91709 19.024 1.89538 20.2041 1.89538C21.3841 1.89538 22.0353 1.91709 22.0353 1.95652ZM32.1401 2.04548C32.3545 2.26024 32.3801 4.76902 32.1678 4.76902C32.1007 4.76902 32.0457 4.74151 32.0457 4.70788C32.0457 4.67257 31.8536 4.64674 31.5916 4.64674C31.3418 4.64674 31.1204 4.61923 31.0996 4.5856C31.0771 4.54907 30.682 4.52446 30.1193 4.52446H29.1769L29.1789 3.37806C29.1815 1.82537 29.0963 1.90394 30.7819 1.89905C31.9856 1.89538 31.9908 1.89599 32.1401 2.04548ZM31.0996 6.48098C31.1204 6.51461 31.2731 6.54212 31.439 6.54212C31.6049 6.54212 31.7406 6.56963 31.7406 6.60326C31.7406 6.63689 31.8092 6.6644 31.8932 6.6644C31.9771 6.6644 32.0457 6.69192 32.0457 6.72554C32.0457 6.75917 32.1007 6.78668 32.1678 6.78668C32.235 6.78668 32.2899 6.8142 32.2899 6.84783C32.2899 6.88145 32.3259 6.90897 32.37 6.90897C32.414 6.90897 32.509 6.96399 32.5811 7.03125C32.6531 7.09851 32.737 7.15353 32.7675 7.15353C32.8527 7.15353 33.5107 7.8056 33.5107 7.89013C33.5107 7.9311 33.5609 8.00905 33.6221 8.06347C33.6834 8.11788 33.7726 8.25178 33.8202 8.36107C33.8678 8.47036 33.9274 8.55978 33.9529 8.55978C33.9783 8.55978 33.999 8.64003 33.999 8.73816C33.999 8.83614 34.0333 8.92785 34.0753 8.94192C34.1348 8.96179 34.1516 9.5761 34.1516 11.7391C34.1516 13.9022 34.1348 14.5165 34.0753 14.5363C34.0315 14.551 33.999 14.6641 33.999 14.8012C33.999 14.933 33.9715 15.0408 33.938 15.0408C33.9044 15.0408 33.8769 15.1233 33.8769 15.2242C33.8769 15.3251 33.8495 15.4076 33.8159 15.4076C33.7823 15.4076 33.7549 15.4626 33.7549 15.5299C33.7549 15.5971 33.7274 15.6522 33.6938 15.6522C33.6602 15.6522 33.6328 15.7347 33.6328 15.8356C33.6328 15.9365 33.6105 16.019 33.5832 16.019C33.5559 16.019 33.4957 16.1153 33.4497 16.233C33.4036 16.3507 33.3434 16.447 33.3161 16.447C33.2888 16.447 33.2665 16.4959 33.2665 16.5558C33.2665 16.6156 33.2116 16.7043 33.1445 16.7527C33.0773 16.8012 33.0224 16.8837 33.0224 16.9361C33.0224 16.9886 32.9674 17.0711 32.9003 17.1196C32.8332 17.168 32.7782 17.2373 32.7782 17.2733C32.7782 17.4459 31.4752 18.7603 31.163 18.9028C31.0778 18.9416 31.0081 18.9966 31.0081 19.0247C31.0081 19.053 30.9721 19.0761 30.928 19.0761C30.884 19.0761 30.7889 19.1311 30.7169 19.1984C30.6449 19.2656 30.5436 19.3207 30.4918 19.3207C30.4401 19.3207 30.3977 19.3482 30.3977 19.3818C30.3977 19.4154 30.3427 19.4429 30.2756 19.4429C30.2085 19.4429 30.1535 19.4704 30.1535 19.5041C30.1535 19.5377 30.0986 19.5652 30.0314 19.5652C29.9643 19.5652 29.9094 19.5927 29.9094 19.6264C29.9094 19.66 29.8544 19.6875 29.7873 19.6875C29.7201 19.6875 29.6652 19.715 29.6652 19.7486C29.6652 19.7823 29.5982 19.8098 29.5163 19.8098C29.4343 19.8098 29.3502 19.8373 29.3295 19.8709C29.3087 19.9046 29.2247 19.9321 29.1427 19.9321C29.0608 19.9321 28.9938 19.9596 28.9938 19.9932C28.9938 20.0268 28.8839 20.0543 28.7496 20.0543C28.6153 20.0543 28.5055 20.0819 28.5055 20.1155C28.5055 20.1491 28.3681 20.1766 28.2003 20.1766C28.0324 20.1766 27.8951 20.2041 27.8951 20.2378C27.8951 20.2774 27.1829 20.2989 25.8808 20.2989H23.8665V19.7071C23.8665 19.0947 23.8155 18.8491 23.6034 18.4375C23.4549 18.1495 22.87 17.5476 22.7386 17.5476C22.6875 17.5476 22.6457 17.52 22.6457 17.4864C22.6457 17.4528 22.5633 17.4253 22.4625 17.4253C22.3618 17.4253 22.2794 17.3978 22.2794 17.3641C22.2794 17.3245 21.547 17.303 20.2041 17.303C18.8612 17.303 18.1287 17.3245 18.1287 17.3641C18.1287 17.3978 18.0463 17.4253 17.9456 17.4253C17.8449 17.4253 17.7625 17.4528 17.7625 17.4864C17.7625 17.52 17.7207 17.5476 17.6696 17.5476C17.5519 17.5476 16.9478 18.1489 16.8233 18.3902C16.6107 18.802 16.5435 19.1163 16.5426 19.7028L16.5417 20.2989H14.5274C13.2253 20.2989 12.5131 20.2774 12.5131 20.2378C12.5131 20.2041 12.3758 20.1766 12.2079 20.1766C12.04 20.1766 11.9027 20.1491 11.9027 20.1155C11.9027 20.0819 11.7928 20.0543 11.6585 20.0543C11.5243 20.0543 11.4144 20.0268 11.4144 19.9932C11.4144 19.9596 11.3474 19.9321 11.2655 19.9321C11.1835 19.9321 11.0994 19.9046 11.0787 19.8709C11.0579 19.8373 10.9738 19.8098 10.8919 19.8098C10.8099 19.8098 10.743 19.7823 10.743 19.7486C10.743 19.715 10.688 19.6875 10.6209 19.6875C10.5537 19.6875 10.4988 19.66 10.4988 19.6264C10.4988 19.5927 10.4439 19.5652 10.3767 19.5652C10.3096 19.5652 10.2546 19.5377 10.2546 19.5041C10.2546 19.4704 10.1997 19.4429 10.1326 19.4429C10.0654 19.4429 10.0105 19.4154 10.0105 19.3818C10.0105 19.3482 9.96806 19.3207 9.91633 19.3207C9.8646 19.3207 9.76327 19.2656 9.69125 19.1984C9.61922 19.1311 9.52415 19.0761 9.4802 19.0761C9.4361 19.0761 9.40009 19.053 9.40009 19.0247C9.40009 18.9966 9.33035 18.9416 9.2452 18.9028C8.93298 18.7603 7.62994 17.4459 7.62994 17.2733C7.62994 17.2373 7.57501 17.168 7.50786 17.1196C7.44072 17.0711 7.38578 16.9886 7.38578 16.9361C7.38578 16.8837 7.33085 16.8012 7.2637 16.7527C7.19656 16.7043 7.14162 16.6156 7.14162 16.5558C7.14162 16.4959 7.11934 16.447 7.09203 16.447C7.06471 16.447 7.00459 16.3507 6.95851 16.233C6.91242 16.1153 6.8523 16.019 6.82498 16.019C6.79767 16.019 6.77539 15.9519 6.77539 15.8698C6.77539 15.7878 6.74792 15.7035 6.71435 15.6827C6.68078 15.662 6.65331 15.5915 6.65331 15.5262C6.65331 15.461 6.62584 15.4076 6.59227 15.4076C6.5587 15.4076 6.53123 15.3251 6.53123 15.2242C6.53123 15.1233 6.50376 15.0408 6.47019 15.0408C6.43662 15.0408 6.40915 14.933 6.40915 14.8012C6.40915 14.6641 6.37665 14.551 6.33285 14.5363C6.27334 14.5165 6.25655 13.9022 6.25655 11.7391C6.25655 9.5761 6.27334 8.96179 6.33285 8.94192C6.37482 8.92785 6.40915 8.83614 6.40915 8.73816C6.40915 8.64003 6.4299 8.55978 6.45524 8.55978C6.48072 8.55978 6.54039 8.47036 6.588 8.36107C6.63561 8.25178 6.72472 8.11788 6.78607 8.06347C6.84726 8.00905 6.89747 7.9311 6.89747 7.89013C6.89747 7.8056 7.55547 7.15353 7.64062 7.15353C7.67114 7.15353 7.75507 7.09851 7.8271 7.03125C7.89913 6.96399 7.99419 6.90897 8.03814 6.90897C8.08224 6.90897 8.11826 6.88145 8.11826 6.84783C8.11826 6.8142 8.17319 6.78668 8.24034 6.78668C8.30748 6.78668 8.36242 6.75917 8.36242 6.72554C8.36242 6.69192 8.43108 6.6644 8.51501 6.6644C8.59894 6.6644 8.66761 6.63689 8.66761 6.60326C8.66761 6.56963 8.80495 6.54212 8.97281 6.54212C9.14067 6.54212 9.27801 6.51461 9.27801 6.48098C9.27801 6.3963 31.0473 6.3963 31.0996 6.48098ZM7.067 19.6719C7.34916 19.9495 7.60781 20.1766 7.64154 20.1766C7.67542 20.1766 7.77994 20.2592 7.8741 20.3601C7.96825 20.4609 8.08301 20.5435 8.12924 20.5435C8.17548 20.5435 8.253 20.5985 8.30138 20.6658C8.34975 20.733 8.43597 20.788 8.49289 20.788C8.54981 20.788 8.6055 20.8097 8.6168 20.8362C8.649 20.9126 9.1982 21.216 9.3041 21.216C9.3569 21.216 9.40009 21.2435 9.40009 21.2772C9.40009 21.3108 9.45502 21.3383 9.52217 21.3383C9.58931 21.3383 9.64425 21.3658 9.64425 21.3995C9.64425 21.4331 9.71292 21.4606 9.79684 21.4606C9.88077 21.4606 9.94944 21.4881 9.94944 21.5217C9.94944 21.5554 10.0181 21.5829 10.102 21.5829C10.186 21.5829 10.2546 21.6104 10.2546 21.644C10.2546 21.6776 10.337 21.7052 10.4378 21.7052C10.5385 21.7052 10.6209 21.7327 10.6209 21.7663C10.6209 21.7999 10.7016 21.8274 10.8003 21.8274C10.8991 21.8274 10.9969 21.855 11.0176 21.8886C11.0384 21.9222 11.162 21.9497 11.2923 21.9497C11.4226 21.9497 11.5462 21.9772 11.567 22.0109C11.5877 22.0445 11.7542 22.072 11.9369 22.072C12.1196 22.072 12.2689 22.0995 12.2689 22.1332C12.2689 22.1727 13.0217 22.1943 14.4053 22.1943H16.5417V22.8632C16.5417 23.2433 16.5681 23.5486 16.6028 23.57C16.6363 23.5908 16.6638 23.6603 16.6638 23.7245C16.6638 24.0042 17.4372 24.9457 17.667 24.9457C17.7195 24.9457 17.7625 24.9732 17.7625 25.0068C17.7625 25.0404 17.8174 25.0679 17.8846 25.0679C17.9517 25.0679 18.0067 25.0954 18.0067 25.1291C18.0067 25.1687 18.7799 25.1902 20.2041 25.1902C21.6283 25.1902 22.4015 25.1687 22.4015 25.1291C22.4015 25.0954 22.4564 25.0679 22.5236 25.0679C22.5907 25.0679 22.6457 25.0404 22.6457 25.0068C22.6457 24.9732 22.6887 24.9457 22.7412 24.9457C22.971 24.9457 23.7444 24.0042 23.7444 23.7245C23.7444 23.6603 23.7718 23.5908 23.8054 23.57C23.8401 23.5486 23.8665 23.2433 23.8665 22.8632V22.1943H26.0028C27.3864 22.1943 28.1392 22.1727 28.1392 22.1332C28.1392 22.0995 28.2886 22.072 28.4713 22.072C28.6539 22.072 28.8204 22.0445 28.8412 22.0109C28.8619 21.9772 28.9855 21.9497 29.1159 21.9497C29.2462 21.9497 29.3698 21.9222 29.3905 21.8886C29.4113 21.855 29.5091 21.8274 29.6078 21.8274C29.7066 21.8274 29.7873 21.7999 29.7873 21.7663C29.7873 21.7327 29.8697 21.7052 29.9704 21.7052C30.0711 21.7052 30.1535 21.6776 30.1535 21.644C30.1535 21.6104 30.2205 21.5829 30.3025 21.5829C30.3844 21.5829 30.4685 21.5554 30.4892 21.5217C30.51 21.4881 30.5803 21.4606 30.6455 21.4606C30.7107 21.4606 30.7639 21.4331 30.7639 21.3995C30.7639 21.3658 30.8189 21.3383 30.886 21.3383C30.9531 21.3383 31.0081 21.3108 31.0081 21.2772C31.0081 21.2435 31.0513 21.216 31.1041 21.216C31.21 21.216 31.7592 20.9126 31.7914 20.8362C31.8027 20.8097 31.8584 20.788 31.9153 20.788C31.9722 20.788 32.0584 20.733 32.1068 20.6658C32.1552 20.5985 32.2327 20.5435 32.2789 20.5435C32.3252 20.5435 32.4399 20.4609 32.5341 20.3601C32.6282 20.2592 32.7327 20.1766 32.7666 20.1766C32.842 20.1766 33.8267 19.2146 33.9247 19.0452C33.9848 18.9413 33.9955 18.97 33.9972 19.2392C33.9983 19.4361 34.0277 19.5646 34.0753 19.5805C34.1359 19.6007 34.1516 21.545 34.1516 29.0288C34.1516 36.4856 34.1357 38.4677 34.0753 38.5282C34.0333 38.5702 33.999 38.6817 33.999 38.7758C33.999 38.87 33.9715 38.947 33.938 38.947C33.9044 38.947 33.8769 39.0141 33.8769 39.0962C33.8769 39.1783 33.8495 39.2625 33.8159 39.2833C33.7823 39.3041 33.7549 39.3745 33.7549 39.4398C33.7549 39.5051 33.7274 39.5584 33.6938 39.5584C33.6602 39.5584 33.6328 39.5942 33.6328 39.6379C33.6328 39.7504 33.4892 40.0465 33.4344 40.0471C33.4092 40.0474 33.3886 40.0888 33.3886 40.1393C33.3886 40.1897 33.3612 40.231 33.3276 40.231C33.294 40.231 33.2665 40.2735 33.2665 40.3254C33.2665 40.3774 33.1979 40.4887 33.1139 40.5728C33.03 40.6568 32.9613 40.753 32.9613 40.7861C32.9613 40.8571 31.9884 41.8207 31.9167 41.8207C31.8901 41.8207 31.7995 41.8894 31.7155 41.9735C31.6316 42.0576 31.5205 42.1264 31.4686 42.1264C31.4167 42.1264 31.3743 42.1505 31.3743 42.18C31.3743 42.2097 31.2919 42.2681 31.1912 42.3098C31.0905 42.3515 31.0081 42.4099 31.0081 42.4396C31.0081 42.4691 30.9548 42.4932 30.8897 42.4932C30.8245 42.4932 30.7542 42.5207 30.7334 42.5543C30.7126 42.588 30.6286 42.6155 30.5466 42.6155C30.4647 42.6155 30.3977 42.643 30.3977 42.6766C30.3977 42.7103 30.3444 42.7378 30.2793 42.7378C30.2141 42.7378 30.1438 42.7653 30.123 42.7989C30.1023 42.8325 29.9907 42.8601 29.8752 42.8601C29.7597 42.8601 29.6652 42.8876 29.6652 42.9212C29.6652 42.9548 29.5416 42.9823 29.3905 42.9823C29.2395 42.9823 29.1159 43.0098 29.1159 43.0435C29.1159 43.084 26.1046 43.1046 20.2041 43.1046C14.3035 43.1046 11.2923 43.084 11.2923 43.0435C11.2923 43.0098 11.1687 42.9823 11.0176 42.9823C10.8666 42.9823 10.743 42.9548 10.743 42.9212C10.743 42.8876 10.6622 42.8601 10.5635 42.8601C10.4648 42.8601 10.367 42.8325 10.3462 42.7989C10.3254 42.7653 10.2414 42.7378 10.1594 42.7378C10.0775 42.7378 10.0105 42.7103 10.0105 42.6766C10.0105 42.643 9.95723 42.6155 9.89222 42.6155C9.76419 42.6155 9.07734 42.2606 9.04407 42.1773C9.03278 42.1493 8.98349 42.1264 8.93436 42.1264C8.88537 42.1264 8.77657 42.0576 8.69264 41.9735C8.60871 41.8894 8.51913 41.8207 8.4938 41.8207C8.42498 41.8207 7.50786 40.9246 7.50786 40.8574C7.50786 40.8254 7.42546 40.7131 7.32474 40.6075C7.22403 40.5018 7.14162 40.3741 7.14162 40.3233C7.14162 40.2726 7.11416 40.231 7.08059 40.231C7.04701 40.231 7.01894 40.1966 7.01817 40.1546C7.01741 40.1125 6.96308 40.0093 6.89747 39.9253C6.83185 39.8412 6.77752 39.7243 6.77676 39.6654C6.776 39.6066 6.74792 39.5584 6.71435 39.5584C6.68078 39.5584 6.65331 39.5051 6.65331 39.4398C6.65331 39.3745 6.62584 39.3041 6.59227 39.2833C6.5587 39.2625 6.53123 39.1783 6.53123 39.0962C6.53123 39.0141 6.50376 38.947 6.47019 38.947C6.43662 38.947 6.40915 38.8668 6.40915 38.7686C6.40915 38.6707 6.37482 38.5789 6.33285 38.5649C6.27227 38.5447 6.25655 36.5917 6.25655 29.0727C6.25655 21.5537 6.27227 19.6007 6.33285 19.5805C6.38046 19.5646 6.40991 19.4361 6.41098 19.2392C6.41266 18.97 6.42334 18.9413 6.48347 19.0452C6.52223 19.1123 6.78485 19.3943 7.067 19.6719ZM21.8261 19.2856C21.8978 19.3576 21.9132 19.7043 21.9132 21.2466C21.9132 22.7889 21.8978 23.1356 21.8261 23.2076C21.7551 23.2786 21.4528 23.2948 20.2041 23.2948C18.9554 23.2948 18.6531 23.2786 18.5821 23.2076C18.4622 23.0874 18.4521 19.4255 18.5713 19.2898C18.6844 19.1611 21.6977 19.1572 21.8261 19.2856ZM13.856 27.6359C13.856 27.6698 13.6931 27.697 13.4897 27.697C13.2863 27.697 13.1235 27.7242 13.1235 27.7581C13.1235 27.7918 13.0411 27.8193 12.9404 27.8193C12.8397 27.8193 12.7573 27.8468 12.7573 27.8804C12.7573 27.9141 12.7216 27.9416 12.6779 27.9416C12.5656 27.9416 12.27 28.0854 12.2694 28.1403C12.2691 28.1655 12.2253 28.1861 12.1719 28.1861C12.0564 28.1861 11.2313 29.0261 11.2313 29.1438C11.2313 29.1887 11.2088 29.2255 11.1815 29.2255C11.1104 29.2255 10.865 29.7041 10.865 29.8428C10.865 29.9068 10.8376 29.9592 10.804 29.9592C10.7704 29.9592 10.743 30.0968 10.743 30.2649C10.743 30.4331 10.7155 30.5707 10.6819 30.5707C10.6421 30.5707 10.6209 31.6292 10.6209 33.624C10.6209 35.5939 10.6425 36.691 10.6819 36.7154C10.7155 36.7361 10.743 36.8616 10.743 36.9942C10.743 37.1267 10.7704 37.2351 10.804 37.2351C10.8376 37.2351 10.865 37.3176 10.865 37.4185C10.865 37.5194 10.8925 37.6019 10.9261 37.6019C10.9596 37.6019 10.9871 37.6569 10.9871 37.7242C10.9871 37.7914 11.0146 37.8465 11.0482 37.8465C11.0817 37.8465 11.1095 37.8809 11.11 37.9229C11.1119 38.11 11.9048 38.9447 12.2082 39.0792C12.3088 39.1239 12.391 39.181 12.391 39.2066C12.391 39.2319 12.446 39.2527 12.5131 39.2527C12.5802 39.2527 12.6352 39.2802 12.6352 39.3139C12.6352 39.3475 12.7176 39.375 12.8183 39.375C12.919 39.375 13.0014 39.4025 13.0014 39.4361C13.0014 39.4698 13.1096 39.4973 13.2419 39.4973C13.3742 39.4973 13.4995 39.5248 13.5203 39.5584C13.545 39.5986 15.8291 39.6196 20.1736 39.6196C24.5181 39.6196 26.8021 39.5986 26.8269 39.5584C26.8476 39.5248 26.9866 39.4973 27.1357 39.4973C27.2848 39.4973 27.4067 39.4698 27.4067 39.4361C27.4067 39.4025 27.4891 39.375 27.5899 39.375C27.6906 39.375 27.773 39.3475 27.773 39.3139C27.773 39.2802 27.8279 39.2527 27.8951 39.2527C27.9622 39.2527 28.0171 39.2319 28.0171 39.2066C28.0171 39.181 28.0994 39.1239 28.2 39.0792C28.5033 38.9447 29.2962 38.11 29.2982 37.9229C29.2987 37.8809 29.3264 37.8465 29.36 37.8465C29.3936 37.8465 29.421 37.7914 29.421 37.7242C29.421 37.6569 29.4485 37.6019 29.4821 37.6019C29.5157 37.6019 29.5431 37.5194 29.5431 37.4185C29.5431 37.3176 29.5706 37.2351 29.6042 37.2351C29.6377 37.2351 29.6652 37.1129 29.6652 36.9636C29.6652 36.8142 29.6927 36.675 29.7262 36.6542C29.7656 36.6299 29.7873 35.5428 29.7873 33.5935C29.7873 31.6191 29.7661 30.5707 29.7262 30.5707C29.6927 30.5707 29.6652 30.4331 29.6652 30.2649C29.6652 30.0968 29.6377 29.9592 29.6042 29.9592C29.5706 29.9592 29.5431 29.9068 29.5431 29.8428C29.5431 29.7041 29.2978 29.2255 29.2266 29.2255C29.1993 29.2255 29.1769 29.1887 29.1769 29.1438C29.1769 29.0261 28.3518 28.1861 28.2363 28.1861C28.1829 28.1861 28.1391 28.1655 28.1388 28.1403C28.1382 28.0854 27.8426 27.9416 27.7303 27.9416C27.6866 27.9416 27.6509 27.9141 27.6509 27.8804C27.6509 27.8468 27.5685 27.8193 27.4678 27.8193C27.3671 27.8193 27.2847 27.7918 27.2847 27.7581C27.2847 27.7242 27.1218 27.697 26.9184 27.697C26.715 27.697 26.5522 27.6698 26.5522 27.6359C26.5522 27.5955 24.3955 27.5747 20.2041 27.5747C16.0126 27.5747 13.856 27.5955 13.856 27.6359ZM26.3691 29.5312C26.3691 29.5649 26.4721 29.593 26.598 29.5938C26.7306 29.5945 26.891 29.6454 26.9795 29.7147C27.0634 29.7804 27.1559 29.8348 27.1849 29.8356C27.2657 29.8377 27.6509 30.2782 27.6509 30.3686C27.6509 30.4124 27.6784 30.4484 27.7119 30.4484C27.7455 30.4484 27.773 30.5309 27.773 30.6318C27.773 30.7327 27.8005 30.8152 27.834 30.8152C27.8739 30.8152 27.8951 31.7935 27.8951 33.6277C27.8951 35.462 27.8739 36.4402 27.834 36.4402C27.8005 36.4402 27.773 36.4955 27.773 36.5633C27.773 36.8011 27.2091 37.4796 27.0117 37.4796C26.9604 37.4796 26.9184 37.5071 26.9184 37.5408C26.9184 37.5744 26.8498 37.6019 26.7658 37.6019C26.6819 37.6019 26.6132 37.6294 26.6132 37.663C26.6132 37.7034 24.4361 37.7242 20.2041 37.7242C15.9721 37.7242 13.7949 37.7034 13.7949 37.663C13.7949 37.6294 13.7263 37.6019 13.6423 37.6019C13.5584 37.6019 13.4897 37.5744 13.4897 37.5408C13.4897 37.5071 13.4478 37.4796 13.3965 37.4796C13.199 37.4796 12.6352 36.8011 12.6352 36.5633C12.6352 36.4955 12.6077 36.4402 12.5741 36.4402C12.5343 36.4402 12.5131 35.462 12.5131 33.6277C12.5131 31.7935 12.5343 30.8152 12.5741 30.8152C12.6077 30.8152 12.6352 30.7327 12.6352 30.6318C12.6352 30.5309 12.6627 30.4484 12.6962 30.4484C12.7298 30.4484 12.7573 30.4124 12.7573 30.3686C12.7573 30.2443 13.1323 29.8681 13.3524 29.7717C13.4615 29.724 13.5508 29.6641 13.5508 29.6385C13.5508 29.6132 13.6606 29.5924 13.7949 29.5924C13.9292 29.5924 14.0391 29.5649 14.0391 29.5312C14.0391 29.4909 16.1347 29.4701 20.2041 29.4701C24.2734 29.4701 26.3691 29.4909 26.3691 29.5312ZM4.27277 34.392C4.27277 36.8173 4.29383 38.091 4.33381 38.091C4.36738 38.091 4.39485 38.2286 4.39485 38.3967V38.7024H3.93705C3.6726 38.7024 3.47925 38.6766 3.47925 38.6413C3.47925 38.6077 3.41058 38.5802 3.32665 38.5802C3.24273 38.5802 3.17406 38.5526 3.17406 38.519C3.17406 38.4854 3.13285 38.4579 3.0825 38.4579C3.03214 38.4579 2.99094 38.4304 2.99094 38.3967C2.99094 38.3631 2.94897 38.3356 2.8977 38.3356C2.77669 38.3356 2.25846 37.8165 2.25846 37.6953C2.25846 37.6439 2.23099 37.6019 2.19742 37.6019C2.16385 37.6019 2.13638 37.5469 2.13638 37.4796C2.13638 37.4124 2.10892 37.3573 2.07534 37.3573C2.04177 37.3573 2.01431 37.2886 2.01431 37.2045C2.01431 37.1204 1.98684 37.0516 1.95327 37.0516C1.91359 37.0516 1.89223 36.2262 1.89223 34.6977C1.89223 33.1692 1.91359 32.3437 1.95327 32.3437C1.98684 32.3437 2.01431 32.2612 2.01431 32.1603C2.01431 32.0594 2.04177 31.9769 2.07534 31.9769C2.10892 31.9769 2.13638 31.9219 2.13638 31.8546C2.13638 31.7874 2.16385 31.7323 2.19742 31.7323C2.23099 31.7323 2.25877 31.6842 2.25907 31.6253C2.25938 31.5665 2.34651 31.4496 2.45287 31.3655C2.55924 31.2814 2.67674 31.1851 2.71412 31.1515C2.78325 31.0893 2.94287 30.9936 3.18932 30.8669C3.26485 30.8281 3.36786 30.7746 3.41821 30.7481C3.46857 30.7217 3.68145 30.6984 3.89127 30.6966L4.27277 30.6929V34.392ZM37.006 30.7635C37.0811 30.8025 37.1906 30.8576 37.2494 30.8858C37.4355 30.9759 37.6238 31.0884 37.694 31.1515C37.7314 31.1851 37.8489 31.2814 37.9553 31.3655C38.0616 31.4496 38.1488 31.5665 38.1491 31.6253C38.1494 31.6842 38.1772 31.7323 38.2107 31.7323C38.2443 31.7323 38.2718 31.7874 38.2718 31.8546C38.2718 31.9219 38.2992 31.9769 38.3328 31.9769C38.3664 31.9769 38.3939 32.0594 38.3939 32.1603C38.3939 32.2612 38.4213 32.3437 38.4549 32.3437C38.4946 32.3437 38.5159 33.1577 38.5159 34.6634C38.5159 36.1441 38.4938 36.9969 38.4549 37.0211C38.4213 37.0418 38.3939 37.1261 38.3939 37.2081C38.3939 37.2902 38.3664 37.3573 38.3328 37.3573C38.2992 37.3573 38.2718 37.4124 38.2718 37.4796C38.2718 37.5469 38.2443 37.6019 38.2107 37.6019C38.1772 37.6019 38.1497 37.6439 38.1497 37.6953C38.1497 37.8165 37.6315 38.3356 37.5105 38.3356C37.4592 38.3356 37.4171 38.3562 37.4168 38.3815C37.4162 38.4363 37.1206 38.5802 37.0083 38.5802C36.9646 38.5802 36.9289 38.6077 36.9289 38.6413C36.9289 38.6766 36.7356 38.7024 36.4711 38.7024H36.0133V38.3967C36.0133 38.2286 36.0408 38.091 36.0744 38.091C36.1143 38.091 36.1354 36.8173 36.1354 34.392V30.6929H36.5024C36.7043 30.6929 36.9309 30.7247 37.006 30.7635Z" fill="white"/>
</svg>
