<svg width="40" height="49" viewBox="0 0 40 49" fill="none" xmlns="http://www.w3.org/2000/svg">
<g filter="url(#filter0_d_372_765)">
<path d="M5.77588 19.8025C3.24936 19.9787 1.04115 20.3116 0.543805 20.5661C0.0862473 20.8207 0.185716 21.5647 1.00136 24.0317C1.81701 26.4596 2.91117 28.2413 5.29843 30.9825C8.40186 34.5264 11.943 38.736 14.9867 42.5344C16.5185 44.4336 17.8116 46 17.8713 46C17.931 46 19.7214 43.8267 21.8899 41.1638C24.0384 38.501 27.2811 34.6047 29.1113 32.5097C30.9415 30.4146 32.8116 28.0455 33.289 27.2623C34.2041 25.7351 35.2983 22.7199 35.4177 21.4472C35.4773 20.7032 35.4375 20.664 34.7811 20.4486C33.6471 20.0766 30.1657 19.7634 25.8288 19.6655L21.7506 19.5676L21.1538 20.5074C19.7413 22.7199 16.5384 22.9548 14.8276 20.9577C14.549 20.6444 14.2705 20.1941 14.191 19.9787C14.0716 19.6067 13.9124 19.5871 10.9483 19.6067C9.2374 19.6263 6.90982 19.7046 5.77588 19.8025ZM13.4549 22.3479C14.4894 23.5226 16.2201 24.2862 17.8713 24.2862C19.5225 24.2862 21.2533 23.5226 22.2877 22.3479L22.984 21.5451H24.854C26.8434 21.5451 31.976 21.8779 32.7519 22.0346C33.1498 22.1325 33.2094 22.2304 33.0901 22.7786C33.0105 23.131 32.5331 24.3058 31.9959 25.3827C29.8673 29.7098 25.6299 32.8621 20.7161 33.8019C13.8926 35.0746 6.77057 31.5503 3.74671 25.3827C3.20958 24.3058 2.73212 23.131 2.65255 22.7786C2.53319 22.2304 2.59287 22.1325 2.99074 22.0346C3.7666 21.8584 7.66579 21.6038 10.2918 21.5647L12.7586 21.5451L13.4549 22.3479Z" fill="white"/>
<path d="M14.0916 1.35846C7.34761 2.76819 1.97628 8.0351 0.484248 14.6922C0.325097 15.397 0.146053 16.611 0.0664776 17.4137C-0.0528852 18.7647 -0.0329914 18.843 0.305203 18.706C1.57841 18.1773 7.28793 17.6291 11.6049 17.6291H13.8927L14.2707 16.8851C14.7879 15.8669 15.9019 14.9467 16.7773 14.7705C18.8064 14.3985 20.4576 15.1229 21.3926 16.7872L21.8502 17.5704L25.8687 17.6878C30.3846 17.8249 33.687 18.1186 34.8806 18.5298C35.2984 18.6668 35.6963 18.7647 35.7162 18.7256C35.756 18.6864 35.6963 17.8249 35.5769 16.8068C34.8806 10.1301 30.6632 4.62825 24.317 2.16123C21.333 0.986451 17.3741 0.673178 14.0916 1.35846ZM22.3475 3.5318C26.3661 4.78489 29.4695 7.23234 31.5982 10.7762C32.3342 11.9902 33.2096 14.2614 33.4682 15.632C33.5875 16.2585 33.5676 16.2781 33.0305 16.1802C32.1751 16.004 26.9032 15.6711 24.9735 15.6711H23.203L22.3276 14.7117C21.0346 13.302 19.7613 12.7342 17.8913 12.7342C15.9616 12.7342 14.7282 13.2629 13.4948 14.6334L12.5996 15.6124L9.11816 15.7495C7.18846 15.8082 4.86089 15.9648 3.94577 16.0627C3.03065 16.1606 2.2548 16.2194 2.21501 16.1802C2.17522 16.1606 2.33437 15.4362 2.5532 14.5943C4.04524 8.85745 8.85954 4.3933 14.9073 3.14021C16.4988 2.80735 20.7759 3.04231 22.3475 3.5318Z" fill="white"/>
</g>
<defs>
<filter id="filter0_d_372_765" x="0" y="0" width="39.7285" height="49" filterUnits="userSpaceOnUse" color-interpolation-filters="sRGB">
<feFlood flood-opacity="0" result="BackgroundImageFix"/>
<feColorMatrix in="SourceAlpha" type="matrix" values="0 0 0 0 0 0 0 0 0 0 0 0 0 0 0 0 0 0 127 0" result="hardAlpha"/>
<feOffset dx="2" dy="1"/>
<feGaussianBlur stdDeviation="1"/>
<feComposite in2="hardAlpha" operator="out"/>
<feColorMatrix type="matrix" values="0 0 0 0 0 0 0 0 0 0 0 0 0 0 0 0 0 0 1 0"/>
<feBlend mode="normal" in2="BackgroundImageFix" result="effect1_dropShadow_372_765"/>
<feBlend mode="normal" in="SourceGraphic" in2="effect1_dropShadow_372_765" result="shape"/>
</filter>
</defs>
</svg>
