<svg width="34" height="40" viewBox="0 0 34 40" fill="none" xmlns="http://www.w3.org/2000/svg">
<path fill-rule="evenodd" clip-rule="evenodd" d="M16.5176 0.35939C16.2904 0.577215 16.0778 0.778206 16.0452 0.806051C16.0125 0.833896 15.8292 1.00502 15.6377 1.18626C14.5137 2.25033 12.9697 3.29135 11.4134 4.03444C9.72406 4.84106 8.48368 5.2733 6.70818 5.67414C6.37568 5.74919 6.2419 5.77413 5.41717 5.91449C4.49575 6.07131 3.05819 6.19003 1.6977 6.22155C0.932844 6.23914 0.3 6.26066 0.29152 6.26926C0.273168 6.28762 0.213174 6.80376 0.0910355 7.99516C-0.0298377 9.17389 -0.0304699 12.6282 0.089897 13.8173C0.135082 14.2628 0.183051 14.7413 0.196594 14.8805C0.252031 15.4482 0.451504 16.8665 0.527825 17.2347C0.553771 17.36 0.612752 17.6675 0.658823 17.9181C0.741346 18.3663 0.848676 18.8604 0.939426 19.2091C0.96474 19.3066 1.02182 19.5458 1.06612 19.7407C1.11055 19.9356 1.17662 20.1976 1.21294 20.323C1.24927 20.4483 1.31926 20.6989 1.36862 20.8799C1.58898 21.6891 2.33447 23.837 2.60735 24.4491C2.63216 24.5048 2.7005 24.6643 2.75923 24.8035C3.65989 26.9387 5.01114 29.2752 6.4482 31.1825C6.79741 31.6459 7.44759 32.4634 7.51531 32.5242C7.53771 32.5443 7.91159 32.9654 8.35332 33.468C8.76897 33.9409 9.97491 35.1045 10.8596 35.8863C12.223 37.0912 14.1133 38.4092 16.2665 39.6565C16.9705 40.0641 16.9656 40.0629 17.2387 39.8905C17.3489 39.8209 17.4504 39.7639 17.4641 39.7639C17.4778 39.7639 17.8256 39.5633 18.2372 39.318C20.8553 37.7575 22.6577 36.37 24.8008 34.2651C26.2462 32.8454 27.8927 30.7592 29.0717 28.8537C29.3235 28.4469 29.3687 28.3682 29.8863 27.4361C30.2684 26.7483 30.8937 25.4453 31.2104 24.6769C31.3538 24.3289 31.491 23.9985 31.5151 23.9428C31.7071 23.4997 32.303 21.7596 32.5034 21.057C32.551 20.89 32.6202 20.6508 32.6572 20.5255C32.6943 20.4002 32.7948 20.0015 32.8806 19.6395C32.9665 19.2775 33.058 18.9016 33.0841 18.8041C33.1438 18.5809 33.3233 17.6551 33.4228 17.0575C33.786 14.8747 33.9458 12.9644 33.9458 10.8054C33.9458 9.41412 33.9222 8.98176 33.766 7.50103C33.7257 7.11778 33.6926 6.68985 33.6926 6.55012C33.6926 6.2299 33.8544 6.26192 31.9207 6.19927C29.642 6.12548 28.285 5.9536 26.5795 5.52314C23.9032 4.84764 21.4796 3.70283 19.4157 2.13945C18.7585 1.64166 18.7609 1.64368 17.7872 0.721123C17.3956 0.35015 17.0428 0.0279064 17.003 0.00499746C16.9515 -0.0247462 16.8129 0.0763826 16.5176 0.35939ZM17.4553 2.76242C18.9948 4.12177 21.1756 5.43682 23.1874 6.21914C23.5216 6.349 23.8405 6.47481 23.8962 6.49873C24.2125 6.63429 25.3973 6.99564 26.1491 7.18588C26.3301 7.23169 26.5579 7.28928 26.6554 7.31409C27.803 7.6052 30.3578 7.91921 31.5788 7.91921C31.9931 7.91921 32.0274 7.92719 32.0704 8.03313C32.2108 8.37891 32.2806 11.6181 32.1746 12.8727C32.0227 14.6712 31.9479 15.4164 31.8771 15.8339C31.8481 16.0057 31.7871 16.374 31.7416 16.6525C31.5353 17.914 31.1759 19.5144 30.8837 20.4729C30.1162 22.9915 29.0851 25.4738 28.2184 26.8898C28.1106 27.0659 28.0224 27.2215 28.0224 27.2354C28.0224 27.3544 26.2798 29.9952 26.1026 30.1447C26.0861 30.1586 25.9716 30.3067 25.848 30.4738C24.6258 32.1269 22.0364 34.6583 20.3071 35.8909C20.229 35.9466 20.0249 36.0963 19.8536 36.2238C19.2573 36.6673 17.6689 37.6874 17.1834 37.9389L16.9509 38.0593L16.4818 37.7851C16.2239 37.6344 15.9526 37.4714 15.8791 37.4229C15.8054 37.3745 15.7115 37.3189 15.6705 37.2992C15.278 37.1118 13.2694 35.6556 12.404 34.9311C11.5091 34.182 11.3759 34.0589 10.3774 33.0587C9.41839 32.098 8.89693 31.5221 8.38015 30.8533C8.28345 30.728 8.19017 30.6143 8.17283 30.6003C8.10322 30.5443 7.25584 29.3772 6.92322 28.879C6.01509 27.5193 5.09746 25.8577 4.53259 24.5503C4.3883 24.2162 4.25034 23.8973 4.22616 23.8416C4.18351 23.7436 3.94619 23.1418 3.78697 22.7278C3.74406 22.6164 3.68976 22.4797 3.6661 22.424C3.60446 22.2786 3.24108 21.1624 3.13868 20.8039C3.09097 20.6368 3.02237 20.3976 2.9863 20.2723C2.95022 20.147 2.90972 19.9989 2.89643 19.9432C2.88314 19.8876 2.82669 19.6711 2.771 19.4623C2.71531 19.2534 2.62026 18.8548 2.55976 18.5763C2.49926 18.2979 2.42914 17.9789 2.40408 17.8675C2.30751 17.4386 2.1517 16.5244 2.00286 15.5133C1.94375 15.1112 1.87376 14.4305 1.79744 13.5136C1.65973 11.8593 1.70036 8.17286 1.85844 7.9825C1.89413 7.93947 2.07551 7.91909 2.4237 7.91896C3.19729 7.91871 5.19846 7.72088 6.00154 7.56533C6.15355 7.53596 6.4601 7.47749 6.68286 7.43547C6.90562 7.39332 7.16762 7.33877 7.26508 7.31396C8.37028 7.03387 8.56304 6.97868 9.39143 6.70517C10.698 6.27369 12.3791 5.53529 13.391 4.94827C14.4746 4.31973 15.694 3.45146 16.454 2.76736C17.0076 2.26893 16.8971 2.26957 17.4553 2.76242ZM16.7028 4.74031C16.1544 5.19786 14.5262 6.34976 14.428 6.34976C14.4156 6.34976 14.2528 6.44317 14.0664 6.55721C13.5597 6.8673 12.4371 7.41927 11.4925 7.82252C11.0857 7.99629 9.6914 8.48055 9.31549 8.57876C9.23196 8.60066 8.89022 8.68989 8.55608 8.7771C8.01133 8.91923 7.18825 9.08896 6.32847 9.23641C5.88978 9.31172 5.22517 9.38045 4.32868 9.44336C3.89708 9.47373 3.53497 9.50727 3.52383 9.5179C3.51282 9.52854 3.49295 10.1357 3.47966 10.8673C3.42081 14.1065 3.77381 16.8953 4.65422 20.1458C5.21985 22.2346 6.36783 24.8908 7.54226 26.8286C9.71558 30.4144 12.7283 33.435 16.3212 35.6302L16.9478 36.013L17.175 35.8922C20.4471 34.1503 24.3008 30.3468 26.41 26.778C26.8964 25.9548 27.8198 24.1999 27.8198 24.0987C27.8198 24.0865 27.8858 23.9324 27.9664 23.7565C28.2976 23.0335 28.843 21.5674 29.0836 20.7533C29.1165 20.6419 29.1774 20.4369 29.2189 20.2976C29.8273 18.2553 30.2283 15.9395 30.4026 13.4629C30.473 12.4621 30.4541 9.62055 30.3765 9.54651C30.3487 9.52006 29.9842 9.47348 29.5665 9.4431C28.3347 9.35374 27.9716 9.30831 26.8326 9.10162C26.32 9.00859 25.4595 8.80798 24.7316 8.61193C24.1892 8.46587 22.7935 7.98592 22.428 7.81973C21.9235 7.59052 21.6319 7.46357 21.6095 7.46357C21.5542 7.46357 20.2346 6.78313 19.846 6.5543C18.867 5.97778 17.8929 5.30418 17.1078 4.66083L16.9515 4.53287L16.7028 4.74031Z" fill="white"/>
</svg>
