<svg width="45" height="45" viewBox="0 0 45 45" fill="none" xmlns="http://www.w3.org/2000/svg">
<path fill-rule="evenodd" clip-rule="evenodd" d="M39.2842 0.0186986C39.1976 0.0305106 39.1075 0.0588593 39.084 0.0819207C39.0605 0.10487 39.0048 0.123656 38.9603 0.123656C38.9157 0.123656 38.8793 0.143905 38.8793 0.168654C38.8793 0.193403 38.8388 0.213652 38.7893 0.213652C38.7398 0.213652 38.6993 0.233901 38.6993 0.25865C38.6993 0.283399 38.6588 0.303648 38.6093 0.303648C38.5598 0.303648 38.5193 0.323897 38.5193 0.348646C38.5193 0.373395 38.4988 0.393644 38.4738 0.393644C38.4489 0.393644 38.3649 0.454391 38.2872 0.528638C38.2095 0.602885 38.1236 0.664082 38.0964 0.664644C38.0691 0.665094 37.986 0.738328 37.9118 0.827312C37.8376 0.916183 37.7312 1.03633 37.6756 1.09426C37.6199 1.15208 37.5743 1.23083 37.5743 1.26908C37.5743 1.30733 37.5578 1.3386 37.5376 1.3386C37.4852 1.3386 37.3043 1.69082 37.3043 1.79286C37.3043 1.83999 37.2841 1.87858 37.2593 1.87858C37.2346 1.87858 37.2143 1.93932 37.2143 2.01357C37.2143 2.08782 37.1941 2.14856 37.1693 2.14856C37.1446 2.14856 37.1243 2.2587 37.1243 2.39335C37.1243 2.52801 37.1041 2.65074 37.0793 2.66604C37.0546 2.68134 37.0343 2.81296 37.0343 2.95853C37.0343 3.1041 37.0546 3.23572 37.0793 3.25101C37.1041 3.26631 37.1243 3.38781 37.1243 3.521C37.1243 3.6542 37.1446 3.77569 37.1693 3.79099C37.2992 3.8712 37.1793 4.26347 37.025 4.26347C36.9916 4.26347 36.935 4.30397 36.8993 4.35346C36.8637 4.40296 36.8185 4.44346 36.799 4.44346C36.7795 4.44346 36.7 4.50421 36.6223 4.57845C36.5445 4.6527 36.4568 4.71345 36.4271 4.71345C36.3974 4.71345 36.3264 4.75395 36.2694 4.80344C36.2123 4.85294 36.1516 4.89344 36.1345 4.89344C36.1174 4.89344 36.0445 4.94406 35.9726 5.00593C35.9007 5.06769 35.824 5.11832 35.8022 5.11843C35.7804 5.11843 35.7297 5.15398 35.6897 5.19751C35.6496 5.24094 35.5612 5.30517 35.4932 5.34004C35.4251 5.37503 35.3694 5.42048 35.3694 5.44106C35.3694 5.46154 35.339 5.47841 35.3019 5.47841C35.2648 5.47841 35.2344 5.49866 35.2344 5.52341C35.2344 5.54816 35.2085 5.56841 35.1768 5.56841C35.1452 5.56841 35.0901 5.60891 35.0544 5.65841C35.0188 5.7079 34.9668 5.7484 34.939 5.7484C34.9111 5.7484 34.8517 5.7889 34.8069 5.8384C34.7622 5.8879 34.7082 5.92839 34.687 5.92839C34.6659 5.92839 34.5851 5.98914 34.5074 6.06339C34.4296 6.13763 34.3432 6.19838 34.3152 6.19838C34.2872 6.19838 34.2351 6.23888 34.1995 6.28838C34.1638 6.33787 34.106 6.37837 34.0711 6.37837C34.0361 6.37837 33.9748 6.41403 33.9348 6.45779C33.8947 6.50144 33.7861 6.57681 33.6932 6.62541C33.6004 6.67401 33.5245 6.72947 33.5245 6.74859C33.5245 6.76772 33.498 6.78335 33.4654 6.78335C33.433 6.78335 33.363 6.82385 33.3099 6.87335C33.2568 6.92285 33.2025 6.96335 33.1894 6.96335C33.1654 6.96335 33.0255 7.07247 32.9152 7.17709C32.8826 7.20802 32.8387 7.23333 32.8177 7.23333C32.7967 7.23333 32.7502 7.27383 32.7145 7.32333C32.6789 7.37283 32.6181 7.41333 32.5795 7.41333C32.541 7.41333 32.4802 7.45382 32.4445 7.50332C32.4089 7.55282 32.3568 7.59332 32.3288 7.59332C32.3008 7.59332 32.2144 7.65407 32.1367 7.72831C32.0589 7.80256 31.9693 7.86331 31.9374 7.86331C31.9056 7.86331 31.8502 7.9038 31.8146 7.9533C31.7789 8.0028 31.7236 8.0433 31.6917 8.0433C31.6599 8.0433 31.5702 8.10404 31.4925 8.17829C31.4148 8.25254 31.3239 8.31328 31.2905 8.31328C31.2569 8.31328 31.2296 8.33038 31.2296 8.3512C31.2296 8.37201 31.1587 8.42724 31.0721 8.47393C30.9855 8.52061 30.9146 8.57304 30.9146 8.59047C30.9146 8.60791 30.8734 8.63525 30.8232 8.65122C30.7729 8.66719 30.6827 8.72929 30.6227 8.78925C30.5627 8.84921 30.4869 8.89826 30.4541 8.89826C30.4213 8.89826 30.3653 8.93876 30.3296 8.98825C30.294 9.03775 30.2439 9.07825 30.2185 9.07836C30.193 9.07836 30.1013 9.13911 30.0147 9.21324C29.928 9.28738 29.8393 9.34813 29.8175 9.34813C29.7956 9.34824 29.745 9.38379 29.705 9.42732C29.6649 9.47075 29.5765 9.53498 29.5084 9.56985C29.4404 9.60484 29.3847 9.65029 29.3847 9.67087C29.3847 9.69135 29.3615 9.70822 29.3333 9.70822C29.305 9.70822 29.2239 9.76897 29.153 9.84321C29.082 9.91746 28.9982 9.97821 28.9668 9.97821C28.9353 9.97821 28.8804 10.0187 28.8447 10.0682C28.8091 10.1177 28.7512 10.1582 28.7164 10.1582C28.6814 10.1582 28.6201 10.1955 28.58 10.2412C28.54 10.2869 28.4313 10.36 28.3385 10.4039C28.2457 10.4477 28.1697 10.5014 28.1697 10.5234C28.1697 10.5453 28.1444 10.5632 28.1135 10.5633C28.0826 10.5633 27.9864 10.624 27.8998 10.6982C27.8131 10.7723 27.7215 10.8331 27.6959 10.8331C27.6705 10.8332 27.6204 10.8737 27.5848 10.9232C27.5491 10.9727 27.4971 11.0132 27.4693 11.0132C27.4415 11.0132 27.3821 11.0537 27.3373 11.1032C27.2925 11.1527 27.2385 11.1932 27.2174 11.1932C27.1962 11.1932 27.1154 11.2539 27.0377 11.3281C26.96 11.4024 26.8736 11.4631 26.8456 11.4631C26.8176 11.4631 26.7655 11.5036 26.7298 11.5531C26.6941 11.6026 26.6334 11.6431 26.5948 11.6431C26.5562 11.6431 26.4955 11.6836 26.4598 11.7331C26.4242 11.7826 26.3721 11.8231 26.3441 11.8231C26.3161 11.8231 26.2297 11.8839 26.1519 11.9581C26.0742 12.0324 25.9818 12.0931 25.9465 12.0931C25.9112 12.0931 25.8756 12.1094 25.8673 12.1294C25.8591 12.1495 25.7309 12.245 25.5824 12.3416C25.4339 12.4382 25.2796 12.5536 25.2396 12.5978C25.1995 12.642 25.1412 12.6781 25.1099 12.6781C25.0786 12.6781 25.0202 12.7135 24.9802 12.7568C24.7462 13.0101 24.5648 13.0107 24.3396 12.7593C24.2996 12.7146 24.2338 12.6781 24.1934 12.6781C24.153 12.6781 24.1199 12.6578 24.1199 12.6331C24.1199 12.6083 24.0794 12.5881 24.0299 12.5881C23.9804 12.5881 23.9399 12.5678 23.9399 12.5431C23.9399 12.5183 23.8994 12.4981 23.8499 12.4981C23.8004 12.4981 23.7599 12.4822 23.7599 12.4629C23.7599 12.4435 23.6638 12.402 23.5462 12.3704C23.4286 12.3389 23.2616 12.2926 23.175 12.2675C22.9052 12.1892 21.6 12.2723 21.6 12.3678C21.6 12.39 21.5507 12.4081 21.4902 12.4081C21.4298 12.4081 21.3679 12.4283 21.3526 12.4531C21.3373 12.4778 21.2854 12.4981 21.2374 12.4981C21.1893 12.4981 21.1501 12.5183 21.1501 12.5431C21.1501 12.5678 21.1096 12.5881 21.0601 12.5881C21.0106 12.5881 20.9701 12.6083 20.9701 12.6331C20.9701 12.7995 20.756 12.6284 19.9676 11.8318C19.7641 11.6263 19.3471 11.2086 19.0409 10.9037C18.2943 10.1605 17.8828 9.74861 17.2162 9.07825C16.9088 8.76889 16.4906 8.35783 16.287 8.16468C16.0087 7.90054 15.9298 7.80076 15.9687 7.76195C15.997 7.7336 16.0203 7.67386 16.0203 7.62932C16.0203 7.58477 16.0405 7.54832 16.0653 7.54832C16.09 7.54832 16.1103 7.4977 16.1103 7.43582C16.1103 7.37395 16.1305 7.32333 16.1553 7.32333C16.18 7.32333 16.2003 7.24233 16.2003 7.14334C16.2003 7.04434 16.2205 6.96335 16.2453 6.96335C16.2735 6.96335 16.2903 6.68582 16.2903 6.22088C16.2903 5.75594 16.2735 5.47841 16.2453 5.47841C16.2205 5.47841 16.2003 5.41767 16.2003 5.34342C16.2003 5.26917 16.18 5.20843 16.1553 5.20843C16.1305 5.20843 16.1103 5.14768 16.1103 5.07343C16.1103 4.99919 16.0942 4.93844 16.0745 4.93844C16.0548 4.93844 16.0012 4.84732 15.9553 4.73595C15.9093 4.62458 15.8559 4.53346 15.8366 4.53346C15.8172 4.53346 15.7884 4.49262 15.7726 4.44267C15.741 4.34311 15.239 3.81349 15.1764 3.81349C15.1549 3.81349 15.0981 3.77805 15.05 3.73474C14.9382 3.63383 14.591 3.45351 14.5086 3.45351C14.4738 3.45351 14.4454 3.43821 14.4454 3.41942C14.4454 3.3787 14.1234 3.27351 13.9988 3.27351C13.9503 3.27351 13.8982 3.25326 13.8829 3.22852C13.846 3.16878 12.7498 3.16878 12.7129 3.22852C12.6976 3.25326 12.6166 3.27351 12.533 3.27351C12.4493 3.27351 12.3683 3.29376 12.353 3.31851C12.3377 3.34326 12.2757 3.36351 12.2153 3.36351C12.1549 3.36351 12.1055 3.38376 12.1055 3.40851C12.1055 3.43326 12.065 3.45351 12.0155 3.45351C11.966 3.45351 11.9255 3.47375 11.9255 3.4985C11.9255 3.52325 11.885 3.5435 11.8355 3.5435C11.786 3.5435 11.7455 3.56375 11.7455 3.5885C11.7455 3.61325 11.7095 3.6335 11.6654 3.6335C11.6214 3.6335 11.5562 3.674 11.5205 3.72349C11.4848 3.77299 11.4311 3.81349 11.401 3.81349C11.3298 3.81349 10.8455 4.29778 10.8455 4.36899C10.8455 4.39902 10.805 4.4528 10.7555 4.48846C10.706 4.52412 10.6655 4.58768 10.6655 4.62964C10.6655 4.6716 10.6504 4.71266 10.6318 4.72099C10.2258 4.90143 10.1378 6.86458 10.5029 7.59647C10.5428 7.67656 10.5755 7.76678 10.5755 7.79682C10.5755 7.82686 9.6451 8.78138 8.50777 9.91791L6.44012 11.9843L6.33662 11.9047C6.27981 11.8609 6.18768 11.8247 6.13199 11.8241C6.07631 11.8236 6.03075 11.8029 6.03075 11.7781C6.03075 11.7534 5.98012 11.7331 5.91825 11.7331C5.85638 11.7331 5.80576 11.7129 5.80576 11.6881C5.80576 11.6634 5.71464 11.6431 5.60327 11.6431C5.4919 11.6431 5.40078 11.6229 5.40078 11.5981C5.40078 11.5706 5.18332 11.5531 4.8383 11.5531C4.49328 11.5531 4.27583 11.5706 4.27583 11.5981C4.27583 11.6229 4.19483 11.6431 4.09584 11.6431C3.99684 11.6431 3.91584 11.6634 3.91584 11.6881C3.91584 11.7129 3.8551 11.7331 3.78085 11.7331C3.7066 11.7331 3.64586 11.7534 3.64586 11.7781C3.64586 11.8029 3.60536 11.8231 3.55586 11.8231C3.50636 11.8231 3.46586 11.8434 3.46586 11.8681C3.46586 11.8929 3.42537 11.9131 3.37587 11.9131C3.32637 11.9131 3.28587 11.9334 3.28587 11.9581C3.28587 11.9829 3.2555 12.0031 3.21838 12.0031C3.18125 12.0031 3.15088 12.0234 3.15088 12.0481C3.15088 12.0729 3.13085 12.0931 3.10644 12.0931C2.99159 12.0931 2.43012 12.6656 2.29952 12.9157C2.26442 12.9831 2.21886 13.0381 2.19827 13.0381C2.1778 13.0381 2.16092 13.0786 2.16092 13.1281C2.16092 13.1776 2.14067 13.2181 2.11593 13.2181C2.09118 13.2181 2.07093 13.2586 2.07093 13.3081C2.07093 13.3576 2.05068 13.3981 2.02593 13.3981C2.00118 13.3981 1.98093 13.4588 1.98093 13.533C1.98093 13.6073 1.96068 13.668 1.93593 13.668C1.91119 13.668 1.89094 13.749 1.89094 13.848C1.89094 13.947 1.87069 14.028 1.84594 14.028C1.78564 14.028 1.78564 15.1382 1.84594 15.1755C1.87069 15.1908 1.89094 15.2831 1.89094 15.3807C1.89094 15.4782 1.91119 15.558 1.93593 15.558C1.96068 15.558 1.98093 15.6086 1.98093 15.6705C1.98093 15.7323 2.00118 15.7829 2.02593 15.7829C2.05068 15.7829 2.07093 15.8336 2.07093 15.8954C2.07093 15.9573 2.09118 16.0079 2.11593 16.0079C2.14067 16.0079 2.16092 16.0345 2.16092 16.067C2.16092 16.0994 2.20142 16.1695 2.25092 16.2226C2.30042 16.2757 2.34092 16.3406 2.34092 16.3668C2.34092 16.4148 2.99294 17.0879 3.03951 17.0879C3.05335 17.0879 3.10813 17.1284 3.16123 17.1779C3.21433 17.2274 3.28441 17.2679 3.31681 17.2679C3.34932 17.2679 3.37587 17.2881 3.37587 17.3129C3.37587 17.3376 3.41637 17.3579 3.46586 17.3579C3.51536 17.3579 3.55586 17.3781 3.55586 17.4029C3.55586 17.4276 3.59512 17.4479 3.64316 17.4479C3.69119 17.4479 3.74305 17.4681 3.75835 17.4929C3.77365 17.5176 3.84171 17.5379 3.90954 17.5379C3.97738 17.5379 4.05208 17.556 4.07559 17.5781C4.20203 17.6973 5.51901 17.6972 5.64602 17.578C5.66953 17.5559 5.74546 17.5379 5.81476 17.5379C5.88405 17.5379 5.94075 17.5176 5.94075 17.4929C5.94075 17.4681 5.97934 17.4479 6.02647 17.4479C6.13841 17.4479 6.43168 17.29 6.62213 17.1273C6.70527 17.0562 6.78896 16.998 6.8082 16.998C6.85646 16.9979 7.24569 16.6045 7.24569 16.5558C7.24569 16.5341 7.30644 16.4527 7.38069 16.375C7.45493 16.2973 7.51568 16.2032 7.51568 16.1659C7.51568 16.1285 7.53593 16.0979 7.56068 16.0979C7.58543 16.0979 7.60568 16.0574 7.60568 16.0079C7.60568 15.9584 7.62593 15.9179 7.65067 15.9179C7.67542 15.9179 7.69567 15.8787 7.69567 15.8306C7.69567 15.7826 7.71592 15.7307 7.74067 15.7154C7.76542 15.7002 7.78567 15.628 7.78567 15.5553C7.78567 15.4825 7.80401 15.423 7.8265 15.423C7.849 15.423 7.87971 15.3065 7.8949 15.1642C7.96904 14.4683 7.9723 14.3766 7.92494 14.3293C7.89783 14.3022 7.87566 14.1739 7.87566 14.0442C7.87566 13.9145 7.85542 13.7958 7.83067 13.7805C7.80592 13.7652 7.78567 13.6931 7.78567 13.6203C7.78567 13.5476 7.76542 13.4881 7.74067 13.4881C7.71592 13.4881 7.69567 13.4476 7.69567 13.3981C7.69567 13.3486 7.67542 13.3081 7.65067 13.3081C7.62593 13.3081 7.60568 13.2676 7.60568 13.2181C7.60568 13.1686 7.58543 13.1281 7.56068 13.1281C7.40735 13.1281 7.7247 12.7819 9.56241 10.9445C11.6538 8.85371 11.6801 8.83155 11.8805 8.98825C11.9424 9.03663 12.0385 9.07668 12.0942 9.07724C12.1499 9.0778 12.1955 9.0985 12.1955 9.12325C12.1955 9.148 12.2449 9.16825 12.3053 9.16825C12.3657 9.16825 12.4277 9.1885 12.443 9.21324C12.4583 9.23799 12.5696 9.25824 12.6904 9.25824C12.8113 9.25824 12.9226 9.27849 12.9379 9.30324C12.9745 9.36241 13.6354 9.36241 13.6354 9.30324C13.6354 9.27849 13.7366 9.25824 13.8604 9.25824C13.9841 9.25824 14.0854 9.23799 14.0854 9.21324C14.0854 9.1885 14.1461 9.16825 14.2204 9.16825C14.2946 9.16825 14.3554 9.148 14.3554 9.12325C14.3554 9.0985 14.4161 9.07825 14.4904 9.07825C14.5646 9.07825 14.6254 9.058 14.6254 9.03325C14.6254 9.0085 14.6566 8.98825 14.6948 8.98825C14.7329 8.98825 14.8052 8.94989 14.8556 8.90298C14.9464 8.81839 14.9635 8.83436 17.4186 11.291C19.7325 13.6064 19.9618 13.848 19.8451 13.848C19.8204 13.848 19.8001 13.876 19.8001 13.9104C19.8001 13.9447 19.7699 14.0307 19.7328 14.1016C19.696 14.1725 19.6656 14.2862 19.6654 14.3543C19.6652 14.4223 19.6449 14.478 19.6201 14.478C19.5952 14.478 19.5751 14.5971 19.5751 14.7453C19.5751 14.8923 19.5549 15.0252 19.5301 15.0405C19.4715 15.0767 19.4715 15.5892 19.5301 15.6255C19.5549 15.6408 19.5751 15.7534 19.5751 15.8756C19.5751 15.9979 19.5954 16.0979 19.6201 16.0979C19.6449 16.0979 19.6656 16.1536 19.6661 16.2217C19.6675 16.3684 19.8692 16.8784 19.9346 16.9002C19.9596 16.9086 19.9801 16.9468 19.9801 16.9851C19.9801 17.0234 20.0158 17.0875 20.0593 17.1276C20.103 17.1676 20.1918 17.272 20.2569 17.3596C20.3218 17.4471 20.4634 17.5787 20.5713 17.652C20.6793 17.7254 20.7743 17.8005 20.7825 17.8191C20.7909 17.8377 20.8319 17.8529 20.8739 17.8529C20.9158 17.8529 20.9794 17.8934 21.0151 17.9428C21.0507 17.9923 21.1147 18.0328 21.1574 18.0328C21.1999 18.0328 21.2473 18.0531 21.2626 18.0778C21.2779 18.1026 21.3398 18.1228 21.4002 18.1228C21.4607 18.1228 21.51 18.1431 21.51 18.1678C21.51 18.1926 21.5708 18.2128 21.645 18.2128C21.7193 18.2128 21.78 18.2331 21.78 18.2578C21.78 18.2861 22.065 18.3028 22.545 18.3028C23.025 18.3028 23.31 18.2861 23.31 18.2578C23.31 18.2331 23.3695 18.2128 23.4423 18.2128C23.515 18.2128 23.5872 18.1926 23.6024 18.1678C23.6178 18.1431 23.6797 18.1228 23.7401 18.1228C23.8006 18.1228 23.8499 18.1026 23.8499 18.0778C23.8499 18.0531 23.8904 18.0328 23.9399 18.0328C23.9894 18.0328 24.0299 18.0126 24.0299 17.9878C24.0299 17.9631 24.0659 17.9428 24.11 17.9428C24.154 17.9428 24.2193 17.9024 24.2549 17.8529C24.2906 17.8034 24.3508 17.7625 24.3886 17.7621C24.6131 17.7595 25.3349 16.8196 25.3349 16.5299C25.3349 16.4903 25.3551 16.4579 25.3799 16.4579C25.4046 16.4579 25.4249 16.3972 25.4249 16.3229C25.4249 16.2487 25.4451 16.1879 25.4699 16.1879C25.4946 16.1879 25.5149 16.1069 25.5149 16.0079C25.5149 15.9089 25.5351 15.8279 25.5599 15.8279C25.5873 15.8279 25.6049 15.6188 25.6049 15.2907C25.6049 14.981 25.5858 14.7415 25.5599 14.7255C25.5351 14.7102 25.5149 14.6178 25.5149 14.5203C25.5149 14.4228 25.4946 14.343 25.4699 14.343C25.4451 14.343 25.4249 14.3112 25.4249 14.2723C25.4249 14.1925 25.5296 14.073 25.5997 14.073C25.6492 14.073 25.9158 13.9056 26.0998 13.7589C26.1617 13.7096 26.2331 13.6689 26.2587 13.6686C26.2841 13.6683 26.3342 13.6275 26.3698 13.578C26.4055 13.5285 26.4555 13.4881 26.481 13.4879C26.5065 13.4879 26.5982 13.4272 26.6848 13.3531C26.7714 13.2789 26.8631 13.2182 26.8887 13.2182C26.9141 13.2181 26.9641 13.1776 26.9998 13.1281C27.0355 13.0786 27.0861 13.0381 27.1123 13.0381C27.1385 13.0381 27.1891 12.9976 27.2248 12.9481C27.2604 12.8986 27.3212 12.8581 27.3598 12.8581C27.3984 12.8581 27.4591 12.8176 27.4948 12.7681C27.5304 12.7186 27.5825 12.6781 27.6105 12.6781C27.6385 12.6781 27.7249 12.6173 27.8027 12.5431C27.8804 12.4688 27.9701 12.4081 28.0019 12.4081C28.0337 12.4081 28.0891 12.3676 28.1247 12.3181C28.1604 12.2686 28.2086 12.2281 28.2317 12.2281C28.2548 12.2281 28.3401 12.1775 28.4213 12.1156C28.5024 12.0537 28.5814 12.0031 28.5969 12.0031C28.6246 12.0031 28.9425 11.7641 29.0606 11.6544C29.0939 11.6234 29.139 11.5981 29.1608 11.5981C29.1828 11.5981 29.2513 11.5475 29.3131 11.4856C29.375 11.4238 29.4524 11.3731 29.4853 11.3731C29.518 11.3731 29.574 11.3326 29.6097 11.2832C29.6453 11.2337 29.6954 11.1932 29.7208 11.193C29.7464 11.193 29.838 11.1323 29.9247 11.0582C30.0113 10.984 30.103 10.9233 30.1285 10.9233C30.1539 10.9232 30.204 10.8827 30.2396 10.8332C30.2753 10.7837 30.3313 10.7432 30.3641 10.7432C30.3969 10.7432 30.4729 10.694 30.5329 10.6339C30.593 10.5739 30.7035 10.4885 30.7784 10.4443C30.8533 10.4 30.9146 10.3479 30.9146 10.3285C30.9146 10.3091 30.9418 10.2932 30.9753 10.2932C31.0086 10.2932 31.0826 10.2527 31.1396 10.2032C31.1966 10.1537 31.2574 10.1132 31.2745 10.1132C31.2916 10.1132 31.3645 10.0626 31.4364 10.0007C31.5083 9.93895 31.5879 9.88833 31.6134 9.88821C31.6389 9.88821 31.6889 9.84772 31.7246 9.79822C31.7602 9.74872 31.8103 9.70822 31.8357 9.70811C31.8613 9.70811 31.9529 9.64736 32.0396 9.57323C32.1262 9.49909 32.215 9.43835 32.2368 9.43835C32.2586 9.43823 32.3092 9.40269 32.3493 9.35915C32.3893 9.31573 32.4777 9.25149 32.5458 9.21662C32.6139 9.18163 32.6695 9.13619 32.6695 9.1156C32.6695 9.09513 32.6918 9.07825 32.719 9.07825C32.7461 9.07825 32.8251 9.0175 32.8945 8.94326C32.9639 8.86901 33.0485 8.80826 33.0826 8.80826C33.1167 8.80826 33.1739 8.76776 33.2095 8.71827C33.2452 8.66877 33.303 8.62827 33.3379 8.62827C33.3729 8.62827 33.4342 8.59261 33.4742 8.54885C33.5143 8.5052 33.6229 8.42983 33.7157 8.38123C33.8086 8.33263 33.8845 8.27717 33.8845 8.25805C33.8845 8.23893 33.9098 8.22329 33.9407 8.22329C33.9717 8.22318 34.0577 8.17087 34.132 8.10686C34.2062 8.04285 34.3227 7.95746 34.3907 7.91719C34.4588 7.87692 34.5145 7.82798 34.5145 7.80863C34.5145 7.78917 34.5403 7.77331 34.5721 7.77331C34.6037 7.77331 34.6588 7.73281 34.6944 7.68331C34.7301 7.63382 34.7861 7.59332 34.8189 7.59332C34.8517 7.59332 34.9291 7.54269 34.991 7.48082C35.0529 7.41895 35.1219 7.36833 35.1444 7.36833C35.1669 7.36833 35.236 7.3177 35.2979 7.25583C35.3597 7.19396 35.4371 7.14334 35.47 7.14334C35.5027 7.14334 35.5587 7.10284 35.5944 7.05334C35.6301 7.00384 35.6801 6.96335 35.7056 6.96323C35.7311 6.96323 35.8228 6.90249 35.9094 6.82835C35.996 6.75422 36.0877 6.69347 36.1132 6.69347C36.1387 6.69336 36.1887 6.65286 36.2244 6.60336C36.26 6.55386 36.312 6.51337 36.3399 6.51337C36.3678 6.51337 36.4373 6.47287 36.4944 6.42337C36.5514 6.37387 36.6144 6.33337 36.6342 6.33337C36.654 6.33337 36.7209 6.28275 36.7828 6.22088C36.8447 6.15901 36.9221 6.10839 36.9549 6.10839C36.9877 6.10839 37.0437 6.06789 37.0793 6.01839C37.115 5.96889 37.1651 5.92839 37.1905 5.92828C37.216 5.92828 37.3077 5.86753 37.3943 5.7934C37.4809 5.71926 37.5697 5.65852 37.5915 5.65852C37.6134 5.65841 37.664 5.62286 37.704 5.57932C37.7441 5.5359 37.8325 5.47166 37.9006 5.43679C37.9686 5.4018 38.0243 5.35636 38.0243 5.33577C38.0243 5.26231 38.1856 5.30011 38.2493 5.38842C38.2849 5.43792 38.3428 5.47841 38.3776 5.47841C38.4126 5.47841 38.4739 5.51396 38.514 5.5575C38.5832 5.63253 38.7186 5.7061 38.9693 5.80465C39.0311 5.82895 39.117 5.86675 39.1599 5.88868C39.2029 5.91051 39.3193 5.92839 39.4187 5.92839C39.518 5.92839 39.5992 5.94988 39.5992 5.97609C39.5992 6.00793 39.7735 6.01715 40.128 6.00399C40.7935 5.97924 40.9611 5.94774 41.2748 5.78811C41.3178 5.76629 41.3937 5.7484 41.4436 5.7484C41.4934 5.7484 41.5341 5.72815 41.5341 5.7034C41.5341 5.67865 41.5607 5.65841 41.5932 5.65841C41.6256 5.65841 41.6957 5.61791 41.7488 5.56841C41.8019 5.51891 41.8612 5.47841 41.8805 5.47841C41.9472 5.47841 42.6485 4.7202 42.7097 4.58194C42.7435 4.50578 42.7863 4.44346 42.8051 4.44346C42.8238 4.44346 42.8391 4.40296 42.8391 4.35346C42.8391 4.30397 42.8593 4.26347 42.8841 4.26347C42.9088 4.26347 42.9291 4.22297 42.9291 4.17347C42.9291 4.12397 42.9493 4.08348 42.9741 4.08348C42.9988 4.08348 43.0191 4.02273 43.0191 3.94848C43.0191 3.87424 43.0393 3.81349 43.0641 3.81349C43.0888 3.81349 43.1091 3.70336 43.1091 3.5687C43.1091 3.43404 43.1293 3.31131 43.1541 3.29601C43.1788 3.28071 43.1991 3.12885 43.1991 2.95853C43.1991 2.78821 43.1788 2.63634 43.1541 2.62104C43.1293 2.60574 43.1091 2.49314 43.1091 2.37085C43.1091 2.24857 43.0888 2.14856 43.0641 2.14856C43.0393 2.14856 43.0191 2.08782 43.0191 2.01357C43.0191 1.93932 42.9988 1.87858 42.9741 1.87858C42.9493 1.87858 42.9291 1.81783 42.9291 1.74358C42.9291 1.66934 42.9088 1.60859 42.8841 1.60859C42.8593 1.60859 42.8391 1.58204 42.8391 1.54953C42.8391 1.51713 42.7986 1.44705 42.7491 1.39395C42.6996 1.34085 42.6591 1.27065 42.6591 1.23792C42.6591 1.20518 42.6186 1.14927 42.5691 1.11361C42.5196 1.07795 42.4791 1.03228 42.4791 1.01214C42.4791 0.969393 42.1805 0.663632 42.1387 0.663632C42.1231 0.663632 42.0535 0.602885 41.9841 0.528638C41.9147 0.454391 41.8256 0.393644 41.7861 0.393644C41.7465 0.393644 41.714 0.378457 41.7138 0.359896C41.7133 0.31951 41.4954 0.213652 41.4126 0.213652C41.3805 0.213652 41.3541 0.193403 41.3541 0.168654C41.3541 0.143905 41.3153 0.123656 41.2679 0.123656C41.2205 0.123656 41.1737 0.0999199 41.164 0.0708962C41.1459 0.0165612 39.6141 -0.0259619 39.2842 0.0186986ZM40.6094 1.38776C40.6329 1.41026 40.6886 1.4286 40.7332 1.4286C40.7777 1.4286 40.8142 1.44885 40.8142 1.4736C40.8142 1.49834 40.8502 1.51859 40.8943 1.51859C40.9383 1.51859 41.0035 1.55909 41.0392 1.60859C41.0748 1.65809 41.126 1.69858 41.153 1.69858C41.1799 1.69858 41.2615 1.77913 41.3342 1.87756C41.407 1.97588 41.4818 2.05688 41.5004 2.05756C41.519 2.05812 41.5341 2.08894 41.5341 2.12607C41.5341 2.16319 41.5493 2.19368 41.5679 2.1939C41.613 2.19435 41.7141 2.41641 41.7141 2.51485C41.7141 2.55793 41.7344 2.60574 41.7591 2.62104C41.7839 2.63634 41.8041 2.78945 41.8041 2.96123C41.8041 3.13942 41.7848 3.27351 41.7591 3.27351C41.7344 3.27351 41.7141 3.33426 41.7141 3.40851C41.7141 3.48275 41.6939 3.5435 41.6691 3.5435C41.6444 3.5435 41.6241 3.584 41.6241 3.6335C41.6241 3.683 41.6039 3.72349 41.5791 3.72349C41.5544 3.72349 41.5341 3.75432 41.5341 3.792C41.5341 3.8811 41.0618 4.35346 40.9727 4.35346C40.935 4.35346 40.9041 4.36865 40.9038 4.38721C40.9034 4.43289 40.6808 4.53346 40.5802 4.53346C40.5356 4.53346 40.4992 4.55371 40.4992 4.57845C40.4992 4.60467 40.3492 4.62345 40.1392 4.62345C39.9292 4.62345 39.7792 4.60467 39.7792 4.57845C39.7792 4.55371 39.7185 4.53346 39.6442 4.53346C39.57 4.53346 39.5092 4.51321 39.5092 4.48846C39.5092 4.46371 39.4732 4.44346 39.4291 4.44346C39.3851 4.44346 39.3199 4.40296 39.2842 4.35346C39.2486 4.30397 39.1928 4.26347 39.1603 4.26347C39.0783 4.26347 38.7893 3.96671 38.7893 3.88245C38.7893 3.84454 38.7741 3.81338 38.7555 3.81315C38.7151 3.8127 38.6093 3.5948 38.6093 3.512C38.6093 3.47983 38.589 3.45351 38.5643 3.45351C38.5395 3.45351 38.5193 3.38387 38.5193 3.29871C38.5193 3.21355 38.499 3.13132 38.4743 3.11602C38.4495 3.10072 38.4293 3.02861 38.4293 2.95583C38.4293 2.88304 38.4495 2.82353 38.4743 2.82353C38.499 2.82353 38.5193 2.74254 38.5193 2.64354C38.5193 2.54455 38.5395 2.46355 38.5643 2.46355C38.589 2.46355 38.6093 2.41293 38.6093 2.35106C38.6093 2.28918 38.6295 2.23856 38.6543 2.23856C38.679 2.23856 38.6993 2.21089 38.6993 2.17714C38.6993 2.09659 39.1366 1.6492 39.2955 1.56719C39.3635 1.53209 39.4192 1.48653 39.4192 1.46595C39.4192 1.44547 39.48 1.4286 39.5542 1.4286C39.6285 1.4286 39.6892 1.40947 39.6892 1.38607C39.6892 1.3026 40.5219 1.30407 40.6094 1.38776ZM13.8518 4.71041C13.8607 4.73685 13.9067 4.75845 13.9541 4.75845C14.0016 4.75845 14.0404 4.7787 14.0404 4.80344C14.0404 4.82819 14.0604 4.84844 14.0848 4.84844C14.1394 4.84844 14.2907 4.96904 14.418 5.11382C14.4702 5.1731 14.5584 5.26839 14.6141 5.32553C14.6698 5.38257 14.7154 5.46064 14.7154 5.49889C14.7154 5.53714 14.7356 5.56841 14.7604 5.56841C14.7851 5.56841 14.8054 5.61779 14.8054 5.6782C14.8054 5.73861 14.8256 5.8006 14.8503 5.8159C14.8754 5.83142 14.8953 6.04134 14.8953 6.29108C14.8953 6.55926 14.8773 6.73836 14.8503 6.73836C14.8256 6.73836 14.8054 6.78898 14.8054 6.85085C14.8054 6.91272 14.7851 6.96335 14.7604 6.96335C14.7356 6.96335 14.7154 6.99192 14.7154 7.02691C14.7154 7.14098 14.0477 7.77331 13.9273 7.77331C13.8905 7.77331 13.8604 7.79356 13.8604 7.81831C13.8604 7.84306 13.7705 7.86331 13.6606 7.86331C13.5507 7.86331 13.4482 7.88355 13.4329 7.9083C13.4176 7.93305 13.3455 7.9533 13.2727 7.9533C13.1999 7.9533 13.1404 7.93305 13.1404 7.9083C13.1404 7.88355 13.0594 7.86331 12.9604 7.86331C12.8614 7.86331 12.7804 7.84306 12.7804 7.81831C12.7804 7.79356 12.7541 7.77331 12.7219 7.77331C12.6391 7.77331 12.4212 7.66745 12.4208 7.62707C12.4206 7.6085 12.3874 7.59332 12.347 7.59332C12.2365 7.59332 11.9374 7.21533 11.7951 6.89585C11.762 6.8216 11.7171 6.72564 11.6952 6.68267C11.6397 6.57378 11.6444 5.8384 11.7005 5.8384C11.7252 5.8384 11.7455 5.80577 11.7455 5.76573C11.7455 5.55604 12.2801 4.84844 12.4385 4.84844C12.4781 4.84844 12.5105 4.82819 12.5105 4.80344C12.5105 4.7787 12.551 4.75845 12.6005 4.75845C12.6499 4.75845 12.6904 4.73943 12.6904 4.71626C12.6904 4.61985 13.8198 4.61423 13.8518 4.71041ZM36.9348 12.5091C36.5462 12.7256 36.5844 11.1835 36.5844 26.672V40.3518H35.6619H34.7394V28.3892C34.7394 15.4298 34.7555 16.2937 34.5101 16.0715C34.416 15.9863 28.7121 15.9058 28.2822 15.9835C28.1202 16.0129 27.8998 16.1921 27.8998 16.2945C27.8998 16.3348 27.8795 16.3679 27.8548 16.3679C27.8248 16.3679 27.8098 20.3952 27.8098 28.3599V40.3518H26.8873H25.9648V33.6471C25.9648 29.2073 25.9497 26.9424 25.9198 26.9424C25.8951 26.9424 25.8748 26.9112 25.8748 26.8729C25.8748 26.8347 25.8251 26.7537 25.7644 26.6929C25.7036 26.6322 25.6226 26.5825 25.5844 26.5825C25.5461 26.5825 25.5149 26.5622 25.5149 26.5375C25.5149 26.5079 24.4799 26.4925 22.5 26.4925C20.5201 26.4925 19.4851 26.5079 19.4851 26.5375C19.4851 26.5622 19.4539 26.5825 19.4156 26.5825C19.3256 26.5825 19.1252 26.7829 19.1252 26.8729C19.1252 26.9112 19.1049 26.9424 19.0802 26.9424C19.0503 26.9424 19.0352 29.2073 19.0352 33.6471V40.3518H18.1127H17.1902V30.1592C17.1902 22.0874 17.1785 19.9462 17.134 19.8684C17.0449 19.713 16.8856 19.5628 16.8098 19.5628C16.7715 19.5628 16.7403 19.5425 16.7403 19.5178C16.7403 19.4882 15.6978 19.4728 13.7029 19.4728C11.708 19.4728 10.6655 19.4882 10.6655 19.5178C10.6655 19.5425 10.6337 19.5628 10.5948 19.5628C10.5149 19.5628 10.4519 19.6205 10.3387 19.7974C10.2651 19.9125 10.2606 20.512 10.2606 30.1357V40.3518H9.3381H8.41564V37.23C8.41564 33.9073 8.41845 33.9541 8.20055 33.7034C8.15218 33.6477 8.08074 33.6021 8.04182 33.6021C8.00278 33.6021 7.95846 33.5819 7.94316 33.5571C7.92505 33.5279 6.86276 33.5121 4.9031 33.5121C2.92499 33.5121 1.89094 33.5276 1.89094 33.5571C1.89094 33.5819 1.85966 33.6021 1.82141 33.6021C1.73142 33.6021 1.53095 33.8026 1.53095 33.8926C1.53095 33.9309 1.5107 33.9621 1.48595 33.9621C1.45637 33.9621 1.44096 35.057 1.44096 37.157V40.3518H0.898056C-0.0665875 40.3518 0.00102189 40.1752 0.00102189 42.6966V44.7576L0.115542 44.8721L0.230062 44.9866H22.5H44.7699L44.8845 44.8721L44.999 44.7576V42.6966C44.999 40.1752 45.0666 40.3518 44.1019 40.3518H43.559V26.605C43.559 17.4704 43.544 12.8581 43.514 12.8581C43.4893 12.8581 43.469 12.8268 43.469 12.7886C43.469 12.6998 43.2691 12.4981 43.1813 12.4981C43.1445 12.4981 43.1019 12.4778 43.0866 12.4531C43.0231 12.3504 37.1232 12.4042 36.9348 12.5091ZM5.19829 12.9931C5.21359 13.0178 5.28569 13.0381 5.35848 13.0381C5.43126 13.0381 5.49077 13.0583 5.49077 13.0831C5.49077 13.1078 5.52677 13.1281 5.57087 13.1281C5.61485 13.1281 5.6801 13.1686 5.71576 13.2181C5.75142 13.2676 5.80148 13.3081 5.82691 13.3081C5.89395 13.3082 6.12074 13.5119 6.12074 13.5721C6.12074 13.6001 6.14099 13.623 6.16574 13.623C6.19049 13.623 6.21074 13.6534 6.21074 13.6905C6.21074 13.7277 6.23099 13.758 6.25574 13.758C6.28049 13.758 6.30074 13.7884 6.30074 13.8255C6.30074 13.8627 6.32098 13.893 6.34573 13.893C6.37048 13.893 6.39073 13.9335 6.39073 13.983C6.39073 14.0325 6.41098 14.073 6.43573 14.073C6.46048 14.073 6.48073 14.154 6.48073 14.253C6.48073 14.352 6.50098 14.433 6.52573 14.433C6.55047 14.433 6.57072 14.4938 6.57072 14.568C6.57072 14.6422 6.55047 14.703 6.52573 14.703C6.50098 14.703 6.48073 14.8042 6.48073 14.928C6.48073 15.0517 6.46048 15.153 6.43573 15.153C6.41098 15.153 6.39073 15.1935 6.39073 15.243C6.39073 15.2925 6.37048 15.333 6.34573 15.333C6.32098 15.333 6.30074 15.3638 6.30074 15.4015C6.30074 15.5602 5.65277 16.0979 5.46141 16.0979C5.428 16.0979 5.40078 16.1182 5.40078 16.1429C5.40078 16.1677 5.32102 16.1879 5.22348 16.1879C5.12595 16.1879 5.03359 16.2082 5.01829 16.2329C5.00299 16.2577 4.92076 16.2779 4.8356 16.2779C4.75044 16.2779 4.68081 16.2577 4.68081 16.2329C4.68081 16.2082 4.62602 16.1879 4.55909 16.1879C4.42398 16.1879 3.91584 15.9685 3.91584 15.9101C3.91584 15.8896 3.88401 15.8729 3.84508 15.8729C3.7687 15.8729 3.64586 15.7692 3.64586 15.7046C3.64586 15.6828 3.6057 15.6219 3.55654 15.5691C3.41907 15.4215 3.28587 15.1621 3.28587 15.0417C3.28587 14.9821 3.26562 14.9208 3.24087 14.9055C3.21613 14.8902 3.19588 14.7371 3.19588 14.5653C3.19588 14.3871 3.21523 14.253 3.24087 14.253C3.26562 14.253 3.28587 14.1923 3.28587 14.118C3.28587 14.0438 3.30117 13.983 3.31985 13.983C3.33863 13.983 3.38251 13.9185 3.41738 13.8395C3.49511 13.6641 3.93283 13.2181 4.02733 13.2181C4.06501 13.2181 4.09584 13.1978 4.09584 13.1731C4.09584 13.1483 4.13633 13.1281 4.18583 13.1281C4.23533 13.1281 4.27583 13.1078 4.27583 13.0831C4.27583 13.0583 4.32645 13.0381 4.38832 13.0381C4.45019 13.0381 4.50082 13.0178 4.50082 12.9931C4.50082 12.9671 4.64245 12.9481 4.8356 12.9481C5.01976 12.9481 5.18299 12.9683 5.19829 12.9931ZM22.995 13.713C22.995 13.7378 23.0261 13.758 23.0643 13.758C23.2699 13.758 23.9399 14.2895 23.9399 14.4526C23.9399 14.4913 23.9602 14.523 23.9849 14.523C24.0097 14.523 24.0299 14.5635 24.0299 14.613C24.0299 14.6625 24.0502 14.703 24.0749 14.703C24.0997 14.703 24.1199 14.7637 24.1199 14.838C24.1199 14.9122 24.1402 14.973 24.1649 14.973C24.1907 14.973 24.2099 15.108 24.2099 15.288C24.2099 15.468 24.1907 15.603 24.1649 15.603C24.1402 15.603 24.1199 15.6517 24.1199 15.7112C24.1199 15.9526 23.5251 16.7279 23.3398 16.7279C23.2986 16.7279 23.265 16.7482 23.265 16.7729C23.265 16.7976 23.2156 16.8179 23.1552 16.8179C23.0948 16.8179 23.0328 16.8381 23.0175 16.8629C23.002 16.888 22.792 16.9079 22.5423 16.9079C22.2741 16.9079 22.095 16.8899 22.095 16.8629C22.095 16.8381 22.0388 16.8179 21.9699 16.8179C21.8965 16.8179 21.8182 16.7808 21.78 16.7279C21.7444 16.6784 21.6842 16.6367 21.6464 16.6352C21.4613 16.628 20.9701 15.8772 20.9701 15.6017C20.9701 15.5034 20.9498 15.423 20.9251 15.423C20.9003 15.423 20.8801 15.3635 20.8801 15.2907C20.8801 15.2179 20.9003 15.1458 20.9251 15.1305C20.9498 15.1152 20.9701 15.0329 20.9701 14.9478C20.9701 14.8626 20.9878 14.793 21.0094 14.793C21.031 14.793 21.0605 14.7347 21.0747 14.6634C21.089 14.5922 21.1321 14.5025 21.1703 14.4642C21.2087 14.4258 21.2401 14.3705 21.2401 14.3411C21.2401 14.2742 21.5437 13.9927 21.6535 13.9578C21.6984 13.9437 21.735 13.9131 21.735 13.89C21.735 13.8669 21.7755 13.848 21.825 13.848C21.8745 13.848 21.915 13.8278 21.915 13.803C21.915 13.7783 21.9644 13.758 22.0248 13.758C22.0852 13.758 22.1472 13.7378 22.1625 13.713C22.1778 13.6883 22.3714 13.668 22.5927 13.668C22.8308 13.668 22.995 13.6864 22.995 13.713ZM42.1641 27.0999V40.3518H40.0942H38.0243V27.0999V13.848H40.0942H42.1641V27.0999ZM33.3445 28.8549V40.3518H31.2746H29.2047V28.8549V17.3579H31.2746H33.3445V28.8549ZM15.7953 30.6098V40.3518H13.7254H11.6555V30.6098V20.8677H13.7254H15.7953V30.6098ZM24.5699 34.1196V40.3518H22.5H20.4301V34.1196V27.8874H22.5H24.5699V34.1196ZM6.97571 37.6295V40.3518H4.9058H2.83589V37.6295V34.9071H4.9058H6.97571V37.6295ZM43.739 42.7592V43.7267H22.5H1.26096V42.7592V41.7918H22.5H43.739V42.7592Z" fill="white"/>
</svg>
