<svg width="53" height="53" viewBox="0 0 53 53" fill="none" xmlns="http://www.w3.org/2000/svg">
<g filter="url(#filter0_d_383_719)">
<path fill-rule="evenodd" clip-rule="evenodd" d="M23.9379 3.0185C23.9197 3.03668 23.6608 3.07254 23.3625 3.09812C22.3472 3.18551 21.3691 3.33158 20.6912 3.4972C20.5672 3.52755 20.3756 3.56403 20.2654 3.57845C20.1552 3.59274 20.0437 3.62484 20.0175 3.64954C19.9913 3.67424 19.9178 3.69455 19.8541 3.69455C19.7903 3.69455 19.699 3.71486 19.6512 3.73981C19.6033 3.76476 19.4627 3.81316 19.3387 3.84739C19.0417 3.92939 18.4881 4.09915 18.362 4.1468C18.3069 4.16761 18.1603 4.21425 18.0364 4.25049C17.8246 4.3123 17.0422 4.61635 16.7089 4.76643C16.6263 4.80354 16.5023 4.85683 16.4334 4.88479C16.2584 4.95588 15.8256 5.15047 15.7156 5.20752C14.5102 5.83341 14.2727 5.96745 13.4763 6.47147C13.2963 6.58544 13.113 6.70117 13.0689 6.72875C12.9278 6.81702 12.2724 7.27453 12.0274 7.45596C11.7749 7.64278 11.6367 7.75462 10.8916 8.375C10.241 8.91652 8.87862 10.2907 8.28666 11.0023C8.01617 11.3275 7.78249 11.6048 7.76721 11.6186C7.70623 11.6738 6.89925 12.8106 6.74071 13.0646C6.71316 13.1087 6.59758 13.2923 6.48374 13.4725C6.06335 14.1384 5.8442 14.5156 5.56531 15.054C5.40815 15.3574 5.25612 15.6508 5.22745 15.706C5.07529 15.999 4.96246 16.2475 4.96246 16.2899C4.96246 16.3162 4.916 16.4326 4.8594 16.5484C4.55134 17.1778 4.03464 18.6569 3.75212 19.7182C3.72282 19.8285 3.68012 19.9639 3.65745 20.0191C3.63479 20.0742 3.60511 20.1984 3.59171 20.2949C3.57818 20.3914 3.54136 20.572 3.50993 20.6961C3.45483 20.9137 3.43793 21.0041 3.30856 21.7744C3.13888 22.7853 3.05961 23.6468 3.02805 24.8243L3 25.8679L3.24695 25.7427C3.89626 25.4133 5.29419 25.1457 7.59227 24.9112C9.10854 24.7563 10.2819 24.6684 11.3241 24.6316C11.7511 24.6165 12.1456 24.5834 12.2007 24.558C12.2558 24.5325 12.7292 24.4994 13.2526 24.4845C13.7761 24.4694 14.7679 24.435 15.4566 24.4076C16.1454 24.3804 17.5714 24.3443 18.6256 24.3276C20.7384 24.294 20.6912 24.3022 20.6912 23.9729C20.6912 23.9117 20.7138 23.8477 20.7413 23.8306C20.7689 23.8136 20.7914 23.7668 20.7914 23.7268C20.7914 23.4644 21.4769 22.3673 21.9195 21.9215C22.3464 21.4914 23.4447 20.7964 23.6977 20.7964C23.7489 20.7964 23.8033 20.7765 23.8183 20.752C23.8335 20.7276 23.908 20.6957 23.9841 20.6811C24.0602 20.6665 24.2865 20.6178 24.4872 20.5726C25.0254 20.4518 26.7935 20.5098 26.8808 20.6512C26.8961 20.6759 26.9525 20.6961 27.0064 20.6961C27.0602 20.6961 27.1434 20.7169 27.1912 20.7423C27.2391 20.7676 27.4109 20.8392 27.5728 20.9012C27.9779 21.0563 28.5234 21.4226 28.9517 21.8272C29.5981 22.4377 29.9746 23.0303 30.2881 23.9309C30.3361 24.0688 30.3953 24.2043 30.4196 24.2318C30.4467 24.2624 31.2117 24.2962 32.3775 24.3181C37.191 24.409 41.4277 24.6514 44.4096 25.0063C46.224 25.2223 47.2771 25.4532 47.7826 25.7456L48 25.8712L47.9716 24.8259C47.9385 23.6142 47.8586 22.748 47.6923 21.7995C47.6658 21.6478 47.6213 21.3882 47.5935 21.2227C47.5657 21.0572 47.5179 20.8202 47.4874 20.6961C47.4569 20.572 47.4201 20.3857 47.4057 20.282C47.3913 20.1784 47.3593 20.0811 47.3347 20.066C47.31 20.0507 47.2898 19.9842 47.2898 19.9181C47.2898 19.8522 47.2702 19.7462 47.2461 19.6829C47.2221 19.6195 47.18 19.4887 47.1527 19.3922C46.5554 17.2855 45.6446 15.2363 44.5504 13.5374C44.4041 13.3101 44.2843 13.1132 44.2843 13.1001C44.2843 13.0648 43.5022 11.9814 43.2871 11.7189C43.1855 11.5948 43.048 11.4142 42.9813 11.3177C42.9148 11.2211 42.8342 11.1196 42.8023 11.092C42.7702 11.0644 42.5869 10.8613 42.3948 10.6406C41.8086 9.96745 40.7565 8.92955 39.9765 8.25501C39.9076 8.19545 39.6596 7.9971 39.4255 7.81442C39.1913 7.63162 38.9771 7.46361 38.9496 7.44104C38.922 7.41835 38.8319 7.35666 38.7492 7.30387C38.6666 7.25109 38.4637 7.10565 38.2984 6.98089C38.1331 6.85602 37.964 6.73891 37.9227 6.7206C37.8814 6.7023 37.7912 6.64864 37.7223 6.60124C37.0281 6.12367 35.3488 5.20864 34.6918 4.94998C34.5265 4.88491 34.3687 4.81508 34.3412 4.79489C34.3136 4.77483 34.0093 4.65183 33.6649 4.52181C33.3205 4.39167 32.9937 4.26754 32.9386 4.24572C32.7766 4.18178 32.425 4.07132 31.3322 3.74107C31.2475 3.71549 31.1305 3.69455 31.0721 3.69455C31.0137 3.69455 30.9535 3.67437 30.9382 3.64967C30.923 3.62497 30.8259 3.59299 30.7224 3.57857C30.6189 3.56416 30.4328 3.52754 30.3088 3.49745C30.0954 3.44555 29.8388 3.3964 29.2068 3.28619C28.9275 3.23754 28.5444 3.18676 27.7291 3.09047C27.2139 3.02953 23.988 2.96835 23.9379 3.0185ZM27.2783 5.47784C27.5538 5.49363 27.8006 5.52774 27.8268 5.55357C27.8529 5.57927 28.0375 5.60033 28.237 5.60033C28.4365 5.60033 28.6137 5.6229 28.6307 5.65048C28.6478 5.67807 28.7686 5.70064 28.8992 5.70064C29.0298 5.70064 29.1581 5.72095 29.1842 5.74565C29.2104 5.77035 29.322 5.80282 29.4322 5.81762C30.2762 5.93121 32.4547 6.58557 33.236 6.96021C33.3445 7.01224 33.4508 7.05474 33.4723 7.05474C33.5655 7.05474 35.5486 8.07446 35.671 8.1853C35.7153 8.22554 35.7656 8.25839 35.7827 8.25839C35.8165 8.25839 36.5061 8.6966 37.0541 9.06634C37.2426 9.19348 37.5545 9.42531 37.7474 9.58141C37.9402 9.73751 38.2589 9.99466 38.4556 10.1526C38.8895 10.5013 40.338 11.9493 40.7819 12.4782C41.3227 13.1223 41.613 13.4878 41.7922 13.75C42.311 14.5096 42.6144 14.9733 42.6793 15.1057C42.7194 15.1875 42.7788 15.2885 42.8113 15.3298C43.2032 15.8289 44.2147 18.0694 44.5886 19.2668C44.6489 19.4599 44.7161 19.663 44.7379 19.7182C44.7598 19.7733 44.7916 19.8862 44.8088 19.9689C44.8485 20.1611 44.9132 20.4165 44.987 20.671C45.0189 20.7814 45.0556 20.9506 45.0685 21.0472C45.0814 21.1437 45.1116 21.2679 45.1356 21.323C45.186 21.439 45.2264 21.6604 45.2686 22.0502C45.285 22.2019 45.3207 22.354 45.348 22.3881C45.528 22.6134 45.3643 22.6312 44.3094 22.5017C42.0344 22.2224 38.9859 22.0369 34.4914 21.9047C32.0946 21.8342 31.9917 21.8233 31.8993 21.6295C31.6854 21.1812 30.5728 19.9165 30.157 19.6492C30.0874 19.6043 29.8841 19.4623 29.7054 19.3335C29.1723 18.9491 28.2661 18.5203 27.6038 18.3391C27.4799 18.3051 27.3334 18.2587 27.2783 18.236C26.8718 18.0684 25.4572 17.9805 24.7236 18.0773C24.4756 18.11 24.1713 18.1498 24.0473 18.1654C23.9234 18.1812 23.7769 18.2123 23.7218 18.2345C23.5218 18.3151 23.2619 18.3891 23.179 18.3891C23.1324 18.3891 23.0552 18.4091 23.0073 18.4335C22.9595 18.458 22.6305 18.6166 22.2762 18.786C20.963 19.4139 19.6676 20.5707 19.1181 21.6061C18.9997 21.8292 18.9325 21.8368 16.4835 21.9053C12.1617 22.026 8.98882 22.2199 6.71567 22.502C5.66738 22.6321 5.47127 22.6112 5.65297 22.3881C5.68078 22.354 5.71559 22.2132 5.73049 22.0753C5.76305 21.7716 5.87701 21.1974 6.00925 20.671C6.03693 20.5607 6.08289 20.3614 6.11144 20.2279C6.33647 19.1748 7.48758 16.4061 8.06451 15.5304C8.16444 15.3787 8.27877 15.1869 8.3186 15.1042C8.37896 14.9787 8.72897 14.4464 9.24191 13.6996C9.38016 13.4987 9.62549 13.1732 9.73293 13.0484C9.78064 12.993 9.96072 12.7784 10.1329 12.5715C10.3051 12.3646 10.4914 12.1474 10.5469 12.0888C11.0734 11.5328 11.7337 10.8732 12.08 10.557C12.4687 10.2022 12.5844 10.1052 13.0755 9.72259C13.171 9.64823 13.3175 9.529 13.4011 9.45766C13.6491 9.24589 15.1434 8.25839 15.2157 8.25839C15.2337 8.25839 15.284 8.22642 15.3275 8.1873C15.489 8.04211 17.1244 7.21348 17.8109 6.92899C18.4654 6.65779 19.6851 6.24153 20.0901 6.15113C20.2416 6.11727 20.4107 6.07126 20.4658 6.04894C20.5645 6.00895 20.7476 5.97158 21.0919 5.9208C21.1884 5.90664 21.3123 5.87529 21.3675 5.85109C21.4226 5.82689 21.5578 5.79392 21.668 5.77762C21.7782 5.76145 21.9923 5.72446 22.1439 5.6955C22.2954 5.66666 22.5772 5.63155 22.77 5.61776C22.9629 5.60384 23.1421 5.57175 23.1682 5.54629C23.1944 5.52084 23.4311 5.49739 23.6942 5.49414C23.9573 5.49088 24.2402 5.47019 24.3229 5.44825C24.4771 5.40725 26.3846 5.4263 27.2783 5.47784ZM30.3774 26.8751C30.3089 26.9684 30.2299 27.1578 30.1535 27.4122C30.0903 27.6225 29.7485 28.2512 29.5324 28.5547C29.4135 28.7216 28.7304 29.4087 28.554 29.5388C28.0743 29.8925 27.6101 30.1335 27.128 30.2788C27.0178 30.312 26.8825 30.3572 26.8274 30.379C26.3444 30.5708 24.5053 30.5653 24.1356 30.3711C24.0878 30.3459 24.0046 30.3253 23.9508 30.3253C23.8969 30.3253 23.839 30.3028 23.8219 30.2752C23.8049 30.2476 23.7571 30.225 23.7156 30.225C23.5438 30.225 22.7165 29.7742 22.4194 29.5186C21.543 28.7648 21.1186 28.1781 20.6994 27.1407L20.5979 26.8899L18.5784 26.9086C17.4674 26.9189 16.5404 26.9379 16.518 26.9511C16.4955 26.9641 15.8418 26.9967 15.0653 27.0234C13.304 27.084 12.0196 27.1447 11.0486 27.2134C10.6353 27.2426 9.98164 27.2884 9.59593 27.3152C8.87925 27.3648 8.00102 27.4427 7.64236 27.4882C7.53216 27.5021 7.21658 27.5385 6.94108 27.5688C5.34203 27.7452 4.54282 27.8887 3.76026 28.1398C3.08854 28.3553 3.11609 28.276 3.31545 29.4226C3.34187 29.5743 3.37506 29.7887 3.38934 29.899C3.40361 30.0094 3.43505 30.1448 3.45909 30.1999C3.48326 30.2551 3.51444 30.368 3.52847 30.4507C3.57417 30.7219 3.61688 30.9004 3.66008 31.0024C3.6835 31.0575 3.71668 31.1704 3.73384 31.2531C3.751 31.3359 3.77692 31.46 3.79145 31.529C3.80597 31.5979 3.83803 31.6995 3.86245 31.7547C3.887 31.8098 3.95537 32.0129 4.01435 32.206C4.26506 33.0266 4.53192 33.7396 4.85927 34.4629C4.90924 34.5732 5.00254 34.7876 5.06678 34.9393C5.20002 35.2539 5.54703 35.9297 5.79561 36.3587C5.8884 36.5189 5.96429 36.6604 5.96429 36.6733C5.96429 36.6968 6.07725 36.8796 6.41136 37.3968C6.50929 37.5485 6.63051 37.7483 6.68048 37.8407C6.73057 37.9333 6.81535 38.056 6.86882 38.1136C6.92229 38.1711 6.96612 38.2341 6.96612 38.2536C6.96612 38.2732 7.0901 38.4498 7.24163 38.6462C7.39316 38.8425 7.51713 39.0253 7.51713 39.0525C7.51713 39.0798 7.53855 39.1019 7.56484 39.1019C7.59102 39.1019 7.68594 39.2091 7.77585 39.3402C7.86564 39.4712 7.99889 39.6461 8.07177 39.7288C8.14478 39.8116 8.38033 40.0824 8.59548 40.3307C9.48711 41.36 10.8317 42.6232 11.8251 43.3649C11.9176 43.4338 12.0512 43.5371 12.1219 43.5944C12.1928 43.6519 12.4086 43.8076 12.6014 43.9407C12.7943 44.0739 12.9633 44.1987 12.9771 44.2182C12.9909 44.2376 13.0811 44.2934 13.1775 44.3421C13.2739 44.3906 13.4542 44.5017 13.5782 44.589C13.7769 44.7286 14.3365 45.0526 15.0309 45.4301C15.1548 45.4976 15.3014 45.5788 15.3565 45.6108C15.451 45.6655 15.9308 45.889 16.4334 46.1125C17.473 46.5746 18.6813 47.0002 19.7645 47.2855C19.8747 47.3146 20.01 47.3567 20.0651 47.3793C20.1202 47.4019 20.2329 47.4322 20.3155 47.4466C20.3982 47.461 20.5785 47.4964 20.7163 47.5252C21.608 47.7118 22.2568 47.813 23.3711 47.9391C24.0949 48.0211 26.9002 48.02 27.6289 47.9375C28.9337 47.7897 29.4822 47.7048 30.2837 47.5265C30.4215 47.4959 30.6189 47.4587 30.7224 47.4437C30.8259 47.4288 30.923 47.3965 30.9382 47.3718C30.9535 47.3471 31.0198 47.3269 31.0858 47.3269C31.1517 47.3269 31.2575 47.3068 31.3208 47.2823C31.3841 47.2577 31.6725 47.1641 31.9618 47.0744C33.7649 46.5149 35.131 45.9325 36.5953 45.0994C36.6504 45.068 36.7908 44.9809 36.9074 44.9058C37.0239 44.8306 37.1303 44.7691 37.1438 44.7691C37.1636 44.7691 37.6768 44.446 38.0229 44.2155C38.1422 44.136 38.9347 43.5714 39.0972 43.45C40.1256 42.6823 41.6468 41.2462 42.4812 40.2554C42.6787 40.021 42.9341 39.7198 43.0488 39.5863C43.1635 39.4528 43.2909 39.2891 43.3317 39.2227C43.3725 39.1562 43.4233 39.1019 43.4444 39.1019C43.4656 39.1019 43.4829 39.0752 43.4829 39.0425C43.4829 39.0098 43.5253 38.9364 43.5773 38.8795C43.6758 38.7713 44.7352 37.2037 44.7352 37.1659C44.7352 37.154 44.8333 36.981 44.9534 36.7815C45.1954 36.3794 45.905 35.011 45.9499 34.86C45.9655 34.807 46.1045 34.4758 46.2588 34.1237C46.413 33.7718 46.637 33.185 46.7565 32.8198C46.9556 32.2112 47.0063 32.046 47.1527 31.529C47.1801 31.4324 47.2221 31.3017 47.2461 31.2382C47.2702 31.1749 47.2898 31.069 47.2898 31.003C47.2898 30.9369 47.31 30.8705 47.3347 30.8552C47.3767 30.8291 47.3958 30.739 47.4703 30.2125C47.4869 30.0953 47.5208 29.9779 47.5454 29.9517C47.5701 29.9255 47.5904 29.8115 47.5904 29.6984C47.5904 29.5853 47.6104 29.4714 47.6351 29.4452C47.6596 29.419 47.6917 29.2621 47.7065 29.0966C47.7211 28.9311 47.7467 28.7042 47.7631 28.5923C47.7976 28.3576 47.735 28.313 47.0687 28.0983C45.2956 27.5272 39.6983 27.0686 32.6881 26.9199C31.531 26.8953 30.5485 26.8606 30.5047 26.8426C30.4608 26.8247 30.4036 26.8394 30.3774 26.8751ZM19.0452 29.3348C19.0872 29.3693 19.2084 29.5216 19.3144 29.6733C19.9387 30.5657 20.5055 31.1349 21.3783 31.7458C21.676 31.9541 22.8381 32.532 22.9594 32.532C23.0036 32.532 23.0519 32.552 23.0669 32.5764C23.0821 32.6009 23.1566 32.6328 23.2327 32.6475C23.3089 32.6622 23.4613 32.7005 23.5715 32.7326C24.7233 33.0688 26.2767 33.0688 27.4285 32.7326C27.5387 32.7005 27.6911 32.6622 27.7673 32.6475C27.8434 32.6328 27.9179 32.6009 27.9331 32.5764C27.9481 32.552 27.9986 32.5316 28.0452 32.5313C28.2117 32.5299 29.302 31.9452 29.8052 31.5875C30.6005 31.0222 31.7228 29.8148 31.8733 29.3624C31.8953 29.2962 34.0891 29.3025 34.9172 29.3711C35.234 29.3973 35.9779 29.4317 36.5702 29.4475C37.9733 29.485 38.3883 29.5056 40.277 29.6317C42.7925 29.7997 44.1113 29.9207 44.5731 30.0259C44.6906 30.0526 44.8315 30.0746 44.8862 30.0746C44.9989 30.0746 45.0188 30.2338 44.9389 30.4973C44.9132 30.582 44.8689 30.7416 44.8405 30.8519C44.6751 31.4942 44.1873 32.8936 43.9269 33.4732C43.6464 34.0978 43.0979 35.198 42.9247 35.4836C42.8184 35.6587 42.7315 35.8085 42.7315 35.816C42.7315 35.8671 41.9638 37.0485 41.8183 37.2211C41.795 37.2488 41.6811 37.3993 41.565 37.5558C41.0919 38.1932 40.8919 38.4396 40.4561 38.9221C39.8367 39.6082 38.7138 40.6863 38.2471 41.043C38.1101 41.1477 37.9827 41.256 37.964 41.2836C37.9455 41.3111 37.8032 41.424 37.6478 41.5343C37.4925 41.6447 37.2373 41.827 37.0805 41.9394C36.7622 42.1679 35.8279 42.7631 35.7877 42.7631C35.7734 42.7631 35.6676 42.8261 35.5524 42.9033C35.4372 42.9805 35.2303 43.0989 35.0925 43.1666C34.9548 43.2342 34.8308 43.3009 34.817 43.3147C34.7592 43.3726 34.3511 43.5655 34.2863 43.5655C34.2476 43.5655 34.2159 43.5881 34.2159 43.6156C34.2159 43.6432 34.1944 43.6658 34.1681 43.6658C34.1418 43.6658 33.9784 43.731 33.8049 43.8106C33.3238 44.0315 33.1784 44.0927 32.6631 44.2913C32.0734 44.5186 31.3429 44.7674 31.1103 44.82C31.0138 44.8419 30.8042 44.8958 30.6444 44.9398C30.4847 44.9839 30.3 45.0199 30.2342 45.0199C30.1683 45.0199 30.1004 45.0425 30.0834 45.07C30.0664 45.0976 29.968 45.1202 29.865 45.1202C29.7619 45.1202 29.6562 45.1405 29.6301 45.1652C29.6039 45.1899 29.4923 45.2231 29.3821 45.2389C29.2719 45.2549 29.0352 45.2922 28.8561 45.3222C28.6771 45.352 28.3953 45.3875 28.23 45.4009C28.0647 45.4143 27.8844 45.4456 27.8293 45.4703C27.2397 45.7353 23.3945 45.5832 21.6179 45.2246C21.4802 45.1969 21.2886 45.1604 21.1921 45.1438C21.0957 45.1271 20.9717 45.0939 20.9166 45.07C20.8615 45.0462 20.7488 45.0158 20.6662 45.0023C20.5835 44.9889 20.4257 44.9518 20.3155 44.92C20.2053 44.888 20.025 44.8441 19.9148 44.8224C19.6896 44.778 18.8501 44.4869 17.9863 44.1534C17.2359 43.8638 15.5759 43.0463 15.3428 42.8517C15.301 42.8167 15.1965 42.7543 15.1109 42.7129C14.9631 42.6416 13.6793 41.7902 13.4912 41.6389C13.4426 41.5998 13.1549 41.3693 12.8519 41.1267C12.2031 40.6071 10.925 39.3872 10.397 38.7835C9.75673 38.0513 8.46887 36.2869 8.46887 36.142C8.46887 36.115 8.45184 36.0928 8.43105 36.0928C8.41014 36.0928 8.36193 36.0195 8.32373 35.9298C8.28554 35.8402 8.21403 35.7217 8.16494 35.6665C7.79339 35.2491 6.58969 32.4632 6.26898 31.2782C6.23541 31.1541 6.18695 30.9832 6.16128 30.8986C6.13561 30.8138 6.11457 30.6967 6.11457 30.6381C6.11457 30.5797 6.09203 30.5179 6.06448 30.5009C6.03693 30.4838 6.01438 30.3927 6.01438 30.2982C6.01438 30.1136 6.02165 30.1094 6.44016 30.052C7.34519 29.9277 7.56409 29.9045 9.24529 29.7557C9.7412 29.7117 10.4174 29.6517 10.748 29.6221C11.6556 29.5409 14.6943 29.4102 17.5354 29.3299C18.2931 29.3085 18.9256 29.2868 18.941 29.2815C18.9563 29.2764 19.0033 29.3003 19.0452 29.3348Z" fill="white"/>
</g>
<defs>
<filter id="filter0_d_383_719" x="0" y="0" width="53" height="53" filterUnits="userSpaceOnUse" color-interpolation-filters="sRGB">
<feFlood flood-opacity="0" result="BackgroundImageFix"/>
<feColorMatrix in="SourceAlpha" type="matrix" values="0 0 0 0 0 0 0 0 0 0 0 0 0 0 0 0 0 0 127 0" result="hardAlpha"/>
<feOffset dx="1" dy="1"/>
<feGaussianBlur stdDeviation="2"/>
<feComposite in2="hardAlpha" operator="out"/>
<feColorMatrix type="matrix" values="0 0 0 0 0 0 0 0 0 0 0 0 0 0 0 0 0 0 0.4 0"/>
<feBlend mode="normal" in2="BackgroundImageFix" result="effect1_dropShadow_383_719"/>
<feBlend mode="normal" in="SourceGraphic" in2="effect1_dropShadow_383_719" result="shape"/>
</filter>
</defs>
</svg>
