<svg width="43" height="51" viewBox="0 0 43 51" fill="none" xmlns="http://www.w3.org/2000/svg">
<g filter="url(#filter0_d_372_756)">
<path fill-rule="evenodd" clip-rule="evenodd" d="M20.041 3.04702C20.0016 3.07246 19.8149 3.09371 19.6259 3.09407C19.437 3.09443 19.2691 3.11628 19.2529 3.14256C19.2366 3.16883 19.1292 3.19032 19.014 3.19032C18.8989 3.19032 18.7929 3.20955 18.7783 3.23308C18.7639 3.2566 18.6712 3.28801 18.5725 3.30282C18.1449 3.36742 18.0348 3.39441 18.0348 3.43442C18.0348 3.45782 17.9488 3.47693 17.8437 3.47693C17.7386 3.47693 17.6527 3.49842 17.6527 3.5247C17.6527 3.55097 17.6002 3.57246 17.5361 3.57246C17.472 3.57246 17.4062 3.59396 17.3899 3.62023C17.3737 3.6465 17.3079 3.668 17.2438 3.668C17.1796 3.668 17.1272 3.6895 17.1272 3.71577C17.1272 3.74204 17.0735 3.76354 17.0078 3.76354C16.9421 3.76354 16.8884 3.78503 16.8884 3.8113C16.8884 3.83757 16.8346 3.85907 16.769 3.85907C16.7033 3.85907 16.6495 3.88057 16.6495 3.90684C16.6495 3.93311 16.6066 3.95461 16.554 3.95461C16.5015 3.95461 16.4585 3.9761 16.4585 4.00237C16.4585 4.02865 16.4155 4.05014 16.3629 4.05014C16.3104 4.05014 16.2674 4.07164 16.2674 4.09791C16.2674 4.12418 16.2244 4.14568 16.1719 4.14568C16.1193 4.14568 16.0763 4.16717 16.0763 4.19344C16.0763 4.21972 16.0333 4.24121 15.9808 4.24121C15.9283 4.24121 15.8853 4.26271 15.8853 4.28898C15.8853 4.31525 15.8423 4.33675 15.7897 4.33675C15.7372 4.33675 15.6942 4.35824 15.6942 4.38451C15.6942 4.41079 15.656 4.43228 15.6092 4.43228C15.5625 4.43228 15.4932 4.47527 15.4554 4.52782C15.4175 4.58036 15.3536 4.6249 15.3135 4.62681C15.2732 4.62873 15.1759 4.67148 15.0971 4.72187C15.0183 4.77215 14.9216 4.82827 14.8821 4.84655C14.7859 4.89109 14.4473 5.15226 14.3511 5.25627C14.3086 5.30225 14.2496 5.33987 14.22 5.33987C14.1904 5.33987 14.0564 5.44734 13.9221 5.5787C13.788 5.71006 13.6587 5.81754 13.6347 5.81754C13.5768 5.81754 12.8542 6.54624 12.6149 6.8461C12.5107 6.97662 12.3871 7.11813 12.3402 7.16065C12.2933 7.20316 12.2549 7.26227 12.2549 7.29201C12.2549 7.32174 12.2334 7.3461 12.2072 7.3461C12.1809 7.3461 12.1594 7.37357 12.1594 7.40725C12.1594 7.4408 12.1164 7.49932 12.0639 7.53717C12.0113 7.57503 11.9683 7.63032 11.9683 7.66006C11.9683 7.68979 11.9038 7.78151 11.825 7.86402C11.7462 7.94654 11.6817 8.04638 11.6817 8.08602C11.6817 8.12567 11.6628 8.15815 11.6398 8.15815C11.6166 8.15815 11.571 8.22264 11.5384 8.30146C11.5058 8.38027 11.4602 8.44476 11.437 8.44476C11.414 8.44476 11.3951 8.48775 11.3951 8.54029C11.3951 8.59284 11.3736 8.63583 11.3473 8.63583C11.3211 8.63583 11.2996 8.66807 11.2996 8.70748C11.2996 8.74689 11.2821 8.77913 11.2608 8.77913C11.2394 8.77913 11.1923 8.85437 11.1563 8.94632C11.1202 9.03827 11.0784 9.11351 11.0635 9.11351C11.0486 9.11351 11.0082 9.18337 10.9737 9.26875C10.9393 9.35413 10.891 9.46137 10.8666 9.50699C10.842 9.55261 10.8219 9.62247 10.8219 9.66224C10.8219 9.702 10.8004 9.73448 10.7741 9.73448C10.7479 9.73448 10.7264 9.76697 10.7264 9.80673C10.7264 9.8465 10.7049 9.92173 10.6786 9.97392C10.6523 10.0261 10.6089 10.1123 10.582 10.1655C10.5551 10.2186 10.52 10.3583 10.5039 10.476C10.4878 10.5936 10.456 10.6898 10.4333 10.6898C10.4106 10.6898 10.392 10.7423 10.392 10.8064C10.392 10.8705 10.3705 10.9363 10.3442 10.9526C10.318 10.9688 10.2965 11.0561 10.2965 11.1465C10.2965 11.2369 10.275 11.3108 10.2487 11.3108C10.2224 11.3108 10.2009 11.3968 10.2009 11.5019C10.2009 11.607 10.1794 11.693 10.1532 11.693C10.1269 11.693 10.1054 11.7776 10.1054 11.8812C10.1054 11.9847 10.0839 12.0827 10.0576 12.099C10.0313 12.1152 10.0099 12.2563 10.0099 12.4123C10.0099 12.5696 9.9886 12.6961 9.96208 12.6961C9.93342 12.6961 9.91432 12.8862 9.91432 13.1709C9.91432 13.436 9.89318 13.6588 9.86655 13.6753C9.83908 13.6923 9.81878 13.9456 9.81878 14.2724C9.81878 14.5993 9.83908 14.8525 9.86655 14.8695C9.89342 14.8861 9.91432 15.1168 9.91432 15.3978C9.91432 15.6984 9.9333 15.8965 9.96208 15.8965C9.98836 15.8965 10.0099 16.0147 10.0099 16.1592C10.0099 16.3037 10.0313 16.4219 10.0576 16.4219C10.0839 16.4219 10.1054 16.5294 10.1054 16.6608C10.1054 16.7921 10.1269 16.8996 10.1532 16.8996C10.1794 16.8996 10.2009 16.9856 10.2009 17.0907C10.2009 17.1958 10.2224 17.2818 10.2487 17.2818C10.275 17.2818 10.2965 17.3462 10.2965 17.4251C10.2965 17.5039 10.318 17.5684 10.3442 17.5684C10.3705 17.5684 10.392 17.6329 10.392 17.7117C10.392 17.7905 10.4106 17.855 10.4333 17.855C10.456 17.855 10.4878 17.9512 10.5039 18.0689C10.52 18.1865 10.5526 18.3208 10.5764 18.3674C10.6003 18.414 10.6462 18.5166 10.6786 18.5954C10.711 18.6742 10.7565 18.7761 10.7797 18.8217C10.8029 18.8673 10.8219 18.9371 10.8219 18.9769C10.8219 19.0167 10.8434 19.0492 10.8697 19.0492C10.8959 19.0492 10.9174 19.0922 10.9174 19.1447C10.9174 19.1972 10.9389 19.2402 10.9652 19.2402C10.9915 19.2402 11.013 19.2832 11.013 19.3358C11.013 19.3883 11.0345 19.4313 11.0607 19.4313C11.087 19.4313 11.1085 19.4743 11.1085 19.5268C11.1085 19.5794 11.13 19.6224 11.1563 19.6224C11.1825 19.6224 11.204 19.6654 11.204 19.7179C11.204 19.7705 11.2255 19.8134 11.2518 19.8134C11.2781 19.8134 11.2996 19.8457 11.2996 19.8851C11.2996 19.9245 11.3211 19.9567 11.3473 19.9567C11.3736 19.9567 11.3951 19.989 11.3951 20.0284C11.3951 20.0678 11.4166 20.1 11.4429 20.1C11.4692 20.1 11.4906 20.1321 11.4906 20.1711C11.4906 20.2365 11.5659 20.3482 11.7175 20.508C11.7504 20.5426 11.7773 20.5907 11.7773 20.615C11.7773 20.6392 11.8417 20.7265 11.9206 20.809C11.9994 20.8916 12.0639 20.9828 12.0639 21.0119C12.0639 21.0411 12.1283 21.125 12.2072 21.1987C12.286 21.2724 12.3507 21.3508 12.3511 21.3731C12.3529 21.4967 13.8027 22.9661 13.9229 22.9661C13.9449 22.9661 14.0516 23.0521 14.1599 23.1572C14.2682 23.2623 14.3838 23.3482 14.4169 23.3482C14.45 23.3482 14.5038 23.3912 14.5367 23.4438C14.5695 23.4963 14.6237 23.5393 14.657 23.5393C14.6905 23.5393 14.7488 23.5823 14.7866 23.6349C14.8245 23.6874 14.889 23.7304 14.9299 23.7304C14.9709 23.7304 15.0354 23.7734 15.0732 23.8259C15.1111 23.8785 15.1803 23.9215 15.227 23.9215C15.2738 23.9215 15.3121 23.943 15.3121 23.9692C15.3121 23.9955 15.355 24.017 15.4076 24.017C15.4601 24.017 15.5031 24.0359 15.5031 24.059C15.5031 24.1126 16.3657 24.5424 16.4733 24.5424C16.5177 24.5424 16.554 24.5639 16.554 24.5902C16.554 24.6165 16.6077 24.638 16.6734 24.638C16.7391 24.638 16.7928 24.6595 16.7928 24.6857C16.7928 24.712 16.8358 24.7335 16.8884 24.7335C16.9409 24.7335 16.9839 24.755 16.9839 24.7813C16.9839 24.8075 17.0484 24.829 17.1272 24.829C17.206 24.829 17.2705 24.8505 17.2705 24.8768C17.2705 24.9031 17.335 24.9246 17.4138 24.9246C17.4926 24.9246 17.5571 24.9461 17.5571 24.9723C17.5571 24.9986 17.6216 25.0201 17.7004 25.0201C17.7793 25.0201 17.8437 25.0416 17.8437 25.0679C17.8437 25.0942 17.9177 25.1156 18.0081 25.1156C18.0985 25.1156 18.1858 25.1371 18.202 25.1634C18.2182 25.1897 18.3042 25.2112 18.3931 25.2112C18.4819 25.2112 18.5679 25.2327 18.5841 25.259C18.6004 25.2852 18.6971 25.3067 18.7991 25.3067C18.9011 25.3067 18.9978 25.3282 19.014 25.3545C19.0303 25.3808 19.1713 25.4023 19.3274 25.4023C19.4847 25.4023 19.6111 25.4235 19.6111 25.45C19.6111 25.4796 19.8739 25.4978 20.3038 25.4978C20.7337 25.4978 20.9964 25.5159 20.9964 25.5456C20.9964 25.6078 21.2207 25.6078 21.2591 25.5456C21.2764 25.5175 21.5542 25.4978 21.9307 25.4978C22.3268 25.4978 22.5727 25.4795 22.5727 25.45C22.5727 25.4227 22.716 25.4023 22.9071 25.4023C23.0982 25.4023 23.2415 25.3818 23.2415 25.3545C23.2415 25.3282 23.3369 25.3067 23.4536 25.3067C23.5702 25.3067 23.679 25.2852 23.6953 25.259C23.7115 25.2327 23.7975 25.2112 23.8863 25.2112C23.9752 25.2112 24.0612 25.1897 24.0774 25.1634C24.0936 25.1371 24.1581 25.1156 24.2207 25.1156C24.2833 25.1156 24.3478 25.0942 24.364 25.0679C24.3803 25.0416 24.4463 25.0201 24.5108 25.0201C24.5753 25.0201 24.6707 24.9986 24.7229 24.9723C24.7751 24.9461 24.8606 24.9031 24.9127 24.8768C24.9649 24.8505 25.0509 24.829 25.1038 24.829C25.1567 24.829 25.1999 24.8075 25.1999 24.7813C25.1999 24.755 25.2644 24.7335 25.3432 24.7335C25.4221 24.7335 25.4866 24.712 25.4866 24.6857C25.4866 24.6595 25.5295 24.638 25.5821 24.638C25.6346 24.638 25.6776 24.6165 25.6776 24.5902C25.6776 24.5639 25.7131 24.5424 25.7564 24.5424C25.8492 24.5424 26.363 24.3003 26.3861 24.2457C26.395 24.225 26.4433 24.2081 26.4936 24.2081C26.544 24.2081 26.5852 24.1866 26.5852 24.1603C26.5852 24.134 26.6282 24.1125 26.6807 24.1125C26.7333 24.1125 26.7763 24.0937 26.7763 24.0706C26.7763 24.0474 26.8408 24.0018 26.9196 23.9692C26.9984 23.9366 27.0629 23.891 27.0629 23.8678C27.0629 23.8448 27.1011 23.8259 27.1479 23.8259C27.1946 23.8259 27.2639 23.7829 27.3017 23.7304C27.3396 23.6778 27.4041 23.6349 27.445 23.6349C27.486 23.6349 27.5505 23.5919 27.5883 23.5393C27.6262 23.4868 27.6815 23.4438 27.7112 23.4438C27.7409 23.4438 27.8327 23.3793 27.9152 23.3005C27.9977 23.2217 28.0759 23.1572 28.0892 23.1572C28.1023 23.1572 28.2442 23.0282 28.4042 22.8706C28.5643 22.7129 28.7178 22.584 28.7451 22.584C28.826 22.584 29.9767 21.3655 29.9767 21.2799C29.9767 21.2546 30.0165 21.1991 30.0652 21.1565C30.1138 21.114 30.1872 21.0148 30.2283 20.936C30.2694 20.8572 30.3424 20.7497 30.3906 20.6971C30.4389 20.6446 30.5104 20.5371 30.5496 20.4583C30.5888 20.3795 30.6587 20.2803 30.7048 20.2377C30.751 20.1952 30.7888 20.1254 30.7888 20.0825C30.7888 20.0396 30.8102 20.0045 30.8365 20.0045C30.8628 20.0045 30.8843 19.9713 30.8843 19.9308C30.8843 19.8904 30.9273 19.8111 30.9798 19.7547C31.0324 19.6983 31.0754 19.6239 31.0754 19.5895C31.0754 19.555 31.0969 19.5268 31.1231 19.5268C31.1494 19.5268 31.1709 19.4838 31.1709 19.4313C31.1709 19.3788 31.1924 19.3358 31.2187 19.3358C31.2449 19.3358 31.2664 19.2928 31.2664 19.2402C31.2664 19.1877 31.2879 19.1447 31.3142 19.1447C31.3405 19.1447 31.362 19.0923 31.362 19.0281C31.362 18.964 31.3835 18.8982 31.4097 18.882C31.436 18.8657 31.4575 18.8107 31.4575 18.7597C31.4575 18.7087 31.479 18.667 31.5053 18.667C31.5315 18.667 31.553 18.624 31.553 18.5715C31.553 18.5189 31.5745 18.476 31.6008 18.476C31.6271 18.476 31.6486 18.4222 31.6486 18.3565C31.6486 18.2909 31.6701 18.2371 31.6963 18.2371C31.7226 18.2371 31.7441 18.1726 31.7441 18.0938C31.7441 18.015 31.7656 17.9505 31.7919 17.9505C31.8181 17.9505 31.8396 17.886 31.8396 17.8072C31.8396 17.7284 31.8611 17.6639 31.8874 17.6639C31.9137 17.6639 31.9352 17.6007 31.9352 17.5235C31.9352 17.4462 31.9567 17.3697 31.9829 17.3534C32.0092 17.3372 32.0307 17.2512 32.0307 17.1623C32.0307 17.0735 32.0499 16.9889 32.0735 16.9744C32.097 16.9599 32.1283 16.8673 32.1432 16.7686C32.1581 16.6699 32.1929 16.4602 32.2205 16.3025C32.3582 15.5173 32.4034 13.9132 32.3135 13.0066C32.2319 12.1845 32.2127 12.051 32.1696 12.0058C32.1457 11.9809 32.1262 11.8801 32.1262 11.7818C32.1262 11.6835 32.1048 11.5898 32.0785 11.5735C32.0522 11.5573 32.0307 11.47 32.0307 11.3796C32.0307 11.2892 32.0092 11.2153 31.9829 11.2153C31.9567 11.2153 31.9352 11.14 31.9352 11.0481C31.9352 10.9561 31.9137 10.8809 31.8874 10.8809C31.8611 10.8809 31.8396 10.8164 31.8396 10.7376C31.8396 10.6588 31.8181 10.5943 31.7919 10.5943C31.7656 10.5943 31.7441 10.5419 31.7441 10.4777C31.7441 10.4136 31.7226 10.3478 31.6963 10.3316C31.6701 10.3153 31.6486 10.2603 31.6486 10.2093C31.6486 10.1583 31.6271 10.1166 31.6008 10.1166C31.5745 10.1166 31.553 10.0521 31.553 9.97332C31.553 9.89451 31.5315 9.83002 31.5053 9.83002C31.479 9.83002 31.4575 9.78703 31.4575 9.73448C31.4575 9.68194 31.436 9.63895 31.4097 9.63895C31.3835 9.63895 31.362 9.59596 31.362 9.54341C31.362 9.49087 31.3405 9.44788 31.3142 9.44788C31.2879 9.44788 31.2664 9.40489 31.2664 9.35234C31.2664 9.2998 31.2449 9.25681 31.2187 9.25681C31.1924 9.25681 31.1709 9.21382 31.1709 9.16127C31.1709 9.10873 31.1494 9.06574 31.1231 9.06574C31.0969 9.06574 31.0754 9.02275 31.0754 8.9702C31.0754 8.91766 31.0539 8.87467 31.0276 8.87467C31.0013 8.87467 30.9798 8.84242 30.9798 8.80302C30.9798 8.76361 30.9583 8.73136 30.9321 8.73136C30.9058 8.73136 30.8843 8.69315 30.8843 8.64634C30.8843 8.59965 30.8413 8.53038 30.7888 8.49253C30.7362 8.45467 30.6932 8.39532 30.6932 8.36057C30.6932 8.32582 30.6502 8.2513 30.5977 8.19493C30.5451 8.13857 30.5021 8.06417 30.5021 8.02978C30.5021 7.99527 30.4839 7.96708 30.4617 7.96708C30.4393 7.96708 30.3824 7.8811 30.335 7.77601C30.2876 7.67092 30.2338 7.58494 30.2155 7.58494C30.1973 7.58494 30.163 7.54303 30.1392 7.49191C30.0515 7.30252 28.4651 5.62647 28.3735 5.62647C28.3596 5.62647 28.2982 5.57811 28.237 5.51899C28.0668 5.35455 27.9256 5.24433 27.885 5.24433C27.8648 5.24433 27.8173 5.20134 27.7794 5.1488C27.7415 5.09625 27.6871 5.05326 27.6584 5.05326C27.6298 5.05326 27.5647 5.01517 27.5137 4.96871C27.4628 4.92214 27.2975 4.82003 27.1466 4.74182C26.9955 4.66348 26.8719 4.58335 26.8719 4.56364C26.8718 4.54394 26.8288 4.52782 26.7763 4.52782C26.7237 4.52782 26.6807 4.50632 26.6807 4.48005C26.6807 4.45378 26.6377 4.43228 26.5852 4.43228C26.5327 4.43228 26.4897 4.41079 26.4897 4.38451C26.4897 4.35824 26.4574 4.33675 26.418 4.33675C26.3786 4.33675 26.3464 4.31525 26.3464 4.28898C26.3464 4.26271 26.3034 4.24121 26.2508 4.24121C26.1983 4.24121 26.1553 4.21972 26.1553 4.19344C26.1553 4.16717 26.1123 4.14568 26.0598 4.14568C26.0072 4.14568 25.9642 4.12418 25.9642 4.09791C25.9642 4.07164 25.9212 4.05014 25.8687 4.05014C25.8161 4.05014 25.7732 4.02865 25.7732 4.00237C25.7732 3.9761 25.7302 3.95461 25.6776 3.95461C25.6251 3.95461 25.5821 3.93311 25.5821 3.90684C25.5821 3.88057 25.5297 3.85907 25.4655 3.85907C25.4014 3.85907 25.3356 3.83757 25.3194 3.8113C25.3031 3.78503 25.2481 3.76354 25.1971 3.76354C25.1461 3.76354 25.1044 3.74204 25.1044 3.71577C25.1044 3.6895 25.0399 3.668 24.9611 3.668C24.8823 3.668 24.8178 3.6465 24.8178 3.62023C24.8178 3.59396 24.7533 3.57246 24.6745 3.57246C24.5957 3.57246 24.5312 3.55097 24.5312 3.5247C24.5312 3.49842 24.468 3.47693 24.3908 3.47693C24.3135 3.47693 24.2369 3.45543 24.2207 3.42916C24.2045 3.40289 24.1292 3.38139 24.0535 3.38139C23.9778 3.38139 23.9026 3.3599 23.8863 3.33363C23.8701 3.30735 23.7734 3.28586 23.6714 3.28586C23.5694 3.28586 23.4727 3.26436 23.4564 3.23809C23.4402 3.21182 23.3206 3.19032 23.1908 3.19032C23.061 3.19032 22.9549 3.16883 22.9549 3.14256C22.9549 3.11473 22.7966 3.09479 22.5756 3.09479C22.367 3.09479 22.1829 3.07329 22.1667 3.04702C22.1279 2.98433 20.1381 2.98433 20.041 3.04702ZM21.6651 5.10103C21.6651 5.12933 21.8403 5.1488 22.0951 5.1488C22.3498 5.1488 22.525 5.16826 22.525 5.19656C22.525 5.22283 22.6324 5.24433 22.7638 5.24433C22.8952 5.24433 23.0026 5.26583 23.0026 5.2921C23.0026 5.31837 23.0994 5.33987 23.2176 5.33987C23.3358 5.33987 23.4325 5.36136 23.4325 5.38763C23.4325 5.41391 23.497 5.4354 23.5758 5.4354C23.6547 5.4354 23.7192 5.4569 23.7192 5.48317C23.7192 5.50944 23.7836 5.53094 23.8625 5.53094C23.9413 5.53094 24.0058 5.55243 24.0058 5.5787C24.0058 5.60498 24.0702 5.62647 24.1491 5.62647C24.2279 5.62647 24.2924 5.64797 24.2924 5.67424C24.2924 5.70051 24.33 5.72189 24.376 5.72177C24.4686 5.72141 25.6444 6.29629 25.6696 6.35421C25.6785 6.37427 25.7268 6.39075 25.7771 6.39075C25.8275 6.39075 25.8687 6.40902 25.8687 6.43124C25.8687 6.45357 25.9547 6.51053 26.0598 6.55794C26.1649 6.60535 26.2508 6.66231 26.2508 6.68464C26.2508 6.70685 26.2828 6.72513 26.3221 6.72513C26.3613 6.72513 26.4549 6.78961 26.5303 6.86843C26.6056 6.94724 26.6827 7.01173 26.7016 7.01173C26.7205 7.01173 26.8186 7.09771 26.9196 7.2028C27.0206 7.30789 27.1263 7.39387 27.1547 7.39387C27.183 7.39387 27.2062 7.41537 27.2062 7.44164C27.2062 7.46791 27.228 7.48941 27.2548 7.48941C27.303 7.48941 27.9227 8.08638 27.9227 8.13284C27.9227 8.19911 28.2918 8.58806 28.3548 8.58806C28.3798 8.58806 28.4004 8.62592 28.4004 8.67213C28.4004 8.71835 28.4487 8.8097 28.5078 8.87514C28.567 8.94059 28.6458 9.0532 28.6832 9.12545C28.7204 9.1977 28.7688 9.25681 28.7906 9.25681C28.8124 9.25681 28.8303 9.29502 28.8303 9.34183C28.8303 9.38853 28.8733 9.45779 28.9258 9.49565C28.9784 9.5335 29.0214 9.60276 29.0214 9.64946C29.0214 9.69627 29.0428 9.73448 29.0691 9.73448C29.0954 9.73448 29.1169 9.77747 29.1169 9.83002C29.1169 9.88256 29.1384 9.92555 29.1647 9.92555C29.1909 9.92555 29.2124 9.96854 29.2124 10.0211C29.2124 10.0736 29.2285 10.1167 29.2482 10.1167C29.268 10.1169 29.3378 10.2351 29.4035 10.3793C29.4692 10.5236 29.539 10.6418 29.5587 10.6419C29.5784 10.6419 29.5946 10.6945 29.5946 10.7586C29.5946 10.8227 29.6161 10.8885 29.6423 10.9048C29.6686 10.921 29.6901 10.9761 29.6901 11.0271C29.6901 11.0781 29.7116 11.1197 29.7379 11.1197C29.7641 11.1197 29.7856 11.1842 29.7856 11.263C29.7856 11.3419 29.8071 11.4063 29.8334 11.4063C29.8597 11.4063 29.8812 11.4708 29.8812 11.5497C29.8812 11.6285 29.9027 11.693 29.9289 11.693C29.9552 11.693 29.9767 11.7669 29.9767 11.8573C29.9767 11.9477 29.9982 12.035 30.0245 12.0512C30.0507 12.0675 30.0722 12.1534 30.0722 12.2423C30.0722 12.3311 30.0937 12.4171 30.12 12.4334C30.1463 12.4496 30.1678 12.5571 30.1678 12.6722C30.1678 12.7873 30.1893 12.8948 30.2155 12.911C30.2419 12.9274 30.2633 13.1423 30.2633 13.3916C30.2633 13.6604 30.2827 13.8425 30.3111 13.8425C30.3394 13.8425 30.3588 14.0177 30.3588 14.2724C30.3588 14.5271 30.3394 14.7023 30.3111 14.7023C30.2825 14.7023 30.2633 14.8854 30.2633 15.1561C30.2633 15.4268 30.2441 15.6099 30.2155 15.6099C30.1893 15.6099 30.1678 15.7161 30.1678 15.8459C30.1678 15.9757 30.1463 16.0952 30.12 16.1115C30.0937 16.1277 30.0722 16.2365 30.0722 16.3532C30.0722 16.4698 30.0507 16.5652 30.0245 16.5652C29.9982 16.5652 29.9767 16.6297 29.9767 16.7086C29.9767 16.7874 29.9552 16.8519 29.9289 16.8519C29.9027 16.8519 29.8812 16.9058 29.8812 16.9719C29.8812 17.0379 29.8597 17.1346 29.8334 17.1868C29.8071 17.239 29.7641 17.3245 29.7379 17.3767C29.7116 17.4289 29.6901 17.5149 29.6901 17.5678C29.6901 17.6207 29.6686 17.6639 29.6423 17.6639C29.6161 17.6639 29.5946 17.7069 29.5946 17.7594C29.5946 17.812 29.5731 17.855 29.5468 17.855C29.5205 17.855 29.499 17.9074 29.499 17.9715C29.499 18.0357 29.4775 18.1015 29.4513 18.1177C29.425 18.1339 29.4035 18.189 29.4035 18.24C29.4035 18.291 29.382 18.3327 29.3557 18.3327C29.3295 18.3327 29.308 18.3756 29.308 18.4282C29.308 18.4807 29.2865 18.5237 29.2602 18.5237C29.2339 18.5237 29.2124 18.556 29.2124 18.5954C29.2124 18.6348 29.1909 18.667 29.1647 18.667C29.1384 18.667 29.1169 18.6993 29.1169 18.7387C29.1169 18.7781 29.1006 18.8103 29.0808 18.8103C29.0609 18.8103 29.0137 18.8802 28.976 18.9656C28.9381 19.051 28.8685 19.1625 28.821 19.2134C28.7736 19.2644 28.7347 19.3342 28.7347 19.3686C28.7347 19.4031 28.7186 19.4313 28.6989 19.4314C28.6792 19.4314 28.5996 19.5335 28.5218 19.6583C28.4442 19.783 28.3421 19.9198 28.2949 19.9624C28.2479 20.0049 28.2083 20.0694 28.2072 20.1057C28.206 20.142 28.0536 20.3114 27.8686 20.4822C27.6836 20.653 27.3949 20.927 27.2268 21.0912C27.0588 21.2554 26.9026 21.3898 26.8798 21.3898C26.8569 21.3898 26.7708 21.4543 26.6883 21.5331C26.6057 21.6119 26.5272 21.6764 26.5136 21.6764C26.4999 21.6764 26.4214 21.7409 26.3388 21.8197C26.2563 21.8985 26.1598 21.963 26.1244 21.963C26.0888 21.963 26.0598 21.9845 26.0598 22.0108C26.0598 22.037 26.0215 22.0585 25.9747 22.0585C25.928 22.0585 25.8588 22.1015 25.8209 22.1541C25.7831 22.2066 25.7138 22.2496 25.6671 22.2496C25.6203 22.2496 25.5821 22.2711 25.5821 22.2974C25.5821 22.3236 25.5391 22.3451 25.4866 22.3451C25.434 22.3451 25.391 22.3666 25.391 22.3929C25.391 22.4192 25.348 22.4407 25.2955 22.4407C25.2429 22.4407 25.1999 22.4622 25.1999 22.4884C25.1999 22.5147 25.1675 22.5362 25.1277 22.5362C25.0879 22.5362 25.0181 22.5569 24.9725 22.5822C24.7875 22.6846 24.3328 22.8706 24.267 22.8706C24.2285 22.8706 24.1968 22.8921 24.1968 22.9183C24.1968 22.9446 24.1323 22.9661 24.0535 22.9661C23.9747 22.9661 23.9102 22.9876 23.9102 23.0139C23.9102 23.0401 23.8363 23.0616 23.7459 23.0616C23.6555 23.0616 23.5682 23.0831 23.552 23.1094C23.5357 23.1357 23.4592 23.1572 23.3819 23.1572C23.3046 23.1572 23.2415 23.1787 23.2415 23.2049C23.2415 23.2312 23.1461 23.2527 23.0294 23.2527C22.9127 23.2527 22.8039 23.2742 22.7877 23.3005C22.7714 23.3267 22.6317 23.3482 22.4772 23.3482C22.3227 23.3482 22.1829 23.3697 22.1667 23.396C22.1484 23.4255 21.7363 23.4438 21.0891 23.4438C20.4222 23.4438 20.041 23.4265 20.041 23.396C20.041 23.369 19.9057 23.3482 19.7306 23.3482C19.5554 23.3482 19.4201 23.3275 19.4201 23.3005C19.4201 23.2742 19.3354 23.2527 19.2319 23.2527C19.1283 23.2527 19.0303 23.2312 19.014 23.2049C18.9978 23.1787 18.9105 23.1572 18.8201 23.1572C18.7297 23.1572 18.6558 23.1357 18.6558 23.1094C18.6558 23.0831 18.5926 23.0616 18.5153 23.0616C18.4381 23.0616 18.3615 23.0401 18.3453 23.0139C18.3291 22.9876 18.2738 22.9661 18.2224 22.9661C18.1711 22.9661 18.0864 22.9446 18.0342 22.9183C17.982 22.8921 17.8965 22.8491 17.8443 22.8228C17.7921 22.7965 17.7062 22.775 17.6533 22.775C17.6004 22.775 17.5571 22.756 17.5571 22.7329C17.5571 22.7096 17.5088 22.6787 17.4497 22.6641C17.2265 22.609 16.9839 22.5115 16.9839 22.4767C16.9839 22.4569 16.9409 22.4407 16.8884 22.4407C16.8358 22.4407 16.7928 22.4192 16.7928 22.3929C16.7928 22.3666 16.7577 22.3451 16.7149 22.3451C16.672 22.3451 16.6021 22.3074 16.5596 22.2612C16.5171 22.2151 16.4179 22.1452 16.3391 22.1059C16.2602 22.0668 16.1541 21.997 16.1032 21.951C16.0522 21.9051 15.9871 21.8675 15.9585 21.8675C15.9298 21.8675 15.8754 21.8245 15.8375 21.7719C15.7996 21.7194 15.7449 21.6764 15.7159 21.6764C15.687 21.6764 15.5483 21.5689 15.4076 21.4375C15.2669 21.3062 15.1334 21.1987 15.1108 21.1987C15.061 21.1987 14.1658 20.3047 14.1654 20.2548C14.1653 20.2354 14.0685 20.1129 13.9504 19.9827C13.8323 19.8524 13.7357 19.7259 13.7357 19.7017C13.7357 19.6773 13.698 19.6227 13.6518 19.5802C13.6057 19.5377 13.5375 19.4438 13.5005 19.3716C13.4633 19.2993 13.4151 19.2402 13.3932 19.2402C13.3715 19.2402 13.3536 19.202 13.3536 19.1552C13.3536 19.1085 13.3106 19.0393 13.258 19.0014C13.2055 18.9635 13.1625 18.8943 13.1625 18.8476C13.1625 18.8008 13.141 18.7626 13.1147 18.7626C13.0885 18.7626 13.067 18.7303 13.067 18.6909C13.067 18.6515 13.0455 18.6193 13.0192 18.6193C12.9929 18.6193 12.9714 18.5763 12.9714 18.5237C12.9714 18.4712 12.9499 18.4282 12.9237 18.4282C12.8974 18.4282 12.8759 18.3852 12.8759 18.3327C12.8759 18.2801 12.8544 18.2371 12.8281 18.2371C12.8019 18.2371 12.7804 18.1941 12.7804 18.1416C12.7804 18.089 12.7589 18.046 12.7326 18.046C12.7063 18.046 12.6848 18.0031 12.6848 17.9505C12.6848 17.898 12.6633 17.855 12.6371 17.855C12.6108 17.855 12.5893 17.7905 12.5893 17.7117C12.5893 17.6329 12.5714 17.5684 12.5495 17.5684C12.5277 17.5684 12.4839 17.4663 12.4521 17.3415C12.4203 17.2167 12.3717 17.0393 12.3441 16.9474C12.3164 16.8554 12.2828 16.7103 12.2691 16.625C12.2555 16.5396 12.2253 16.4697 12.2019 16.4697C12.1785 16.4697 12.1594 16.3743 12.1594 16.2576C12.1594 16.141 12.1379 16.0322 12.1116 16.0159C12.0854 15.9997 12.0639 15.8737 12.0639 15.736C12.0639 15.5983 12.0416 15.4635 12.0144 15.4363C11.9489 15.3707 11.9855 13.2577 12.0594 12.8394C12.0897 12.6686 12.1268 12.4482 12.142 12.3494C12.1571 12.2508 12.1887 12.1581 12.2122 12.1436C12.2357 12.1291 12.2549 12.0537 12.2549 11.9761C12.2549 11.8985 12.2744 11.7977 12.2983 11.7521C12.3696 11.6157 12.4938 11.1649 12.4938 11.0426C12.4938 10.9799 12.5153 10.9287 12.5415 10.9287C12.5678 10.9287 12.5893 10.8857 12.5893 10.8331C12.5893 10.7806 12.6108 10.7376 12.6371 10.7376C12.6633 10.7376 12.6848 10.6946 12.6848 10.6421C12.6848 10.5895 12.7063 10.5465 12.7326 10.5465C12.7589 10.5465 12.7804 10.5149 12.7804 10.4762C12.7804 10.4375 12.8351 10.3139 12.9019 10.2015C12.9687 10.0892 13.0357 9.95959 13.0507 9.91361C13.0658 9.86764 13.0971 9.83002 13.1204 9.83002C13.1435 9.83002 13.1625 9.78703 13.1625 9.73448C13.1625 9.68194 13.184 9.63895 13.2103 9.63895C13.2366 9.63895 13.258 9.60073 13.258 9.55392C13.258 9.50723 13.301 9.43797 13.3536 9.40011C13.4061 9.36226 13.4491 9.29777 13.4491 9.25681C13.4491 9.21585 13.4921 9.15136 13.5447 9.11351C13.5972 9.07565 13.6402 9.02036 13.6402 8.99062C13.6402 8.96089 13.6993 8.87383 13.7715 8.79704C13.8438 8.72038 13.9593 8.58281 14.0281 8.49145C14.2216 8.23458 15.3462 7.10727 15.409 7.10727C15.4397 7.10727 15.525 7.04278 15.5987 6.96396C15.6723 6.88515 15.7621 6.82066 15.7983 6.82066C15.8345 6.82066 15.8952 6.77767 15.933 6.72513C15.9709 6.67258 16.0208 6.62959 16.0439 6.62959C16.099 6.62959 16.6688 6.28172 16.6893 6.23551C16.6981 6.2158 16.7465 6.19968 16.7968 6.19968C16.8472 6.19968 16.8884 6.17819 16.8884 6.15191C16.8884 6.12564 16.9314 6.10415 16.9839 6.10415C17.0365 6.10415 17.0795 6.08265 17.0795 6.05638C17.0795 6.03011 17.1224 6.00861 17.175 6.00861C17.2275 6.00861 17.2705 5.98712 17.2705 5.96084C17.2705 5.93457 17.303 5.91308 17.3428 5.91308C17.3825 5.91308 17.4578 5.89158 17.51 5.86531C17.5621 5.83904 17.6477 5.79605 17.6998 5.76977C17.752 5.7435 17.8273 5.72201 17.867 5.72201C17.9068 5.72201 17.9393 5.70051 17.9393 5.67424C17.9393 5.64797 18.0038 5.62647 18.0826 5.62647C18.1614 5.62647 18.2259 5.60498 18.2259 5.5787C18.2259 5.55243 18.2796 5.53094 18.3453 5.53094C18.411 5.53094 18.4647 5.50944 18.4647 5.48317C18.4647 5.4569 18.5507 5.4354 18.6558 5.4354C18.7609 5.4354 18.8469 5.41391 18.8469 5.38763C18.8469 5.36136 18.9328 5.33987 19.0379 5.33987C19.143 5.33987 19.229 5.31837 19.229 5.2921C19.229 5.26583 19.3365 5.24433 19.4678 5.24433C19.5992 5.24433 19.7067 5.22283 19.7067 5.19656C19.7067 5.1685 19.8739 5.1488 20.1127 5.1488C20.3515 5.1488 20.5187 5.12909 20.5187 5.10103C20.5187 5.07189 20.7417 5.05326 21.0919 5.05326C21.4422 5.05326 21.6651 5.07189 21.6651 5.10103ZM19.229 28.2683C19.229 28.2959 19.0777 28.3161 18.8707 28.3161C18.6638 28.3161 18.5125 28.3363 18.5125 28.3638C18.5125 28.3912 18.3692 28.4116 18.1781 28.4116C17.987 28.4116 17.8437 28.432 17.8437 28.4594C17.8437 28.4856 17.7524 28.5081 17.6407 28.5092C17.5291 28.5104 17.341 28.5331 17.2228 28.5596C16.6959 28.678 16.5685 28.7051 16.4227 28.73C16.3373 28.7446 16.2674 28.7756 16.2674 28.799C16.2674 28.8224 16.1814 28.8415 16.0763 28.8415C15.9712 28.8415 15.8853 28.863 15.8853 28.8893C15.8853 28.9156 15.8208 28.9371 15.742 28.9371C15.6631 28.9371 15.5987 28.9585 15.5987 28.9848C15.5987 29.0111 15.5342 29.0326 15.4554 29.0326C15.3765 29.0326 15.3121 29.0541 15.3121 29.0804C15.3121 29.1066 15.2476 29.1281 15.1688 29.1281C15.0899 29.1281 15.0254 29.1496 15.0254 29.1759C15.0254 29.2022 14.9822 29.2237 14.9293 29.2237C14.8764 29.2237 14.7904 29.2452 14.7382 29.2714C14.6861 29.2977 14.6006 29.3407 14.5484 29.367C14.4962 29.3932 14.421 29.4147 14.3812 29.4147C14.3414 29.4147 14.3089 29.4362 14.3089 29.4625C14.3089 29.4888 14.2444 29.5103 14.1656 29.5103C14.0868 29.5103 14.0223 29.5318 14.0223 29.558C14.0223 29.5843 13.9793 29.6058 13.9268 29.6058C13.8742 29.6058 13.8313 29.6273 13.8313 29.6536C13.8313 29.6798 13.7883 29.7013 13.7357 29.7013C13.6832 29.7013 13.6402 29.7228 13.6402 29.7491C13.6402 29.7754 13.5972 29.7969 13.5447 29.7969C13.4921 29.7969 13.4491 29.8184 13.4491 29.8446C13.4491 29.8709 13.4212 29.8924 13.387 29.8924C13.2991 29.8924 13.0678 30.0048 13.0673 30.0476C13.0671 30.0674 13.024 30.0835 12.9714 30.0835C12.9189 30.0835 12.8759 30.105 12.8759 30.1312C12.8759 30.1575 12.8329 30.179 12.7804 30.179C12.7278 30.179 12.6848 30.1964 12.6848 30.2178C12.6848 30.2392 12.6096 30.2862 12.5177 30.3223C12.4257 30.3584 12.3505 30.4054 12.3505 30.4268C12.3505 30.4482 12.3075 30.4656 12.2549 30.4656C12.2024 30.4656 12.1594 30.4871 12.1594 30.5134C12.1594 30.5397 12.118 30.5612 12.0673 30.5612C12.0166 30.5612 11.9467 30.588 11.9121 30.6209C11.8773 30.6537 11.7898 30.711 11.7175 30.7484C11.6453 30.7857 11.5862 30.834 11.5862 30.8559C11.5862 30.8776 11.5432 30.8955 11.4906 30.8955C11.4381 30.8955 11.3951 30.9144 11.3951 30.9374C11.3951 30.9606 11.3306 31.0062 11.2518 31.0388C11.173 31.0714 11.1085 31.117 11.1085 31.1402C11.1085 31.1633 11.0795 31.1821 11.0439 31.1821C11.0084 31.1821 10.9119 31.2466 10.8294 31.3254C10.7469 31.4042 10.6625 31.4687 10.6418 31.4687C10.6212 31.4687 10.5732 31.5117 10.5353 31.5643C10.4974 31.6168 10.4373 31.6598 10.4015 31.6598C10.366 31.6598 10.2542 31.7458 10.1532 31.8509C10.0521 31.956 9.94656 32.0419 9.91826 32.0419C9.89008 32.0419 9.75728 32.1494 9.62305 32.2808C9.48895 32.4121 9.35926 32.5196 9.33502 32.5196C9.27901 32.5196 8.99885 32.7678 8.74712 33.0405C8.64036 33.1562 8.33261 33.4731 8.06332 33.7446C7.79403 34.0161 7.57371 34.2611 7.57371 34.2892C7.57371 34.3172 7.46623 34.4432 7.33487 34.5692C7.20351 34.6951 7.09603 34.8123 7.09603 34.8297C7.09603 34.847 7.03154 34.9285 6.95273 35.0111C6.87391 35.0936 6.80942 35.1803 6.80942 35.2038C6.80942 35.2273 6.75652 35.3036 6.69192 35.3733C6.62731 35.443 6.54945 35.5603 6.51888 35.634C6.48843 35.7075 6.4446 35.7678 6.42143 35.7678C6.39838 35.7678 6.37952 35.7947 6.3794 35.8275C6.3794 35.8604 6.31491 35.9625 6.23621 36.0544C6.15752 36.1464 6.09303 36.2485 6.09303 36.2813C6.09291 36.3142 6.07141 36.341 6.04514 36.341C6.01887 36.341 5.99738 36.3792 5.99738 36.4261C5.99738 36.4728 5.95438 36.542 5.90184 36.5799C5.8493 36.6177 5.8063 36.6762 5.8063 36.7098C5.8063 36.7435 5.78481 36.7709 5.75854 36.7709C5.73226 36.7709 5.71077 36.7991 5.71077 36.8336C5.71077 36.868 5.66778 36.9424 5.61523 36.9988C5.56269 37.0552 5.5197 37.1345 5.5197 37.1749C5.5197 37.2154 5.4982 37.2486 5.47193 37.2486C5.44566 37.2486 5.42416 37.2916 5.42416 37.3442C5.42416 37.3967 5.40267 37.4397 5.3764 37.4397C5.35012 37.4397 5.32863 37.4809 5.32863 37.5313C5.32863 37.5816 5.31179 37.6299 5.29113 37.6388C5.24026 37.6604 4.94649 38.2441 4.94649 38.3235C4.94649 38.3585 4.92929 38.3942 4.90827 38.403C4.84546 38.4292 4.57569 39.0262 4.53951 39.219C4.521 39.3176 4.48684 39.3982 4.46344 39.3982C4.44015 39.3982 4.42104 39.4411 4.42104 39.4937C4.42104 39.5462 4.39955 39.5892 4.37328 39.5892C4.347 39.5892 4.32551 39.6537 4.32551 39.7325C4.32551 39.8113 4.30401 39.8758 4.27774 39.8758C4.25147 39.8758 4.22997 39.9403 4.22997 40.0191C4.22997 40.098 4.20848 40.1624 4.18221 40.1624C4.15593 40.1624 4.13444 40.2269 4.13444 40.3057C4.13444 40.3846 4.11294 40.449 4.08667 40.449C4.0604 40.449 4.0389 40.5028 4.0389 40.5685C4.0389 40.6341 4.01741 40.6879 3.99114 40.6879C3.96486 40.6879 3.94337 40.7524 3.94337 40.8312C3.94337 40.91 3.92187 40.9745 3.8956 40.9745C3.86933 40.9745 3.84783 41.039 3.84783 41.1178C3.84783 41.1966 3.82634 41.2611 3.80007 41.2611C3.77379 41.2611 3.7523 41.3471 3.7523 41.4522C3.7523 41.5573 3.7308 41.6432 3.70453 41.6432C3.67826 41.6432 3.65676 41.7292 3.65676 41.8343C3.65676 41.9394 3.63527 42.0254 3.609 42.0254C3.58272 42.0254 3.56123 42.1114 3.56123 42.2164C3.56123 42.3215 3.53973 42.4075 3.51346 42.4075C3.48719 42.4075 3.46569 42.5029 3.46569 42.6196C3.46569 42.7363 3.4442 42.8451 3.41793 42.8613C3.39165 42.8775 3.37016 42.985 3.37016 43.1001C3.37016 43.2153 3.34866 43.3227 3.32239 43.339C3.29612 43.3552 3.27462 43.4949 3.27462 43.6495C3.27462 43.804 3.25313 43.9437 3.22685 43.96C3.20058 43.9762 3.17909 44.1452 3.17909 44.3354C3.17909 44.5257 3.15891 44.7017 3.13407 44.7266C3.10935 44.7516 3.07698 45.0407 3.06218 45.3691C3.04737 45.6975 3.02336 46.2325 3.0088 46.558C2.99148 46.9456 2.99984 47.1674 3.03292 47.2005C3.06074 47.2283 3.08355 47.2898 3.08355 47.3371C3.08355 47.3844 3.10505 47.4231 3.13132 47.4231C3.15759 47.4231 3.17909 47.4575 3.17909 47.4995C3.17909 47.6085 3.45721 47.8537 3.617 47.8856C3.69139 47.9006 3.7523 47.9315 3.7523 47.9545C3.7523 48.0259 38.3194 48.0081 38.5238 47.9366C38.7158 47.8694 39.1003 47.5118 39.1003 47.4005C39.1003 47.3604 39.1218 47.3276 39.1481 47.3276C39.1782 47.3276 39.1958 47.0022 39.1958 46.4467C39.1958 45.9109 39.1771 45.5542 39.1481 45.5363C39.1212 45.5197 39.1003 45.2899 39.1003 45.0108C39.1003 44.7318 39.0794 44.502 39.0525 44.4854C39.0263 44.4692 39.0048 44.3066 39.0048 44.1243C39.0048 43.9351 38.9842 43.7928 38.957 43.7928C38.9305 43.7928 38.9092 43.6654 38.9092 43.5062C38.9092 43.347 38.888 43.2196 38.8615 43.2196C38.8352 43.2196 38.8137 43.1121 38.8137 42.9807C38.8137 42.8494 38.7922 42.7419 38.7659 42.7419C38.7397 42.7419 38.7182 42.6452 38.7182 42.5269C38.7182 42.4087 38.6967 42.312 38.6704 42.312C38.6441 42.312 38.6226 42.226 38.6226 42.1209C38.6226 42.0158 38.6011 41.9298 38.5749 41.9298C38.5486 41.9298 38.5271 41.8439 38.5271 41.7388C38.5271 41.6337 38.5056 41.5477 38.4793 41.5477C38.4531 41.5477 38.4316 41.4617 38.4316 41.3566C38.4316 41.2515 38.4128 41.1656 38.39 41.1656C38.3671 41.1656 38.3342 41.0589 38.3169 40.9286C38.2996 40.7983 38.2646 40.6789 38.2391 40.6632C38.2136 40.6474 38.1927 40.5712 38.1927 40.4939C38.1927 40.4167 38.1712 40.3535 38.145 40.3535C38.1187 40.3535 38.0972 40.3011 38.0972 40.237C38.0972 40.1728 38.08 40.1097 38.0589 40.0966C38.0378 40.0836 37.9909 39.9641 37.9547 39.8311C37.9185 39.698 37.8713 39.5892 37.8498 39.5892C37.8281 39.5892 37.8106 39.5368 37.8106 39.4727C37.8106 39.4085 37.7891 39.3427 37.7628 39.3265C37.7365 39.3103 37.7151 39.2552 37.7151 39.2042C37.7151 39.1532 37.6936 39.1116 37.6673 39.1116C37.641 39.1116 37.6195 39.0686 37.6195 39.016C37.6195 38.9635 37.598 38.9205 37.5718 38.9205C37.5455 38.9205 37.524 38.8667 37.524 38.8011C37.524 38.7354 37.5025 38.6816 37.4762 38.6816C37.4499 38.6816 37.4284 38.6387 37.4284 38.5861C37.4284 38.5336 37.407 38.4906 37.3807 38.4906C37.3544 38.4906 37.3329 38.4476 37.3329 38.395C37.3329 38.3425 37.3114 38.2995 37.2851 38.2995C37.2589 38.2995 37.2374 38.2565 37.2374 38.204C37.2374 38.1514 37.2159 38.1084 37.1896 38.1084C37.1633 38.1084 37.1418 38.0654 37.1418 38.0129C37.1418 37.9604 37.1203 37.9174 37.0941 37.9174C37.0678 37.9174 37.0463 37.8744 37.0463 37.8218C37.0463 37.7693 37.0248 37.7263 36.9985 37.7263C36.9723 37.7263 36.9508 37.6851 36.9508 37.6347C36.9508 37.5844 36.9347 37.5361 36.9149 37.5272C36.87 37.5073 36.7149 37.2529 36.6796 37.1411C36.665 37.0952 36.6341 37.0575 36.6108 37.0575C36.5876 37.0575 36.5686 37.0146 36.5686 36.962C36.5686 36.9095 36.5471 36.8665 36.5209 36.8665C36.4946 36.8665 36.4731 36.8342 36.4731 36.7948C36.4731 36.7554 36.457 36.7229 36.4373 36.7226C36.4176 36.7223 36.3604 36.6364 36.3102 36.5315C36.2599 36.4268 36.2008 36.341 36.1788 36.341C36.1568 36.341 36.1387 36.3028 36.1387 36.256C36.1387 36.2093 36.0957 36.14 36.0432 36.1022C35.9906 36.0643 35.9477 35.9999 35.9477 35.9589C35.9477 35.9179 35.9047 35.8534 35.8521 35.8156C35.7996 35.7777 35.7566 35.7171 35.7566 35.6809C35.7566 35.6447 35.6921 35.5549 35.6133 35.4812C35.5345 35.4075 35.47 35.3216 35.47 35.2901C35.47 35.2587 35.4055 35.1728 35.3267 35.0991C35.2479 35.0254 35.1834 34.9447 35.1834 34.9197C35.1834 34.8946 35.092 34.7763 34.9804 34.6566C34.8687 34.5371 34.6699 34.3178 34.5385 34.1694C33.9348 33.4874 32.7391 32.3307 32.636 32.3291C32.6142 32.3288 32.5139 32.2426 32.4129 32.1375C32.3118 32.0324 32.2147 31.9464 32.1969 31.9464C32.1791 31.9464 32.1044 31.8819 32.0307 31.8031C31.957 31.7243 31.8731 31.6598 31.8439 31.6598C31.8148 31.6598 31.7236 31.5953 31.641 31.5165C31.5585 31.4377 31.4668 31.3732 31.4371 31.3732C31.4073 31.3732 31.3521 31.3302 31.3142 31.2777C31.2763 31.2251 31.2119 31.1821 31.1709 31.1821C31.1299 31.1821 31.0654 31.1391 31.0276 31.0866C30.9897 31.034 30.9205 30.9911 30.8738 30.9911C30.827 30.9911 30.7888 30.9722 30.7888 30.9491C30.7888 30.926 30.7243 30.8804 30.6455 30.8478C30.5666 30.8152 30.5021 30.7743 30.5021 30.7571C30.5021 30.7399 30.4057 30.6834 30.2877 30.6316C30.1697 30.5797 30.073 30.5211 30.0727 30.5014C30.0725 30.4817 30.0292 30.4656 29.9767 30.4656C29.9242 30.4656 29.8812 30.4482 29.8812 30.4268C29.8812 30.4054 29.8059 30.3584 29.714 30.3223C29.622 30.2862 29.5468 30.2433 29.5468 30.2268C29.5468 30.2103 29.4716 30.1673 29.3796 30.1312C29.2877 30.0952 29.2124 30.0481 29.2124 30.0268C29.2124 30.0054 29.1694 29.9879 29.1169 29.9879C29.0643 29.9879 29.0214 29.9664 29.0214 29.9402C29.0214 29.9139 28.9797 29.8924 28.9287 29.8924C28.8777 29.8924 28.8226 29.8709 28.8064 29.8446C28.7902 29.8184 28.7244 29.7969 28.6602 29.7969C28.5961 29.7969 28.5437 29.7754 28.5437 29.7491C28.5437 29.7228 28.5007 29.7013 28.4481 29.7013C28.3956 29.7013 28.3525 29.6852 28.3522 29.6655C28.3518 29.617 28.1154 29.5103 28.0087 29.5103C27.9614 29.5103 27.9227 29.4888 27.9227 29.4625C27.9227 29.4362 27.881 29.4147 27.83 29.4147C27.779 29.4147 27.724 29.3932 27.7077 29.367C27.6915 29.3407 27.6257 29.3192 27.5616 29.3192C27.4974 29.3192 27.445 29.2977 27.445 29.2714C27.445 29.2452 27.3926 29.2237 27.3285 29.2237C27.2643 29.2237 27.1985 29.2022 27.1823 29.1759C27.1661 29.1496 27.1016 29.1281 27.039 29.1281C26.9764 29.1281 26.9119 29.1066 26.8957 29.0804C26.8795 29.0541 26.815 29.0326 26.7524 29.0326C26.6898 29.0326 26.6253 29.0111 26.6091 28.9848C26.5928 28.9585 26.5163 28.9371 26.439 28.9371C26.3618 28.9371 26.2986 28.9156 26.2986 28.8893C26.2986 28.863 26.2354 28.8415 26.1582 28.8415C26.0809 28.8415 26.0058 28.8224 25.9913 28.799C25.9769 28.7757 25.8951 28.745 25.8095 28.7308C25.7238 28.7167 25.557 28.682 25.4388 28.6538C25.0701 28.5657 24.7057 28.5077 24.5193 28.5074C24.4207 28.5073 24.3401 28.4856 24.3401 28.4594C24.3401 28.4331 24.2219 28.4116 24.0774 28.4116C23.9329 28.4116 23.8147 28.3901 23.8147 28.3638C23.8147 28.336 23.6565 28.3161 23.4354 28.3161C23.2268 28.3161 23.0428 28.2946 23.0265 28.2683C23.0077 28.2377 22.3175 28.2205 21.113 28.2205C19.8888 28.2205 19.229 28.2373 19.229 28.2683ZM22.8593 30.3649C23.1089 30.3924 23.4421 30.4353 23.5997 30.4601C23.7574 30.485 23.9992 30.5072 24.1371 30.5093C24.275 30.5116 24.3879 30.5349 24.3879 30.5612C24.3879 30.5874 24.4631 30.6089 24.5551 30.6089C24.647 30.6089 24.7223 30.6304 24.7223 30.6567C24.7223 30.683 24.8083 30.7045 24.9133 30.7045C25.0184 30.7045 25.1044 30.726 25.1044 30.7522C25.1044 30.7785 25.1904 30.8 25.2955 30.8C25.4006 30.8 25.4866 30.8215 25.4866 30.8478C25.4866 30.874 25.551 30.8955 25.6299 30.8955C25.7087 30.8955 25.7732 30.917 25.7732 30.9433C25.7732 30.9696 25.8376 30.9911 25.9165 30.9911C25.9953 30.9911 26.0598 31.0126 26.0598 31.0388C26.0598 31.0651 26.1242 31.0866 26.2031 31.0866C26.2819 31.0866 26.3464 31.1081 26.3464 31.1344C26.3464 31.1606 26.3988 31.1821 26.4629 31.1821C26.527 31.1821 26.5928 31.2036 26.6091 31.2299C26.6253 31.2562 26.6911 31.2777 26.7553 31.2777C26.8194 31.2777 26.8718 31.2992 26.8718 31.3254C26.8718 31.3517 26.9148 31.3732 26.9673 31.3732C27.0199 31.3732 27.0629 31.3947 27.0629 31.421C27.0629 31.4472 27.1274 31.4687 27.2062 31.4687C27.285 31.4687 27.3495 31.4902 27.3495 31.5165C27.3495 31.5428 27.3925 31.5643 27.445 31.5643C27.4976 31.5643 27.5406 31.5858 27.5406 31.612C27.5406 31.6383 27.5835 31.6598 27.6361 31.6598C27.6886 31.6598 27.7316 31.6813 27.7316 31.7076C27.7316 31.7338 27.7596 31.7553 27.7937 31.7553C27.8816 31.7553 28.1129 31.8677 28.1134 31.9106C28.1136 31.9303 28.1568 31.9464 28.2093 31.9464C28.2618 31.9464 28.3048 31.9679 28.3048 31.9942C28.3048 32.0205 28.346 32.0419 28.3964 32.0419C28.4467 32.0419 28.4951 32.0589 28.5039 32.0796C28.5126 32.1002 28.643 32.1768 28.7935 32.2497C28.9441 32.3227 29.0797 32.4026 29.0949 32.4272C29.1101 32.4518 29.1643 32.4719 29.2153 32.4719C29.2663 32.4719 29.308 32.4934 29.308 32.5196C29.308 32.5459 29.3462 32.5674 29.393 32.5674C29.4397 32.5674 29.5089 32.6104 29.5468 32.6629C29.5847 32.7155 29.6491 32.7585 29.6901 32.7585C29.7311 32.7585 29.7955 32.8015 29.8334 32.854C29.8713 32.9065 29.9357 32.9495 29.9767 32.9495C30.0177 32.9495 30.0821 32.9925 30.12 33.0451C30.1579 33.0976 30.2185 33.1406 30.2547 33.1406C30.2909 33.1406 30.3807 33.2051 30.4544 33.2839C30.5281 33.3627 30.6033 33.4272 30.6216 33.4272C30.6398 33.4272 30.7151 33.4917 30.7888 33.5705C30.8624 33.6493 30.9436 33.7138 30.9693 33.7138C30.995 33.7138 31.0996 33.7944 31.2016 33.8929C31.3596 34.0453 31.5126 34.1723 31.8783 34.4537C32.0621 34.5952 32.7943 35.3716 32.9033 35.5406C32.9496 35.6125 33.084 35.7677 33.2019 35.8856C33.3196 36.0033 33.4161 36.1164 33.4162 36.1367C33.4163 36.1571 33.4808 36.2425 33.5595 36.3265C33.6382 36.4104 33.7026 36.4932 33.7026 36.5104C33.7026 36.5274 33.7671 36.6017 33.8459 36.6754C33.9247 36.7491 33.9892 36.8389 33.9892 36.8751C33.9892 36.9113 34.0322 36.9719 34.0847 37.0098C34.1373 37.0476 34.1803 37.1121 34.1803 37.1531C34.1803 37.194 34.2232 37.2585 34.2758 37.2964C34.3283 37.3342 34.3713 37.4009 34.3713 37.4443C34.3713 37.4879 34.4036 37.5503 34.443 37.583C34.4824 37.6157 34.5146 37.668 34.5146 37.6993C34.5146 37.7305 34.5522 37.7977 34.5982 37.8487C34.6442 37.8996 34.7133 38.0057 34.752 38.0845C34.7906 38.1634 34.882 38.3177 34.955 38.4275C35.028 38.5374 35.0878 38.6502 35.0878 38.6783C35.0878 38.7064 35.1093 38.7294 35.1356 38.7294C35.1619 38.7294 35.1834 38.7724 35.1834 38.8249C35.1834 38.8775 35.2049 38.9205 35.2311 38.9205C35.2574 38.9205 35.2789 38.9635 35.2789 39.016C35.2789 39.0686 35.3004 39.1116 35.3267 39.1116C35.3529 39.1116 35.3744 39.1545 35.3744 39.2071C35.3744 39.2596 35.3959 39.3026 35.4222 39.3026C35.4485 39.3026 35.47 39.3443 35.47 39.3953C35.47 39.4463 35.4915 39.5013 35.5177 39.5176C35.544 39.5338 35.5655 39.5996 35.5655 39.6637C35.5655 39.7279 35.587 39.7803 35.6133 39.7803C35.6395 39.7803 35.661 39.8233 35.661 39.8758C35.661 39.9284 35.6825 39.9714 35.7088 39.9714C35.7351 39.9714 35.7566 40.0144 35.7566 40.0669C35.7566 40.1194 35.7781 40.1624 35.8043 40.1624C35.8306 40.1624 35.8521 40.2162 35.8521 40.2819C35.8521 40.3475 35.8736 40.4013 35.8999 40.4013C35.9262 40.4013 35.9477 40.443 35.9477 40.4939C35.9477 40.5449 35.9691 40.6 35.9954 40.6162C36.0217 40.6325 36.0432 40.6983 36.0432 40.7624C36.0432 40.8265 36.0647 40.879 36.091 40.879C36.1172 40.879 36.1387 40.9434 36.1387 41.0223C36.1387 41.1011 36.1602 41.1656 36.1865 41.1656C36.2128 41.1656 36.2343 41.23 36.2343 41.3089C36.2343 41.3877 36.2558 41.4522 36.282 41.4522C36.3083 41.4522 36.33 41.5005 36.3304 41.5596C36.3306 41.6188 36.3754 41.8391 36.4296 42.0493C36.6099 42.747 36.6248 42.8121 36.6494 43.0166C36.6629 43.1282 36.6931 43.2196 36.7167 43.2196C36.7404 43.2196 36.7597 43.327 36.7597 43.4584C36.7597 43.5898 36.7812 43.6972 36.8075 43.6972C36.834 43.6972 36.8552 43.8237 36.8552 43.981C36.8552 44.1371 36.8767 44.2781 36.903 44.2943C36.9293 44.3106 36.9508 44.4825 36.9508 44.6765C36.9508 44.8704 36.9723 45.0424 36.9985 45.0586C37.0248 45.0749 37.0463 45.2804 37.0463 45.5153V45.9423H5.13756V45.5392C5.13756 45.3174 5.15905 45.1226 5.18533 45.1064C5.2116 45.0901 5.23309 44.9061 5.23309 44.6975C5.23309 44.4765 5.25304 44.3182 5.28086 44.3182C5.30713 44.3182 5.32863 44.2013 5.32863 44.0584C5.32863 43.9154 5.35012 43.7851 5.3764 43.7689C5.40267 43.7527 5.42416 43.6439 5.42416 43.5272C5.42416 43.4105 5.44566 43.3151 5.47193 43.3151C5.4982 43.3151 5.5197 43.2076 5.5197 43.0763C5.5197 42.9449 5.54119 42.8374 5.56747 42.8374C5.59374 42.8374 5.61523 42.7514 5.61523 42.6464C5.61523 42.5413 5.63673 42.4553 5.663 42.4553C5.68927 42.4553 5.71077 42.3814 5.71077 42.291C5.71077 42.2006 5.73226 42.1133 5.75854 42.097C5.78481 42.0808 5.8063 42.0163 5.8063 41.9537C5.8063 41.8911 5.8278 41.8267 5.85407 41.8104C5.88034 41.7942 5.90184 41.7069 5.90184 41.6165C5.90184 41.5261 5.92334 41.4522 5.94961 41.4522C5.97588 41.4522 5.99738 41.4027 5.99738 41.3423C5.99738 41.2819 6.01505 41.212 6.03654 41.1871C6.05804 41.1621 6.12718 40.9805 6.19012 40.7834C6.25305 40.5864 6.31766 40.4144 6.33378 40.4013C6.34978 40.3881 6.40435 40.2433 6.45487 40.0792C6.50538 39.9152 6.56282 39.7809 6.58253 39.7807C6.60223 39.7805 6.61835 39.7373 6.61835 39.6848C6.61835 39.6322 6.63985 39.5892 6.66612 39.5892C6.69239 39.5892 6.71389 39.559 6.71389 39.5221C6.71389 39.4426 6.91308 39.0469 6.96467 39.024C6.98437 39.0152 7.00049 38.9668 7.00049 38.9165C7.00049 38.8661 7.02199 38.8249 7.04826 38.8249C7.07453 38.8249 7.09603 38.782 7.09603 38.7294C7.09603 38.6769 7.11752 38.6339 7.1438 38.6339C7.17007 38.6339 7.19156 38.5909 7.19156 38.5383C7.19156 38.4858 7.21306 38.4428 7.23933 38.4428C7.2656 38.4428 7.2871 38.4106 7.2871 38.3712C7.2871 38.3317 7.30859 38.2995 7.33487 38.2995C7.36114 38.2995 7.38264 38.2565 7.38264 38.204C7.38264 38.1514 7.40413 38.1084 7.4304 38.1084C7.45668 38.1084 7.47817 38.0762 7.47817 38.0368C7.47817 37.9974 7.49967 37.9651 7.52594 37.9651C7.55221 37.9651 7.57371 37.9329 7.57371 37.8935C7.57371 37.8541 7.5952 37.8218 7.62147 37.8218C7.64775 37.8218 7.66924 37.7836 7.66924 37.7368C7.66924 37.6901 7.71223 37.6208 7.76478 37.583C7.81732 37.5451 7.86031 37.4806 7.86031 37.4397C7.86031 37.3987 7.9033 37.3342 7.95585 37.2964C8.00839 37.2585 8.05138 37.194 8.05138 37.1531C8.05138 37.1121 8.09437 37.0476 8.14692 37.0098C8.19946 36.9719 8.24245 36.9216 8.24245 36.8981C8.24245 36.8439 8.56966 36.3901 8.68263 36.2877C8.72956 36.2451 8.76789 36.186 8.76789 36.1563C8.76789 36.1266 8.78939 36.1022 8.81566 36.1022C8.84193 36.1022 8.86343 36.0814 8.86343 36.0561C8.86343 36.0308 9.0139 35.855 9.1978 35.6656C9.38171 35.4761 9.53218 35.303 9.53218 35.281C9.53218 35.2258 10.172 34.5923 10.4638 34.3587C10.595 34.2536 10.7813 34.087 10.8778 33.9885C10.9743 33.89 11.0739 33.8094 11.099 33.8094C11.1242 33.8094 11.2333 33.7234 11.3416 33.6183C11.4499 33.5132 11.5601 33.4272 11.5867 33.4272C11.6132 33.4272 11.7023 33.3627 11.7848 33.2839C11.8673 33.2051 11.959 33.1406 11.9887 33.1406C12.0185 33.1406 12.0738 33.0976 12.1116 33.0451C12.1495 32.9925 12.208 32.9495 12.2416 32.9495C12.2752 32.9495 12.3027 32.9316 12.3027 32.9099C12.3027 32.888 12.3618 32.8397 12.4341 32.8024C12.5063 32.765 12.6071 32.697 12.658 32.651C12.709 32.605 12.7788 32.5674 12.8132 32.5674C12.8477 32.5674 12.8759 32.5459 12.8759 32.5196C12.8759 32.4934 12.9173 32.4719 12.968 32.4719C13.0187 32.4719 13.0924 32.4396 13.1318 32.4002C13.1712 32.3608 13.2373 32.3286 13.2785 32.3286C13.3198 32.3286 13.3536 32.3071 13.3536 32.2808C13.3536 32.2545 13.3948 32.233 13.4452 32.233C13.4955 32.233 13.5438 32.2168 13.5527 32.197C13.5614 32.1771 13.719 32.0859 13.9029 31.9942C14.0868 31.9025 14.2444 31.8112 14.2532 31.7914C14.262 31.7716 14.3104 31.7553 14.3606 31.7553C14.411 31.7553 14.4522 31.7338 14.4522 31.7076C14.4522 31.6813 14.4952 31.6598 14.5478 31.6598C14.6003 31.6598 14.6433 31.6383 14.6433 31.612C14.6433 31.5858 14.685 31.5643 14.736 31.5643C14.787 31.5643 14.842 31.5428 14.8583 31.5165C14.8745 31.4902 14.9403 31.4687 15.0044 31.4687C15.0686 31.4687 15.121 31.4472 15.121 31.421C15.121 31.3947 15.1627 31.3732 15.2137 31.3732C15.2646 31.3732 15.3197 31.3517 15.3359 31.3254C15.3522 31.2992 15.418 31.2777 15.4821 31.2777C15.5462 31.2777 15.5987 31.2562 15.5987 31.2299C15.5987 31.2036 15.6631 31.1821 15.742 31.1821C15.8208 31.1821 15.8853 31.1606 15.8853 31.1344C15.8853 31.1081 15.9377 31.0866 16.0018 31.0866C16.0659 31.0866 16.1317 31.0651 16.148 31.0388C16.1642 31.0126 16.23 30.9911 16.2942 30.9911C16.3583 30.9911 16.4107 30.9696 16.4107 30.9433C16.4107 30.917 16.4752 30.8955 16.554 30.8955C16.6328 30.8955 16.6973 30.874 16.6973 30.8478C16.6973 30.8215 16.7833 30.8 16.8884 30.8C16.9935 30.8 17.0795 30.7785 17.0795 30.7522C17.0795 30.726 17.1654 30.7045 17.2705 30.7045C17.3756 30.7045 17.4616 30.683 17.4616 30.6567C17.4616 30.6304 17.5583 30.6089 17.6766 30.6089C17.7948 30.6089 17.8915 30.5908 17.8915 30.5687C17.8915 30.528 18.5544 30.4427 19.3565 30.3804C19.5975 30.3615 19.8116 30.3291 19.8324 30.3082C19.8833 30.257 22.2902 30.3021 22.8593 30.3649Z" fill="white"/>
<path fill-rule="evenodd" clip-rule="evenodd" d="M20.3526 3.10396C20.3436 3.11299 20.215 3.13078 20.067 3.14347C19.5632 3.18684 19.0778 3.25933 18.7414 3.34152C18.6799 3.35658 18.5848 3.37468 18.5301 3.38184C18.4754 3.38893 18.42 3.40486 18.4071 3.41712C18.3941 3.42938 18.3576 3.43946 18.3259 3.43946C18.2943 3.43946 18.249 3.44954 18.2253 3.46192C18.2015 3.4743 18.1317 3.49832 18.0702 3.5153C17.9228 3.55599 17.6481 3.64024 17.5855 3.66388C17.5581 3.67421 17.4854 3.69736 17.4239 3.71534C17.3188 3.74601 16.9305 3.8969 16.7652 3.97138C16.7242 3.98979 16.6626 4.01624 16.6285 4.03011C16.5416 4.06539 16.3268 4.16196 16.2722 4.19027C15.674 4.50087 15.5562 4.56738 15.161 4.81751C15.0717 4.87407 14.9807 4.9315 14.9588 4.94519C14.8888 4.98899 14.5636 5.21603 14.4419 5.30606C14.3167 5.39877 14.248 5.45427 13.8783 5.76214C13.5554 6.03087 12.8794 6.7128 12.5856 7.06596C12.4514 7.2273 12.3354 7.36493 12.3278 7.37177C12.2976 7.39915 11.8971 7.9633 11.8184 8.08936C11.8048 8.11126 11.7474 8.20235 11.6909 8.29176C11.4823 8.62221 11.3735 8.80944 11.2351 9.07661C11.1571 9.22718 11.0817 9.37278 11.0675 9.40016C10.992 9.54556 10.936 9.66888 10.936 9.68991C10.936 9.70298 10.9129 9.76072 10.8848 9.81821C10.7319 10.1306 10.4755 10.8646 10.3353 11.3912C10.3208 11.446 10.2996 11.5132 10.2884 11.5405C10.2771 11.5679 10.2624 11.6295 10.2557 11.6774C10.249 11.7253 10.2307 11.8149 10.2151 11.8765C10.1878 11.9845 10.1794 12.0293 10.1152 12.4116C10.031 12.9133 9.99167 13.3408 9.97601 13.9251L9.96209 14.443L10.0846 14.3809C10.4069 14.2174 11.1006 14.0847 12.241 13.9682C12.9935 13.8914 13.5758 13.8478 14.0929 13.8295C14.3049 13.822 14.5006 13.8056 14.528 13.793C14.5553 13.7803 14.7902 13.7639 15.05 13.7565C15.3097 13.749 15.8019 13.7319 16.1437 13.7184C16.4855 13.7049 17.1932 13.6869 17.7163 13.6787C18.7648 13.662 18.7414 13.666 18.7414 13.5026C18.7414 13.4723 18.7526 13.4405 18.7662 13.432C18.7799 13.4236 18.7911 13.4004 18.7911 13.3805C18.7911 13.2503 19.1313 12.7059 19.3509 12.4846C19.5628 12.2712 20.1078 11.9263 20.2334 11.9263C20.2588 11.9263 20.2858 11.9164 20.2932 11.9043C20.3007 11.8921 20.3377 11.8763 20.3755 11.8691C20.4133 11.8618 20.5256 11.8376 20.6251 11.8152C20.8922 11.7553 21.7697 11.7841 21.813 11.8542C21.8206 11.8665 21.8486 11.8765 21.8753 11.8765C21.902 11.8765 21.9433 11.8869 21.967 11.8994C21.9908 11.912 22.076 11.9475 22.1564 11.9783C22.3574 12.0553 22.6281 12.237 22.8407 12.4378C23.1615 12.7408 23.3483 13.0349 23.5039 13.4818C23.5277 13.5502 23.5571 13.6174 23.5691 13.6311C23.5826 13.6463 23.9622 13.6631 24.5407 13.6739C26.9294 13.719 29.0319 13.8393 30.5117 14.0155C31.4121 14.1227 31.9347 14.2372 32.1856 14.3823L32.2934 14.4447L32.2793 13.9259C32.2629 13.3246 32.2233 12.8948 32.1407 12.4241C32.1276 12.3488 32.1055 12.22 32.0917 12.1378C32.0779 12.0557 32.0542 11.9381 32.0391 11.8765C32.0239 11.8149 32.0056 11.7225 31.9985 11.671C31.9913 11.6196 31.9755 11.5713 31.9633 11.5638C31.951 11.5562 31.941 11.5232 31.941 11.4904C31.941 11.4577 31.9313 11.4051 31.9193 11.3737C31.9074 11.3422 31.8865 11.2773 31.873 11.2294C31.5765 10.184 31.1245 9.16708 30.5816 8.32399C30.5089 8.21119 30.4495 8.1135 30.4495 8.10697C30.4495 8.08949 30.0614 7.55184 29.9547 7.42155C29.9042 7.35995 29.836 7.27036 29.8029 7.22245C29.7699 7.17454 29.7299 7.12414 29.714 7.11045C29.6981 7.09676 29.6072 6.99596 29.5118 6.88646C29.2209 6.5524 28.6988 6.03734 28.3117 5.70259C28.2776 5.67304 28.1545 5.57461 28.0383 5.48395C27.9221 5.39323 27.8158 5.30986 27.8021 5.29866C27.7885 5.2874 27.7437 5.25678 27.7027 5.23059C27.6617 5.2044 27.561 5.13222 27.479 5.07031C27.397 5.00834 27.3131 4.95023 27.2926 4.94114C27.272 4.93206 27.2273 4.90543 27.1931 4.88191C26.8486 4.64491 26.0152 4.19083 25.6892 4.06247C25.6072 4.03017 25.5289 3.99552 25.5152 3.9855C25.5015 3.97555 25.3505 3.91451 25.1796 3.84998C25.0087 3.7854 24.8465 3.7238 24.8192 3.71298C24.7388 3.68124 24.5643 3.62643 24.022 3.46254C23.98 3.44985 23.9219 3.43946 23.8929 3.43946C23.864 3.43946 23.8341 3.42944 23.8265 3.41718C23.819 3.40492 23.7707 3.38906 23.7194 3.3819C23.668 3.37475 23.5757 3.35658 23.5141 3.34165C23.4082 3.31589 23.2809 3.2915 22.9673 3.2368C22.8287 3.21266 22.6386 3.18746 22.2339 3.13968C21.9783 3.10944 20.3774 3.07908 20.3526 3.10396ZM22.0102 4.32441C22.1469 4.33225 22.2694 4.34918 22.2824 4.362C22.2954 4.37475 22.387 4.3852 22.486 4.3852C22.585 4.3852 22.6729 4.3964 22.6814 4.41009C22.6898 4.42378 22.7498 4.43498 22.8146 4.43498C22.8794 4.43498 22.9431 4.44506 22.9561 4.45732C22.9691 4.46957 23.0244 4.48569 23.0791 4.49303C23.498 4.5494 24.5791 4.87413 24.9668 5.06004C25.0206 5.08587 25.0734 5.10696 25.084 5.10696C25.1303 5.10696 26.1144 5.613 26.1751 5.668C26.1971 5.68797 26.2221 5.70427 26.2306 5.70427C26.2473 5.70427 26.5896 5.92173 26.8615 6.10522C26.955 6.16831 27.1098 6.28336 27.2056 6.36082C27.3013 6.43828 27.4594 6.5659 27.557 6.6443C27.7723 6.81733 28.4911 7.53591 28.7115 7.79836C28.9798 8.11798 29.1238 8.29935 29.2128 8.42952C29.4702 8.80645 29.6208 9.03654 29.653 9.10224C29.6729 9.14287 29.7024 9.19296 29.7185 9.21349C29.913 9.46113 30.415 10.573 30.6005 11.1672C30.6304 11.263 30.6638 11.3638 30.6746 11.3912C30.6855 11.4186 30.7013 11.4746 30.7098 11.5156C30.7295 11.611 30.7616 11.7378 30.7982 11.8641C30.8141 11.9188 30.8323 12.0028 30.8387 12.0507C30.8451 12.0986 30.8601 12.1602 30.872 12.1876C30.897 12.2452 30.917 12.3551 30.938 12.5485C30.9461 12.6238 30.9638 12.6993 30.9774 12.7162C31.0667 12.828 30.9855 12.8368 30.462 12.7726C29.333 12.6339 27.8202 12.5419 25.5898 12.4763C24.4003 12.4413 24.3493 12.4359 24.3034 12.3397C24.1973 12.1173 23.6451 11.4896 23.4388 11.357C23.4043 11.3347 23.3034 11.2642 23.2147 11.2003C22.9502 11.0095 22.5004 10.7967 22.1718 10.7068C22.1103 10.69 22.0376 10.667 22.0102 10.6557C21.8085 10.5725 21.1065 10.5289 20.7425 10.5769C20.6194 10.5932 20.4684 10.6129 20.4069 10.6207C20.3454 10.6285 20.2726 10.6439 20.2453 10.655C20.1461 10.695 20.0171 10.7317 19.976 10.7317C19.9528 10.7317 19.9145 10.7416 19.8908 10.7537C19.867 10.7658 19.7038 10.8445 19.528 10.9286C18.8762 11.2402 18.2334 11.8143 17.9607 12.3281C17.902 12.4388 17.8686 12.4426 16.6533 12.4766C14.5086 12.5365 12.9341 12.6327 11.806 12.7727C11.2858 12.8373 11.1885 12.8269 11.2786 12.7162C11.2924 12.6993 11.3097 12.6294 11.3171 12.5609C11.3333 12.4102 11.3898 12.1253 11.4554 11.8641C11.4692 11.8093 11.492 11.7104 11.5061 11.6442C11.6178 11.1215 12.1891 9.74759 12.4754 9.31305C12.525 9.23776 12.5817 9.14256 12.6015 9.1015C12.6314 9.03922 12.8051 8.77509 13.0596 8.40451C13.1283 8.30477 13.25 8.14324 13.3033 8.08133C13.327 8.05383 13.4164 7.94731 13.5018 7.84465C13.5873 7.74199 13.6797 7.63422 13.7073 7.6051C13.9685 7.32922 14.2962 7.00188 14.468 6.84496C14.6609 6.66887 14.7184 6.62078 14.9621 6.43088C15.0095 6.39398 15.0822 6.33481 15.1237 6.29941C15.2467 6.19432 15.9883 5.70427 16.0242 5.70427C16.0331 5.70427 16.058 5.68841 16.0797 5.66899C16.1598 5.59694 16.9714 5.18573 17.3121 5.04455C17.6368 4.90997 18.2421 4.7034 18.4431 4.65854C18.5183 4.64174 18.6022 4.6189 18.6295 4.60783C18.6785 4.58798 18.7694 4.56944 18.9403 4.54424C18.9881 4.53721 19.0496 4.52165 19.077 4.50964C19.1043 4.49764 19.1714 4.48127 19.2261 4.47318C19.2808 4.46516 19.3871 4.4468 19.4623 4.43243C19.5375 4.41812 19.6773 4.4007 19.773 4.39385C19.8687 4.38695 19.9576 4.37102 19.9706 4.35839C19.9836 4.34576 20.1011 4.33412 20.2316 4.3325C20.3622 4.33089 20.5026 4.32062 20.5436 4.30973C20.6202 4.28938 21.5668 4.29884 22.0102 4.32441ZM23.5482 14.9429C23.5142 14.9892 23.475 15.0832 23.4371 15.2094C23.4057 15.3138 23.2361 15.6257 23.1288 15.7764C23.0699 15.8592 22.7309 16.2001 22.6433 16.2647C22.4053 16.4403 22.1749 16.5598 21.9356 16.632C21.881 16.6484 21.8138 16.6708 21.7865 16.6817C21.5468 16.7769 20.6341 16.7741 20.4507 16.6777C20.427 16.6652 20.3857 16.655 20.359 16.655C20.3322 16.655 20.3035 16.6438 20.295 16.6301C20.2866 16.6165 20.2628 16.6053 20.2423 16.6053C20.157 16.6053 19.7465 16.3815 19.599 16.2547C19.1641 15.8806 18.9535 15.5895 18.7454 15.0746L18.6951 14.9502L17.6929 14.9595C17.1416 14.9646 16.6815 14.974 16.6704 14.9806C16.6593 14.987 16.3349 15.0032 15.9495 15.0165C15.0754 15.0465 14.4381 15.0766 13.9562 15.1107C13.7511 15.1252 13.4267 15.1479 13.2353 15.1613C12.8797 15.1859 12.4439 15.2245 12.2659 15.2471C12.2112 15.254 12.0546 15.2721 11.9179 15.2871C11.1243 15.3747 10.7277 15.4458 10.3394 15.5705C10.006 15.6774 10.0197 15.638 10.1186 16.207C10.1317 16.2823 10.1482 16.3887 10.1553 16.4435C10.1624 16.4982 10.178 16.5654 10.1899 16.5928C10.2019 16.6202 10.2174 16.6762 10.2243 16.7173C10.247 16.8518 10.2682 16.9404 10.2897 16.991C10.3013 17.0184 10.3177 17.0744 10.3263 17.1155C10.3348 17.1565 10.3476 17.2181 10.3548 17.2523C10.3621 17.2866 10.378 17.337 10.3901 17.3643C10.4023 17.3917 10.4362 17.4925 10.4655 17.5883C10.5899 17.9956 10.7223 18.3494 10.8848 18.7083C10.9096 18.7631 10.9559 18.8695 10.9877 18.9447C11.0539 19.1009 11.2261 19.4362 11.3494 19.6491C11.3955 19.7286 11.4331 19.7988 11.4331 19.8052C11.4331 19.8169 11.4892 19.9076 11.655 20.1643C11.7036 20.2395 11.7637 20.3387 11.7885 20.3846C11.8134 20.4305 11.8555 20.4914 11.882 20.52C11.9085 20.5485 11.9303 20.5798 11.9303 20.5895C11.9303 20.5992 11.9918 20.6868 12.067 20.7843C12.1422 20.8817 12.2037 20.9724 12.2037 20.9859C12.2037 20.9994 12.2144 21.0105 12.2274 21.0105C12.2404 21.0105 12.2875 21.0637 12.3321 21.1287C12.3767 21.1937 12.4428 21.2805 12.479 21.3216C12.5152 21.3626 12.6321 21.497 12.7389 21.6202C13.1813 22.131 13.8486 22.7579 14.3416 23.1259C14.3874 23.1602 14.4537 23.2114 14.4889 23.2399C14.524 23.2684 14.6311 23.3456 14.7268 23.4117C14.8225 23.4778 14.9064 23.5397 14.9133 23.5494C14.9201 23.5591 14.9648 23.5867 15.0127 23.6109C15.0605 23.635 15.15 23.6901 15.2115 23.7334C15.3102 23.8027 15.5878 23.9635 15.9324 24.1508C15.994 24.1843 16.0667 24.2246 16.094 24.2405C16.1409 24.2676 16.379 24.3786 16.6285 24.4894C17.1443 24.7188 17.744 24.93 18.2815 25.0716C18.3362 25.086 18.4033 25.1069 18.4307 25.1181C18.458 25.1293 18.5139 25.1444 18.555 25.1515C18.596 25.1587 18.6855 25.1762 18.7538 25.1905C19.1964 25.2831 19.5183 25.3333 20.0713 25.3959C20.4305 25.4366 21.8226 25.4361 22.1842 25.3951C22.8317 25.3218 23.1039 25.2796 23.5017 25.1912C23.5701 25.176 23.668 25.1575 23.7194 25.1501C23.7707 25.1427 23.819 25.1266 23.8265 25.1144C23.8341 25.1021 23.867 25.0921 23.8997 25.0921C23.9324 25.0921 23.9849 25.0821 24.0163 25.07C24.0478 25.0578 24.1909 25.0113 24.3345 24.9668C25.2292 24.6892 25.9072 24.4001 26.6338 23.9867C26.6612 23.9711 26.7308 23.9279 26.7887 23.8906C26.8465 23.8533 26.8993 23.8228 26.906 23.8228C26.9158 23.8228 27.1705 23.6625 27.3423 23.548C27.4015 23.5086 27.7948 23.2284 27.8754 23.1682C28.3858 22.7872 29.1406 22.0745 29.5547 21.5829C29.6527 21.4665 29.7795 21.3171 29.8364 21.2508C29.8933 21.1845 29.9565 21.1033 29.9768 21.0704C29.997 21.0374 30.0222 21.0105 30.0327 21.0105C30.0432 21.0105 30.0518 20.9972 30.0518 20.981C30.0518 20.9647 30.0729 20.9283 30.0987 20.9001C30.1476 20.8464 30.6733 20.0684 30.6733 20.0497C30.6733 20.0438 30.722 19.9579 30.7816 19.8589C30.9016 19.6594 31.2538 18.9803 31.2761 18.9054C31.2838 18.8791 31.3528 18.7147 31.4294 18.54C31.5059 18.3653 31.617 18.0742 31.6763 17.8929C31.7751 17.5909 31.8003 17.5089 31.873 17.2523C31.8866 17.2044 31.9074 17.1395 31.9193 17.1081C31.9313 17.0766 31.941 17.0241 31.941 16.9913C31.941 16.9585 31.951 16.9256 31.9633 16.918C31.9841 16.905 31.9936 16.8603 32.0306 16.599C32.0388 16.5409 32.0556 16.4826 32.0678 16.4696C32.0801 16.4566 32.0902 16.4001 32.0902 16.3439C32.0902 16.2878 32.1001 16.2313 32.1123 16.2182C32.1245 16.2052 32.1404 16.1274 32.1478 16.0453C32.155 15.9631 32.1677 15.8505 32.1759 15.795C32.193 15.6786 32.1619 15.6564 31.8313 15.5499C30.9514 15.2665 28.1737 15.0389 24.6949 14.9651C24.1207 14.9529 23.6331 14.9356 23.6113 14.9267C23.5896 14.9178 23.5612 14.9251 23.5482 14.9429ZM17.9246 16.1635C17.9454 16.1806 18.0055 16.2562 18.0582 16.3315C18.368 16.7743 18.6492 17.0568 19.0824 17.3599C19.2301 17.4633 19.8068 17.7501 19.867 17.7501C19.8889 17.7501 19.9129 17.76 19.9203 17.7721C19.9279 17.7843 19.9648 17.8001 20.0026 17.8074C20.0404 17.8147 20.116 17.8337 20.1707 17.8497C20.7423 18.0165 21.5132 18.0165 22.0848 17.8497C22.1395 17.8337 22.2151 17.8147 22.2529 17.8074C22.2907 17.8001 22.3277 17.7843 22.3352 17.7721C22.3426 17.76 22.3677 17.7499 22.3908 17.7497C22.4735 17.7491 23.0145 17.4589 23.2642 17.2814C23.6589 17.0009 24.2158 16.4017 24.2905 16.1772C24.3015 16.1443 25.3901 16.1474 25.8011 16.1815C25.9583 16.1945 26.3274 16.2116 26.6214 16.2194C27.3177 16.238 27.5236 16.2482 28.4609 16.3108C29.7092 16.3942 30.3636 16.4543 30.5928 16.5065C30.6511 16.5197 30.721 16.5306 30.7482 16.5306C30.8041 16.5306 30.814 16.6096 30.7744 16.7404C30.7616 16.7824 30.7396 16.8616 30.7255 16.9164C30.6434 17.2351 30.4014 17.9296 30.2722 18.2172C30.133 18.5271 29.8608 19.0731 29.7748 19.2148C29.7221 19.3018 29.6789 19.376 29.6789 19.3798C29.6789 19.4052 29.298 19.9914 29.2258 20.0771C29.2142 20.0908 29.1577 20.1655 29.1 20.2432C28.8653 20.5595 28.766 20.6817 28.5498 20.9212C28.2424 21.2617 27.6851 21.7967 27.4535 21.9737C27.3855 22.0256 27.3223 22.0794 27.3131 22.0931C27.3039 22.1068 27.2333 22.1628 27.1561 22.2175C27.0791 22.2723 26.9524 22.3627 26.8746 22.4186C26.7167 22.5319 26.253 22.8273 26.233 22.8273C26.226 22.8273 26.1734 22.8586 26.1163 22.8969C26.0591 22.9352 25.9564 22.994 25.8881 23.0276C25.8197 23.0611 25.7582 23.0942 25.7514 23.1011C25.7226 23.1298 25.5201 23.2255 25.488 23.2255C25.4688 23.2255 25.4531 23.2367 25.4531 23.2504C25.4531 23.2641 25.4424 23.2753 25.4293 23.2753C25.4163 23.2753 25.3352 23.3076 25.2491 23.3471C25.0103 23.4568 24.9382 23.4871 24.6825 23.5857C24.3898 23.6985 24.0273 23.8219 23.9119 23.8481C23.864 23.8589 23.76 23.8856 23.6807 23.9075C23.6014 23.9294 23.5098 23.9472 23.4771 23.9472C23.4444 23.9472 23.4107 23.9584 23.4023 23.9721C23.3938 23.9858 23.345 23.997 23.2939 23.997C23.2427 23.997 23.1903 24.0071 23.1773 24.0194C23.1643 24.0316 23.1089 24.0481 23.0543 24.0559C22.9996 24.0638 22.8821 24.0824 22.7933 24.0973C22.7044 24.1121 22.5646 24.1297 22.4825 24.1363C22.4005 24.143 22.311 24.1585 22.2837 24.1707C21.9911 24.3023 20.0829 24.2268 19.2013 24.0489C19.1329 24.0351 19.0378 24.017 18.99 24.0087C18.9421 24.0004 18.8806 23.984 18.8533 23.9721C18.8259 23.9603 18.77 23.9452 18.729 23.9385C18.6879 23.9319 18.6096 23.9135 18.555 23.8977C18.5003 23.8818 18.4108 23.86 18.3561 23.8493C18.2444 23.8272 17.8277 23.6827 17.3991 23.5172C17.0267 23.3735 16.2029 22.9678 16.0872 22.8713C16.0665 22.8539 16.0146 22.8229 15.9721 22.8024C15.8988 22.767 15.2617 22.3445 15.1684 22.2694C15.1442 22.25 15.0015 22.1356 14.8511 22.0152C14.5291 21.7574 13.8949 21.152 13.6329 20.8524C13.3151 20.489 12.676 19.6135 12.676 19.5416C12.676 19.5282 12.6676 19.5172 12.6573 19.5172C12.6469 19.5172 12.623 19.4808 12.604 19.4363C12.585 19.3918 12.5496 19.333 12.5252 19.3056C12.3408 19.0985 11.7435 17.716 11.5843 17.1279C11.5677 17.0663 11.5436 16.9815 11.5309 16.9395C11.5181 16.8974 11.5077 16.8393 11.5077 16.8103C11.5077 16.7813 11.4965 16.7506 11.4828 16.7421C11.4692 16.7337 11.458 16.6884 11.458 16.6416C11.458 16.5499 11.4616 16.5479 11.6693 16.5194C12.1184 16.4577 12.227 16.4462 13.0613 16.3724C13.3074 16.3505 13.643 16.3207 13.8071 16.306C14.2574 16.2658 15.7654 16.2009 17.1753 16.1611C17.5513 16.1504 17.8652 16.1397 17.8728 16.1371C17.8804 16.1345 17.9037 16.1464 17.9246 16.1635Z" fill="white"/>
</g>
<defs>
<filter id="filter0_d_372_756" x="0" y="0" width="42.1958" height="51" filterUnits="userSpaceOnUse" color-interpolation-filters="sRGB">
<feFlood flood-opacity="0" result="BackgroundImageFix"/>
<feColorMatrix in="SourceAlpha" type="matrix" values="0 0 0 0 0 0 0 0 0 0 0 0 0 0 0 0 0 0 127 0" result="hardAlpha"/>
<feOffset/>
<feGaussianBlur stdDeviation="1.5"/>
<feComposite in2="hardAlpha" operator="out"/>
<feColorMatrix type="matrix" values="0 0 0 0 1 0 0 0 0 1 0 0 0 0 1 0 0 0 1 0"/>
<feBlend mode="normal" in2="BackgroundImageFix" result="effect1_dropShadow_372_756"/>
<feBlend mode="normal" in="SourceGraphic" in2="effect1_dropShadow_372_756" result="shape"/>
</filter>
</defs>
</svg>
