<svg xmlns="http://www.w3.org/2000/svg" enable-background="new 0 0 128 128" viewBox="0 0 128 128" id="fire-run-away"><path d="M103 77c-.45 0-.91-.1-1.34-.32-1.48-.74-2.08-2.54-1.34-4.02l8-16c.74-1.48 2.54-2.08 4.03-1.34 1.48.74 2.08 2.54 1.34 4.02l-8 16C105.16 76.39 104.1 77 103 77zM118 100c-.86 0-1.71-.37-2.31-1.08-1.06-1.27-.89-3.16.38-4.23l6-5c1.28-1.06 3.17-.89 4.23.38 1.06 1.27.89 3.16-.38 4.23l-6 5C119.36 99.77 118.68 100 118 100zM32.16 34.53c-7.17 0-13-5.83-13-13s5.83-13 13-13 13 5.83 13 13S39.32 34.53 32.16 34.53zM32.16 14.53c-3.86 0-7 3.14-7 7s3.14 7 7 7 7-3.14 7-7S36.01 14.53 32.16 14.53zM47.96 127c-3.93 0-7.37-2.52-8.57-6.26-4.75-14.87-7.37-27.32-7.65-28.7-.52-2.55.08-5.2 1.66-7.27.46-.61 4.38-5.62 10.85-10.72-1.5-3.33-3.71-7.94-6.35-12.45-.06.13-.13.26-.19.39l-2.9 6.17c-1.48 3.14-4.68 5.17-8.15 5.17-1.26 0-2.49-.26-3.65-.78l-16.66-7.4c-2.24-1-3.95-2.82-4.79-5.12-.85-2.3-.73-4.79.34-7.01 2.08-4.34 7.46-6.23 12-4.22l8.43 3.75c3.98-7.38 10.38-13.1 18.22-16.24 7.49-3 15.87-3.37 23.6-1.05 8.09 2.49 15.23 7.65 20.11 14.54l5.3 7.48c1.39 1.97 1.93 4.35 1.52 6.72-.41 2.37-1.72 4.44-3.68 5.82-1.8 1.27-3.99 1.83-6.17 1.59-1.65-.18-2.84-1.66-2.66-3.31s1.67-2.83 3.31-2.66c.73.08 1.46-.11 2.06-.53.65-.46 1.09-1.15 1.22-1.94.14-.79-.04-1.58-.5-2.24l-5.29-7.48C75.24 47.45 69.22 43.09 62.41 41c-6.42-1.92-13.39-1.61-19.63.88-7.03 2.81-12.69 8.14-15.91 14.99l-.4.86c-.7 1.48-2.44 2.13-3.93 1.46l-11.06-4.92c-1.59-.71-3.46-.11-4.15 1.34-.36.74-.4 1.57-.11 2.34.28.77.85 1.38 1.6 1.71l16.66 7.4c1.46.65 3.26-.04 3.93-1.47l2.9-6.17c.89-1.89 2.05-3.68 3.44-5.31.61-.72 1.52-1.11 2.47-1.05.94.06 1.8.56 2.32 1.35 4.4 6.69 7.97 14.25 10.19 19.41.55 1.29.14 2.78-.99 3.61-7.06 5.16-11.38 10.75-11.55 10.99-.52.69-.73 1.57-.55 2.42.11.53 2.75 13.25 7.49 28.08.4 1.25 1.55 2.09 2.86 2.09.43 0 .86-.1 1.27-.28 1.34-.62 2-2.32 1.51-3.88-3.29-10.32-5.55-19.66-6.61-24.31-.22-.96.05-1.96.71-2.69 2.54-2.78 6.7-6.77 12.06-9.99 1.42-.85 3.26-.39 4.12 1.03C61.88 82.3 61.42 84.14 60 85c-4.18 2.51-7.57 5.62-9.65 7.76 1.15 4.9 3.23 13.19 6.12 22.26 1.42 4.47-.61 9.27-4.72 11.15C50.53 126.72 49.26 127 47.96 127z"></path><path d="M125.35,108h-14.97c-1.24,0-2.18-1.12-1.97-2.34l3.29-18.8c0.31-1.77-1.69-3.02-3.15-1.96l-13.2,9.62
		c-0.93,0.68-2.25,0.43-2.87-0.54l-7.46-11.72c-0.82-1.28-2.71-1.22-3.44,0.12l-5.05,9.26c-0.45-2.5-0.96-8.58-1.06-14.51
		c-0.01-0.54-0.07-1.08-0.17-1.61c-0.11-0.55-2.78-13.71-9.7-26.4c-0.89-1.63-3.06-2.11-4.57-0.86c-1.12,0.93-1.33,2.57-0.63,3.85
		c6.43,11.85,8.91,24.06,9.01,24.58c0.03,0.17,0.05,0.35,0.06,0.53c0.09,5.26,0.62,14.66,1.66,17.48
		c2.28,6.15,12.18,17.24,15.92,21.12c1,1.04,1.24,2.67,0.42,3.86c-1.11,1.61-3.35,1.74-4.64,0.4c-5.22-5.4-14.75-16.38-17.32-23.29
		c-0.3-0.8-0.58-1.95-0.83-3.41c-0.28-1.6-1.7-2.84-3.31-2.66c-1.73,0.19-2.92,1.79-2.63,3.48c0.33,1.94,0.71,3.48,1.15,4.68
		c3.51,9.46,16.13,22.79,18.63,25.37c1.76,1.82,4.11,2.74,6.47,2.74c0.13,0,21.65,0,27.4,0c0.89,0,1.73-0.4,2.3-1.08l12.2-14.64
		C127.97,109.98,127.05,108,125.35,108z"></path></svg>