<svg width="40" height="49" viewBox="0 0 40 49" fill="none" xmlns="http://www.w3.org/2000/svg">
<g filter="url(#filter0_d_372_768)">
<path d="M15.3267 1.24433C10.2548 2.35381 6.27253 6.49455 5.44042 11.5268L5.20267 12.9137L3.10258 13.0128C0.903435 13.1118 0.566628 13.2505 0.190197 14.1619C0.0316995 14.5383 -0.027737 18.9366 0.0118873 29.7937L0.0713238 44.9103L0.626064 45.4453L1.16099 46H18.0013H34.8417L35.3766 45.4453L35.9313 44.9103L35.9908 29.7937C36.0304 18.7187 35.971 14.5581 35.8125 14.142C35.4162 13.1911 34.9407 13.0128 32.7416 13.0128H30.7406L30.5028 11.5863C29.9084 7.96065 27.7093 4.75108 24.4403 2.75005C21.9638 1.24433 18.1796 0.61034 15.3267 1.24433ZM20.2203 2.92836C24.1035 3.74066 27.5904 7.0691 28.6008 10.9721C28.7593 11.5863 28.898 12.3193 28.898 12.5571V13.0128H18.0211C12.0181 13.0128 7.08483 12.9335 7.02539 12.8543C6.80746 12.4976 7.5207 9.96168 8.19431 8.6937C9.75947 5.72188 12.3747 3.68122 15.6041 2.92836C16.6343 2.6708 19.0118 2.6708 20.2203 2.92836ZM34.2077 21.2744L34.2473 27.8719H28.8188H23.3902L23.2516 27.2181C23.0336 26.2869 22.6374 25.5935 21.8251 24.7812C20.7948 23.7509 19.7448 23.3151 18.1796 23.3151C15.8814 23.3151 14.0785 24.5831 13.2662 26.7822L12.8898 27.7728L7.32258 27.8322L1.75536 27.8719V21.3735C1.75536 17.7875 1.81479 14.7958 1.89404 14.7364C1.95348 14.6572 9.24436 14.6175 18.0806 14.6373L34.1482 14.6968L34.2077 21.2744ZM19.091 25.118C20.1212 25.4152 21.2703 26.5841 21.5477 27.6341C22.0034 29.2785 21.0128 31.0814 19.2891 31.7551C16.7135 32.7259 14.0785 30.2691 14.8116 27.5351C15.0691 26.6039 16.0994 25.5142 17.0503 25.1774C17.9023 24.8604 18.14 24.8604 19.091 25.118ZM13.4643 30.6258C14.1776 32.0126 14.6729 32.5079 15.9012 33.1221C18.5957 34.4693 22.1024 33.1023 23.0534 30.3286L23.311 29.5559H28.7395H34.1482L34.2077 36.926L34.2473 44.316H18.0013H1.75536V37.0251C1.75536 33.0032 1.81479 29.655 1.89404 29.5955C1.97329 29.5163 4.46962 29.4767 7.48107 29.4965L12.9096 29.5559L13.4643 30.6258Z" fill="white"/>
</g>
<defs>
<filter id="filter0_d_372_768" x="0" y="0" width="40.0027" height="49" filterUnits="userSpaceOnUse" color-interpolation-filters="sRGB">
<feFlood flood-opacity="0" result="BackgroundImageFix"/>
<feColorMatrix in="SourceAlpha" type="matrix" values="0 0 0 0 0 0 0 0 0 0 0 0 0 0 0 0 0 0 127 0" result="hardAlpha"/>
<feOffset dx="2" dy="1"/>
<feGaussianBlur stdDeviation="1"/>
<feComposite in2="hardAlpha" operator="out"/>
<feColorMatrix type="matrix" values="0 0 0 0 0 0 0 0 0 0 0 0 0 0 0 0 0 0 1 0"/>
<feBlend mode="normal" in2="BackgroundImageFix" result="effect1_dropShadow_372_768"/>
<feBlend mode="normal" in="SourceGraphic" in2="effect1_dropShadow_372_768" result="shape"/>
</filter>
</defs>
</svg>
