<svg width="60" height="46" viewBox="0 0 60 46" fill="none" xmlns="http://www.w3.org/2000/svg">
<g filter="url(#filter0_d_372_762)">
<path d="M9.95523 2.99472L6.94654 3.0058C5.28733 3.0058 3.16355 3.05013 2.2344 3.08338C0.553068 3.16095 0.530946 3.17203 0.265473 3.47124C0.0331841 3.74829 0 3.89235 0 4.72348C0 5.86491 0.265473 8.43588 0.553068 10.1203C0.796418 11.5831 1.61496 14.4755 2.16803 15.8939C3.50645 19.2739 5.92889 22.4654 9.02607 24.8923C10.8291 26.3108 12.5768 27.2749 14.9771 28.1615L16.2823 28.6491L17.123 29.6464C19.3021 32.2396 20.7843 33.6691 22.4767 34.8106C23.3063 35.3757 23.3395 35.409 23.3395 35.9298V36.3509H20.0211V43H35.1198V36.3509H31.7461V35.9298C31.7461 35.409 31.7793 35.3757 32.6089 34.8106C34.3013 33.6691 35.7835 32.2396 37.9626 29.6464L38.8033 28.6491L40.1085 28.1615C42.5088 27.2749 44.2565 26.3108 46.0595 24.8923C49.1567 22.4654 51.5791 19.2739 52.9176 15.8939C53.4706 14.4755 54.2892 11.5831 54.5325 10.1203C54.8201 8.43588 55.0856 5.86491 55.0856 4.72348C55.0856 3.89235 55.0524 3.74829 54.8201 3.47124C54.5546 3.17203 54.5325 3.16095 52.8512 3.08338C51.922 3.05013 49.7983 3.0058 48.1501 3.0058L45.1304 2.99472V1H9.95523V2.99472ZM43.5818 6.14195C43.5818 12.6691 43.2168 15.5171 41.8673 19.5731C40.6616 23.1858 39.1351 25.8897 36.6021 28.9483C35.1088 30.7435 33.5712 32.2617 32.2439 33.2369L31.0271 34.1346H24.0585L22.8417 33.2369C21.5144 32.2617 19.9768 30.7435 18.4835 28.9483C15.9505 25.8897 14.424 23.1858 13.2183 19.5731C11.8688 15.5171 11.5038 12.6691 11.5038 6.14195V2.32982H43.5818V6.14195ZM9.89992 6.81794L7.25626 6.85119C4.39136 6.88443 4.31393 6.89551 4.08164 7.5161C3.95997 7.82639 4.12589 9.62164 4.42455 11.2174C5.02186 14.3757 6.71425 17.7224 8.88228 20.0164C9.734 20.9251 11.7914 22.7203 12.798 23.4406C13.0967 23.6512 13.3621 23.9836 13.5502 24.3826C13.7161 24.715 14.0258 25.2802 14.236 25.6348C14.4461 25.9894 14.601 26.2997 14.5789 26.3219C14.5125 26.3995 12.8201 25.5905 12.0348 25.114C10.5636 24.2164 9.43534 23.3077 7.95312 21.8338C5.59705 19.4844 4.1812 17.1794 3.15249 14.0433C2.25652 11.3061 1.75876 8.69077 1.59284 5.90923L1.51541 4.66807L2.11272 4.62375C2.44456 4.60158 4.34712 4.57942 6.33816 4.56834L9.96629 4.54617L9.89992 6.81794ZM52.7074 4.62375L53.5702 4.69024L53.4928 5.92032C53.3932 7.5715 53.0392 9.98734 52.6963 11.4169C51.557 16.0491 49.9974 18.9747 47.1325 21.8338C45.6503 23.3077 44.522 24.2164 43.0508 25.114C42.2655 25.5905 40.5731 26.3995 40.5067 26.3219C40.4846 26.2997 40.6395 25.9894 40.8496 25.6348C41.0598 25.2802 41.3695 24.715 41.5354 24.3826C41.7235 23.9836 41.9889 23.6512 42.2876 23.4406C43.2942 22.7203 45.3516 20.9251 46.2033 20.0164C48.3713 17.7224 50.0637 14.3757 50.661 11.2174C50.9597 9.62164 51.1256 7.82639 51.004 7.5161C50.7717 6.89551 50.6942 6.88443 47.8293 6.85119L45.1857 6.81794L45.1193 4.54617H48.482C50.3292 4.54617 52.2318 4.57942 52.7074 4.62375ZM9.99947 8.6686C10.0327 8.86807 10.0769 9.75462 10.1101 10.6412C10.2207 13.7773 10.7627 16.9356 11.6697 19.6063C11.8799 20.2491 12.0348 20.781 12.0126 20.8032C11.9463 20.8697 10.2096 19.2517 9.61233 18.5536C8.35133 17.124 7.21201 15.085 6.49302 13.0127C6.11693 11.9377 5.6413 9.57731 5.6413 8.80158V8.43588L7.05715 8.39156C7.83145 8.38048 8.79379 8.34723 9.20306 8.33615L9.94417 8.31398L9.99947 8.6686ZM48.4709 8.4248H49.4443V8.80158C49.4443 9.57731 48.9687 11.9377 48.5926 13.0127C47.8736 15.085 46.7343 17.124 45.4733 18.5536C44.876 19.2517 43.1393 20.8697 43.073 20.8032C43.0508 20.781 43.2057 20.2491 43.4159 19.6063C44.3229 16.9356 44.8649 13.7773 44.9755 10.6412C45.0087 9.75462 45.0529 8.86807 45.0861 8.65752L45.1414 8.28074L46.3139 8.35831C46.9555 8.39156 47.9289 8.4248 48.4709 8.4248ZM30.2307 35.542C30.2639 35.5974 30.2528 35.7968 30.2307 35.9852L30.1754 36.3509H24.9102L24.8549 35.9852C24.8328 35.7968 24.8217 35.5974 24.8549 35.542C24.9213 35.4422 30.1643 35.4422 30.2307 35.542ZM33.6044 39.6976L33.5712 41.7256H21.5144L21.4812 39.6976L21.459 37.6807H33.6265L33.6044 39.6976Z" fill="white"/>
<path d="M25.1646 4.37989C21.3263 5.1002 18.0964 7.88173 16.769 11.6163C16.3266 12.8685 16.1496 13.8991 16.1496 15.2955C16.1496 18.5092 17.2225 21.0801 19.5233 23.3298C21.7577 25.535 24.5562 26.5989 27.7087 26.4548C30.2639 26.3329 32.5094 25.4575 34.423 23.8063C39.2347 19.6617 39.5997 12.2701 35.2415 7.6601C33.5934 5.92026 31.4806 4.77883 29.1467 4.3688C28.0737 4.18041 26.2154 4.18041 25.1646 4.37989ZM29.6776 6.04216C32.4209 6.84004 34.5668 8.57989 35.7835 10.9846C36.1596 11.716 36.6021 13.1123 36.6795 13.7883C36.7237 14.0986 36.768 14.3867 36.8012 14.4422C36.8233 14.4865 35.5955 14.5086 34.0579 14.4976L31.2705 14.4643L31.0382 13.7994C30.7174 12.8796 29.8214 11.9266 28.8702 11.4833C28.2397 11.1952 28.0295 11.1509 27.1335 11.1509C26.2265 11.1509 26.0495 11.1952 25.419 11.5055C24.335 12.0374 23.5165 12.9461 23.2178 13.9435L23.0851 14.4089H17.6208L17.665 14.0986C18.0079 11.9044 18.749 10.3197 20.1649 8.80152C21.6582 7.19466 23.4058 6.23055 25.5518 5.80944C26.6468 5.5878 28.4941 5.69862 29.6776 6.04216ZM28.1512 12.6801C30.0648 13.4891 30.5072 15.8828 29.025 17.3123C27.941 18.354 26.3703 18.3208 25.2531 17.2348C24.512 16.5144 24.2355 15.6833 24.4346 14.7857C24.6558 13.7994 25.3416 12.9904 26.2044 12.6801C26.7353 12.4807 27.6866 12.4918 28.1512 12.6801ZM23.1625 16.0933C23.5275 17.3899 24.1801 18.2654 25.1757 18.8084C26.0606 19.296 26.8902 19.44 27.7862 19.2849C29.3901 18.9857 30.5957 17.9551 31.0271 16.4812L31.1599 16.0158L34.069 15.9825L36.9671 15.9604L36.8897 16.5366C36.2149 21.5013 32.1665 25.0807 27.211 25.0807C24.4014 25.0807 22.0895 24.0722 20.1206 21.9667C18.6826 20.4263 17.7756 18.5424 17.5323 16.5366L17.4548 15.9604H20.2865C22.4656 15.9604 23.1293 15.9936 23.1625 16.0933Z" fill="white"/>
<path d="M26.5583 14.0543C26.149 14.276 25.773 14.8633 25.773 15.2733C25.773 15.7166 26.1822 16.3594 26.5915 16.5588C27.3105 16.9024 28.0295 16.6918 28.4277 16.038C28.8701 15.3177 28.5715 14.3314 27.8193 14.01C27.3105 13.7995 27.0118 13.8105 26.5583 14.0543Z" fill="white"/>
</g>
<defs>
<filter id="filter0_d_372_762" x="0" y="0" width="59.0856" height="46" filterUnits="userSpaceOnUse" color-interpolation-filters="sRGB">
<feFlood flood-opacity="0" result="BackgroundImageFix"/>
<feColorMatrix in="SourceAlpha" type="matrix" values="0 0 0 0 0 0 0 0 0 0 0 0 0 0 0 0 0 0 127 0" result="hardAlpha"/>
<feOffset dx="2" dy="1"/>
<feGaussianBlur stdDeviation="1"/>
<feComposite in2="hardAlpha" operator="out"/>
<feColorMatrix type="matrix" values="0 0 0 0 0 0 0 0 0 0 0 0 0 0 0 0 0 0 1 0"/>
<feBlend mode="normal" in2="BackgroundImageFix" result="effect1_dropShadow_372_762"/>
<feBlend mode="normal" in="SourceGraphic" in2="effect1_dropShadow_372_762" result="shape"/>
</filter>
</defs>
</svg>
