<svg width="54" height="45" viewBox="0 0 54 45" fill="none" xmlns="http://www.w3.org/2000/svg">
<g filter="url(#filter0_d_372_759)">
<path d="M22.8361 1.13191C22.2154 1.20433 21.2532 1.36987 20.7152 1.48368C19.6185 1.72163 17.6838 2.33205 17.6321 2.44585C17.6114 2.49758 17.5079 2.52862 17.4148 2.52862C17.2079 2.52862 15.8319 3.12869 15.7491 3.25284C15.7181 3.28388 15.3042 3.54253 14.818 3.81153C13.7627 4.3909 13.0281 4.88751 12.5418 5.35308C12.3453 5.54966 11.9728 5.86004 11.7142 6.04627C10.9279 6.63599 9.7898 7.88785 8.61035 9.47079C7.81371 10.5364 7.66887 10.7744 7.12053 11.9435C6.89292 12.4298 6.67565 12.8332 6.62392 12.8539C6.58253 12.8746 6.54115 12.9574 6.54115 13.0505C6.54115 13.1333 6.37561 13.5782 6.17904 14.023C5.98247 14.4783 5.81693 14.9024 5.81693 14.9749C5.81693 15.0473 4.51333 16.4026 2.92005 17.9959C1.32676 19.5788 0.0128196 20.9342 0.0128196 20.9962C-0.0596025 21.6274 0.0955877 21.6687 2.60967 21.6687H4.85475L4.91683 22.7861C4.95821 23.4069 5.10306 24.4829 5.2479 25.1967C5.5169 26.4486 6.06523 28.2488 6.24112 28.435C6.29285 28.4971 6.33423 28.6316 6.34458 28.7454C6.34458 28.9523 6.72738 29.7386 7.4516 31.0422C7.93786 31.932 8.25859 32.3975 9.29319 33.7736C10.3795 35.222 12.5832 37.2084 14.1041 38.1189C14.342 38.2637 14.6938 38.481 14.8697 38.5948C15.4387 38.9673 18.2321 40.1984 18.9977 40.4054C21.5946 41.1192 22.774 41.2641 25.5882 41.1917C27.9574 41.1399 29.3024 40.9433 30.906 40.426C31.982 40.0846 34.2788 39.0293 35.4272 38.3568C35.6962 38.1913 36.0687 37.974 36.2756 37.8602C37.8792 36.9394 41.1072 33.577 42.0797 31.7975C42.1935 31.5906 42.4211 31.1664 42.5866 30.8663C42.7522 30.556 42.9177 30.287 42.9591 30.2559C43.0626 30.1835 43.4764 29.2213 43.4764 29.0558C43.4764 28.973 43.5178 28.9109 43.5695 28.9109C43.6212 28.9109 43.6833 28.7868 43.7144 28.6316C43.7454 28.4661 43.8799 28.0626 44.0247 27.7315C44.2524 27.1935 44.6248 26.7797 47.1389 24.2656C50.9255 20.4789 50.9152 20.6031 47.3355 20.5514L45.0283 20.5203V19.7237C45.0283 19.2892 44.9869 18.6787 44.9248 18.3684C44.8731 18.0476 44.78 17.4476 44.7076 17.0441C44.6455 16.6302 44.5524 16.2681 44.511 16.2371C44.4593 16.206 44.3972 15.9888 44.3558 15.7405C44.3144 15.5025 44.211 15.1818 44.1385 15.0266C44.0558 14.8714 43.9937 14.6748 43.9937 14.5921C43.9937 14.4058 42.6901 11.4986 42.4418 11.1158C42.3487 10.971 42.1314 10.6502 41.9762 10.3916C41.1796 9.11903 40.445 8.19823 39.3794 7.14294C38.0447 5.79796 37.6102 5.4255 36.586 4.75301C36.0169 4.38056 35.51 4.03914 35.4479 3.98741C35.3858 3.93568 35.1789 3.81153 34.9823 3.71841C34.7858 3.61495 34.5581 3.48046 34.4754 3.40803C34.2788 3.23215 32.2199 2.3217 32.0337 2.3217C31.9613 2.3217 31.744 2.25963 31.5578 2.17686C30.4922 1.73198 28.7126 1.32849 26.9228 1.13191C25.3812 0.956029 24.3673 0.956029 22.8361 1.13191ZM26.2089 2.22859C28.3092 2.39412 30.5232 2.92177 32.1993 3.66668C32.6855 3.88395 33.2752 4.1426 33.5235 4.23571C33.7615 4.33917 33.9581 4.45298 33.9581 4.48402C33.9581 4.51506 34.1133 4.61852 34.2995 4.69094C34.6409 4.84613 35.1375 5.15651 36.3687 6.01523C37.5792 6.85325 39.7001 9.0673 40.6209 10.4537C40.8382 10.7847 41.1072 11.1882 41.2106 11.3331C41.5107 11.778 42.6694 14.1368 42.6073 14.1886C42.5763 14.2196 42.6487 14.4369 42.7729 14.6748C42.897 14.9024 43.0626 15.3577 43.135 15.6681C43.2178 15.9784 43.3005 16.3095 43.3212 16.3923C43.6419 17.4579 43.7971 18.5649 43.8592 20.1375L43.9213 21.6687H48.0804L45.2042 24.5346L42.3383 27.4108L39.4725 24.5346L36.5963 21.6687H40.7864V20.81C40.7864 19.2685 40.3416 16.8061 39.907 15.9681C39.8243 15.8129 39.7518 15.606 39.7518 15.5129C39.7518 15.4301 39.5242 14.8818 39.2345 14.292C38.3241 12.4194 37.5895 11.4055 36.0894 9.94671C35.51 9.37768 34.8996 8.819 34.7237 8.70519C32.6855 7.27744 31.206 6.50149 29.8093 6.12903C29.3334 6.00488 28.9299 5.86004 28.9092 5.81865C28.8885 5.77727 28.754 5.73589 28.6092 5.73589C28.4643 5.73589 28.0608 5.65312 27.7091 5.56C27.2125 5.41516 26.6434 5.38412 24.957 5.37377H22.8361L21.4394 5.75658C18.7391 6.50149 17.9218 6.84291 16.5044 7.81543C16.2664 7.98097 16.0491 8.11547 16.0077 8.11547C15.9767 8.11547 15.4491 8.52931 14.8387 9.04661C13.3178 10.3192 11.8073 12.1608 11.0624 13.6506C10.9486 13.8782 10.8244 14.0851 10.7934 14.1162C10.752 14.1472 10.5657 14.53 10.3692 14.9749L10.0278 15.7819L8.87935 14.6645C8.24824 14.0541 7.71025 13.5368 7.68956 13.5161C7.62748 13.485 8.45516 11.8504 8.90004 11.1055C9.05523 10.8468 9.53115 10.1743 9.97603 9.60529C11.8487 7.17398 14.0213 5.4255 16.8665 4.07018C17.7976 3.61495 18.646 3.25284 18.7391 3.25284C18.8322 3.2425 19.0909 3.17007 19.3185 3.08731C20.0737 2.79762 22.3188 2.33205 23.4051 2.23893C24.0052 2.1872 24.5639 2.13547 24.657 2.12513C24.7398 2.12513 25.4433 2.16651 26.2089 2.22859ZM10.3692 17.789L13.1109 20.5307H9.09661L9.15869 21.9481C9.18973 22.7344 9.29319 23.6966 9.3863 24.1C9.47942 24.4932 9.60357 25.0312 9.6553 25.2898C9.7691 25.8278 10.9382 28.6213 11.2175 29.0351C11.321 29.1799 11.4038 29.3455 11.4038 29.3972C11.4038 29.4386 11.5693 29.6869 11.7659 29.9455C11.9625 30.2042 12.3039 30.6698 12.5315 30.9801C13.0591 31.7354 15.0352 33.6287 15.7388 34.0529C16.0491 34.2391 16.3285 34.4357 16.3595 34.4874C16.4423 34.6116 18.0976 35.4289 19.1633 35.8842C19.6495 36.0807 20.5807 36.4015 21.2325 36.5773C22.3395 36.8877 22.5671 36.9084 24.4915 36.9601C26.0848 36.9912 26.7676 36.9601 27.4401 36.8463C28.485 36.6498 30.1404 36.2049 30.5335 36.0083C30.6784 35.9359 30.937 35.8428 31.1129 35.8014C31.2785 35.76 31.444 35.6876 31.475 35.6565C31.5061 35.6152 31.9406 35.3772 32.4476 35.1185C32.9442 34.8702 33.4822 34.5599 33.627 34.4357C33.7718 34.3116 34.0098 34.146 34.1546 34.0633C34.6202 33.8356 35.6341 32.9459 36.3377 32.1803C38.1482 30.2042 38.6552 29.48 39.3897 27.7832L39.8863 26.6245L40.9313 27.6591C41.5107 28.2385 42.059 28.704 42.1625 28.704C42.2556 28.704 42.3383 28.7247 42.3383 28.7558C42.3383 28.9213 41.0244 31.3423 40.6209 31.9113C40.0001 32.801 38.9759 34.0115 38.2827 34.653C37.3102 35.5634 36.2963 36.4325 35.9755 36.6084C35.81 36.7015 35.4789 36.9188 35.2513 37.0946C34.7651 37.4567 32.4062 38.6672 31.8889 38.8224C31.6923 38.8845 31.2681 39.0293 30.9577 39.1535C27.7919 40.3743 22.0395 40.3743 18.9564 39.1535C18.646 39.0293 18.2528 38.8948 18.077 38.8535C17.7355 38.7603 15.5629 37.6947 15.1387 37.405C14.9938 37.3016 14.6007 37.0429 14.2696 36.8153C13.4523 36.2773 11.9935 35.0358 11.321 34.3116C10.6485 33.5873 9.54149 32.2424 9.54149 32.1596C9.54149 32.1286 9.40699 31.9216 9.24146 31.7147C9.08627 31.5078 8.79658 31.0629 8.61035 30.7215C8.42412 30.3801 8.2172 30.0283 8.14478 29.9455C8.08271 29.8628 7.94821 29.5834 7.84475 29.3248C7.74129 29.0661 7.55506 28.6006 7.42056 28.2902C7.01707 27.3073 6.73773 26.4176 6.48942 25.2381C6.08593 23.3344 6.02385 22.8896 6.02385 21.6894V20.5307H2.04064L4.78233 17.789C6.29285 16.2785 7.54471 15.0473 7.57575 15.0473C7.60679 15.0473 8.85866 16.2785 10.3692 17.789ZM26.9124 16.0612C27.8953 16.413 28.423 16.7544 29.0644 17.4683C30.606 19.1857 30.8853 22.0412 29.7162 23.9862C29.292 24.6898 28.3609 25.5899 27.616 26.0141C26.0537 26.9038 23.6534 26.8314 22.1533 25.8485C20.3634 24.6691 19.5564 23.1999 19.5668 21.1204C19.5771 20.0444 19.753 19.3823 20.2807 18.4097C20.6738 17.6855 20.9118 17.4062 21.5429 16.8992C22.5361 16.1026 23.4776 15.7922 24.9777 15.7819C25.9399 15.7715 26.1882 15.8129 26.9124 16.0612ZM18.8012 22.1033C19.0495 23.7379 19.9082 25.1864 21.1808 26.1382C22.4637 27.1004 23.2603 27.359 24.957 27.359C26.9331 27.359 28.0919 26.9038 29.3644 25.6519C30.4404 24.5863 31.1646 23.1068 31.1646 21.9895V21.6687H34.9409L38.9448 25.6726L38.7379 26.2831C38.1068 28.166 37.0826 29.7386 35.3341 31.4974C33.3373 33.5149 31.6302 34.5081 28.7747 35.3048C27.5022 35.6669 27.078 35.7393 25.8882 35.8014C22.4843 35.9669 19.4012 35.1185 16.6492 33.2666C15.4491 32.4596 13.9489 30.9698 13.0591 29.7076C12.3866 28.7558 11.4865 27.1107 11.3003 26.5003C11.2279 26.2624 11.0934 25.8589 10.9899 25.6002C10.7727 25.0415 10.514 23.7586 10.4209 22.7551C10.3899 22.3516 10.3278 21.9481 10.3071 21.8446C10.2554 21.6791 10.5037 21.6687 14.4869 21.6687H18.7288L18.8012 22.1033Z" fill="white"/>
<path d="M23.7155 17.0441C23.25 17.1993 22.2774 17.7579 21.9877 18.0373C21.6981 18.3063 21.1187 19.2995 20.8911 19.9306C20.6221 20.6238 20.6428 21.7825 20.9221 22.5068C21.398 23.7172 21.8429 24.2656 22.7844 24.8139C23.6017 25.2898 24.1707 25.4243 25.2364 25.3726C26.9228 25.3105 28.1229 24.5139 28.8471 22.993C29.2299 22.186 29.2506 22.0826 29.2506 21.1514C29.2506 20.2306 29.2299 20.1168 28.8782 19.3823C28.3712 18.3166 27.8953 17.82 26.9435 17.3441C26.2089 16.982 26.0951 16.9613 25.1226 16.9406C24.5329 16.9303 23.9224 16.9716 23.7155 17.0441ZM26.6641 18.0683C27.8022 18.6684 28.4747 19.8064 28.4747 21.1514C28.4747 22.5895 27.7815 23.6759 26.4572 24.3173C25.8675 24.607 25.6192 24.6691 25.0709 24.6691C23.6121 24.6691 22.4637 23.9759 21.8843 22.7344C21.0876 21.0273 21.6463 19.0822 23.2086 18.089C23.6845 17.7993 23.9535 17.7476 25.164 17.7786C25.9916 17.7993 26.2296 17.8407 26.6641 18.0683Z" fill="white"/>
</g>
<defs>
<filter id="filter0_d_372_759" x="0" y="0" width="54" height="44.2085" filterUnits="userSpaceOnUse" color-interpolation-filters="sRGB">
<feFlood flood-opacity="0" result="BackgroundImageFix"/>
<feColorMatrix in="SourceAlpha" type="matrix" values="0 0 0 0 0 0 0 0 0 0 0 0 0 0 0 0 0 0 127 0" result="hardAlpha"/>
<feOffset dx="2" dy="1"/>
<feGaussianBlur stdDeviation="1"/>
<feComposite in2="hardAlpha" operator="out"/>
<feColorMatrix type="matrix" values="0 0 0 0 0 0 0 0 0 0 0 0 0 0 0 0 0 0 1 0"/>
<feBlend mode="normal" in2="BackgroundImageFix" result="effect1_dropShadow_372_759"/>
<feBlend mode="normal" in="SourceGraphic" in2="effect1_dropShadow_372_759" result="shape"/>
</filter>
</defs>
</svg>
