<svg width="51" height="25" viewBox="0 0 51 25" fill="none" xmlns="http://www.w3.org/2000/svg">
<path fill-rule="evenodd" clip-rule="evenodd" d="M44.8524 0.61932C44.8266 0.61932 44.778 0.646647 44.7446 0.680101C44.6938 0.730863 44.6568 0.713722 44.5183 0.575185C44.3637 0.420582 44.3471 0.415117 44.2699 0.492377C44.2036 0.558623 44.1705 0.558622 44.1042 0.492376C44.038 0.42613 44.0049 0.42613 43.9386 0.492376C43.8724 0.558623 43.8393 0.558622 43.773 0.492377C43.7068 0.42613 43.6736 0.42613 43.6074 0.492376C43.5411 0.558622 43.508 0.558623 43.4418 0.492376C43.3755 0.42613 43.3424 0.426131 43.2762 0.492377C43.2099 0.558623 43.1768 0.558623 43.1105 0.492376C43.0443 0.426131 43.0112 0.42613 42.9449 0.492376C42.8787 0.558623 42.8456 0.558622 42.7793 0.492377C42.7131 0.42613 42.6799 0.42613 42.6137 0.492376C42.5475 0.558622 42.5143 0.558622 42.4481 0.492377C42.3818 0.42613 42.3487 0.426129 42.2825 0.492376C42.2162 0.558622 42.1831 0.558623 42.1169 0.492376C42.0506 0.42613 42.0175 0.42613 41.9512 0.492377C41.885 0.558623 41.8519 0.558623 41.7856 0.492376C41.7194 0.426131 41.6862 0.42613 41.62 0.492376C41.5538 0.558623 41.5206 0.558622 41.4544 0.492377C41.3881 0.42613 41.355 0.42613 41.2888 0.492376C41.2225 0.558622 41.1894 0.558623 41.1232 0.492376C41.0569 0.42613 41.0238 0.426131 40.9575 0.492377C40.8913 0.558623 40.8582 0.558623 40.7919 0.492376C40.7257 0.426129 40.6926 0.42613 40.6263 0.492377C40.5601 0.558623 40.5269 0.558623 40.4607 0.492376C40.3944 0.42613 40.3613 0.42613 40.2951 0.492376C40.2288 0.558623 40.1957 0.558622 40.1295 0.492377C40.0632 0.42613 40.0301 0.42613 39.9638 0.492376C39.8976 0.558622 39.8645 0.558623 39.7982 0.492376C39.732 0.42613 39.6989 0.426131 39.6326 0.492377C39.5664 0.558623 39.5332 0.558623 39.467 0.492376C39.4008 0.426131 39.3676 0.42613 39.3014 0.492376C39.2351 0.558623 39.202 0.558622 39.1358 0.492377C39.0695 0.42613 39.0364 0.426129 38.9701 0.492376C38.9039 0.558622 38.8708 0.558622 38.8045 0.492376C38.7383 0.426129 38.7052 0.426129 38.6389 0.492375C38.5724 0.55887 38.5396 0.558705 38.4724 0.491465L38.3887 0.407746L37.9259 0.888943C37.4737 1.35896 37.4645 1.37213 37.527 1.45527C37.5733 1.51679 37.5687 1.56259 37.5104 1.62088C37.4466 1.68464 37.4471 1.7186 37.5127 1.78418C37.579 1.85043 37.579 1.88355 37.5127 1.9498C37.4355 2.02706 37.4409 2.04362 37.5955 2.19822C37.6866 2.28931 37.7473 2.37766 37.7304 2.39456C37.6457 2.47927 37.7074 2.64133 37.896 2.82996C38.004 2.93794 38.0786 3.04013 38.0617 3.05702C37.977 3.14173 38.0386 3.30379 38.2273 3.49242C38.3353 3.60041 38.4098 3.70259 38.3929 3.71948C38.3082 3.8042 38.3699 3.96625 38.5585 4.15489C38.6665 4.26287 38.741 4.36505 38.7241 4.38195C38.6416 4.46451 38.7012 4.6288 38.8777 4.80526C39.0317 4.95928 39.0609 5.01568 39.0559 5.14908C39.0509 5.27975 39.0809 5.33971 39.2215 5.48031C39.3621 5.62092 39.3921 5.68087 39.3871 5.81154C39.3821 5.94221 39.4121 6.00217 39.5527 6.14278C39.6933 6.28338 39.7233 6.34334 39.7183 6.47401C39.7134 6.60468 39.7433 6.66463 39.8839 6.80524C40.0245 6.94585 40.0545 7.0058 40.0496 7.13647C40.0446 7.26714 40.0746 7.32709 40.2152 7.4677C40.3558 7.60831 40.3858 7.66826 40.3808 7.79894C40.3758 7.92961 40.4058 7.98956 40.5464 8.13017C40.687 8.27077 40.717 8.33073 40.712 8.4614C40.707 8.59207 40.737 8.65202 40.8776 8.79263C41.0182 8.93324 41.0482 8.99319 41.0432 9.12386C41.0383 9.25453 41.0683 9.31448 41.2089 9.45509C41.3495 9.5957 41.3794 9.65565 41.3745 9.78632C41.3695 9.91699 41.3995 9.97695 41.5401 10.1176C41.6807 10.2582 41.7107 10.3181 41.7057 10.4488C41.7007 10.5795 41.7307 10.6394 41.8713 10.78C42.0119 10.9206 42.0419 10.9806 42.0369 11.1113C42.032 11.2419 42.0619 11.3019 42.2026 11.4425C42.3432 11.5831 42.3731 11.643 42.3682 11.7737C42.3631 11.9066 42.3925 11.9637 42.5444 12.1155L42.7266 12.2977L42.5128 12.5312C42.3273 12.7335 42.3045 12.7784 42.3401 12.8698C42.3755 12.9606 42.3526 13.0062 42.1745 13.2011C41.9963 13.3958 41.9734 13.4415 42.0089 13.5323C42.0443 13.6231 42.0214 13.6687 41.8433 13.8635C41.665 14.0583 41.6422 14.104 41.6776 14.1948C41.7131 14.2855 41.6901 14.3312 41.512 14.526C41.3338 14.7208 41.311 14.7665 41.3464 14.8572C41.3818 14.948 41.3589 14.9936 41.1808 15.1885C41.0026 15.3832 40.9797 15.4289 41.0152 15.5197C41.0506 15.6105 41.0277 15.6561 40.8496 15.8509C40.6714 16.0457 40.6485 16.0914 40.6839 16.1822C40.7194 16.2729 40.6964 16.3185 40.5183 16.5134C40.3401 16.7082 40.3173 16.7539 40.3527 16.8446C40.3882 16.9354 40.3652 16.981 40.1871 17.1759C40.0089 17.3706 39.986 17.4163 40.0215 17.5071C40.0569 17.5978 40.034 17.6435 39.8559 17.8383C39.6777 18.0331 39.6548 18.0788 39.6902 18.1695C39.7257 18.2603 39.7028 18.3059 39.5246 18.5008C39.3464 18.6955 39.3236 18.7413 39.359 18.832C39.3945 18.9228 39.3715 18.9684 39.1934 19.1632C39.0152 19.358 38.9923 19.4037 39.0278 19.4945C39.0632 19.5852 39.0403 19.6309 38.8622 19.8257C38.684 20.0205 38.6611 20.0662 38.6966 20.1569C38.732 20.2477 38.7091 20.2933 38.5309 20.4882C38.3527 20.6829 38.3299 20.7286 38.3653 20.8194C38.4008 20.9102 38.3778 20.9558 38.1997 21.1506C38.0215 21.3454 37.9986 21.3911 38.0341 21.4819C38.0695 21.5726 38.0466 21.6183 37.8685 21.8131C37.6891 22.0092 37.6673 22.0532 37.7036 22.1462C37.7385 22.2358 37.7195 22.2794 37.5877 22.4112C37.4415 22.5574 37.436 22.575 37.5127 22.6518C37.579 22.718 37.579 22.7511 37.5127 22.8174C37.4471 22.883 37.4466 22.9169 37.5104 22.9807C37.5687 23.039 37.5733 23.0848 37.527 23.1463C37.4645 23.2294 37.4737 23.2426 37.9259 23.7126L38.3887 24.1938L38.4724 24.1101C38.5396 24.0429 38.5724 24.0427 38.6389 24.1092C38.7052 24.1754 38.7383 24.1754 38.8045 24.1092C38.8708 24.0429 38.9039 24.0429 38.9701 24.1092C39.0364 24.1754 39.0695 24.1754 39.1358 24.1092C39.202 24.0429 39.2351 24.0429 39.3014 24.1092C39.3676 24.1754 39.4007 24.1754 39.467 24.1092C39.5332 24.0429 39.5664 24.0429 39.6326 24.1092C39.6989 24.1754 39.732 24.1754 39.7982 24.1092C39.8645 24.0429 39.8976 24.0429 39.9638 24.1092C40.0301 24.1754 40.0632 24.1754 40.1295 24.1092C40.1957 24.0429 40.2288 24.0429 40.2951 24.1092C40.3613 24.1754 40.3944 24.1754 40.4607 24.1092C40.5269 24.0429 40.5601 24.0429 40.6263 24.1092C40.6926 24.1754 40.7257 24.1754 40.7919 24.1092C40.8582 24.0429 40.8913 24.0429 40.9575 24.1092C41.0238 24.1754 41.0569 24.1754 41.1232 24.1092C41.1894 24.0429 41.2225 24.0429 41.2888 24.1092C41.355 24.1754 41.3881 24.1754 41.4544 24.1092C41.5206 24.0429 41.5538 24.0429 41.62 24.1092C41.6862 24.1754 41.7194 24.1754 41.7856 24.1092C41.8519 24.0429 41.885 24.0429 41.9512 24.1092C42.0175 24.1754 42.0506 24.1754 42.1168 24.1092C42.1831 24.0429 42.2162 24.0429 42.2825 24.1092C42.3487 24.1754 42.3818 24.1754 42.4481 24.1092C42.5143 24.0429 42.5474 24.0429 42.6137 24.1092C42.6799 24.1754 42.7131 24.1754 42.7793 24.1092C42.8456 24.0429 42.8787 24.0429 42.9449 24.1092C43.0112 24.1754 43.0443 24.1754 43.1105 24.1092C43.1768 24.0429 43.2099 24.0429 43.2762 24.1092C43.3424 24.1754 43.3755 24.1754 43.4418 24.1092C43.508 24.0429 43.5411 24.0429 43.6074 24.1092C43.6736 24.1754 43.7068 24.1754 43.773 24.1092C43.8393 24.0429 43.8724 24.0429 43.9386 24.1092C44.0049 24.1754 44.038 24.1754 44.1042 24.1092C44.1705 24.0429 44.2036 24.0429 44.2699 24.1092C44.3463 24.1856 44.3645 24.1802 44.5062 24.0385C44.6286 23.9161 44.6931 23.8862 44.8241 23.8912C45.015 23.8984 45.1653 23.7282 45.1503 23.5216C45.1431 23.424 45.1864 23.3583 45.3931 23.1516C45.6392 22.9055 45.6427 22.8985 45.5617 22.8174C45.4807 22.7364 45.4844 22.729 45.7273 22.4862C45.9701 22.2433 45.9739 22.2359 45.8929 22.1549C45.8119 22.0739 45.8156 22.0666 46.0585 21.8237C46.3014 21.5808 46.3051 21.5734 46.2241 21.4925C46.1431 21.4115 46.1469 21.4041 46.3897 21.1612C46.6326 20.9184 46.6363 20.911 46.5554 20.83C46.4744 20.749 46.4781 20.7416 46.721 20.4988C46.9638 20.2559 46.9676 20.2485 46.8866 20.1675C46.8056 20.0866 46.8093 20.0792 47.0522 19.8363C47.2951 19.5934 47.2988 19.5861 47.2178 19.5051C47.1368 19.4241 47.1406 19.4167 47.3834 19.1738C47.6263 18.931 47.63 18.9236 47.549 18.8426C47.4681 18.7616 47.4718 18.7543 47.7147 18.5114C47.9575 18.2685 47.9613 18.2611 47.8803 18.1801C47.7993 18.0992 47.803 18.0918 48.0459 17.8489C48.2888 17.606 48.2925 17.5987 48.2115 17.5177C48.1305 17.4367 48.1343 17.4293 48.3771 17.1865C48.62 16.9436 48.6237 16.9362 48.5427 16.8552C48.4618 16.7742 48.4655 16.7669 48.7084 16.524C48.9512 16.2811 48.955 16.2737 48.874 16.1928C48.793 16.1118 48.7967 16.1044 49.0396 15.8615C49.2825 15.6187 49.2862 15.6113 49.2052 15.5303C49.1242 15.4493 49.1279 15.4419 49.3708 15.1991C49.6137 14.9562 49.6174 14.9488 49.5364 14.8678C49.4555 14.7868 49.4592 14.7795 49.7021 14.5366C49.9449 14.2937 49.9487 14.2864 49.8677 14.2054C49.7867 14.1244 49.7904 14.117 50.0333 13.8741C50.2762 13.6313 50.2799 13.6239 50.1989 13.5429C50.1179 13.4619 50.1216 13.4545 50.3645 13.2117C50.6074 12.9688 50.6111 12.9614 50.5301 12.8804C50.4529 12.8032 50.4583 12.7866 50.6129 12.632C50.7675 12.4774 50.773 12.4609 50.6958 12.3836C50.6295 12.3173 50.6295 12.2842 50.6957 12.218C50.773 12.1407 50.7675 12.1242 50.6129 11.9696C50.4583 11.815 50.4529 11.7984 50.5301 11.7211C50.6111 11.6401 50.6074 11.6328 50.3645 11.3899C50.1216 11.147 50.1179 11.1397 50.1989 11.0587C50.2799 10.9777 50.2762 10.9703 50.0333 10.7274C49.7904 10.4846 49.7867 10.4772 49.8677 10.3962C49.9487 10.3152 49.9449 10.3078 49.7021 10.065C49.4592 9.82209 49.4555 9.81472 49.5364 9.73374C49.6174 9.65275 49.6137 9.64538 49.3708 9.40251C49.1279 9.15963 49.1242 9.15226 49.2052 9.07128C49.2862 8.99029 49.2825 8.98292 49.0396 8.74004C48.7967 8.49717 48.793 8.4898 48.874 8.40881C48.955 8.32783 48.9512 8.32046 48.7084 8.07758C48.4655 7.83471 48.4618 7.82734 48.5427 7.74635C48.6237 7.66536 48.62 7.65799 48.3771 7.41512C48.1343 7.17224 48.1305 7.16487 48.2115 7.08389C48.2925 7.0029 48.2888 6.99553 48.0459 6.75265C47.803 6.50978 47.7993 6.50241 47.8803 6.42142C47.9613 6.34044 47.9575 6.33307 47.7147 6.09019C47.4718 5.84731 47.4681 5.83995 47.549 5.75896C47.63 5.67797 47.6263 5.6706 47.3834 5.42773C47.1406 5.18485 47.1368 5.17748 47.2178 5.0965C47.2988 5.01551 47.2951 5.00814 47.0522 4.76526C46.8093 4.52239 46.8056 4.51502 46.8866 4.43403C46.9676 4.35305 46.9638 4.34568 46.721 4.1028C46.4781 3.85993 46.4744 3.85255 46.5554 3.77157C46.6363 3.69058 46.6326 3.68321 46.3897 3.44034C46.1469 3.19746 46.1431 3.19009 46.2241 3.10911C46.3051 3.02812 46.3014 3.02075 46.0585 2.77788C45.8156 2.535 45.8119 2.52763 45.8929 2.44664C45.9739 2.36566 45.9702 2.35829 45.7273 2.11541C45.4844 1.87254 45.4807 1.86517 45.5617 1.78418C45.6424 1.70344 45.6384 1.69533 45.4039 1.46081C45.1862 1.24311 45.1673 1.20999 45.2052 1.11302C45.2476 1.00421 44.9725 0.61932 44.8524 0.61932ZM43.4771 3.44258C43.7177 3.68313 43.7214 3.69067 43.6405 3.77157C43.5595 3.85256 43.5633 3.85993 43.8061 4.1028C44.049 4.34568 44.0527 4.35305 43.9717 4.43403C43.8908 4.51502 43.8945 4.52239 44.1374 4.76527C44.3802 5.00814 44.384 5.01551 44.303 5.0965C44.222 5.17748 44.2257 5.18485 44.4686 5.42773C44.7115 5.6706 44.7152 5.67797 44.6342 5.75896C44.5532 5.83995 44.557 5.84732 44.7998 6.09019C45.0427 6.33307 45.0464 6.34044 44.9654 6.42142C44.8845 6.50241 44.8882 6.50978 45.1311 6.75266C45.3739 6.99553 45.3777 7.0029 45.2967 7.08389C45.2157 7.16487 45.2194 7.17224 45.4623 7.41512C45.7052 7.658 45.7089 7.66537 45.6279 7.74635C45.5469 7.82734 45.5506 7.83471 45.7935 8.07758C46.0364 8.32046 46.0401 8.32783 45.9591 8.40882C45.8782 8.4898 45.8819 8.49717 46.1248 8.74005C46.3676 8.98292 46.3714 8.99029 46.2904 9.07128C46.2094 9.15226 46.2131 9.15963 46.456 9.40251C46.6989 9.64538 46.7026 9.65276 46.6216 9.73374C46.5406 9.81473 46.5443 9.8221 46.7872 10.065C47.0301 10.3078 47.0338 10.3152 46.9528 10.3962C46.8718 10.4772 46.8756 10.4846 47.1184 10.7274C47.3613 10.9703 47.3651 10.9777 47.2841 11.0587C47.2031 11.1397 47.2068 11.147 47.4497 11.3899C47.6926 11.6328 47.6963 11.6401 47.6153 11.7211C47.5343 11.8021 47.538 11.8095 47.7809 12.0524L48.0293 12.3008L47.7809 12.5492C47.538 12.7921 47.5343 12.7995 47.6153 12.8804C47.6963 12.9614 47.6926 12.9688 47.4497 13.2117C47.2068 13.4545 47.2031 13.4619 47.2841 13.5429C47.3651 13.6239 47.3613 13.6313 47.1185 13.8741C46.8756 14.117 46.8718 14.1244 46.9528 14.2054C47.0338 14.2864 47.0301 14.2937 46.7872 14.5366C46.5443 14.7795 46.5406 14.7868 46.6216 14.8678C46.7026 14.9488 46.6989 14.9562 46.456 15.1991C46.2131 15.4419 46.2094 15.4493 46.2904 15.5303C46.3714 15.6113 46.3676 15.6187 46.1248 15.8615C45.8819 16.1044 45.8782 16.1118 45.9591 16.1928C46.0401 16.2737 46.0364 16.2811 45.7935 16.524C45.5506 16.7669 45.5469 16.7742 45.6279 16.8552C45.7089 16.9362 45.7052 16.9436 45.4623 17.1865C45.2194 17.4293 45.2157 17.4367 45.2967 17.5177C45.3777 17.5987 45.3739 17.606 45.1311 17.8489C44.8882 18.0918 44.8845 18.0992 44.9654 18.1802C45.0464 18.2611 45.0427 18.2685 44.7998 18.5114C44.557 18.7543 44.5532 18.7616 44.6342 18.8426C44.7152 18.9236 44.7115 18.931 44.4686 19.1738C44.2257 19.4167 44.222 19.4241 44.303 19.5051C44.384 19.5861 44.3802 19.5934 44.1374 19.8363C43.8945 20.0792 43.8908 20.0866 43.9717 20.1675C44.0527 20.2485 44.049 20.2559 43.8061 20.4988C43.5633 20.7416 43.5595 20.749 43.6405 20.83C43.7215 20.911 43.7178 20.9184 43.4749 21.1612C43.2271 21.409 43.2267 21.4099 43.3126 21.5057L43.3987 21.6018L43.2938 21.5245C43.2125 21.4646 43.1708 21.4653 43.1083 21.5278C43.0445 21.5917 43.0106 21.5913 42.9449 21.5256C42.8787 21.4593 42.8456 21.4593 42.7793 21.5256C42.7131 21.5918 42.6799 21.5918 42.6137 21.5256C42.5475 21.4593 42.5143 21.4593 42.4481 21.5256C42.3818 21.5918 42.3487 21.5918 42.2825 21.5256C42.2162 21.4593 42.1831 21.4593 42.1169 21.5256C42.0506 21.5918 42.0175 21.5918 41.9512 21.5256C41.885 21.4593 41.8519 21.4593 41.7856 21.5256C41.7194 21.5918 41.6862 21.5918 41.62 21.5256C41.5538 21.4593 41.5206 21.4593 41.4544 21.5256C41.3881 21.5918 41.355 21.5918 41.2888 21.5256C41.2225 21.4593 41.1894 21.4593 41.1232 21.5256C41.0533 21.5955 41.0249 21.5929 40.941 21.509L40.8416 21.4097L41.09 21.1612C41.3329 20.9184 41.3366 20.911 41.2556 20.83C41.1747 20.749 41.1784 20.7416 41.4213 20.4988C41.6641 20.2559 41.6679 20.2485 41.5869 20.1675C41.5059 20.0866 41.5096 20.0792 41.7525 19.8363C41.9954 19.5934 41.9991 19.5861 41.9181 19.5051C41.8371 19.4241 41.8409 19.4167 42.0837 19.1738C42.3266 18.931 42.3303 18.9236 42.2493 18.8426C42.1684 18.7616 42.1721 18.7543 42.415 18.5114C42.6578 18.2685 42.6616 18.2611 42.5806 18.1801C42.4996 18.0992 42.5033 18.0918 42.7462 17.8489C42.9891 17.606 42.9928 17.5987 42.9118 17.5177C42.8308 17.4367 42.8345 17.4293 43.0774 17.1865C43.3203 16.9436 43.324 16.9362 43.243 16.8552C43.1621 16.7742 43.1658 16.7669 43.4087 16.524C43.6515 16.2811 43.6553 16.2737 43.5743 16.1928C43.4933 16.1118 43.497 16.1044 43.7399 15.8615C43.9828 15.6187 43.9865 15.6113 43.9055 15.5303C43.8245 15.4493 43.8282 15.4419 44.0711 15.1991C44.314 14.9562 44.3177 14.9488 44.2367 14.8678C44.1557 14.7868 44.1595 14.7795 44.4023 14.5366C44.6452 14.2937 44.649 14.2864 44.568 14.2054C44.487 14.1244 44.4907 14.117 44.7336 13.8741C44.9765 13.6313 44.9802 13.6239 44.8992 13.5429C44.8182 13.4619 44.8219 13.4545 45.0648 13.2117C45.3077 12.9688 45.3114 12.9614 45.2304 12.8804C45.1532 12.8032 45.1586 12.7866 45.3132 12.632C45.4678 12.4774 45.4733 12.4609 45.396 12.3836C45.3298 12.3173 45.3298 12.2842 45.396 12.218C45.4683 12.1458 45.4644 12.1207 45.3653 12.0216C45.2837 11.94 45.2568 11.8665 45.2694 11.7601C45.2845 11.6343 45.2599 11.585 45.1038 11.4289C44.9478 11.2729 44.9232 11.2236 44.9382 11.0977C44.9533 10.9718 44.9287 10.9225 44.7726 10.7664C44.6166 10.6104 44.592 10.5612 44.607 10.4352C44.622 10.3093 44.5974 10.2601 44.4414 10.104C44.2853 9.94796 44.2607 9.89869 44.2757 9.77274C44.2908 9.64687 44.2662 9.5976 44.1101 9.44151C43.9541 9.2855 43.9295 9.23623 43.9445 9.11028C43.9596 8.98441 43.935 8.93514 43.7789 8.77905C43.6229 8.62304 43.5983 8.57377 43.6133 8.44782C43.6283 8.32195 43.6037 8.27268 43.4477 8.11658C43.2916 7.96057 43.2671 7.9113 43.282 7.78535C43.2971 7.65948 43.2725 7.61021 43.1164 7.45412C42.9604 7.29811 42.9358 7.24884 42.9508 7.12289C42.9659 6.99702 42.9413 6.94775 42.7852 6.79166C42.6292 6.63565 42.6046 6.58638 42.6196 6.46043C42.6346 6.33456 42.6101 6.28529 42.454 6.12919C42.298 5.97318 42.2734 5.92391 42.2883 5.79796C42.3034 5.67209 42.2788 5.62282 42.1227 5.46673C41.9667 5.31072 41.9421 5.26145 41.9571 5.1355C41.9722 5.00963 41.9476 4.96036 41.7915 4.80427C41.6355 4.64826 41.6109 4.59899 41.6259 4.47304C41.641 4.34717 41.6164 4.2979 41.4603 4.1418C41.3043 3.98579 41.2797 3.93652 41.2947 3.81057C41.3096 3.68619 41.2845 3.63485 41.1376 3.48787C41.0214 3.37169 40.9609 3.27439 40.957 3.19763C40.9488 3.034 41.0252 2.97802 41.1232 3.07598C41.1894 3.14223 41.2225 3.14223 41.2888 3.07598C41.355 3.00974 41.3881 3.00974 41.4544 3.07598C41.5206 3.14223 41.5538 3.14223 41.62 3.07598C41.6862 3.00974 41.7194 3.00974 41.7856 3.07598C41.8519 3.14223 41.885 3.14223 41.9512 3.07598C42.0175 3.00974 42.0506 3.00974 42.1169 3.07598C42.1831 3.14223 42.2162 3.14223 42.2825 3.07598C42.3487 3.00974 42.3818 3.00974 42.4481 3.07598C42.5143 3.14223 42.5475 3.14223 42.6137 3.07598C42.6799 3.00974 42.7131 3.00974 42.7793 3.07598C42.8456 3.14223 42.8787 3.14223 42.9449 3.07598C43.0112 3.00974 43.0443 3.00974 43.1105 3.07598C43.1776 3.14306 43.2116 3.1424 43.2894 3.07267L43.3855 2.98655L43.3082 3.09147C43.2319 3.19498 43.2339 3.19937 43.4771 3.44258ZM34.0867 0.513659C34.0283 0.513659 33.9666 0.527488 33.9496 0.544464C33.9327 0.561356 33.8816 0.537921 33.8361 0.492376C33.7698 0.42613 33.7367 0.42613 33.6704 0.492376C33.6042 0.558623 33.5711 0.558623 33.5048 0.492376C33.4386 0.42613 33.4055 0.42613 33.3392 0.492376C33.273 0.558623 33.2398 0.558623 33.1736 0.492376C33.1073 0.42613 33.0742 0.42613 33.008 0.492376C32.9417 0.558623 32.9086 0.558623 32.8424 0.492376C32.7761 0.42613 32.743 0.42613 32.6767 0.492376C32.6105 0.558623 32.5774 0.558622 32.5111 0.492376C32.4449 0.42613 32.4118 0.426129 32.3455 0.492376C32.2793 0.558622 32.2461 0.558623 32.1799 0.492376C32.1137 0.42613 32.0805 0.42613 32.0143 0.492376C31.948 0.558623 31.9149 0.558623 31.8487 0.492376C31.7824 0.42613 31.7493 0.426129 31.6831 0.492376C31.6168 0.558622 31.5837 0.558622 31.5174 0.492376C31.4512 0.426129 31.4181 0.42613 31.3518 0.492376C31.2856 0.558623 31.2525 0.558623 31.1862 0.492376C31.12 0.42613 31.0868 0.426129 31.0206 0.492376C30.9543 0.558622 30.9212 0.558622 30.855 0.492376C30.7887 0.426129 30.7556 0.42613 30.6894 0.492376C30.6231 0.558623 30.59 0.558623 30.5237 0.492376C30.4575 0.42613 30.4244 0.42613 30.3581 0.492376C30.2919 0.558623 30.2588 0.558622 30.1925 0.492376C30.1263 0.426129 30.0931 0.42613 30.0269 0.492376C29.9606 0.558622 29.9275 0.558623 29.8613 0.492376C29.795 0.42613 29.7619 0.42613 29.6957 0.492376C29.6294 0.558623 29.5963 0.558622 29.53 0.492376C29.4638 0.42613 29.4307 0.42613 29.3644 0.492376C29.2982 0.558622 29.2651 0.558623 29.1988 0.492376C29.1326 0.42613 29.0994 0.42613 29.0332 0.492376C28.967 0.558623 28.9338 0.558622 28.8676 0.492376C28.8013 0.42613 28.7682 0.42613 28.702 0.492376C28.6357 0.558622 28.6026 0.558623 28.5364 0.492376C28.4701 0.42613 28.437 0.42613 28.3707 0.492376C28.3045 0.558623 28.2714 0.558623 28.2051 0.492376C28.1389 0.42613 28.1057 0.42613 28.0395 0.492376C27.9733 0.558622 27.9401 0.558623 27.8739 0.492376L27.7911 0.409568L27.3936 0.807046L26.9961 1.20452L27.0789 1.28733C27.1562 1.36459 27.1507 1.38115 26.9961 1.53576C26.8423 1.68953 26.8363 1.70717 26.9118 1.78269C26.9565 1.82741 26.9931 1.93853 26.9931 2.02962C26.9931 2.16245 27.0261 2.2282 27.1602 2.36235C27.3164 2.51852 27.322 2.53483 27.2445 2.61226C27.1636 2.69325 27.1673 2.70062 27.4102 2.94349C27.653 3.18637 27.6568 3.19374 27.5758 3.27472C27.4948 3.35571 27.4985 3.36308 27.7414 3.60595C27.9843 3.84883 27.988 3.8562 27.907 3.93719C27.826 4.01817 27.8297 4.02554 28.0726 4.26842C28.3155 4.51129 28.3192 4.51866 28.2382 4.59965C28.1573 4.68064 28.161 4.68801 28.4039 4.93088C28.6467 5.17376 28.6505 5.18113 28.5695 5.26211C28.4885 5.3431 28.4922 5.35047 28.7351 5.59335C28.978 5.83622 28.9817 5.84359 28.9007 5.92458C28.8197 6.00556 28.8234 6.01293 29.0663 6.25581C29.3092 6.49868 29.3129 6.50605 29.2319 6.58704C29.151 6.66803 29.1547 6.6754 29.3976 6.91827C29.6404 7.16115 29.6442 7.16852 29.5632 7.2495C29.4822 7.33049 29.4859 7.33786 29.7288 7.58073C29.9717 7.82361 29.9754 7.83098 29.8944 7.91197C29.8134 7.99295 29.8171 8.00032 30.06 8.2432C30.3029 8.48607 30.3066 8.49344 30.2256 8.57443C30.1446 8.65542 30.1484 8.66279 30.3912 8.90566C30.6341 9.14854 30.6379 9.15591 30.5569 9.23689C30.4759 9.31788 30.4796 9.32525 30.7225 9.56812C30.9654 9.811 30.9691 9.81837 30.8881 9.89936C30.8071 9.98034 30.8108 9.98771 31.0537 10.2306C31.2966 10.4735 31.3003 10.4808 31.2193 10.5618C31.1383 10.6428 31.1421 10.6502 31.3849 10.8931C31.6278 11.1359 31.6315 11.1433 31.5506 11.2243C31.4696 11.3053 31.4733 11.3126 31.7162 11.5555C31.9591 11.7984 31.9628 11.8058 31.8818 11.8867C31.8045 11.964 31.81 11.9806 31.9646 12.1352L32.1302 12.3008L31.9646 12.4664C31.81 12.621 31.8045 12.6376 31.8818 12.7148C31.9628 12.7958 31.9591 12.8032 31.7162 13.0461C31.4733 13.2889 31.4696 13.2963 31.5506 13.3773C31.6315 13.4583 31.6278 13.4656 31.3849 13.7085C31.1421 13.9514 31.1383 13.9588 31.2193 14.0398C31.3003 14.1207 31.2966 14.1281 31.0537 14.371C30.8108 14.6139 30.8071 14.6212 30.8881 14.7022C30.9691 14.7832 30.9654 14.7906 30.7225 15.0334C30.4796 15.2763 30.4759 15.2837 30.5569 15.3647C30.6378 15.4457 30.6341 15.453 30.3912 15.6959C30.1484 15.9388 30.1446 15.9462 30.2256 16.0271C30.3066 16.1081 30.3029 16.1155 30.06 16.3584C29.8171 16.6012 29.8134 16.6086 29.8944 16.6896C29.9754 16.7706 29.9717 16.778 29.7288 17.0208C29.4859 17.2637 29.4822 17.2711 29.5632 17.3521C29.6442 17.4331 29.6404 17.4404 29.3976 17.6833C29.1547 17.9262 29.151 17.9335 29.2319 18.0145C29.3129 18.0955 29.3092 18.1029 29.0663 18.3458C28.8234 18.5886 28.8197 18.596 28.9007 18.677C28.9817 18.758 28.978 18.7654 28.7351 19.0082C28.4922 19.2511 28.4885 19.2585 28.5695 19.3395C28.6505 19.4204 28.6467 19.4278 28.4039 19.6707C28.161 19.9136 28.1573 19.9209 28.2382 20.0019C28.3192 20.0829 28.3155 20.0903 28.0726 20.3332C27.8298 20.576 27.826 20.5834 27.907 20.6644C27.988 20.7454 27.9843 20.7527 27.7414 20.9956C27.4985 21.2385 27.4948 21.2459 27.5758 21.3268C27.6568 21.4078 27.653 21.4152 27.4102 21.6581C27.1673 21.901 27.1636 21.9083 27.2445 21.9893C27.3229 22.0676 27.3175 22.082 27.1436 22.2559C26.9902 22.4093 26.9608 22.466 26.9659 22.5992C26.9692 22.687 26.9401 22.7906 26.9012 22.8295C26.8385 22.8923 26.8491 22.9187 26.9961 23.0658C27.1512 23.2209 27.1564 23.2367 27.0779 23.3153L26.9941 23.3991L27.3925 23.779C27.7767 24.1451 27.7942 24.1566 27.8762 24.095C27.9377 24.0487 27.9835 24.0532 28.0418 24.1115C28.1056 24.1753 28.1395 24.1748 28.2051 24.1092C28.2714 24.0429 28.3045 24.0429 28.3707 24.1092C28.437 24.1754 28.4701 24.1754 28.5364 24.1092C28.6026 24.0429 28.6357 24.0429 28.702 24.1092C28.7682 24.1754 28.8013 24.1754 28.8676 24.1092C28.9338 24.0429 28.967 24.0429 29.0332 24.1092C29.0994 24.1754 29.1326 24.1754 29.1988 24.1092C29.2651 24.0429 29.2982 24.0429 29.3644 24.1092C29.4307 24.1754 29.4638 24.1754 29.53 24.1092C29.5963 24.0429 29.6294 24.0429 29.6957 24.1092C29.7619 24.1754 29.795 24.1754 29.8613 24.1092C29.9275 24.0429 29.9606 24.0429 30.0269 24.1092C30.0931 24.1754 30.1263 24.1754 30.1925 24.1092C30.2588 24.0429 30.2919 24.0429 30.3581 24.1092C30.4244 24.1754 30.4575 24.1754 30.5237 24.1092C30.59 24.0429 30.6231 24.0429 30.6894 24.1092C30.7556 24.1754 30.7887 24.1754 30.855 24.1092C30.9212 24.0429 30.9543 24.0429 31.0206 24.1092C31.0868 24.1754 31.12 24.1754 31.1862 24.1092C31.2524 24.0429 31.2856 24.0429 31.3518 24.1092C31.4181 24.1754 31.4512 24.1754 31.5174 24.1092C31.5837 24.0429 31.6168 24.0429 31.6831 24.1092C31.7493 24.1754 31.7824 24.1754 31.8487 24.1092C31.9149 24.0429 31.948 24.0429 32.0143 24.1092C32.0805 24.1754 32.1137 24.1754 32.1799 24.1092C32.2461 24.0429 32.2793 24.0429 32.3455 24.1092C32.4118 24.1754 32.4449 24.1754 32.5111 24.1092C32.5774 24.0429 32.6105 24.0429 32.6767 24.1092C32.743 24.1754 32.7761 24.1754 32.8424 24.1092C32.9086 24.0429 32.9417 24.0429 33.008 24.1092C33.0742 24.1754 33.1073 24.1754 33.1736 24.1092C33.2398 24.0429 33.273 24.0429 33.3392 24.1092C33.4055 24.1754 33.4386 24.1754 33.5048 24.1092C33.5711 24.0429 33.6042 24.0429 33.6704 24.1092C33.7329 24.1716 33.7706 24.1746 33.824 24.1213C33.8629 24.0824 33.9676 24.0534 34.0567 24.0567C34.289 24.0655 34.8883 23.4529 34.7836 23.3135C34.7265 23.2375 34.7413 23.2079 34.9492 22.9823C35.1571 22.7567 35.1719 22.7271 35.1149 22.651C35.0577 22.575 35.0725 22.5455 35.2805 22.3198C35.4883 22.0942 35.5031 22.0647 35.4461 21.9886C35.389 21.9126 35.4038 21.883 35.6117 21.6573C35.8196 21.4318 35.8344 21.4022 35.7773 21.3261C35.7202 21.2501 35.735 21.2205 35.9429 20.9949C36.1508 20.7693 36.1656 20.7397 36.1086 20.6636C36.0514 20.5876 36.0662 20.5581 36.2742 20.3324C36.482 20.1068 36.4968 20.0773 36.4398 20.0012C36.3827 19.9252 36.3975 19.8956 36.6054 19.6699C36.8133 19.4444 36.8281 19.4148 36.771 19.3387C36.7139 19.2627 36.7287 19.2331 36.9366 19.0075C37.1445 18.7819 37.1593 18.7524 37.1023 18.6763C37.0451 18.6002 37.0599 18.5707 37.2679 18.345C37.4757 18.1195 37.4905 18.0899 37.4335 18.0138C37.3763 17.9378 37.3912 17.9082 37.5991 17.6826C37.8069 17.457 37.8218 17.4274 37.7647 17.3513C37.7076 17.2753 37.7224 17.2457 37.9303 17.0201C38.1382 16.7945 38.153 16.765 38.0959 16.6889C38.0388 16.6128 38.0536 16.5833 38.2616 16.3576C38.4694 16.1321 38.4842 16.1025 38.4272 16.0264C38.37 15.9504 38.3849 15.9208 38.5928 15.6952C38.8006 15.4696 38.8155 15.44 38.7584 15.3639C38.7013 15.2879 38.7161 15.2584 38.924 15.0327C39.1319 14.8071 39.1467 14.7776 39.0896 14.7015C39.0325 14.6255 39.0473 14.5959 39.2553 14.3702C39.4631 14.1447 39.4779 14.1151 39.4209 14.039C39.3637 13.963 39.3786 13.9334 39.5865 13.7078C39.7943 13.4822 39.8092 13.4526 39.7521 13.3765C39.695 13.3005 39.7098 13.271 39.9177 13.0453C40.127 12.8183 40.1407 12.7905 40.0821 12.7125C40.0358 12.651 40.0404 12.6052 40.0987 12.5469C40.1624 12.4831 40.1619 12.4492 40.0963 12.3836C40.0301 12.3173 40.0301 12.2842 40.0963 12.218C40.1626 12.1517 40.1626 12.1186 40.0963 12.0524C40.0301 11.9861 40.0301 11.953 40.0963 11.8867C40.1773 11.8058 40.1736 11.7984 39.9307 11.5555C39.6878 11.3126 39.6841 11.3053 39.7651 11.2243C39.8461 11.1433 39.8424 11.1359 39.5995 10.8931C39.3566 10.6502 39.3529 10.6428 39.4339 10.5618C39.5149 10.4808 39.5111 10.4735 39.2683 10.2306C39.0254 9.98771 39.0217 9.98034 39.1026 9.89936C39.1836 9.81837 39.1799 9.811 38.937 9.56812C38.6942 9.32525 38.6904 9.31788 38.7714 9.23689C38.8524 9.15591 38.8487 9.14854 38.6058 8.90566C38.3629 8.66279 38.3592 8.65542 38.4402 8.57443C38.5212 8.49344 38.5174 8.48607 38.2746 8.2432C38.0317 8.00032 38.028 7.99295 38.1089 7.91197C38.1899 7.83098 38.1862 7.82361 37.9433 7.58074C37.7005 7.33786 37.6967 7.33049 37.7777 7.2495C37.8587 7.16852 37.855 7.16115 37.6121 6.91827C37.3692 6.6754 37.3655 6.66803 37.4465 6.58704C37.5274 6.50614 37.5236 6.49852 37.2832 6.25813C37.0531 6.02809 37.0412 6.00639 37.101 5.92689C37.1596 5.84889 37.1459 5.82107 36.9366 5.59409C36.7287 5.36844 36.7139 5.33888 36.771 5.26286C36.8281 5.18676 36.8133 5.1572 36.6054 4.93163C36.3975 4.70597 36.3826 4.67641 36.4398 4.60039C36.4968 4.52429 36.482 4.49473 36.2742 4.26916C36.0662 4.04351 36.0514 4.01395 36.1086 3.93793C36.1656 3.86183 36.1508 3.83227 35.9429 3.6067C35.735 3.38105 35.7202 3.35149 35.7773 3.27547C35.8344 3.19937 35.8196 3.16981 35.6117 2.94424C35.4038 2.71859 35.389 2.68902 35.4461 2.613C35.5031 2.5369 35.4883 2.50734 35.2805 2.28177C35.0725 2.05612 35.0577 2.02656 35.1149 1.95054C35.1719 1.87444 35.1571 1.84488 34.9492 1.61931C34.7413 1.39366 34.7265 1.3641 34.7836 1.28808C34.8677 1.17604 34.2715 0.513658 34.0867 0.513659ZM32.8755 3.27472C32.7945 3.35571 32.7982 3.36308 33.0411 3.60595C33.284 3.84883 33.2877 3.8562 33.2067 3.93719C33.1257 4.01817 33.1295 4.02554 33.3723 4.26842C33.6152 4.51129 33.6189 4.51866 33.5379 4.59965C33.457 4.68064 33.4607 4.68801 33.7036 4.93088C33.9464 5.17376 33.9502 5.18113 33.8692 5.26211C33.7882 5.3431 33.7919 5.35047 34.0348 5.59335C34.2777 5.83622 34.2814 5.84359 34.2004 5.92458C34.1194 6.00556 34.1232 6.01293 34.366 6.25581C34.6089 6.49868 34.6126 6.50605 34.5316 6.58704C34.4507 6.66803 34.4544 6.6754 34.6973 6.91827C34.9401 7.16115 34.9439 7.16852 34.8629 7.2495C34.7819 7.33049 34.7856 7.33786 35.0285 7.58074C35.2714 7.82361 35.2751 7.83098 35.1941 7.91197C35.1131 7.99295 35.1168 8.00032 35.3597 8.2432C35.6026 8.48607 35.6063 8.49344 35.5253 8.57443C35.4444 8.65542 35.4481 8.66279 35.691 8.90566C35.9338 9.14854 35.9376 9.15591 35.8566 9.23689C35.7756 9.31788 35.7793 9.32525 36.0222 9.56813C36.2651 9.811 36.2688 9.81837 36.1878 9.89936C36.1068 9.98034 36.1105 9.98771 36.3534 10.2306C36.5963 10.4735 36.6 10.4808 36.519 10.5618C36.438 10.6428 36.4418 10.6502 36.6846 10.8931C36.9275 11.1359 36.9313 11.1433 36.8503 11.2243C36.7693 11.3053 36.773 11.3126 37.0159 11.5555C37.2588 11.7984 37.2625 11.8058 37.1815 11.8867C37.1042 11.964 37.1097 11.9806 37.2643 12.1352L37.4299 12.3008L37.2643 12.4664C37.1097 12.621 37.1042 12.6376 37.1815 12.7148C37.2625 12.7958 37.2588 12.8032 37.0159 13.0461C36.773 13.2889 36.7693 13.2963 36.8503 13.3773C36.9313 13.4583 36.9275 13.4656 36.6847 13.7085C36.4418 13.9514 36.438 13.9588 36.519 14.0398C36.6 14.1207 36.5963 14.1281 36.3534 14.371C36.1105 14.6139 36.1068 14.6212 36.1878 14.7022C36.2688 14.7832 36.2651 14.7906 36.0222 15.0334C35.7793 15.2763 35.7756 15.2837 35.8566 15.3647C35.9376 15.4457 35.9338 15.453 35.691 15.6959C35.4481 15.9388 35.4444 15.9462 35.5253 16.0271C35.6063 16.1081 35.6026 16.1155 35.3597 16.3584C35.1168 16.6013 35.1131 16.6086 35.1941 16.6896C35.2751 16.7706 35.2714 16.778 35.0285 17.0208C34.7856 17.2637 34.7819 17.2711 34.8629 17.3521C34.9439 17.4331 34.9401 17.4404 34.6973 17.6833C34.4544 17.9262 34.4507 17.9335 34.5316 18.0145C34.6126 18.0955 34.6089 18.1029 34.366 18.3458C34.1232 18.5886 34.1194 18.596 34.2004 18.677C34.2814 18.758 34.2777 18.7654 34.0348 19.0082C33.7919 19.2511 33.7882 19.2585 33.8692 19.3395C33.9502 19.4204 33.9464 19.4278 33.7036 19.6707C33.4607 19.9136 33.457 19.9209 33.538 20.0019C33.6189 20.0829 33.6152 20.0903 33.3723 20.3332C33.1295 20.576 33.1257 20.5834 33.2067 20.6644C33.2877 20.7454 33.284 20.7527 33.0411 20.9956C32.7982 21.2385 32.7945 21.2459 32.8755 21.3269C32.9454 21.3967 32.9428 21.4251 32.8589 21.509C32.775 21.5929 32.7466 21.5955 32.6767 21.5256C32.6105 21.4593 32.5774 21.4593 32.5111 21.5256C32.4449 21.5918 32.4118 21.5918 32.3455 21.5256C32.2793 21.4593 32.2461 21.4593 32.1799 21.5256C32.1137 21.5918 32.0805 21.5918 32.0143 21.5256C31.948 21.4593 31.9149 21.4593 31.8487 21.5256C31.7824 21.5918 31.7493 21.5918 31.6831 21.5256C31.6168 21.4593 31.5837 21.4593 31.5174 21.5256C31.4512 21.5918 31.4181 21.5918 31.3518 21.5256C31.2856 21.4593 31.2525 21.4593 31.1862 21.5256C31.12 21.5918 31.0868 21.5918 31.0206 21.5256C30.9543 21.4593 30.9212 21.4593 30.855 21.5256C30.7887 21.5918 30.7556 21.5918 30.6894 21.5256C30.6223 21.4585 30.5883 21.4592 30.5105 21.5289L30.4144 21.615L30.4917 21.5101C30.5516 21.4288 30.5509 21.3871 30.4884 21.3246C30.4102 21.2464 30.4152 21.2367 30.6562 20.9956C30.8991 20.7527 30.9028 20.7454 30.8218 20.6644C30.7409 20.5834 30.7446 20.576 30.9875 20.3332C31.2303 20.0903 31.2341 20.0829 31.1531 20.0019C31.0721 19.9209 31.0758 19.9136 31.3187 19.6707C31.5616 19.4278 31.5653 19.4204 31.4843 19.3395C31.4033 19.2585 31.4071 19.2511 31.6499 19.0082C31.8928 18.7654 31.8965 18.758 31.8155 18.677C31.7346 18.596 31.7383 18.5886 31.9812 18.3458C32.224 18.1029 32.2278 18.0955 32.1468 18.0145C32.0658 17.9335 32.0695 17.9262 32.3124 17.6833C32.5553 17.4404 32.559 17.4331 32.478 17.3521C32.397 17.2711 32.4007 17.2637 32.6436 17.0208C32.8865 16.778 32.8902 16.7706 32.8092 16.6896C32.7283 16.6086 32.732 16.6013 32.9749 16.3584C33.2177 16.1155 33.2215 16.1081 33.1405 16.0271C33.0595 15.9462 33.0632 15.9388 33.3061 15.6959C33.549 15.453 33.5527 15.4457 33.4717 15.3647C33.3907 15.2837 33.3944 15.2763 33.6373 15.0334C33.8802 14.7906 33.8839 14.7832 33.8029 14.7022C33.7219 14.6212 33.7257 14.6139 33.9686 14.371C34.2114 14.1281 34.2152 14.1207 34.1342 14.0398C34.0532 13.9588 34.0569 13.9514 34.2998 13.7085C34.5427 13.4656 34.5464 13.4583 34.4654 13.3773C34.3844 13.2963 34.3881 13.2889 34.631 13.0461C34.8739 12.8032 34.8776 12.7958 34.7966 12.7148C34.7244 12.6426 34.7283 12.6175 34.8274 12.5185C34.9717 12.3742 34.9717 12.2274 34.8274 12.0831C34.7283 11.984 34.7244 11.959 34.7966 11.8867C34.8776 11.8058 34.8739 11.7984 34.631 11.5555C34.3881 11.3126 34.3844 11.3053 34.4654 11.2243C34.5464 11.1433 34.5427 11.1359 34.2998 10.8931C34.0569 10.6502 34.0532 10.6428 34.1342 10.5618C34.2152 10.4808 34.2114 10.4735 33.9686 10.2306C33.7257 9.98771 33.7219 9.98034 33.8029 9.89936C33.8839 9.81837 33.8802 9.811 33.6373 9.56813C33.3944 9.32525 33.3907 9.31788 33.4717 9.23689C33.5527 9.15591 33.549 9.14854 33.3061 8.90566C33.0632 8.66279 33.0595 8.65542 33.1405 8.57443C33.2215 8.49344 33.2177 8.48607 32.9749 8.2432C32.732 8.00032 32.7283 7.99295 32.8092 7.91197C32.8902 7.83098 32.8865 7.82361 32.6436 7.58074C32.4007 7.33786 32.397 7.33049 32.478 7.2495C32.559 7.16852 32.5553 7.16115 32.3124 6.91827C32.0695 6.6754 32.0658 6.66803 32.1468 6.58704C32.2278 6.50605 32.224 6.49868 31.9812 6.25581C31.7383 6.01293 31.7346 6.00556 31.8155 5.92458C31.8965 5.84359 31.8928 5.83622 31.6499 5.59334C31.4071 5.35047 31.4033 5.3431 31.4843 5.26211C31.5653 5.18113 31.5616 5.17376 31.3187 4.93088C31.0758 4.68801 31.0721 4.68064 31.1531 4.59965C31.2341 4.51866 31.2303 4.51129 30.9875 4.26842C30.7446 4.02554 30.7409 4.01817 30.8219 3.93719C30.9028 3.8562 30.8991 3.84883 30.6562 3.60595C30.4134 3.36308 30.4096 3.35571 30.4906 3.27472C30.5577 3.20765 30.557 3.1737 30.4873 3.09586L30.4012 2.9998L30.5061 3.07706C30.5874 3.13701 30.6291 3.13627 30.6916 3.07375C30.7554 3.0099 30.7893 3.01032 30.855 3.07598C30.9212 3.14223 30.9543 3.14223 31.0206 3.07598C31.0868 3.00974 31.12 3.00974 31.1862 3.07598C31.2525 3.14223 31.2856 3.14223 31.3518 3.07598C31.4181 3.00974 31.4512 3.00974 31.5174 3.07598C31.5837 3.14223 31.6168 3.14223 31.6831 3.07598C31.7493 3.00974 31.7824 3.00974 31.8487 3.07598C31.9149 3.14223 31.948 3.14223 32.0143 3.07598C32.0805 3.00974 32.1137 3.00974 32.1799 3.07598C32.2461 3.14223 32.2793 3.14223 32.3455 3.07598C32.4118 3.00974 32.4449 3.00974 32.5111 3.07598C32.5774 3.14223 32.6105 3.14223 32.6767 3.07598C32.7466 3.00609 32.775 3.00866 32.8589 3.09255C32.9428 3.17643 32.9454 3.20483 32.8755 3.27472ZM23.4023 0.492376C23.336 0.558622 23.3029 0.558622 23.2366 0.492375C23.1704 0.426129 23.1373 0.426129 23.071 0.492375C23.0048 0.558622 22.9717 0.558622 22.9054 0.492376C22.8392 0.426129 22.806 0.426129 22.7398 0.492375C22.6736 0.558622 22.6404 0.558622 22.5742 0.492375C22.5079 0.426129 22.4748 0.426129 22.4086 0.492375C22.3423 0.558622 22.3092 0.558623 22.2429 0.492376C22.1767 0.42613 22.1436 0.426129 22.0773 0.492375C22.0111 0.558622 21.978 0.558623 21.9117 0.492376C21.8455 0.42613 21.8123 0.426129 21.7461 0.492376C21.6799 0.558623 21.6467 0.558622 21.5805 0.492375C21.5142 0.426129 21.4811 0.42613 21.4149 0.492376C21.3486 0.558622 21.3155 0.558622 21.2493 0.492376C21.183 0.426129 21.1499 0.42613 21.0836 0.492375C21.0174 0.558622 20.9843 0.558623 20.918 0.492376C20.8518 0.42613 20.8187 0.426129 20.7524 0.492376C20.6862 0.558623 20.653 0.558623 20.5868 0.492376C20.5205 0.42613 20.4874 0.426129 20.4212 0.492376C20.3549 0.558623 20.3218 0.558622 20.2556 0.492375C20.1893 0.426129 20.1562 0.42613 20.0899 0.492376C20.0237 0.558622 19.9906 0.558622 19.9243 0.492376C19.8581 0.42613 19.825 0.42613 19.7587 0.492375C19.6925 0.558622 19.6593 0.558623 19.5931 0.492376C19.5268 0.42613 19.4937 0.426129 19.4275 0.492376C19.3612 0.558623 19.3281 0.558622 19.2619 0.492375C19.1956 0.426129 19.1625 0.426129 19.0962 0.492376C19.03 0.558623 18.9969 0.558622 18.9306 0.492376C18.8644 0.426129 18.8313 0.42613 18.765 0.492376C18.6988 0.558622 18.6656 0.558623 18.5994 0.492376C18.5332 0.42613 18.5 0.42613 18.4338 0.492375C18.3675 0.558622 18.3344 0.558623 18.2682 0.492376C18.2019 0.42613 18.1688 0.426129 18.1026 0.492376C18.0363 0.558623 18.0032 0.558622 17.9369 0.492375C17.8707 0.426129 17.8376 0.42613 17.7713 0.492376C17.7051 0.558622 17.672 0.558622 17.6057 0.492376C17.5335 0.420167 17.5084 0.42406 17.4094 0.523098C17.3277 0.604747 17.2543 0.63166 17.1479 0.61899C17.0168 0.60334 16.9751 0.626112 16.7811 0.82013C16.5699 1.03137 16.5651 1.04172 16.6451 1.12172C16.7224 1.19898 16.7169 1.21554 16.5623 1.37014C16.4077 1.52474 16.4023 1.5413 16.4795 1.61856C16.5458 1.68481 16.5458 1.71793 16.4795 1.78418C16.4133 1.85043 16.4133 1.88355 16.4795 1.9498C16.5458 2.01604 16.5458 2.04917 16.4795 2.11541C16.3985 2.1964 16.4023 2.20377 16.6451 2.44664C16.888 2.68952 16.8917 2.69689 16.8107 2.77787C16.7298 2.85886 16.7335 2.86623 16.9764 3.10911C17.2192 3.35198 17.223 3.35935 17.142 3.44034C17.061 3.52132 17.0647 3.52869 17.3076 3.77157C17.5505 4.01445 17.5542 4.02182 17.4732 4.1028C17.3922 4.18379 17.396 4.19116 17.6388 4.43403C17.8817 4.67691 17.8854 4.68428 17.8044 4.76526C17.7235 4.84625 17.7272 4.85362 17.9701 5.0965C18.2129 5.33937 18.2167 5.34674 18.1357 5.42773C18.0547 5.50871 18.0584 5.51608 18.3013 5.75896C18.5442 6.00184 18.5479 6.00921 18.4669 6.09019C18.3859 6.17118 18.3896 6.17855 18.6325 6.42142C18.8754 6.6643 18.8791 6.67167 18.7981 6.75266C18.7172 6.83364 18.7209 6.84101 18.9638 7.08389C19.2066 7.32676 19.2104 7.33413 19.1294 7.41512C19.0484 7.4961 19.0521 7.50347 19.295 7.74635C19.5379 7.98923 19.5416 7.9966 19.4606 8.07758C19.3796 8.15857 19.3833 8.16594 19.6262 8.40881C19.8691 8.65169 19.8728 8.65906 19.7918 8.74005C19.7108 8.82103 19.7146 8.8284 19.9575 9.07128C20.2003 9.31415 20.2041 9.32152 20.1231 9.40251C20.0421 9.48349 20.0458 9.49086 20.2887 9.73374C20.5316 9.97662 20.5353 9.98399 20.4543 10.065C20.3733 10.146 20.377 10.1533 20.6199 10.3962C20.8628 10.6391 20.8665 10.6464 20.7855 10.7274C20.7045 10.8084 20.7083 10.8158 20.9511 11.0587C21.194 11.3015 21.1977 11.3089 21.1168 11.3899C21.0358 11.4709 21.0395 11.4783 21.2824 11.7211C21.5253 11.964 21.529 11.9714 21.448 12.0524C21.3817 12.1186 21.3817 12.1517 21.448 12.218C21.5142 12.2842 21.5142 12.3173 21.448 12.3836C21.3817 12.4498 21.3817 12.483 21.448 12.5492C21.529 12.6302 21.5253 12.6376 21.2824 12.8804C21.0395 13.1233 21.0358 13.1307 21.1168 13.2117C21.1977 13.2927 21.194 13.3 20.9511 13.5429C20.7083 13.7858 20.7045 13.7932 20.7855 13.8741C20.8665 13.9551 20.8628 13.9625 20.6199 14.2054C20.377 14.4482 20.3733 14.4556 20.4543 14.5366C20.5353 14.6176 20.5316 14.625 20.2887 14.8678C20.0458 15.1107 20.0421 15.1181 20.1231 15.1991C20.2041 15.28 20.2003 15.2874 19.9575 15.5303C19.7146 15.7732 19.7108 15.7805 19.7918 15.8615C19.8728 15.9425 19.8691 15.9499 19.6262 16.1928C19.3833 16.4356 19.3796 16.443 19.4606 16.524C19.5416 16.605 19.5379 16.6123 19.295 16.8552C19.0521 17.0981 19.0484 17.1055 19.1294 17.1865C19.2104 17.2674 19.2066 17.2748 18.9638 17.5177C18.7209 17.7606 18.7172 17.7679 18.7981 17.8489C18.8791 17.9299 18.8754 17.9373 18.6325 18.1801C18.3896 18.423 18.3859 18.4304 18.4669 18.5114C18.5479 18.5924 18.5442 18.5997 18.3013 18.8426C18.0584 19.0855 18.0547 19.0929 18.1357 19.1738C18.2167 19.2548 18.2129 19.2622 17.9701 19.5051C17.7272 19.748 17.7235 19.7553 17.8044 19.8363C17.8854 19.9173 17.8817 19.9247 17.6388 20.1675C17.396 20.4104 17.3922 20.4178 17.4732 20.4988C17.5542 20.5798 17.5505 20.5871 17.3076 20.83C17.0647 21.0729 17.061 21.0802 17.142 21.1612C17.223 21.2422 17.2192 21.2496 16.9764 21.4925C16.7335 21.7353 16.7298 21.7427 16.8107 21.8237C16.8917 21.9047 16.888 21.9121 16.6451 22.1549C16.4023 22.3978 16.3985 22.4052 16.4795 22.4862C16.5458 22.5524 16.5458 22.5855 16.4795 22.6518C16.4133 22.718 16.4133 22.7511 16.4795 22.8174C16.5458 22.8836 16.5458 22.9168 16.4795 22.983C16.4023 23.0603 16.4077 23.0768 16.5623 23.2314C16.7169 23.386 16.7224 23.4026 16.6451 23.4799C16.5647 23.5603 16.569 23.5693 16.7942 23.7945C17.0194 24.0198 17.0285 24.024 17.1089 23.9436C17.1861 23.8663 17.2027 23.8718 17.3573 24.0264C17.5119 24.181 17.5284 24.1865 17.6057 24.1092C17.672 24.0429 17.7051 24.043 17.7713 24.1092C17.8376 24.1754 17.8707 24.1754 17.9369 24.1092C18.0032 24.0429 18.0363 24.0429 18.1026 24.1092C18.1688 24.1754 18.2019 24.1754 18.2682 24.1092C18.3344 24.043 18.3675 24.0429 18.4338 24.1092C18.5 24.1754 18.5332 24.1754 18.5994 24.1092C18.6656 24.0429 18.6988 24.043 18.765 24.1092C18.8313 24.1754 18.8644 24.1754 18.9306 24.1092C18.9969 24.0429 19.03 24.0429 19.0962 24.1092C19.1625 24.1754 19.1956 24.1754 19.2619 24.1092C19.3281 24.043 19.3612 24.043 19.4275 24.1092C19.4937 24.1754 19.5268 24.1754 19.5931 24.1092C19.6593 24.0429 19.6925 24.0429 19.7587 24.1092C19.825 24.1754 19.8581 24.1754 19.9243 24.1092C19.9906 24.0429 20.0237 24.0429 20.0899 24.1092C20.1562 24.1754 20.1893 24.1754 20.2556 24.1092C20.3218 24.043 20.3549 24.043 20.4212 24.1092C20.4874 24.1754 20.5205 24.1754 20.5868 24.1092C20.653 24.0429 20.6862 24.0429 20.7524 24.1092C20.8187 24.1754 20.8518 24.1754 20.918 24.1092C20.9843 24.043 21.0174 24.0429 21.0836 24.1092C21.1499 24.1754 21.183 24.1754 21.2493 24.1092C21.3155 24.0429 21.3486 24.043 21.4149 24.1092C21.4811 24.1754 21.5142 24.1754 21.5805 24.1092C21.6467 24.0429 21.6799 24.0429 21.7461 24.1092C21.8123 24.1754 21.8455 24.1754 21.9117 24.1092C21.978 24.043 22.0111 24.0429 22.0773 24.1092C22.1436 24.1754 22.1767 24.1754 22.2429 24.1092C22.3092 24.0429 22.3423 24.043 22.4086 24.1092C22.4748 24.1754 22.5079 24.1754 22.5742 24.1092C22.6404 24.0429 22.6736 24.0429 22.7398 24.1092C22.806 24.1754 22.8392 24.1754 22.9054 24.1092C22.9717 24.043 23.0048 24.043 23.071 24.1092C23.1373 24.1754 23.1704 24.1754 23.2366 24.1092C23.3029 24.0429 23.336 24.0429 23.4023 24.1092L23.4851 24.192L23.8695 23.8076C24.2401 23.437 24.2533 23.4178 24.2362 23.2752C24.2212 23.1493 24.2458 23.1 24.4018 22.944C24.5579 22.7879 24.5825 22.7386 24.5674 22.6128C24.5525 22.4868 24.5771 22.4376 24.7331 22.2815C24.8892 22.1255 24.9138 22.0762 24.8987 21.9503C24.8837 21.8244 24.9083 21.7751 25.0643 21.6191C25.2204 21.463 25.245 21.4137 25.2299 21.2878C25.2147 21.1595 25.2385 21.1136 25.4101 20.942C25.577 20.7752 25.6079 20.7182 25.6079 20.5786C25.6079 20.4461 25.6411 20.3799 25.7735 20.2474C25.906 20.1149 25.9392 20.0486 25.9392 19.9161C25.9392 19.7836 25.9723 19.7174 26.1048 19.5849C26.2373 19.4524 26.2704 19.3862 26.2704 19.2537C26.2704 19.1212 26.3035 19.0549 26.436 18.9224C26.5685 18.7899 26.6016 18.7237 26.6016 18.5912C26.6016 18.4587 26.6348 18.3925 26.7672 18.26C26.8997 18.1275 26.9329 18.0612 26.9329 17.9287C26.9329 17.7963 26.966 17.73 27.0985 17.5975C27.231 17.465 27.2641 17.3988 27.2641 17.2663C27.2641 17.1338 27.2972 17.0675 27.4297 16.935C27.5622 16.8026 27.5953 16.7363 27.5953 16.6038C27.5953 16.4713 27.6284 16.4051 27.7609 16.2726C27.8934 16.1401 27.9266 16.0738 27.9266 15.9414C27.9266 15.8089 27.9597 15.7426 28.0922 15.6101C28.2247 15.4776 28.2578 15.4114 28.2578 15.2789C28.2578 15.1464 28.2909 15.0802 28.4234 14.9477C28.5559 14.8152 28.589 14.7489 28.589 14.6164C28.589 14.4839 28.6221 14.4177 28.7546 14.2852C28.8871 14.1527 28.9202 14.0865 28.9202 13.954C28.9202 13.8215 28.9534 13.7552 29.0859 13.6227C29.2184 13.4902 29.2515 13.424 29.2515 13.2915C29.2515 13.1593 29.2848 13.0926 29.4156 12.9618C29.5686 12.8088 29.5741 12.792 29.4969 12.7148C29.4197 12.6376 29.4251 12.621 29.5797 12.4664L29.7453 12.3008L29.5797 12.1352C29.4251 11.9806 29.4197 11.964 29.4969 11.8867C29.5741 11.8096 29.5686 11.7928 29.4156 11.6398C29.2848 11.509 29.2515 11.4422 29.2515 11.3101C29.2515 11.1776 29.2184 11.1113 29.0859 10.9788C28.9534 10.8463 28.9202 10.7801 28.9202 10.6476C28.9202 10.5151 28.8871 10.4489 28.7546 10.3164C28.6221 10.1839 28.589 10.1176 28.589 9.98514C28.589 9.85265 28.5559 9.78641 28.4234 9.65391C28.2909 9.52142 28.2578 9.45517 28.2578 9.32268C28.2578 9.19019 28.2247 9.12394 28.0922 8.99145C27.9597 8.85896 27.9266 8.79271 27.9266 8.66022C27.9266 8.52773 27.8934 8.46148 27.7609 8.32899C27.6284 8.19649 27.5953 8.13025 27.5953 7.99776C27.5953 7.86526 27.5622 7.79902 27.4297 7.66652C27.2972 7.53403 27.2641 7.46778 27.2641 7.33529C27.2641 7.2028 27.231 7.13655 27.0985 7.00406C26.966 6.87157 26.9329 6.80532 26.9329 6.67283C26.9329 6.54034 26.8997 6.47409 26.7672 6.3416C26.6347 6.2091 26.6016 6.14286 26.6016 6.01036C26.6016 5.87787 26.5685 5.81162 26.436 5.67913C26.3035 5.54664 26.2704 5.48039 26.2704 5.3479C26.2704 5.21541 26.2373 5.14916 26.1048 5.01667C25.9723 4.88418 25.9392 4.81793 25.9392 4.68544C25.9392 4.55294 25.906 4.4867 25.7735 4.35421C25.6411 4.22171 25.6079 4.15547 25.6079 4.02297C25.6079 3.89048 25.5748 3.82424 25.4423 3.69174C25.3098 3.55925 25.2767 3.493 25.2767 3.36051C25.2767 3.22802 25.2436 3.16177 25.1111 3.02928C24.9786 2.89679 24.9455 2.83054 24.9455 2.69805C24.9455 2.56555 24.9123 2.49931 24.7799 2.36682C24.6474 2.23432 24.6142 2.16808 24.6142 2.03558C24.6142 1.90309 24.5811 1.83684 24.4486 1.70435C24.3161 1.57186 24.283 1.50561 24.283 1.37312C24.283 1.21479 24.2655 1.18995 23.884 0.808536L23.4851 0.409568L23.4023 0.492376ZM22.4027 3.40134C22.3876 3.5272 22.4122 3.57647 22.5683 3.73257C22.7243 3.88858 22.7489 3.93785 22.7339 4.0638C22.7188 4.18967 22.7434 4.23894 22.8995 4.39503C23.0555 4.55104 23.0801 4.60031 23.0651 4.72626C23.0501 4.85213 23.0747 4.9014 23.2308 5.05749C23.3868 5.2135 23.4114 5.26278 23.3964 5.38873C23.3813 5.51459 23.4059 5.56387 23.562 5.71996C23.718 5.87597 23.7426 5.92524 23.7276 6.05119C23.7125 6.17706 23.7371 6.22633 23.8932 6.38242C24.0492 6.53843 24.0738 6.5877 24.0588 6.71365C24.0438 6.83952 24.0684 6.88879 24.2245 7.04488C24.3805 7.20089 24.4051 7.25017 24.3901 7.37612C24.375 7.50199 24.3996 7.55126 24.5557 7.70735C24.7117 7.86336 24.7363 7.91263 24.7213 8.03858C24.7062 8.16445 24.7308 8.21372 24.8869 8.36981C25.0429 8.52582 25.0675 8.57509 25.0525 8.70104C25.0375 8.82691 25.0621 8.87618 25.2182 9.03227C25.3742 9.18828 25.3988 9.23756 25.3838 9.36351C25.3687 9.48938 25.3933 9.53865 25.5494 9.69474C25.7054 9.85075 25.73 9.90002 25.715 10.026C25.6999 10.1518 25.7245 10.2011 25.8806 10.3572C26.0366 10.5132 26.0612 10.5625 26.0462 10.6884C26.0312 10.8143 26.0558 10.8636 26.2118 11.0197C26.3679 11.1757 26.3925 11.2249 26.3775 11.3509C26.3624 11.4768 26.387 11.526 26.5431 11.6821C26.6991 11.8381 26.7237 11.8874 26.7087 12.0134C26.6989 12.0947 26.7224 12.1926 26.7608 12.2311C26.8164 12.2867 26.8101 12.3212 26.7296 12.4017C26.6644 12.4669 26.6308 12.5593 26.6347 12.6622C26.6396 12.7929 26.6097 12.8529 26.4691 12.9935C26.3284 13.1341 26.2985 13.194 26.3034 13.3247C26.3084 13.4554 26.2784 13.5153 26.1378 13.6559C25.9972 13.7965 25.9672 13.8565 25.9722 13.9872C25.9772 14.1178 25.9472 14.1778 25.8066 14.3184C25.666 14.459 25.636 14.519 25.641 14.6496C25.6459 14.7803 25.616 14.8403 25.4754 14.9809C25.3347 15.1215 25.3048 15.1814 25.3097 15.3121C25.3147 15.4428 25.2847 15.5027 25.1441 15.6433C25.0035 15.7839 24.9735 15.8439 24.9785 15.9746C24.9835 16.1052 24.9535 16.1652 24.8129 16.3058C24.6723 16.4464 24.6423 16.5064 24.6473 16.637C24.6522 16.7677 24.6223 16.8276 24.4817 16.9683C24.3411 17.1089 24.3111 17.1688 24.316 17.2995C24.321 17.4302 24.291 17.4901 24.1504 17.6307C24.0098 17.7713 23.9798 17.8313 23.9848 17.962C23.9898 18.0926 23.9598 18.1526 23.8192 18.2932C23.6786 18.4338 23.6486 18.4937 23.6536 18.6244C23.6586 18.7551 23.6286 18.815 23.488 18.9556C23.3474 19.0963 23.3174 19.1562 23.3223 19.2869C23.3272 19.4132 23.2962 19.4787 23.1734 19.6015C23.0521 19.7227 23.0183 19.7927 23.0184 19.9221C23.0184 20.0546 22.9852 20.1208 22.8527 20.2533C22.7203 20.3858 22.6871 20.4521 22.6871 20.5846C22.6871 20.7171 22.654 20.7833 22.5215 20.9158C22.389 21.0483 22.3559 21.1145 22.3559 21.247C22.3558 21.349 22.3182 21.4503 22.258 21.5105C22.1757 21.5928 22.147 21.5952 22.0773 21.5256C22.0111 21.4593 21.978 21.4593 21.9117 21.5256C21.8455 21.5918 21.8123 21.5918 21.7461 21.5256C21.6799 21.4593 21.6467 21.4593 21.5805 21.5256C21.5142 21.5918 21.4811 21.5918 21.4149 21.5256C21.3486 21.4593 21.3155 21.4593 21.2493 21.5256C21.183 21.5918 21.1499 21.5918 21.0836 21.5256C21.0174 21.4593 20.9843 21.4593 20.918 21.5256C20.8518 21.5918 20.8186 21.5918 20.7524 21.5256C20.6862 21.4593 20.653 21.4593 20.5868 21.5256C20.5205 21.5918 20.4874 21.5918 20.4212 21.5256C20.3549 21.4593 20.3218 21.4593 20.2556 21.5256C20.1899 21.5913 20.156 21.5917 20.0922 21.5278C20.0297 21.4653 19.988 21.4646 19.9067 21.5245C19.849 21.567 19.8778 21.5213 19.9707 21.4229C20.1281 21.2562 20.134 21.2384 20.0568 21.1612C19.9758 21.0803 19.9796 21.0729 20.2224 20.83C20.4653 20.5871 20.469 20.5798 20.388 20.4988C20.3071 20.4178 20.3108 20.4104 20.5537 20.1675C20.7965 19.9247 20.8003 19.9173 20.7193 19.8363C20.6383 19.7553 20.642 19.748 20.8849 19.5051C21.1278 19.2622 21.1315 19.2548 21.0505 19.1738C20.9695 19.0929 20.9733 19.0855 21.2161 18.8426C21.459 18.5997 21.4627 18.5924 21.3817 18.5114C21.3008 18.4304 21.3045 18.423 21.5474 18.1802C21.7902 17.9373 21.794 17.9299 21.713 17.8489C21.632 17.7679 21.6357 17.7606 21.8786 17.5177C22.1215 17.2748 22.1252 17.2674 22.0442 17.1865C21.9632 17.1055 21.9669 17.0981 22.2098 16.8552C22.4527 16.6123 22.4564 16.605 22.3754 16.524C22.2945 16.443 22.2982 16.4356 22.5411 16.1928C22.7839 15.9499 22.7877 15.9425 22.7067 15.8615C22.6257 15.7805 22.6294 15.7732 22.8723 15.5303C23.1152 15.2874 23.1189 15.28 23.0379 15.1991C22.9569 15.1181 22.9606 15.1107 23.2035 14.8678C23.4464 14.625 23.4501 14.6176 23.3691 14.5366C23.2882 14.4556 23.2919 14.4482 23.5348 14.2054C23.7776 13.9625 23.7814 13.9551 23.7004 13.8741C23.6194 13.7932 23.6231 13.7858 23.866 13.5429C24.1077 13.3012 24.1122 13.2922 24.0331 13.2132C23.955 13.1351 23.9611 13.1215 24.1821 12.8819C24.3936 12.6526 24.4073 12.625 24.3486 12.5469C24.3023 12.4854 24.3069 12.4396 24.3652 12.3813C24.4283 12.3181 24.4283 12.2835 24.3652 12.2203C24.3069 12.162 24.3023 12.1162 24.3486 12.0547C24.4073 11.9766 24.3936 11.9489 24.1821 11.7196C23.9611 11.4801 23.955 11.4665 24.0331 11.3884C24.1122 11.3093 24.1077 11.3004 23.866 11.0587C23.6231 10.8158 23.6194 10.8084 23.7004 10.7274C23.7814 10.6465 23.7776 10.6391 23.5348 10.3962C23.2919 10.1533 23.2882 10.146 23.3691 10.065C23.4501 9.98399 23.4464 9.97662 23.2035 9.73374C22.9606 9.49086 22.9569 9.48349 23.0379 9.40251C23.1189 9.32152 23.1152 9.31415 22.8723 9.07128C22.6294 8.8284 22.6257 8.82103 22.7067 8.74005C22.7877 8.65906 22.7839 8.65169 22.5411 8.40881C22.2982 8.16594 22.2945 8.15857 22.3754 8.07758C22.4564 7.9966 22.4527 7.98923 22.2098 7.74635C21.967 7.50347 21.9632 7.4961 22.0442 7.41512C22.1252 7.33413 22.1215 7.32676 21.8786 7.08389C21.6357 6.84101 21.632 6.83364 21.713 6.75265C21.794 6.67167 21.7902 6.6643 21.5474 6.42142C21.3045 6.17855 21.3008 6.17118 21.3817 6.09019C21.4627 6.00921 21.459 6.00184 21.2161 5.75896C20.9733 5.51608 20.9695 5.50871 21.0505 5.42773C21.1315 5.34674 21.1278 5.33937 20.8849 5.0965C20.642 4.85362 20.6383 4.84625 20.7193 4.76527C20.8003 4.68428 20.7965 4.67691 20.5537 4.43403C20.3108 4.19116 20.3071 4.18379 20.3881 4.1028C20.469 4.02181 20.4653 4.01445 20.2224 3.77157C19.9796 3.52869 19.9758 3.52132 20.0568 3.44034C20.134 3.36316 20.1281 3.34536 19.9707 3.17866C19.8778 3.08029 19.849 3.03458 19.9067 3.07706C19.988 3.13701 20.0297 3.13627 20.0922 3.07375C20.156 3.0099 20.1899 3.01032 20.2556 3.07598C20.3218 3.14223 20.3549 3.14223 20.4212 3.07598C20.4874 3.00974 20.5205 3.00974 20.5868 3.07598C20.653 3.14223 20.6862 3.14223 20.7524 3.07598C20.8187 3.00974 20.8518 3.00974 20.918 3.07598C20.9843 3.14223 21.0174 3.14223 21.0836 3.07598C21.1499 3.00974 21.183 3.00974 21.2493 3.07598C21.3155 3.14223 21.3486 3.14223 21.4149 3.07598C21.4811 3.00974 21.5142 3.00974 21.5805 3.07598C21.6467 3.14223 21.6799 3.14223 21.7461 3.07598C21.8123 3.00974 21.8455 3.00974 21.9117 3.07598C21.978 3.14223 22.0111 3.14223 22.0773 3.07598C22.1516 3.00171 22.1736 3.00659 22.2902 3.12327C22.3895 3.22255 22.4161 3.28839 22.4027 3.40134ZM15.4546 5.79018C15.3831 5.86164 15.3561 5.85585 15.2227 5.74049C15.1076 5.64088 15.047 5.61959 14.9675 5.65056C14.9101 5.67292 14.8282 5.67069 14.7853 5.64568C14.7425 5.62059 14.6702 5.62183 14.6246 5.64849C14.5791 5.67516 14.5045 5.67516 14.459 5.64849C14.4135 5.62183 14.3389 5.62183 14.2934 5.64849C14.2478 5.67516 14.1733 5.67516 14.1278 5.64849C14.0822 5.62183 14.0077 5.62183 13.9622 5.64849C13.9166 5.67516 13.8421 5.67516 13.7965 5.64849C13.751 5.62183 13.6765 5.62183 13.6309 5.64849C13.5854 5.67516 13.5109 5.67516 13.4653 5.64849C13.4198 5.62183 13.3452 5.62183 13.2997 5.64849C13.2542 5.67516 13.1796 5.67516 13.1341 5.64849C13.0885 5.62183 13.014 5.62183 12.9685 5.64849C12.9229 5.67516 12.8484 5.67516 12.8028 5.64849C12.7573 5.62183 12.6828 5.62183 12.6372 5.64849C12.5917 5.67516 12.5172 5.67516 12.4716 5.64849C12.4261 5.62183 12.3515 5.62183 12.306 5.6485C12.2605 5.67516 12.1859 5.67516 12.1404 5.6485C12.0948 5.62183 12.0203 5.62183 11.9748 5.6485C11.9292 5.67516 11.8547 5.67516 11.8092 5.6485C11.7636 5.62183 11.6891 5.62183 11.6435 5.64849C11.598 5.67516 11.5235 5.67516 11.4779 5.6485C11.4324 5.62183 11.3578 5.62183 11.3123 5.6485C11.2668 5.67516 11.1922 5.67516 11.1467 5.64849C11.1011 5.62183 11.0266 5.62183 10.9811 5.6485C10.9355 5.67516 10.861 5.67516 10.8155 5.6485C10.7699 5.62183 10.6954 5.62183 10.6498 5.6485C10.6043 5.67516 10.5298 5.67516 10.4842 5.6485C10.4387 5.62183 10.3642 5.62183 10.3186 5.64849C10.2731 5.67516 10.1985 5.67516 10.153 5.6485C10.1074 5.62183 10.0312 5.62291 9.98357 5.65081C9.93579 5.67872 9.88478 5.68949 9.86995 5.67466C9.7994 5.60411 9.62435 5.65827 9.49053 5.79208C9.37534 5.90727 9.31581 5.93269 9.1954 5.91828C8.98201 5.89286 8.6054 6.28471 8.70982 6.42374C8.76621 6.49885 8.75461 6.528 8.61045 6.67217C8.45833 6.82428 8.45286 6.84118 8.52996 6.91827C8.5962 6.98452 8.5962 7.01764 8.52996 7.08389C8.4527 7.16115 8.45816 7.17771 8.61277 7.33231C8.76737 7.48691 8.77283 7.50348 8.69557 7.58074C8.6131 7.66321 8.61384 7.66462 8.92744 7.97821C9.24103 8.29181 9.24244 8.29255 9.32491 8.21008C9.40217 8.13282 9.41874 8.13828 9.57334 8.29288C9.72794 8.44749 9.7445 8.45295 9.82176 8.37569C9.88801 8.30944 9.92113 8.30945 9.98738 8.37569C10.0536 8.44194 10.0867 8.44194 10.153 8.37569C10.2192 8.30945 10.2524 8.30944 10.3186 8.37569C10.3849 8.44194 10.418 8.44194 10.4842 8.37569C10.5505 8.30944 10.5836 8.30944 10.6498 8.37569C10.7161 8.44194 10.7492 8.44194 10.8155 8.37569C10.8817 8.30944 10.9148 8.30944 10.9811 8.37569C11.0473 8.44194 11.0804 8.44194 11.1467 8.37569C11.2129 8.30944 11.2461 8.30944 11.3123 8.37569C11.3786 8.44194 11.4117 8.44194 11.4779 8.37569C11.5442 8.30944 11.5773 8.30944 11.6435 8.37569C11.7098 8.44194 11.7429 8.44194 11.8092 8.37569C11.8754 8.30944 11.9085 8.30944 11.9748 8.37569C12.041 8.44194 12.0741 8.44194 12.1404 8.37569C12.2066 8.30944 12.2398 8.30944 12.306 8.37569C12.3722 8.44194 12.4054 8.44194 12.4716 8.37569C12.5379 8.30944 12.571 8.30944 12.6372 8.37569C12.7035 8.44194 12.7366 8.44194 12.8028 8.37569C12.8691 8.30944 12.9022 8.30944 12.9685 8.37569C13.0347 8.44194 13.0678 8.44194 13.1341 8.37569C13.2003 8.30944 13.2334 8.30944 13.2997 8.37569C13.3659 8.44194 13.3991 8.44194 13.4653 8.37569C13.5316 8.30944 13.5647 8.30944 13.6309 8.37569C13.6972 8.44194 13.7303 8.44194 13.7965 8.37569C13.8628 8.30944 13.8959 8.30944 13.9622 8.37569C14.0284 8.44194 14.0615 8.44194 14.1278 8.37569C14.194 8.30944 14.2271 8.30944 14.2934 8.37569C14.3596 8.44194 14.3928 8.44194 14.459 8.37569C14.5253 8.30944 14.5584 8.30944 14.6246 8.37569C14.6909 8.44194 14.724 8.44194 14.7902 8.37569C14.8565 8.30944 14.8896 8.30944 14.9559 8.37569C15.0221 8.44194 15.0552 8.44194 15.1215 8.37569C15.1877 8.30945 15.2208 8.30944 15.2871 8.37569L15.3699 8.4585L15.933 7.8954L16.4961 7.33231L16.4133 7.2495C16.347 7.18326 16.347 7.15013 16.4133 7.08389C16.4795 7.01764 16.4795 6.98452 16.4133 6.91827C16.347 6.85202 16.347 6.8189 16.4133 6.75266L16.4961 6.66985L16.0158 6.18956L15.5355 5.70927L15.4546 5.79018ZM17.9895 10.9788C17.9017 10.9821 17.7982 10.953 17.7592 10.9141C17.7059 10.8608 17.6681 10.8637 17.6057 10.9262C17.5395 10.9924 17.5063 10.9924 17.4401 10.9262C17.3738 10.8599 17.3407 10.8599 17.2745 10.9262C17.2082 10.9924 17.1751 10.9924 17.1089 10.9262C17.0426 10.8599 17.0095 10.8599 16.9432 10.9262C16.877 10.9924 16.8439 10.9924 16.7776 10.9262C16.7114 10.8599 16.6783 10.8599 16.612 10.9262C16.5458 10.9924 16.5126 10.9924 16.4464 10.9262C16.3801 10.8599 16.347 10.8599 16.2808 10.9262C16.2145 10.9924 16.1814 10.9924 16.1152 10.9262C16.0489 10.8599 16.0158 10.8599 15.9495 10.9262C15.8833 10.9924 15.8502 10.9924 15.7839 10.9262C15.7177 10.8599 15.6846 10.8599 15.6183 10.9262C15.5521 10.9924 15.5189 10.9924 15.4527 10.9262C15.3865 10.8599 15.3533 10.8599 15.2871 10.9262C15.2208 10.9924 15.1877 10.9924 15.1215 10.9262C15.0552 10.8599 15.0221 10.8599 14.9559 10.9262C14.8896 10.9924 14.8565 10.9924 14.7902 10.9262C14.724 10.8599 14.6909 10.8599 14.6246 10.9262C14.5584 10.9924 14.5252 10.9924 14.459 10.9262C14.3928 10.8599 14.3596 10.8599 14.2934 10.9262C14.2271 10.9924 14.194 10.9924 14.1278 10.9262C14.0615 10.8599 14.0284 10.8599 13.9622 10.9262C13.8959 10.9924 13.8628 10.9924 13.7965 10.9262C13.7303 10.8599 13.6972 10.8599 13.6309 10.9262C13.5647 10.9924 13.5316 10.9924 13.4653 10.9262C13.3991 10.8599 13.3659 10.8599 13.2997 10.9262C13.2334 10.9924 13.2003 10.9924 13.1341 10.9262C13.0678 10.8599 13.0347 10.8599 12.9685 10.9262C12.9022 10.9924 12.8691 10.9924 12.8028 10.9262C12.7366 10.8599 12.7035 10.8599 12.6372 10.9262C12.571 10.9924 12.5379 10.9924 12.4716 10.9262C12.4054 10.8599 12.3722 10.8599 12.306 10.9262C12.2397 10.9924 12.2066 10.9924 12.1404 10.9262C12.0741 10.8599 12.041 10.8599 11.9748 10.9262C11.9085 10.9924 11.8754 10.9924 11.8091 10.9262C11.7429 10.8599 11.7098 10.8599 11.6435 10.9262C11.5773 10.9924 11.5442 10.9924 11.4779 10.9262C11.4117 10.8599 11.3785 10.8599 11.3123 10.9262C11.2461 10.9924 11.2129 10.9924 11.1467 10.9262C11.0804 10.8599 11.0473 10.8599 10.9811 10.9262C10.9148 10.9924 10.8817 10.9924 10.8155 10.9262C10.7492 10.8599 10.7161 10.8599 10.6498 10.9262C10.5836 10.9924 10.5505 10.9924 10.4842 10.9262C10.418 10.8599 10.3849 10.8599 10.3186 10.9262C10.2524 10.9924 10.2192 10.9924 10.153 10.9262C10.0867 10.8599 10.0536 10.8599 9.98737 10.9262C9.92113 10.9924 9.88801 10.9924 9.82176 10.9262C9.75551 10.8599 9.72239 10.8599 9.65614 10.9262C9.5899 10.9924 9.55677 10.9924 9.49053 10.9262C9.42428 10.8599 9.39116 10.8599 9.32491 10.9262C9.25866 10.9924 9.22554 10.9924 9.15929 10.9262C9.09305 10.8599 9.05992 10.8599 8.99368 10.9262C8.92743 10.9924 8.89431 10.9924 8.82806 10.9262C8.76182 10.8599 8.72869 10.8599 8.66245 10.9262C8.5962 10.9924 8.56308 10.9924 8.49683 10.9262C8.43058 10.8599 8.39746 10.8599 8.33122 10.9262C8.26497 10.9924 8.23185 10.9924 8.1656 10.9262C8.09935 10.8599 8.06623 10.8599 7.99998 10.9262C7.93374 10.9924 7.90062 10.9924 7.83437 10.9262C7.76812 10.8599 7.735 10.8599 7.66875 10.9262C7.60251 10.9924 7.56938 10.9924 7.50314 10.9262C7.43689 10.8599 7.40377 10.8599 7.33752 10.9262C7.27128 10.9924 7.23815 10.9924 7.17191 10.9262C7.10566 10.8599 7.07254 10.8599 7.00629 10.9262C6.94004 10.9924 6.90692 10.9924 6.84067 10.9262C6.77443 10.8599 6.7413 10.8599 6.67506 10.9262C6.60881 10.9924 6.57569 10.9924 6.50944 10.9262C6.44319 10.8599 6.41007 10.8599 6.34383 10.9262C6.27758 10.9924 6.24446 10.9924 6.17821 10.9262C6.11196 10.8599 6.07884 10.8599 6.0126 10.9262C5.94635 10.9924 5.91322 10.9924 5.84698 10.9262C5.78073 10.8599 5.74761 10.8599 5.68136 10.9262C5.61512 10.9924 5.58199 10.9924 5.51575 10.9262C5.4495 10.8599 5.41638 10.8599 5.35013 10.9262C5.28389 10.9924 5.25076 10.9924 5.18452 10.9262C5.11827 10.8599 5.08515 10.8599 5.0189 10.9262C4.95265 10.9924 4.91953 10.9924 4.85328 10.9262C4.78704 10.8599 4.75391 10.8599 4.68767 10.9262C4.62142 10.9924 4.5883 10.9924 4.52205 10.9262C4.45581 10.8599 4.42268 10.8599 4.35644 10.9262C4.29019 10.9924 4.25707 10.9924 4.19082 10.9262C4.12457 10.8599 4.09145 10.8599 4.0252 10.9262C3.95896 10.9924 3.92583 10.9924 3.85959 10.9262C3.79334 10.8599 3.76022 10.8599 3.69397 10.9262C3.62773 10.9924 3.5946 10.9924 3.52836 10.9262C3.46211 10.8599 3.42899 10.8599 3.36274 10.9262C3.29649 10.9924 3.26337 10.9924 3.19712 10.9262C3.13088 10.8599 3.09776 10.8599 3.03151 10.9262C2.96526 10.9924 2.93214 10.9924 2.86589 10.9262C2.79965 10.8599 2.76652 10.8599 2.70028 10.9262C2.63403 10.9924 2.60091 10.9924 2.53466 10.9262C2.46842 10.8599 2.43529 10.8599 2.36905 10.9262C2.3028 10.9924 2.26968 10.9924 2.20343 10.9262C2.13718 10.8599 2.10406 10.8599 2.03781 10.9262C1.97157 10.9924 1.93844 10.9924 1.8722 10.9262C1.79121 10.8452 1.78384 10.8489 1.54097 11.0918C1.29809 11.3347 1.29072 11.3384 1.20973 11.2574C1.08776 11.1354 0.846541 11.3767 0.872625 11.5945C0.887945 11.7226 0.863932 11.7688 0.693926 11.9388C0.506615 12.1261 0.501396 12.139 0.580395 12.218C0.646642 12.2842 0.646644 12.3173 0.580396 12.3836C0.499493 12.4645 0.503302 12.4721 0.743693 12.7125C0.973734 12.9425 0.985656 12.9642 0.925869 13.0437C0.831385 13.1695 1.08486 13.4255 1.21048 13.3312C1.2865 13.274 1.31606 13.2889 1.54171 13.4968C1.76869 13.706 1.79651 13.7198 1.87452 13.6612C1.93604 13.6149 1.98184 13.6194 2.04013 13.6777C2.1039 13.7415 2.13785 13.741 2.20343 13.6754C2.26968 13.6092 2.3028 13.6092 2.36905 13.6754C2.43529 13.7416 2.46842 13.7416 2.53466 13.6754C2.60091 13.6092 2.63403 13.6092 2.70028 13.6754C2.76652 13.7416 2.79965 13.7416 2.86589 13.6754C2.93214 13.6092 2.96527 13.6092 3.03151 13.6754C3.09776 13.7416 3.13088 13.7416 3.19713 13.6754C3.26337 13.6092 3.2965 13.6092 3.36274 13.6754C3.42899 13.7416 3.46211 13.7416 3.52836 13.6754C3.5946 13.6092 3.62773 13.6092 3.69397 13.6754C3.76022 13.7416 3.79334 13.7416 3.85959 13.6754C3.92584 13.6092 3.95896 13.6092 4.02521 13.6754C4.09145 13.7416 4.12458 13.7416 4.19082 13.6754C4.25707 13.6092 4.29019 13.6092 4.35644 13.6754C4.42268 13.7416 4.45581 13.7416 4.52205 13.6754C4.5883 13.6092 4.62142 13.6092 4.68767 13.6754C4.75391 13.7416 4.78704 13.7416 4.85329 13.6754C4.91953 13.6092 4.95266 13.6092 5.0189 13.6754C5.08515 13.7416 5.11827 13.7416 5.18452 13.6754C5.25076 13.6092 5.28389 13.6092 5.35013 13.6754C5.41638 13.7416 5.4495 13.7416 5.51575 13.6754C5.582 13.6092 5.61512 13.6092 5.68137 13.6754C5.74761 13.7416 5.78073 13.7416 5.84698 13.6754C5.91323 13.6092 5.94635 13.6092 6.0126 13.6754C6.07884 13.7416 6.11197 13.7416 6.17821 13.6754C6.24446 13.6092 6.27758 13.6092 6.34383 13.6754C6.41007 13.7416 6.4432 13.7416 6.50944 13.6754C6.57569 13.6092 6.60881 13.6092 6.67506 13.6754C6.74131 13.7416 6.77443 13.7416 6.84068 13.6754C6.90692 13.6092 6.94005 13.6092 7.00629 13.6754C7.07254 13.7416 7.10566 13.7416 7.17191 13.6754C7.23815 13.6092 7.27128 13.6092 7.33752 13.6754C7.40377 13.7416 7.43689 13.7416 7.50314 13.6754C7.56939 13.6092 7.60251 13.6092 7.66876 13.6754C7.735 13.7416 7.76813 13.7416 7.83437 13.6754C7.90062 13.6092 7.93374 13.6092 7.99999 13.6754C8.06623 13.7416 8.09936 13.7416 8.1656 13.6754C8.23185 13.6092 8.26497 13.6092 8.33122 13.6754C8.39746 13.7416 8.43059 13.7416 8.49684 13.6754C8.56308 13.6092 8.5962 13.6092 8.66245 13.6754C8.7287 13.7416 8.76182 13.7416 8.82807 13.6754C8.89431 13.6092 8.92743 13.6092 8.99368 13.6754C9.05993 13.7416 9.09305 13.7416 9.1593 13.6754C9.22554 13.6092 9.25867 13.6092 9.32491 13.6754C9.39116 13.7416 9.42428 13.7416 9.49053 13.6754C9.55677 13.6092 9.5899 13.6092 9.65614 13.6754C9.72239 13.7416 9.75551 13.7416 9.82176 13.6754C9.88801 13.6092 9.92113 13.6092 9.98738 13.6754C10.0536 13.7416 10.0867 13.7416 10.153 13.6754C10.2192 13.6092 10.2524 13.6092 10.3186 13.6754C10.3849 13.7416 10.418 13.7416 10.4842 13.6754C10.5505 13.6092 10.5836 13.6092 10.6498 13.6754C10.7161 13.7416 10.7492 13.7416 10.8155 13.6754C10.8817 13.6092 10.9148 13.6092 10.9811 13.6754C11.0473 13.7416 11.0804 13.7416 11.1467 13.6754C11.2129 13.6092 11.2461 13.6092 11.3123 13.6754C11.3786 13.7416 11.4117 13.7416 11.4779 13.6754C11.5442 13.6092 11.5773 13.6092 11.6435 13.6754C11.7098 13.7416 11.7429 13.7416 11.8091 13.6754C11.8754 13.6092 11.9085 13.6092 11.9748 13.6754C12.041 13.7416 12.0741 13.7416 12.1404 13.6754C12.2066 13.6092 12.2398 13.6092 12.306 13.6754C12.3722 13.7416 12.4054 13.7416 12.4716 13.6754C12.5379 13.6092 12.571 13.6092 12.6372 13.6754C12.7035 13.7416 12.7366 13.7416 12.8028 13.6754C12.8691 13.6092 12.9022 13.6092 12.9685 13.6754C13.0347 13.7416 13.0678 13.7416 13.1341 13.6754C13.2003 13.6092 13.2334 13.6092 13.2997 13.6754C13.3659 13.7416 13.3991 13.7416 13.4653 13.6754C13.5316 13.6092 13.5647 13.6092 13.6309 13.6754C13.6972 13.7416 13.7303 13.7416 13.7965 13.6754C13.8628 13.6092 13.8959 13.6092 13.9622 13.6754C14.0284 13.7416 14.0615 13.7416 14.1278 13.6754C14.194 13.6092 14.2271 13.6092 14.2934 13.6754C14.3596 13.7416 14.3928 13.7416 14.459 13.6754C14.5253 13.6092 14.5584 13.6092 14.6246 13.6754C14.6909 13.7416 14.724 13.7416 14.7902 13.6754C14.8565 13.6092 14.8896 13.6092 14.9559 13.6754C15.0221 13.7416 15.0552 13.7416 15.1215 13.6754C15.1877 13.6092 15.2208 13.6092 15.2871 13.6754C15.3533 13.7416 15.3865 13.7416 15.4527 13.6754C15.5189 13.6092 15.5521 13.6092 15.6183 13.6754C15.6846 13.7416 15.7177 13.7416 15.7839 13.6754C15.8502 13.6092 15.8833 13.6091 15.9495 13.6754C16.0158 13.7416 16.0489 13.7416 16.1152 13.6754C16.1814 13.6091 16.2145 13.6092 16.2808 13.6754C16.347 13.7416 16.3801 13.7416 16.4464 13.6754C16.5126 13.6091 16.5458 13.6092 16.612 13.6754C16.6783 13.7416 16.7114 13.7416 16.7776 13.6754C16.8439 13.6092 16.877 13.6092 16.9432 13.6754C17.0095 13.7416 17.0426 13.7416 17.1089 13.6754C17.1751 13.6092 17.2082 13.6091 17.2745 13.6754C17.3407 13.7416 17.3738 13.7416 17.4401 13.6754C17.5063 13.6091 17.5395 13.6092 17.6057 13.6754C17.6715 13.7412 17.7052 13.7416 17.7698 13.6769C17.8145 13.6322 17.9257 13.5956 18.0168 13.5956C18.1782 13.5956 18.1944 13.5836 18.6642 13.1138L19.1459 12.632L19.0631 12.5492C18.9969 12.483 18.9969 12.4498 19.0631 12.3836C19.1294 12.3173 19.1294 12.2842 19.0631 12.218C18.9969 12.1517 18.9969 12.1186 19.0631 12.0524L19.1459 11.9696L18.6475 11.4711C18.1584 10.982 18.146 10.9728 17.9895 10.9788ZM15.2871 16.2259C15.2208 16.2921 15.1877 16.2921 15.1215 16.2259C15.0552 16.1596 15.0221 16.1596 14.9559 16.2259C14.8896 16.2921 14.8565 16.2921 14.7902 16.2259C14.724 16.1596 14.6909 16.1596 14.6246 16.2259C14.5584 16.2921 14.5252 16.2921 14.459 16.2259C14.3928 16.1596 14.3596 16.1596 14.2934 16.2259C14.2271 16.2921 14.194 16.2921 14.1278 16.2259C14.0615 16.1596 14.0284 16.1596 13.9622 16.2259C13.8959 16.2921 13.8628 16.2921 13.7965 16.2259C13.7303 16.1596 13.6972 16.1596 13.6309 16.2259C13.5647 16.2921 13.5316 16.2921 13.4653 16.2259C13.3991 16.1596 13.3659 16.1596 13.2997 16.2259C13.2334 16.2921 13.2003 16.2921 13.1341 16.2259C13.0678 16.1596 13.0347 16.1596 12.9685 16.2259C12.9022 16.2921 12.8691 16.2921 12.8028 16.2259C12.7366 16.1596 12.7035 16.1596 12.6372 16.2259C12.571 16.2921 12.5379 16.2921 12.4716 16.2259C12.4054 16.1596 12.3722 16.1596 12.306 16.2259C12.2397 16.2921 12.2066 16.2921 12.1404 16.2259C12.0741 16.1596 12.041 16.1596 11.9748 16.2259C11.9085 16.2921 11.8754 16.2921 11.8091 16.2259C11.7429 16.1596 11.7098 16.1596 11.6435 16.2259C11.5773 16.2921 11.5442 16.2921 11.4779 16.2259C11.4117 16.1596 11.3785 16.1596 11.3123 16.2259C11.2461 16.2921 11.2129 16.2921 11.1467 16.2259C11.0804 16.1596 11.0473 16.1596 10.9811 16.2259C10.9148 16.2921 10.8817 16.2921 10.8155 16.2259C10.7492 16.1596 10.7161 16.1596 10.6498 16.2259C10.5836 16.2921 10.5505 16.2921 10.4842 16.2259C10.418 16.1596 10.3849 16.1596 10.3186 16.2259C10.2524 16.2921 10.2192 16.2921 10.153 16.2259C10.0867 16.1596 10.0536 16.1596 9.98737 16.2259C9.92113 16.2921 9.888 16.2921 9.82176 16.2259C9.7445 16.1486 9.72794 16.1541 9.57334 16.3087C9.41873 16.4633 9.40217 16.4688 9.32491 16.3915C9.24268 16.3093 9.24011 16.3107 8.94052 16.6103C8.65822 16.8926 8.64001 16.9214 8.65657 17.0598C8.66924 17.1662 8.64233 17.2397 8.56068 17.3213C8.46164 17.4204 8.45775 17.4455 8.52996 17.5177C8.5962 17.5839 8.5962 17.6171 8.52996 17.6833C8.45319 17.7601 8.45874 17.7777 8.6049 17.9239C8.73673 18.0557 8.75577 18.0992 8.72083 18.1888C8.6521 18.3651 9.03649 18.7667 9.15772 18.6454C9.23598 18.5672 9.25328 18.5722 9.39464 18.7136C9.51794 18.8369 9.57565 18.8628 9.69515 18.8485C9.77655 18.8388 9.86374 18.8515 9.88883 18.8766C9.99127 18.979 15.1677 18.9289 15.2721 18.8245C15.3543 18.7423 15.3831 18.7398 15.4527 18.8095L15.5355 18.8923L16.0158 18.412L16.4961 17.9317L16.4133 17.8489C16.347 17.7827 16.347 17.7496 16.4133 17.6833C16.4795 17.6171 16.4795 17.5839 16.4133 17.5177C16.347 17.4514 16.347 17.4183 16.4133 17.3521L16.4961 17.2693L15.933 16.7062L15.3699 16.1431L15.2871 16.2259Z" fill="white"/>
</svg>
